<svg width="16" height="16" viewBox="0 0 16 16" xmlns="http://www.w3.org/2000/svg" class="icon icon-alarm" aria-hidden="true" focusable="false" fill="currentColor"><path d="M5.712.384A4 4 0 0 0 .166 5.142a.5.5 0 0 0 .958-.284 3 3 0 0 1 4.16-3.57.5.5 0 0 0 .428-.904ZM12 0a4 4 0 0 1 3.834 5.142.5.5 0 0 1-.958-.284 3 3 0 0 0-4.16-3.57.5.5 0 1 1-.428-.904A3.991 3.991 0 0 1 12 0ZM5.784 6.089a.5.5 0 0 0-.638.765l3 3 .06.05A.5.5 0 0 0 8.5 10h3l.09-.008A.5.5 0 0 0 12 9.5l-.008-.09A.5.5 0 0 0 11.5 9H8.707L5.854 6.146l-.07-.057Z"/><path fill-rule="evenodd" clip-rule="evenodd" d="M8 2a7 7 0 0 0-5.29 11.584l-1.564 1.562-.057.07a.5.5 0 0 0 .765.638l1.562-1.563A6.973 6.973 0 0 0 8 16a6.972 6.972 0 0 0 4.584-1.71l1.563 1.564.069.057a.5.5 0 0 0 .638-.765l-1.563-1.563A7 7 0 0 0 8 2Zm4.25 11.235a6 6 0 1 0-8.505-.003l.013.01.01.012A5.981 5.981 0 0 0 8 15a5.98 5.98 0 0 0 4.235-1.75l.008-.008.008-.008Z"/></svg>