<svg width="16" height="16" viewBox="0 0 16 16" xmlns="http://www.w3.org/2000/svg" class="icon icon-algo-setting" aria-hidden="true" focusable="false" fill="currentColor"><path fill-rule="evenodd" clip-rule="evenodd" d="M8 8.182a.5.5 0 0 1 .5.5v1.363a.5.5 0 1 1-1 0V8.682a.5.5 0 0 1 .5-.5Zm2.764 1.144a.5.5 0 0 1 0 .707l-.965.965a.5.5 0 1 1-.707-.707l.964-.965a.5.5 0 0 1 .708 0Z"/><path fill-rule="evenodd" clip-rule="evenodd" d="M8 10.545a1.545 1.545 0 1 0 .001 3.091A1.545 1.545 0 0 0 8 10.546Zm-2.545 1.546a2.545 2.545 0 1 1 5.091 0 2.545 2.545 0 0 1-5.09 0Z"/><path fill-rule="evenodd" clip-rule="evenodd" d="M9.545 12.09a.5.5 0 0 1 .5-.5h1.363a.5.5 0 1 1 0 1h-1.363a.5.5 0 0 1-.5-.5Zm-.453 1.093a.5.5 0 0 1 .707 0l.965.965a.5.5 0 0 1-.708.707l-.964-.965a.5.5 0 0 1 0-.707ZM8 13.637a.5.5 0 0 1 .5.5V15.5a.5.5 0 0 1-1 0v-1.363a.5.5 0 0 1 .5-.5Zm-1.092-.454a.5.5 0 0 1 0 .707l-.965.965a.5.5 0 1 1-.707-.707l.965-.965a.5.5 0 0 1 .707 0ZM4.092 12.09a.5.5 0 0 1 .5-.5h1.364a.5.5 0 0 1 0 1H4.592a.5.5 0 0 1-.5-.5Zm1.144-2.764a.5.5 0 0 1 .707 0l.965.965a.5.5 0 1 1-.707.707l-.965-.964a.5.5 0 0 1 0-.708ZM8 2.728a.5.5 0 0 1 .5.5v2.727a.5.5 0 0 1-1 0V3.228a.5.5 0 0 1 .5-.5Z"/><path fill-rule="evenodd" clip-rule="evenodd" d="M8 1a.864.864 0 1 0 0 1.727A.864.864 0 0 0 8 1Zm-1.863.864a1.864 1.864 0 1 1 3.727 0 1.864 1.864 0 0 1-3.727 0ZM1.864 1a.864.864 0 1 0 0 1.727.864.864 0 0 0 0-1.727ZM0 1.864a1.864 1.864 0 1 1 3.727 0 1.864 1.864 0 0 1-3.727 0ZM14.137 1a.864.864 0 1 0 0 1.727.864.864 0 0 0 0-1.727Zm-1.864.864a1.864 1.864 0 1 1 3.727 0 1.864 1.864 0 0 1-3.727 0Z"/><path fill-rule="evenodd" clip-rule="evenodd" d="M1.864 2.727a.5.5 0 0 1 .5.5v2.52l1.6 1.602a.5.5 0 1 1-.706.708L1.51 6.308a.5.5 0 0 1-.147-.353V3.228a.5.5 0 0 1 .5-.5Zm12.273 0a.5.5 0 0 1 .5.5v2.728a.5.5 0 0 1-.147.353l-1.748 1.749a.5.5 0 0 1-.707-.708l1.601-1.601v-2.52a.5.5 0 0 1 .5-.5Z"/></svg>