<svg width="16" height="16" viewBox="0 0 16 16" xmlns="http://www.w3.org/2000/svg" class="icon icon-apple" aria-hidden="true" focusable="false" fill="currentColor"><path d="M12.315.014a4.17 4.17 0 0 0-2.767.768 4.172 4.172 0 0 0-1.217 2.6 4.177 4.177 0 0 0 2.767-.767A4.174 4.174 0 0 0 12.315.014Z"/><path fill-rule="evenodd" clip-rule="evenodd" d="M3.37 5.335C.616 7.367.565 11.885 5.085 15.542c.336.27.72.418 1.13.45.595.048 1.194-.14 1.779-.475l.174-.104.163-.107c.106.071.216.141.338.21.584.334 1.183.522 1.777.476.411-.033.795-.18 1.13-.45 4.52-3.657 4.47-8.175 1.731-10.196l-.234-.152a5.219 5.219 0 0 0-4.7-.383l-.042.017-.261-.102a5.215 5.215 0 0 0-4.7.61Zm9.329.867c2.165 1.599 2.207 5.295-1.783 8.523a.974.974 0 0 1-.552.22c-.347.026-.756-.102-1.174-.34a3.425 3.425 0 0 1-.514-.354.525.525 0 0 0-.69 0 3.423 3.423 0 0 1-.514.354c-.418.24-.827.368-1.174.34a.973.973 0 0 1-.552-.22C1.756 11.497 1.798 7.8 3.978 6.19a4.158 4.158 0 0 1 4.127-.314.525.525 0 0 0 .438.006l.24-.106a4.159 4.159 0 0 1 3.916.425Z"/></svg>