<svg width="16" height="16" viewBox="0 0 16 16" xmlns="http://www.w3.org/2000/svg" class="icon icon-at" aria-hidden="true" focusable="false" fill="currentColor"><path fill-rule="evenodd" clip-rule="evenodd" d="M3.002 3.17a7.79 7.79 0 0 1 8.545-1.692 5.937 5.937 0 0 1 3.663 6.085c-.147 2.267-.933 3.775-2.642 3.908-1.161.09-1.803-.385-2.163-1.291l-.03-.08-.018.022c-.943 1.175-2.55 1.72-3.869 1.118l-.15-.075c-1.496-.798-1.75-2.552-1.157-4.306.71-2.098 2.597-3.225 5.775-2.257.21.064.34.27.31.486a31.337 31.337 0 0 0-.288 3.75c.177 1.239.539 1.823 1.522 1.747 1.076-.084 1.656-1.12 1.808-2.88l.016-.216a5.055 5.055 0 0 0-3.118-5.19 6.893 6.893 0 0 0-7.552 1.474c-2.032 2.363-2.47 6.284-.447 8.607 1.876 2.16 5.503 2.274 8.196 1.244a.444.444 0 1 1 .317.83c-3.002 1.148-7 1.024-9.184-1.49C.19 10.27.684 5.864 3.002 3.17Zm7.233 2.155c-2.395-.59-3.682.252-4.213 1.82-.47 1.392-.281 2.694.734 3.236 1.14.609 2.74-.13 3.306-1.48l.033-.089.013-.574c.028-.875.093-1.75.195-2.62l.034-.267-.102-.026Z"/></svg>