<svg width="16" height="16" viewBox="0 0 16 16" xmlns="http://www.w3.org/2000/svg" class="icon icon-baby" aria-hidden="true" focusable="false" fill="currentColor"><path fill-rule="evenodd" clip-rule="evenodd" d="M8 0a2.612 2.612 0 0 0-2.6 2.6c0 1.39 1.102 2.51 2.438 2.595L8 5.2c1.433.121 2.6-1.085 2.6-2.6C10.6 1.154 9.407 0 8 0Zm0 1c.862 0 1.6.714 1.6 1.6 0 .905-.624 1.597-1.424 1.607l-.135-.005C7.137 4.2 6.4 3.486 6.4 2.6 6.4 1.738 7.114 1 8 1ZM5.502 9.251l.011-.205-.897 1.132c-.342.512-1.12.6-1.577.256l-.092-.08c-.356-.356-.383-.947-.108-1.449l.076-.123 1.89-2.289.26-.33a2.85 2.85 0 0 1 .28-.306l.052-.048c.4-.35.65-.403 1.78-.408H8.6l.607.004c.753.017 1.01.086 1.323.342l.073.062c.146.128.246.242.49.554l1.96 2.484c.437.435.372 1.204-.1 1.507a1.025 1.025 0 0 1-1.471-.046l-.074-.098-.92-1.163.011.222.086 1.029c.649.776.994 1.52 1.11 2.34.053.413.06.761.039 1.262l-.033.713-.001.087c0 .744-.605 1.349-1.3 1.2-.744 0-1.35-.605-1.2-1.3l.008-.374.034-.754a2.376 2.376 0 0 0-.032-.574c-.094-.466-.226-.694-.618-1.098H7.508c-.432.443-.621.815-.718 1.298-.04.199-.043.381-.021.844l.023.484c.006.137.008.25.008.374 0 .682-.622 1.2-1.3 1.2-.64 0-1.135-.547-1.194-1.174l-.028-.662c-.034-.65-.034-1.045.027-1.535a5.086 5.086 0 0 1 1.128-2.55l.068-.82.001-.008Zm1.097-1.723-.076 1.366A8.984 8.984 0 0 0 8 9l.544-.007c.405-.01.711-.029.897-.04l.04-.003-.08-1.422a.5.5 0 0 1 .832-.403l.06.065 1.924 2.433c.011.016.036.018.107-.039.012-.008.016-.024.004-.047L10.13 6.76a1.662 1.662 0 0 0-.187-.2l-.061-.047c-.117-.078-.276-.104-.784-.111L8.6 6.4l-1.7.003c-.6.009-.712.043-.844.158l-.065.062a3.913 3.913 0 0 0-.242.288l-.163.208-1.87 2.258c-.077.117-.077.254-.062.27l.085-.018a.219.219 0 0 0 .04-.016l.03-.023 1.9-2.4a.5.5 0 0 1 .888.25l.002.088Zm.832 3.272H8.57c.27-.287.621-.517.999-.663l-.017-.203C9.178 9.982 8.674 10 8 10c-.546 0-.997-.029-1.38-.08a6.358 6.358 0 0 1-.168-.028l-.02.245a2.77 2.77 0 0 1 1 .663Zm2.76 1.902c-.115-.568-.296-.943-.693-1.394.128-.097.274-.178.427-.237.461.585.697 1.122.78 1.7.05.398.05.745.018 1.34l-.028.651c-.018.114-.091.169-.197.148l-.087-.007c-.185-.023-.242-.097-.22-.205l.012-.365.035-.733c.016-.42.006-.63-.048-.898Zm-4.895.06c.076-.532.27-1.15.667-1.73.217.067.427.181.599.322a3.27 3.27 0 0 0-.752 1.548c-.054.268-.065.477-.049.898l.032.659.007.341c0 .085-.138.2-.3.2-.085 0-.2-.138-.2-.3v-.103l-.033-.699a6.3 6.3 0 0 1 .029-1.136Z"/></svg>