<svg width="16" height="16" viewBox="0 0 16 16" xmlns="http://www.w3.org/2000/svg" class="icon icon-bell" aria-hidden="true" focusable="false" fill="currentColor"><path fill-rule="evenodd" clip-rule="evenodd" d="M1.5 11a1.5 1.5 0 0 0 1.493-1.355L3 9.5V5a5 5 0 0 1 9.995-.217L13 5v4.5c0 .684.947 1.422 1.857 1.494L15 11h.5a.5.5 0 0 1 .09.992L15.5 12H.5a.5.5 0 0 1-.09-.992L.5 11h1Zm10.508-1.336c.046.494.296.956.667 1.336H3.5c.314-.418.5-.937.5-1.5V5l.005-.2A4 4 0 0 1 12 5v4.5l.008.164Z"/><path d="M10 13a.5.5 0 0 1 .5.5 2.5 2.5 0 1 1-5 0 .5.5 0 0 1 1 0 1.5 1.5 0 1 0 3 0 .5.5 0 0 1 .5-.5Z"/></svg>