<svg width="16" height="16" viewBox="0 0 16 16" xmlns="http://www.w3.org/2000/svg" class="icon icon-bell-close" aria-hidden="true" focusable="false" fill="currentColor"><g clip-path="url(#a)"><path d="M10 13a.5.5 0 0 0-.5.5c0 .395-.16.781-.439 1.061-.559.559-1.563.559-2.121 0A1.51 1.51 0 0 1 6.5 13.5a.5.5 0 0 0-1 0c0 .668.26 1.295.732 1.768A2.482 2.482 0 0 0 8 16c.668 0 1.295-.26 1.768-.732A2.48 2.48 0 0 0 10.5 13.5a.5.5 0 0 0-.5-.5Zm5.5-2H15c-.873 0-2-.728-2-1.5v-3a.5.5 0 0 0-1 0v3c0 .568.264 1.086.668 1.5H7.5a.5.5 0 0 0 0 1h8a.5.5 0 0 0 0-1Zm-10.646.853 11-10.999a.5.5 0 0 0-.707-.707l-2.655 2.656A5.033 5.033 0 0 0 10.98.984 5.038 5.038 0 0 0 8 0C6.665 0 5.409.52 4.464 1.464A4.971 4.971 0 0 0 3 5v4.5c0 .395-.16.781-.439 1.061-.279.28-.666.439-1.061.439h-1a.5.5 0 0 0 0 1h2.793L.147 15.146a.5.5 0 0 0 .707.708l4-3.999v-.002ZM3.487 11c.327-.432.513-.949.513-1.5V5c0-1.068.416-2.073 1.171-2.829A3.978 3.978 0 0 1 8 1c.853 0 1.699.279 2.384.787a4.006 4.006 0 0 1 1.339 1.783L4.293 11h-.806Z"/></g><defs><clipPath id="a"><path d="M0 0h16v16H0z"/></clipPath></defs></svg>