<svg width="16" height="16" viewBox="0 0 16 16" xmlns="http://www.w3.org/2000/svg" class="icon icon-bike" aria-hidden="true" focusable="false" fill="currentColor"><path fill-rule="evenodd" clip-rule="evenodd" d="M9.95 1.28A.5.5 0 0 0 9.5 1h-3l-.09.008A.5.5 0 0 0 6 1.5l.008.09A.5.5 0 0 0 6.5 2h2.628l.988 3.295L5.832 8.89a3.5 3.5 0 1 0 .643.766l3.954-3.318.596 1.987a3.5 3.5 0 1 0 .958-.287l-.809-2.698a.496.496 0 0 0-.01-.036L9.978 1.356l-.03-.076ZM5.054 9.542l-1.876 1.575-.064.064a.5.5 0 0 0 .706.702l1.877-1.575a2.5 2.5 0 1 1-.643-.766Zm6.262-.245.704 2.347.034.083a.5.5 0 0 0 .924-.37l-.704-2.347a2.5 2.5 0 1 1-.958.287Z"/><path d="M4.5 4a.5.5 0 0 1 .294.095l.06.051 2 2a.5.5 0 0 1-.638.765l-.07-.057L4.293 5H2.5a.5.5 0 0 1-.492-.41L2 4.5a.5.5 0 0 1 .41-.492L2.5 4h2Z"/></svg>