<svg width="16" height="16" viewBox="0 0 16 16" xmlns="http://www.w3.org/2000/svg" class="icon icon-bill" aria-hidden="true" focusable="false" fill="currentColor"><path d="M11.5 5a.5.5 0 0 1 .09.992L11.5 6h-7a.5.5 0 0 1-.09-.992L4.5 5h7Zm.5 4.5a.5.5 0 0 0-.5-.5h-7l-.09.008A.5.5 0 0 0 4.5 10h7l.09-.008A.5.5 0 0 0 12 9.5Z"/><path fill-rule="evenodd" clip-rule="evenodd" d="M2.5 0h11A1.5 1.5 0 0 1 15 1.5v14a.5.5 0 0 1-.812.39l-2.152-1.72-1.682 1.684a.5.5 0 0 1-.638.057l-.07-.057L8 14.207l-1.646 1.647a.5.5 0 0 1-.638.057l-.07-.057-1.683-1.684-2.15 1.72a.5.5 0 0 1-.807-.309L1 15.5v-14A1.5 1.5 0 0 1 2.5 0Zm11.09 1.008L13.5 1h-11a.5.5 0 0 0-.5.5v12.959l1.688-1.35a.5.5 0 0 1 .593-.022l.073.06L6 14.792l1.646-1.647a.5.5 0 0 1 .638-.057l.07.057L10 14.793l1.646-1.647a.5.5 0 0 1 .588-.088l.078.052L14 14.459V1.5a.5.5 0 0 0-.41-.492Z"/></svg>