<svg width="16" height="16" viewBox="0 0 16 16" xmlns="http://www.w3.org/2000/svg" class="icon icon-book" aria-hidden="true" focusable="false" fill="currentColor"><path fill-rule="evenodd" clip-rule="evenodd" d="M13.5 0a2.5 2.5 0 0 1 2.495 2.336L16 2.5V14a2 2 0 0 1-2 2H2a2 2 0 0 1-2-2V2.5A2.5 2.5 0 0 1 2.336.005L2.5 0h11ZM1 14a1 1 0 0 0 1 1h12a1 1 0 1 0 0-2H2a1 1 0 0 0-1 1Zm14-1.732A1.99 1.99 0 0 0 14 12H2a1.99 1.99 0 0 0-1 .268V2.5l.007-.144A1.5 1.5 0 0 1 2.5 1H3v6.5l.006.081a.5.5 0 0 0 .806.31L6 6.14l2.188 1.75.067.046A.5.5 0 0 0 9 7.5V1h4.5l.145.007A1.5 1.5 0 0 1 15 2.5v9.768ZM4 1h4v5.459l-1.688-1.35-.082-.053a.5.5 0 0 0-.542.054L4 6.459V1Z"/></svg>