<svg width="16" height="16" viewBox="0 0 16 16" xmlns="http://www.w3.org/2000/svg" class="icon icon-bookmark" aria-hidden="true" focusable="false" fill="currentColor"><path fill-rule="evenodd" clip-rule="evenodd" d="M2.5 0A1.5 1.5 0 0 0 1 1.5v13A1.5 1.5 0 0 0 2.5 16h11a1.5 1.5 0 0 0 1.5-1.5v-13A1.5 1.5 0 0 0 13.5 0h-11ZM4 1H2.5a.5.5 0 0 0-.5.5v13a.5.5 0 0 0 .5.5h11a.5.5 0 0 0 .5-.5v-13a.5.5 0 0 0-.5-.5H10v6.5a.5.5 0 0 1-.745.436l-.067-.046L7 6.14 4.812 7.89a.5.5 0 0 1-.806-.309L4 7.5V1Zm5 0v5.459l-1.688-1.35-.082-.053a.5.5 0 0 0-.542.054L5 6.459V1h4Z"/></svg>