<svg width="16" height="16" viewBox="0 0 16 16" xmlns="http://www.w3.org/2000/svg" class="icon icon-books" aria-hidden="true" focusable="false" fill="currentColor"><path fill-rule="evenodd" clip-rule="evenodd" d="M11.762.582 6.958 1.966a.5.5 0 0 0-.342.619l2.765 9.594a.422.422 0 0 0 .008.028l.826 2.87a.5.5 0 0 0 .62.342l4.804-1.385a.5.5 0 0 0 .342-.619L12.38.924a.5.5 0 0 0-.619-.342Zm-1.279 11.815.554 1.922 3.844-1.107-.554-1.922-3.844 1.107Zm3.567-2.068L11.558 1.68 7.716 2.788l2.492 8.648 3.843-1.107ZM.5 1h5a.5.5 0 0 1 .5.5v13a.5.5 0 0 1-.5.5h-5a.5.5 0 0 1-.5-.5v-13A.5.5 0 0 1 .5 1ZM5 2v9H1V2h4Zm0 10H1v2h4v-2Z"/></svg>