<svg width="16" height="16" viewBox="0 0 16 16" xmlns="http://www.w3.org/2000/svg" class="icon icon-briefcase-check" aria-hidden="true" focusable="false" fill="currentColor"><path d="M15.994 4.348C15.926 3.553 15.324 3 14.5 3H11V.5l-.008-.09A.5.5 0 0 0 10.5 0h-5l-.09.008A.5.5 0 0 0 5 .5V3H1.5l-.152.006C.553 3.074 0 3.675 0 4.5v5l.008.09A.5.5 0 0 0 .5 10H6v1.5l.008.09A.5.5 0 0 0 6.5 12h.7l.09-.008a.5.5 0 0 0 .41-.492l-.008-.09A.501.501 0 0 0 7.2 11H7V8h2v1.5l.008.09A.5.5 0 0 0 10 9.5v-2a.5.5 0 0 0-.5-.5h-3l-.09.008A.5.5 0 0 0 6 7.5V9H1V4.5l.006-.103C1.041 4.139 1.212 4 1.5 4h13l.103.006c.258.035.397.206.397.494v4l.008.09A.5.5 0 0 0 16 8.5v-4l-.006-.152ZM10 3H6V1h4v2ZM8 14H2.5l-.103-.006C2.139 13.959 2 13.788 2 13.5v-2l-.008-.09A.5.5 0 0 0 1 11.5v2l.006.152C1.074 14.447 1.675 15 2.5 15H8l.09-.008A.5.5 0 0 0 8 14Zm6.646-3.854L11 13.793l-1.646-1.646-.069-.059a.5.5 0 0 0-.638.766l2 2 .069.059a.5.5 0 0 0 .638-.059l4-4 .059-.069a.5.5 0 0 0-.767-.639Z"/></svg>