<svg width="16" height="16" viewBox="0 0 16 16" xmlns="http://www.w3.org/2000/svg" class="icon icon-briefcase-search" aria-hidden="true" focusable="false" fill="currentColor"><g clip-path="url(#a)"><path fill-rule="evenodd" clip-rule="evenodd" d="M11 .4c-.1-.2-.3-.4-.5-.4H5.4c-.2.1-.4.3-.4.5V3H1.3C.6 3.1 0 3.7 0 4.5v5.1c.1.2.3.4.5.4H6v1.6c.1.2.3.4.5.4h.8c.2-.1.4-.3.4-.5v-.1c-.1-.2-.3-.4-.5-.4H7V8h2.6c.2-.1.4-.3.4-.5 0-.3-.2-.5-.5-.5H6.4c-.2.1-.4.3-.4.5V9H1V4.4c0-.3.2-.4.5-.4h13.1c.3 0 .4.2.4.5v5.1c.1.2.3.4.5.4.3 0 .5-.2.5-.5V4.3c-.1-.7-.7-1.3-1.5-1.3H11V.4ZM10 3V1H6v2h4Z"/><path d="M1.5 11c.2 0 .4.2.5.4v2.1c0 .3.1.5.4.5H8c.3 0 .5.2.5.5 0 .2-.2.4-.4.5H2.5c-.8 0-1.4-.6-1.5-1.3v-2.2c0-.3.2-.5.5-.5Z"/><path fill-rule="evenodd" clip-rule="evenodd" d="M8.5 11.4c0-1.6 1.3-2.9 2.9-2.9a2.902 2.902 0 0 1 2.362 4.581l.038.019 1.5 1.5c.2.2.2.5 0 .7-.2.2-.4.2-.6.1l-.1-.1-1.589-1.49A2.902 2.902 0 0 1 8.5 11.4Zm1 0c0 1 .9 1.9 1.9 1.9 1 0 1.9-.9 1.9-1.9 0-1-.9-1.9-1.9-1.9-1 0-1.9.9-1.9 1.9Z"/></g><defs><clipPath id="a"><path d="M0 0h16v16H0z"/></clipPath></defs></svg>