<svg width="16" height="16" viewBox="0 0 16 16" xmlns="http://www.w3.org/2000/svg" class="icon icon-briefcase" aria-hidden="true" focusable="false" fill="currentColor"><path fill-rule="evenodd" clip-rule="evenodd" d="M10.992.41A.5.5 0 0 0 10.5 0h-5l-.09.008A.5.5 0 0 0 5 .5V3H1.5l-.144.007A1.5 1.5 0 0 0 0 4.5v5l.008.09A.5.5 0 0 0 .5 10H6v1.5a.5.5 0 0 0 .5.5h3a.5.5 0 0 0 .5-.5V10h5.5l.09-.008A.5.5 0 0 0 16 9.5v-5l-.007-.144A1.5 1.5 0 0 0 14.5 3H11V.5l-.008-.09ZM10 9h5V4.5a.5.5 0 0 0-.41-.492L14.5 4h-13a.5.5 0 0 0-.492.41L1 4.5V9h5V7.5a.5.5 0 0 1 .5-.5h3a.5.5 0 0 1 .5.5V9Zm-3 2h2V8H7v3Zm3-8V1H6v2h4Z"/><path d="M14.5 11a.5.5 0 0 1 .492.41l.008.09v2a1.5 1.5 0 0 1-1.355 1.493L13.5 15h-11a1.5 1.5 0 0 1-1.493-1.355L1 13.5v-2a.5.5 0 0 1 .992-.09L2 11.5v2a.5.5 0 0 0 .41.492L2.5 14h11a.5.5 0 0 0 .492-.41L14 13.5v-2a.5.5 0 0 1 .5-.5Z"/></svg>