<svg width="16" height="16" viewBox="0 0 16 16" xmlns="http://www.w3.org/2000/svg" class="icon icon-building" aria-hidden="true" focusable="false" fill="currentColor"><path d="M7.5 9.5a.5.5 0 0 1 .09.992l-.09.008h-2a.5.5 0 0 1-.09-.991L5.5 9.5h2ZM8 12a.5.5 0 0 0-.5-.5h-2l-.09.008a.5.5 0 0 0 .09.993h2l.09-.009A.5.5 0 0 0 8 12Zm-.5-4.5a.5.5 0 0 1 .09.992L7.5 8.5h-2a.5.5 0 0 1-.09-.991L5.5 7.5h2Z"/><path fill-rule="evenodd" clip-rule="evenodd" d="M8 .5a.5.5 0 0 1 .587-.492l.081.022 7 2.5a.5.5 0 0 1 .324.382L16 3v12a.5.5 0 0 1-.41.492l-.09.008H.5a.5.5 0 0 1-.492-.41L0 15V8a.5.5 0 0 1 .41-.491L.5 7.5h1a.5.5 0 0 1 .09.992L1.5 8.5H1v6h2V5a.5.5 0 0 1 .41-.492L3.5 4.5h6a.5.5 0 0 1 .492.41L10 5v9.5h5V3.352L9 1.21V3a.5.5 0 0 1-.41.492L8.5 3.5a.5.5 0 0 1-.492-.41L8 3V.5Zm1 5H4v9h5v-9Z"/><path d="M11.5 3.5a.5.5 0 0 1 .492.41L12 4v8a.5.5 0 0 1-.992.09L11 12V4a.5.5 0 0 1 .5-.5Zm2.492 1.41A.5.5 0 0 0 13 5v7l.008.09A.5.5 0 0 0 14 12V5l-.008-.09Z"/></svg>