<svg width="16" height="17" viewBox="0 0 16 17" xmlns="http://www.w3.org/2000/svg" class="icon icon-bulb" aria-hidden="true" focusable="false" fill="currentColor"><path d="M8.501 3.505a.5.5 0 0 0-.5-.5 3 3 0 0 0-3 3 .5.5 0 1 0 1 0 2 2 0 0 1 2-2 .5.5 0 0 0 .5-.5Z"/><path fill-rule="evenodd" clip-rule="evenodd" d="M4.848 11.106a6 6 0 0 1-2.623-6.729l.07-.234a6 6 0 0 1 11.706 1.861 6 6 0 0 1-2.839 5.101L11 11.2v2.28a.49.49 0 0 1 0 .049v1.976a.5.5 0 0 1-.41.491l-.09.008h-5a.5.5 0 0 1-.5-.5v-4.31l-.152-.088Zm5.153-.201v2.1H6v-2.106a.5.5 0 0 0-.273-.445A5 5 0 1 1 13 6.004a5 5 0 0 1-2.728 4.455l-.078.05a.5.5 0 0 0-.194.396ZM6 15.005v-1h4v1H6Z"/></svg>