<svg width="16" height="16" viewBox="0 0 16 16" xmlns="http://www.w3.org/2000/svg" class="icon icon-bullet-list" aria-hidden="true" focusable="false" fill="currentColor"><path fill-rule="evenodd" clip-rule="evenodd" d="M2 1a2 2 0 1 0 0 4 2 2 0 0 0 0-4Zm0 1a1 1 0 1 1 0 2 1 1 0 0 1 0-2Z"/><path d="M16 3.5a.5.5 0 0 0-.5-.5h-9l-.09.008A.5.5 0 0 0 6.5 4h9l.09-.008A.5.5 0 0 0 16 3.5Zm0 5a.5.5 0 0 0-.5-.5h-9l-.09.008A.5.5 0 0 0 6.5 9h9l.09-.008A.5.5 0 0 0 16 8.5Zm-.5 4.5a.5.5 0 0 1 .09.992L15.5 14h-9a.5.5 0 0 1-.09-.992L6.5 13h9Z"/><path fill-rule="evenodd" clip-rule="evenodd" d="M0 8a2 2 0 1 1 4 0 2 2 0 0 1-4 0Zm3 0a1 1 0 1 0-2 0 1 1 0 0 0 2 0Zm-1 3a2 2 0 1 0 0 4 2 2 0 0 0 0-4Zm0 1a1 1 0 1 1 0 2 1 1 0 0 1 0-2Z"/></svg>