<svg width="16" height="16" viewBox="0 0 16 16" xmlns="http://www.w3.org/2000/svg" class="icon icon-bus" aria-hidden="true" focusable="false" fill="currentColor"><path d="M5 11a1 1 0 1 1-2 0 1 1 0 0 1 2 0Zm7 1a1 1 0 1 0 0-2 1 1 0 1 0 0 2Z"/><path fill-rule="evenodd" clip-rule="evenodd" d="M15 1.5V5a1 1 0 0 1 1 1v2a1 1 0 0 1-1 1v6.5c0 .275-.225.5-.5.5h-3a.501.501 0 0 1-.5-.5V14H5v1.5a.5.5 0 0 1-.5.5h-3a.5.5 0 0 1-.5-.5V9a1 1 0 0 1-1-1V6a1 1 0 0 1 1-1V1.5A1.5 1.5 0 0 1 2.5 0h11A1.5 1.5 0 0 1 15 1.5ZM2 14v1h2v-1H2Zm12-1V9H2v4h12ZM2 8V1.5a.5.5 0 0 1 .5-.5h11a.5.5 0 0 1 .5.5V8H2Zm10 6v1h2v-1h-2Z"/></svg>