<svg width="16" height="16" viewBox="0 0 16 16" xmlns="http://www.w3.org/2000/svg" class="icon icon-calculator" aria-hidden="true" focusable="false" fill="currentColor"><path d="M3.5 0a.5.5 0 0 1 .492.41L4 .5V3h2.5a.5.5 0 0 1 .09.992L6.5 4H4v2.5a.5.5 0 0 1-.992.09L3 6.5V4H.5a.5.5 0 0 1-.09-.992L.5 3H3V.5a.5.5 0 0 1 .5-.5ZM16 3.5a.5.5 0 0 0-.5-.5h-6l-.09.008A.5.5 0 0 0 9.5 4h6l.09-.008A.5.5 0 0 0 16 3.5Zm-.5 6.5a.5.5 0 0 1 .09.992L15.5 11h-6a.5.5 0 0 1-.09-.992L9.5 10h6Zm.5 3.5a.5.5 0 0 0-.5-.5h-6l-.09.008A.5.5 0 0 0 9.5 14h6l.09-.008A.5.5 0 0 0 16 13.5ZM.646 9.146a.5.5 0 0 1 .638-.057l.07.057L3.5 11.293l2.146-2.147a.5.5 0 0 1 .765.638l-.057.07L4.207 12l2.147 2.146a.5.5 0 0 1-.638.765l-.07-.057L3.5 12.707l-2.146 2.147a.5.5 0 0 1-.765-.638l.057-.07L2.793 12 .646 9.854a.5.5 0 0 1 0-.708Z"/></svg>