<svg width="16" height="16" viewBox="0 0 16 16" xmlns="http://www.w3.org/2000/svg" class="icon icon-calendar-edit" aria-hidden="true" focusable="false" fill="currentColor"><g clip-path="url(#a)"><path fill-rule="evenodd" clip-rule="evenodd" d="M4.5 0a.5.5 0 0 1 .5.5V2h6V.5a.5.5 0 0 1 1 0V2h2.5A1.5 1.5 0 0 1 16 3.5v2a.5.5 0 0 1-.5.5H1v8.5a.5.5 0 0 0 .5.5h3a.5.5 0 0 1 0 1h-3A1.5 1.5 0 0 1 0 14.5v-11A1.5 1.5 0 0 1 1.5 2H4V.5a.5.5 0 0 1 .5-.5Zm-3 3a.5.5 0 0 0-.5.5V5h14V3.5a.5.5 0 0 0-.5-.5h-13Zm11.646 5.146a.5.5 0 0 1 .708 0l2 2a.5.5 0 0 1 0 .708l-4.5 4.5a.5.5 0 0 1-.256.136l-2.5.5a.5.5 0 0 1-.588-.588l.5-2.5a.5.5 0 0 1 .136-.256l4.5-4.5Zm-3.685 5.1-.324 1.617 1.617-.324 4.039-4.039L13.5 9.207l-4.04 4.04Z"/></g><defs><clipPath id="a"><path d="M0 0h16v16H0z"/></clipPath></defs></svg>