<svg width="16" height="16" viewBox="0 0 16 16" xmlns="http://www.w3.org/2000/svg" class="icon icon-calendar-clock" aria-hidden="true" focusable="false" fill="currentColor"><path fill-rule="evenodd" clip-rule="evenodd" d="M4.5 0a.5.5 0 0 1 .492.41L5 .5V2h6V.5a.5.5 0 0 1 .992-.09L12 .5V2h2.5a1.5 1.5 0 0 1 1.493 1.356L16 3.5v2a.5.5 0 0 1-.5.5H1v8.5a.5.5 0 0 0 .41.492L1.5 15h5a.5.5 0 0 1 .09.992L6.5 16h-5a1.5 1.5 0 0 1-1.493-1.355L0 14.5v-11a1.5 1.5 0 0 1 1.356-1.493L1.5 2H4V.5a.5.5 0 0 1 .5-.5Zm-3 3a.5.5 0 0 0-.492.41L1 3.5V5h14V3.5a.5.5 0 0 0-.41-.492L14.5 3h-13Z"/><path d="M11.992 9.41A.5.5 0 0 0 11 9.5v2l.008.09a.5.5 0 0 0 .492.41h2l.09-.008A.5.5 0 0 0 14 11.5l-.008-.09A.5.5 0 0 0 13.5 11H12V9.5l-.008-.09Z"/><path fill-rule="evenodd" clip-rule="evenodd" d="M7 11.5a4.5 4.5 0 1 1 9 0 4.5 4.5 0 0 1-9 0Zm8 0a3.5 3.5 0 1 0-7 0 3.5 3.5 0 0 0 7 0Z"/></svg>