<svg width="16" height="16" viewBox="0 0 16 16" xmlns="http://www.w3.org/2000/svg" class="icon icon-card-euro" aria-hidden="true" focusable="false" fill="currentColor"><path fill-rule="evenodd" clip-rule="evenodd" d="M14.5 0c.825 0 1.426.553 1.494 1.348L16 1.5v5a.5.5 0 0 1-.992.09L15 6.5V5H1v6.5c0 .288.14.459.398.493L1.5 12h3a.5.5 0 0 1 .09.992L4.5 13h-3c-.825 0-1.426-.553-1.494-1.348L0 11.5v-10C0 .675.553.074 1.348.006L1.5 0h13Zm.5 1.5V4H1V1.5l.006-.102C1.041 1.139 1.212 1 1.5 1h13l.102.006c.259.035.398.206.398.494Z"/><path d="M14.357 7.471C13.8 7.137 13.225 7 12.5 7c-1.951 0-3.423 1.27-3.919 3.1H7.5l-.09.008a.5.5 0 0 0 .09.992h.914a5.67 5.67 0 0 0 0 .8H7.5l-.09.008a.5.5 0 0 0 .09.992h1.081C9.077 14.73 10.55 16 12.5 16c.725 0 1.3-.137 1.857-.471a.5.5 0 0 0-.514-.858c-.39.234-.788.329-1.343.329-1.373 0-2.431-.83-2.874-2.1H11.8l.09-.008a.5.5 0 0 0-.09-.992H9.417a4.68 4.68 0 0 1 0-.8H11.8l.09-.008a.5.5 0 0 0-.09-.992H9.626C10.07 8.83 11.126 8 12.5 8c.555 0 .953.095 1.343.329a.5.5 0 1 0 .514-.858Z"/></svg>