<svg width="16" height="16" viewBox="0 0 16 16" xmlns="http://www.w3.org/2000/svg" class="icon icon-chart" aria-hidden="true" focusable="false" fill="currentColor"><path fill-rule="evenodd" clip-rule="evenodd" d="M9.5 0a.5.5 0 0 0-.5.5v6a.5.5 0 0 0 .5.5h6a.5.5 0 0 0 .5-.5A6.5 6.5 0 0 0 9.5 0Zm.5 1.023.157.016a5.503 5.503 0 0 1 4.804 4.804l.015.157H10V1.023Z"/><path fill-rule="evenodd" clip-rule="evenodd" d="M6.5 3A6.5 6.5 0 1 0 13 9.5l-.008-.09A.5.5 0 0 0 12.5 9H6.999L7 3.5a.5.5 0 0 0-.5-.5Zm-.501 1.023L6 9.5l.008.09A.5.5 0 0 0 6.5 10h5.476l-.015.157a5.5 5.5 0 1 1-6.118-6.118L6 4.023Z"/></svg>