<svg width="16" height="16" viewBox="0 0 16 16" xmlns="http://www.w3.org/2000/svg" class="icon icon-check-list" aria-hidden="true" focusable="false" fill="currentColor"><path fill-rule="evenodd" clip-rule="evenodd" d="M6.5 1h-6a.5.5 0 0 0-.5.5v6a.5.5 0 0 0 .5.5h6a.5.5 0 0 0 .5-.5v-6a.5.5 0 0 0-.5-.5ZM6 2v5H1V2h5Z"/><path d="M16 4.5a.5.5 0 0 0-.5-.5h-6l-.09.008A.5.5 0 0 0 9.5 5h6l.09-.008A.5.5 0 0 0 16 4.5Zm-.5 8.5a.5.5 0 0 1 .09.992L15.5 14h-6a.5.5 0 0 1-.09-.992L9.5 13h6Zm-8.688-2.89a.5.5 0 0 0-.702.078L2.458 14.75.854 13.146l-.07-.057a.5.5 0 0 0-.638.765l2 2 .075.061a.5.5 0 0 0 .67-.103l4-5 .05-.075a.5.5 0 0 0-.129-.627Z"/></svg>