<svg width="16" height="16" viewBox="0 0 16 16" xmlns="http://www.w3.org/2000/svg" class="icon icon-chevron-up-down" aria-hidden="true" focusable="false" fill="currentColor"><path d="M8.257.071a.5.5 0 0 0-.59.055l-4.5 4-.061.066a.5.5 0 0 0 .02.64l.066.062a.5.5 0 0 0 .64-.02L8 1.169l4.168 3.705.072.053a.5.5 0 0 0 .592-.8l-4.5-4L8.257.07Zm4.617 11.097a.5.5 0 0 0-.706-.042L8 14.83l-4.168-3.704-.072-.053a.5.5 0 0 0-.592.8l4.5 4 .075.056a.5.5 0 0 0 .59-.055l4.5-4 .061-.066a.5.5 0 0 0-.02-.64Z"/></svg>