<svg width="16" height="16" viewBox="0 0 16 16" xmlns="http://www.w3.org/2000/svg" class="icon icon-clip" aria-hidden="true" focusable="false" fill="currentColor"><path fill-rule="evenodd" clip-rule="evenodd" d="M7.09 1.468a4 4 0 0 1 5.807 5.497l-.15.16L8.68 11.19a2.251 2.251 0 0 1-3.3-3.052l.12-.13 3.004-3.004a.5.5 0 0 1 .765.637l-.058.07-3.005 3.005a1.25 1.25 0 0 0 1.667 1.859l.101-.091 4.066-4.066a3 3 0 0 0-4.1-4.378l-.144.135-4.419 4.42a4.75 4.75 0 0 0 6.546 6.881l.172-.163 4.065-4.066a.5.5 0 0 1 .765.637l-.058.07-4.065 4.066a5.751 5.751 0 0 1-8.309-7.947l.177-.185 4.42-4.42Z"/></svg>