<svg width="17" height="17" viewBox="0 0 17 17" xmlns="http://www.w3.org/2000/svg" class="icon icon-close-round" aria-hidden="true" focusable="false" fill="currentColor"><path d="M4.649 4.649a.502.502 0 0 1 .64-.059l.07.059 2.674 2.674 2.675-2.674a.502.502 0 0 1 .768.64l-.058.07-2.675 2.674 2.675 2.675a.502.502 0 0 1-.64.768l-.07-.058-2.675-2.675-2.674 2.675a.502.502 0 0 1-.769-.64l.059-.07 2.674-2.675L4.65 5.36a.502.502 0 0 1 0-.71Z"/><path fill-rule="evenodd" clip-rule="evenodd" d="M8.033.033a8 8 0 1 0 0 16 8 8 0 0 0 0-16Zm0 1.005a6.996 6.996 0 1 1 0 13.991 6.996 6.996 0 0 1 0-13.991Z"/></svg>