<svg width="16" height="16" viewBox="0 0 16 16" xmlns="http://www.w3.org/2000/svg" class="icon icon-cloud-upload" aria-hidden="true" focusable="false" fill="currentColor"><path d="M7.146 6.146a.5.5 0 0 1 .638-.057l.07.057 2.5 2.5a.5.5 0 0 1-.638.765l-.07-.057L8 7.707V12.5a.5.5 0 0 1-.992.09L7 12.5V7.707L5.354 9.354a.5.5 0 0 1-.638.057l-.07-.057a.5.5 0 0 1-.057-.638l.057-.07 2.5-2.5Z"/><path fill-rule="evenodd" clip-rule="evenodd" d="M3.094 6.151a4.984 4.984 0 0 1 4.684-4.146L8 2a5 5 0 0 1 5 5l-.006.143.095.024a3.986 3.986 0 0 1 2.906 3.633L16 11a4 4 0 0 1-4 4H4.5A4.5 4.5 0 0 1 0 10.5a4.49 4.49 0 0 1 3.012-4.235l.068-.022.014-.092ZM12 7a4 4 0 0 0-4-4 3.986 3.986 0 0 0-3.965 3.671.5.5 0 0 1-.377.444A3.493 3.493 0 0 0 1 10.5 3.5 3.5 0 0 0 4.5 14H12a3 3 0 0 0 3-3 2.989 2.989 0 0 0-2.619-2.96.5.5 0 0 1-.432-.555l.041-.321A1.49 1.49 0 0 0 12 7Z"/></svg>