<svg width="16" height="16" viewBox="0 0 16 16" xmlns="http://www.w3.org/2000/svg" class="icon icon-comment" aria-hidden="true" focusable="false" fill="currentColor"><path fill-rule="evenodd" clip-rule="evenodd" d="M8 0C3.596 0 0 3.117 0 7s3.596 7 8 7l.408-.01c.272-.011.542-.036.811-.072l.223-.035 3.82 2.057.079.034A.5.5 0 0 0 14 15.5v-3.881l-.158.155C15.217 10.486 16 8.799 16 7c0-3.883-3.596-7-8-7Zm0 1c3.88 0 7 2.703 7 6 0 1.512-.662 2.94-1.842 4.044l-.055.061a.5.5 0 0 0-.103.304v3.253l-3.23-1.74a.5.5 0 0 0-.326-.051A8.205 8.205 0 0 1 8 13c-3.88 0-7-2.703-7-6s3.12-6 7-6Z"/></svg>