<svg width="16" height="16" viewBox="0 0 16 16" xmlns="http://www.w3.org/2000/svg" class="icon icon-computer" aria-hidden="true" focusable="false" fill="currentColor"><path d="M12.5 4a.5.5 0 0 1 .09.992L12.5 5h-3a.5.5 0 0 1-.09-.992L9.5 4h3Z"/><path fill-rule="evenodd" clip-rule="evenodd" d="M11 8a2 2 0 1 0 0 4 2 2 0 0 0 0-4Zm0 1a1 1 0 1 1 0 2 1 1 0 0 1 0-2Z"/><path fill-rule="evenodd" clip-rule="evenodd" d="M14.5 0h-7A1.5 1.5 0 0 0 6 1.5v13A1.5 1.5 0 0 0 7.5 16h7a1.5 1.5 0 0 0 1.5-1.5v-13A1.5 1.5 0 0 0 14.5 0Zm-7 1h7a.5.5 0 0 1 .5.5v13a.5.5 0 0 1-.5.5h-7a.5.5 0 0 1-.5-.5v-13a.5.5 0 0 1 .5-.5Z"/><path d="M4.5 3a.5.5 0 0 1 .09.992L4.5 4H1v5h3.5a.5.5 0 0 1 .492.41L5 9.5a.5.5 0 0 1-.41.492L4.5 10h-4a.5.5 0 0 1-.492-.41L0 9.5v-6a.5.5 0 0 1 .41-.492L.5 3h4Zm0 9a.5.5 0 0 1 .09.992L4.5 13h-2a.5.5 0 0 1-.09-.992L2.5 12h2Z"/></svg>