<svg width="16" height="16" viewBox="0 0 16 16" xmlns="http://www.w3.org/2000/svg" class="icon icon-compass" aria-hidden="true" focusable="false" fill="currentColor"><g clip-path="url(#a)"><path d="M8 1a7 7 0 1 0 0 14A7 7 0 0 0 8 1ZM0 8a8 8 0 1 1 16 0A8 8 0 0 1 0 8Z"/><path d="M11.854 4.146a.498.498 0 0 1 .111.539l-2 5a.502.502 0 0 1-.279.28l-5 2a.501.501 0 0 1-.65-.651l2-5a.5.5 0 0 1 .279-.279l5-2a.502.502 0 0 1 .539.111ZM6.885 6.885l-1.487 3.718 3.718-1.487 1.487-3.718-3.718 1.487Z"/><path d="M9.67 8.994 7.046 6.307l-.716.7 2.626 2.687.716-.7Z"/></g><defs><clipPath id="a"><path d="M0 0h16v16H0z"/></clipPath></defs></svg>