<svg width="16" height="16" viewBox="0 0 16 16" xmlns="http://www.w3.org/2000/svg" class="icon icon-connection" aria-hidden="true" focusable="false" fill="currentColor"><path d="M12 10c-.893 0-1.693.39-2.243 1.008L6.774 9.145C6.92 8.791 7 8.405 7 8s-.08-.792-.226-1.144l2.983-1.864a3 3 0 1 0-.53-.847L6.244 6.008a3 3 0 1 0 0 3.984l2.983 1.863A3.001 3.001 0 1 0 15 13c0-1.656-1.344-3-3-3Zm.042-8.917a1.917 1.917 0 1 1 0 3.833 1.917 1.917 0 0 1 0-3.833ZM5.701 9.052l-.005.009-.004.006a2 2 0 1 1-.001-2.135l.005.008.006.009C5.891 7.254 6 7.614 6 8c0 .386-.109.746-.299 1.052Zm6.341 5.907a1.917 1.917 0 1 1 0-3.833 1.917 1.917 0 0 1 0 3.833Z"/></svg>