<svg width="16" height="16" viewBox="0 0 16 16" xmlns="http://www.w3.org/2000/svg" class="icon icon-contact-user" aria-hidden="true" focusable="false" fill="currentColor"><path fill-rule="evenodd" clip-rule="evenodd" d="M6 4a2 2 0 1 1 4 0 2 2 0 0 1-4 0Zm3 0a1 1 0 1 0-2 0 1 1 0 0 0 2 0Zm2.995 6.31A3.503 3.503 0 0 0 8.5 7h-1A3.5 3.5 0 0 0 4 10.5a.5.5 0 0 0 .5.5h7a.5.5 0 0 0 .5-.514l-.005-.177ZM8.5 8l.164.005a2.502 2.502 0 0 1 2.257 1.868l.027.127h-5.9l.034-.14A2.501 2.501 0 0 1 7.5 8h1Z"/><path fill-rule="evenodd" clip-rule="evenodd" d="M1.5 0h13A1.5 1.5 0 0 1 16 1.5v10a1.5 1.5 0 0 1-1.5 1.5h-3.766l-2.35 2.82a.5.5 0 0 1-.696.071l-.072-.07L5.265 13H1.5a1.5 1.5 0 0 1-1.493-1.355L0 11.5v-10A1.5 1.5 0 0 1 1.5 0Zm13 1h-13a.5.5 0 0 0-.5.5v10a.5.5 0 0 0 .5.5h4a.5.5 0 0 1 .384.18L8 14.718l2.116-2.538a.5.5 0 0 1 .296-.172L10.5 12h4a.5.5 0 0 0 .5-.5v-10a.5.5 0 0 0-.5-.5Z"/></svg>