<svg width="16" height="16" viewBox="0 0 16 16" xmlns="http://www.w3.org/2000/svg" class="icon icon-contacts" aria-hidden="true" focusable="false" fill="currentColor"><path fill-rule="evenodd" clip-rule="evenodd" d="M10.5 3h-7a.5.5 0 0 0-.5.5v4a.5.5 0 0 0 .5.5h7a.5.5 0 0 0 .5-.5v-4a.5.5 0 0 0-.5-.5ZM10 4v3H4V4h6Z"/><path fill-rule="evenodd" clip-rule="evenodd" d="M12.5 0h-11A1.5 1.5 0 0 0 0 1.5v13A1.5 1.5 0 0 0 1.5 16h11a1.5 1.5 0 0 0 1.5-1.5v-13A1.5 1.5 0 0 0 12.5 0Zm-11 1h11a.5.5 0 0 1 .5.5v13a.5.5 0 0 1-.5.5h-11a.5.5 0 0 1-.5-.5v-13a.5.5 0 0 1 .5-.5Z"/><path d="M15.5 2a.5.5 0 0 1 .492.41L16 2.5v2a.5.5 0 0 1-.992.09L15 4.5v-2a.5.5 0 0 1 .5-.5Zm.492 4.41A.5.5 0 0 0 15 6.5v2l.008.09A.5.5 0 0 0 16 8.5v-2l-.008-.09Z"/></svg>