<svg width="16" height="16" viewBox="0 0 16 16" xmlns="http://www.w3.org/2000/svg" class="icon icon-copy" aria-hidden="true" focusable="false" fill="currentColor"><path fill-rule="evenodd" clip-rule="evenodd" d="M11.5 0H.5a.5.5 0 0 0-.5.5v11a.5.5 0 0 0 .5.5h11a.5.5 0 0 0 .5-.5V.5a.5.5 0 0 0-.5-.5ZM11 1v10H1V1h10Z"/><path d="M15.992 4.41A.5.5 0 0 0 15.5 4h-2l-.09.008A.5.5 0 0 0 13 4.5l.008.09A.5.5 0 0 0 13.5 5H15v10H5v-1.5l-.008-.09A.5.5 0 0 0 4 13.5v2l.008.09A.5.5 0 0 0 4.5 16h11l.09-.008A.5.5 0 0 0 16 15.5v-11l-.008-.09Z"/></svg>