<svg width="16" height="16" viewBox="0 0 16 16" xmlns="http://www.w3.org/2000/svg" class="icon icon-cpf" aria-hidden="true" focusable="false" fill="currentColor"><path fill-rule="evenodd" clip-rule="evenodd" d="M8.275 6.5V11c0 .5-.4.9-.9.9s-.8-.4-.8-.9V6.8l-1.2 1.3c-.3.3-.9.4-1.2 0-.3-.3-.4-.9 0-1.2l2.8-3.1c.3-.4.9-.4 1.3 0l2.9 3.1c.3.3.3.9 0 1.2-.3.3-.9.3-1.2 0l-1.7-1.6Zm4.4-.3c-.1-.1-.1-.3 0-.4.1-.1.3-.1.4 0l2.2 2.5c.1.1.1.3 0 .4l-7.5 7.2c-.1.1-.3.1-.4 0l-7.3-7.2c-.1-.1-.1-.3 0-.4l2.4-2.5c.1-.1.3-.1.4 0 .1.1.1.3 0 .4l-2.2 2.3 7 6.8 7-6.8-2-2.3Zm-5.3-3.5c-.7 0-1.3-.6-1.3-1.3 0-.7.6-1.4 1.3-1.4.7 0 1.3.6 1.3 1.3 0 .7-.5 1.4-1.3 1.4Z"/></svg>