<svg width="16" height="16" viewBox="0 0 16 16" xmlns="http://www.w3.org/2000/svg" class="icon icon-credit-card" aria-hidden="true" focusable="false" fill="currentColor"><path d="M7 10.5a.5.5 0 0 0-.5-.5h-3l-.09.008A.5.5 0 0 0 3.5 11h3l.09-.008A.5.5 0 0 0 7 10.5Zm6 0a.5.5 0 0 0-.5-.5h-1l-.09.008a.5.5 0 0 0 .09.992h1l.09-.008A.5.5 0 0 0 13 10.5Z"/><path fill-rule="evenodd" clip-rule="evenodd" d="M14.5 2h-13A1.5 1.5 0 0 0 0 3.5v9A1.5 1.5 0 0 0 1.5 14h13a1.5 1.5 0 0 0 1.5-1.5v-9A1.5 1.5 0 0 0 14.5 2Zm.5 4V3.5a.5.5 0 0 0-.5-.5h-13a.5.5 0 0 0-.5.5V6h14ZM1 7h14v5.5a.5.5 0 0 1-.5.5h-13a.5.5 0 0 1-.5-.5V7Z"/></svg>