<svg width="16" height="16" viewBox="0 0 16 16" xmlns="http://www.w3.org/2000/svg" class="icon icon-deaf" aria-hidden="true" focusable="false" fill="currentColor"><path d="M8 0c3.076 0 5.5 2.424 5.5 5.5 0 1.67-.416 2.67-1.448 3.966l-.62.748c-.67.816-1.07 1.442-1.364 2.263l-.094.281C9.226 15.003 8.414 16 6.6 16c-.92 0-1.766-.438-2.384-1.18a.5.5 0 0 1 .768-.64c.437.524 1.008.82 1.616.82 1.194 0 1.752-.625 2.345-2.322l.078-.227c.312-1 .732-1.732 1.422-2.606l.315-.385.215-.259.119-.141C12.128 7.81 12.5 7 12.5 5.5 12.5 2.976 10.524 1 8 1S3.5 2.976 3.5 5.5a.5.5 0 0 1-1 0C2.5 2.424 4.924 0 8 0Zm7.454.546a.5.5 0 0 0-.707 0l-1 1-.058.07a.5.5 0 0 0 .765.637l1-1 .058-.069a.5.5 0 0 0-.058-.638Z"/><path d="M10.595 5.338A2.613 2.613 0 0 0 8 2.9a2.612 2.612 0 0 0-2.6 2.6.5.5 0 0 0 1 0c0-.886.738-1.6 1.6-1.6.887 0 1.6.737 1.6 1.6v.4l.008.09a.5.5 0 0 0 .992-.09v-.4l-.005-.162ZM8.754 7.247a.5.5 0 0 0-.707 0l-7.5 7.5-.058.069a.5.5 0 0 0 .765.638l7.5-7.5.058-.07a.5.5 0 0 0-.058-.637Z"/></svg>