<svg width="16" height="16" viewBox="0 0 16 16" xmlns="http://www.w3.org/2000/svg" class="icon icon-deal" aria-hidden="true" focusable="false" fill="currentColor"><path fill-rule="evenodd" clip-rule="evenodd" d="M3 1a2 2 0 1 0 0 4 2 2 0 0 0 0-4Zm0 1a1 1 0 1 1 0 2 1 1 0 0 1 0-2Z"/><path d="m4.674 6.96-.021-.027-.155-.143C3.89 6.254 3.29 6 2.5 6A2.445 2.445 0 0 0 0 8.514V14.5l.008.09A.5.5 0 0 0 .5 15h4l.09-.008A.5.5 0 0 0 5 14.5v-4l-.008-.09A.5.5 0 0 0 4.5 10l-.09.008A.5.5 0 0 0 4 10.5v3.499H1V8.5l.003-.153A1.446 1.446 0 0 1 2.485 7c.593 0 .993.19 1.487.664a9.7 9.7 0 0 1 .498.525l.362.406.491.536c.443.466.868.863 1.365 1.26a.5.5 0 0 0 .624-.782c-.777-.62-2.428-2.403-2.638-2.648Zm6.828-.17c.608-.536 1.207-.79 1.984-.79a2.445 2.445 0 0 1 2.511 2.303L16 8.5v6a.5.5 0 0 1-.41.492L15.5 15h-4a.5.5 0 0 1-.492-.41L11 14.5v-4a.5.5 0 0 1 .992-.09l.008.09V14h3V8.486a1.445 1.445 0 0 0-.323-.953l-.1-.11A1.454 1.454 0 0 0 13.5 7c-.579 0-.978.19-1.472.664a7.148 7.148 0 0 0-.274.28l-.809.9a13.79 13.79 0 0 1-1.633 1.547.5.5 0 0 1-.624-.782l.194-.163c.9-.786 2.5-2.532 2.465-2.513l.155-.143Z"/><path fill-rule="evenodd" clip-rule="evenodd" d="M13 1a2 2 0 1 0 0 4 2 2 0 0 0 0-4Zm0 1a1 1 0 1 1 0 2 1 1 0 0 1 0-2Z"/></svg>