<svg width="16" height="16" viewBox="0 0 16 16" xmlns="http://www.w3.org/2000/svg" class="icon icon-describe" aria-hidden="true" focusable="false" fill="currentColor"><path d="M8.5 7a.5.5 0 0 1 .09.992L8.5 8h-6a.5.5 0 0 1-.09-.992L2.5 7h6Zm5.5.5a.5.5 0 0 0-.5-.5h-2l-.09.008A.5.5 0 0 0 11.5 8h2l.09-.008A.5.5 0 0 0 14 7.5Z"/><path fill-rule="evenodd" clip-rule="evenodd" d="M1.5 0h13A1.5 1.5 0 0 1 16 1.5v8a1.5 1.5 0 0 1-1.5 1.5H9.351l-4.526 3.88a.5.5 0 0 1-.819-.297L4 14.5V11H1.5A1.5 1.5 0 0 1 .007 9.644L0 9.5v-8A1.5 1.5 0 0 1 1.5 0Zm13 1h-13a.5.5 0 0 0-.5.5v8a.5.5 0 0 0 .5.5h3a.5.5 0 0 1 .5.5v2.912l3.842-3.292a.5.5 0 0 1 .237-.112L9.167 10H14.5a.5.5 0 0 0 .5-.5v-8a.5.5 0 0 0-.5-.5Z"/></svg>