<svg width="16" height="16" viewBox="0 0 16 16" xmlns="http://www.w3.org/2000/svg" class="icon icon-discrimination" aria-hidden="true" focusable="false" fill="currentColor"><path fill-rule="evenodd" clip-rule="evenodd" d="M2.7 3a2 2 0 1 1 4 0 2 2 0 0 1-4 0Zm3 0a1 1 0 1 0-2 0 1 1 0 0 0 2 0Zm-1 3h.1c.984 0 1.687.484 2.113 1.259.244.444.353.88.387 1.241v6a.5.5 0 0 1-.5.5h-4a.5.5 0 0 1-.5-.5v-6C2.3 7.111 3.334 6 4.7 6Zm.1 1h-.1c-.797 0-1.4.648-1.4 1.5V14h3l.002-5.45a2.207 2.207 0 0 0-.189-.656l-.076-.153C5.775 7.266 5.39 7 4.8 7Z"/><path d="M11.3 1a2 2 0 1 1 0 4 2 2 0 0 1 0-4Zm.1 5c1.176 0 2.205.947 2.376 2.165l.018.168.006.167v6a.5.5 0 0 1-.41.492L13.3 15h-4a.5.5 0 0 1-.492-.41L8.8 14.5l.004-6.066c.039-.331.15-.754.383-1.175.36-.656.923-1.108 1.712-1.229l.187-.022L11.3 6h.1Z"/></svg>