<svg width="16" height="16" viewBox="0 0 16 16" xmlns="http://www.w3.org/2000/svg" class="icon icon-double-file" aria-hidden="true" focusable="false" fill="currentColor"><path d="M14.5 0a.5.5 0 0 1 .492.41L15 .5v13a.5.5 0 0 1-.992.09L14 13.5V1H3.5a.5.5 0 0 1-.492-.41L3 .5a.5.5 0 0 1 .41-.492L3.5 0h11Z"/><path d="M9 6.5a.5.5 0 0 0-.5-.5h-4l-.09.008A.5.5 0 0 0 4.5 7h4l.09-.008A.5.5 0 0 0 9 6.5ZM8.5 9a.5.5 0 0 1 .09.992L8.5 10h-4a.5.5 0 0 1-.09-.992L4.5 9h4Zm.5 3.5a.5.5 0 0 0-.5-.5h-4l-.09.008A.5.5 0 0 0 4.5 13h4l.09-.008A.5.5 0 0 0 9 12.5Z"/><path fill-rule="evenodd" clip-rule="evenodd" d="M1.5 3h10a.5.5 0 0 1 .5.5v12a.5.5 0 0 1-.5.5h-10a.5.5 0 0 1-.5-.5v-12a.5.5 0 0 1 .5-.5ZM11 4H2v11h9V4Z"/></svg>