<svg width="16" height="16" viewBox="0 0 16 16" xmlns="http://www.w3.org/2000/svg" class="icon icon-double-chevron-r" aria-hidden="true" focusable="false" fill="currentColor"><path d="M7.173 15.878a.5.5 0 0 0 .705-.05l6.5-7.5.053-.075a.5.5 0 0 0-.053-.58l-6.5-7.5L7.813.11a.5.5 0 0 0-.64.012L7.11.187a.5.5 0 0 0 .012.64L13.34 8l-6.217 7.172-.053.074a.5.5 0 0 0 .104.632Z"/><path d="M1.173 15.878a.5.5 0 0 0 .705-.05l6.5-7.5.053-.075a.5.5 0 0 0-.053-.58l-6.5-7.5L1.813.11a.5.5 0 0 0-.64.012L1.11.187a.5.5 0 0 0 .012.64L7.34 8l-6.217 7.172-.053.074a.5.5 0 0 0 .104.632Z"/></svg>