<svg width="16" height="16" viewBox="0 0 16 16" xmlns="http://www.w3.org/2000/svg" class="icon icon-double-chevron-l" aria-hidden="true" focusable="false" fill="currentColor"><path d="M8.327.122a.5.5 0 0 0-.705.05l-6.5 7.5-.053.075a.5.5 0 0 0 .053.58l6.5 7.5.065.063a.5.5 0 0 0 .64-.012l.063-.065a.5.5 0 0 0-.012-.64L2.16 8 8.378.827 8.43.754a.5.5 0 0 0-.104-.632Z"/><path d="M14.328.122a.5.5 0 0 0-.706.05l-6.5 7.5-.053.075a.5.5 0 0 0 .053.58l6.5 7.5.065.063a.5.5 0 0 0 .64-.012l.063-.065a.5.5 0 0 0-.012-.64L8.16 8 14.378.827l.053-.073a.5.5 0 0 0-.103-.632Z"/></svg>