<svg width="16" height="16" viewBox="0 0 16 16" xmlns="http://www.w3.org/2000/svg" class="icon icon-draft" aria-hidden="true" focusable="false" fill="currentColor"><path fill-rule="evenodd" clip-rule="evenodd" d="M7.584 2.822 3.588 8.616l-.045.082a.5.5 0 0 0 .019.443L5.354 12.4H4.4l-.09.008a.5.5 0 0 0 .09.992h1.783a.48.48 0 0 0 .034 0h3.566a.48.48 0 0 0 .034 0H11.6l.09-.008a.5.5 0 0 0-.09-.992h-.954l1.792-3.259.037-.086a.5.5 0 0 0-.063-.439L8.416 2.822a.502.502 0 0 0-.062-.075l-.002-.002a.496.496 0 0 0-.417-.14.495.495 0 0 0-.35.217ZM7.5 7.592a1.4 1.4 0 1 0 1 0V4.706l2.913 4.224-1.909 3.47H6.495L4.586 8.93 7.5 4.706v2.886ZM8.4 8.9a.4.4 0 1 0-.8 0 .4.4 0 0 0 .8 0Z"/><path fill-rule="evenodd" clip-rule="evenodd" d="M1.5 0h13a.5.5 0 0 1 .5.5v15a.5.5 0 0 1-.5.5h-13a.5.5 0 0 1-.5-.5V.5a.5.5 0 0 1 .5-.5ZM14 15V1H2v14h12Z"/></svg>