<svg width="16" height="16" viewBox="0 0 16 16" xmlns="http://www.w3.org/2000/svg" class="icon icon-edit" aria-hidden="true" focusable="false" fill="currentColor"><path fill-rule="evenodd" clip-rule="evenodd" d="m4.647 8.146 5.993-5.993.006-.007.007-.006L12.647.146a.5.5 0 0 1 .707 0l2.5 2.5a.5.5 0 0 1 0 .708l-8 8a.501.501 0 0 1-.217.127l-3.5 1a.5.5 0 0 1-.618-.618l1-3.5a.5.5 0 0 1 .128-.217Zm.797.617L11 3.207 12.793 5l-5.556 5.556-2.51.717.717-2.51ZM14.794 3 13.5 4.293 11.707 2.5 13 1.207 14.793 3Z"/><path d="M7 2.5a.5.5 0 0 0-.5-.5h-5l-.144.007A1.5 1.5 0 0 0 0 3.5v11l.007.144A1.5 1.5 0 0 0 1.5 16h11l.144-.007A1.5 1.5 0 0 0 14 14.5v-5l-.008-.09A.5.5 0 0 0 13 9.5v5l-.008.09a.5.5 0 0 1-.492.41h-11l-.09-.008A.5.5 0 0 1 1 14.5v-11l.008-.09A.5.5 0 0 1 1.5 3h5l.09-.008A.5.5 0 0 0 7 2.5Z"/></svg>