<svg width="17" height="16" viewBox="0 0 17 16" xmlns="http://www.w3.org/2000/svg" class="icon icon-emploi-store" aria-hidden="true" focusable="false" fill="currentColor"><path fill-rule="evenodd" clip-rule="evenodd" d="M0 4.4C0 3.4.5 3 1.4 3h5c.4 0 .8.1 1 .3.2.2.3.5.3.8 0 .3 0 .5-.1.7-.2.2-.2.4-.3.5H2.4v1.6h3.8c.4 0 .8.1 1 .3.2.2.3.5.3.8 0 .3 0 .5-.1.7-.1.1-.2.3-.3.4H2.4v1.6h5.1V13H0V4.4Zm15.5-.1c0 .1 0 .2-.1.3-.1.1-.1.2-.2.2-.1-.1-.2-.2-.4-.3-.2-.1-.4-.2-.7-.3-.3-.1-.6-.2-1-.3-.4-.1-.8-.1-1.2-.1-1.9 0-2.8.6-2.8 1.8 0 .3.1.5.2.7.1.2.3.4.5.5.2.1.4.2.7.3.3.1.6.2 1 .2l1.7.3c1 .2 1.7.5 2.2.9.5.4.7 1 .7 1.7 0 .4-.1.8-.2 1.1-.2.3-.4.6-.7.9-.3.2-.7.4-1.2.6-.7.2-1.3.2-1.9.2-.5 0-1 0-1.4-.1-.4-.1-.8-.2-1.1-.3-.3-.1-.6-.2-.9-.4-.3-.1-.5-.2-.7-.3l.5-.8c.1.1.3.2.5.3.2.1.5.2.8.3.3.1.6.2 1 .3.4.1.8.1 1.3.1.9 0 1.6-.1 2.1-.5.5-.3.8-.8.8-1.4 0-.3-.1-.6-.2-.8-.1-.2-.3-.4-.5-.5-.2-.1-.5-.2-.7-.3-.3-.1-.6-.1-.9-.2L11 8.2c-.4-.1-.8-.2-1.1-.3-.4-.1-.7-.3-1-.5-.2-.2-.4-.4-.6-.7-.1-.3-.2-.7-.2-1.1 0-.4.1-.7.2-1 .1-.3.3-.6.6-.8.3-.2.7-.4 1.2-.6.5-.2 1.1-.2 1.8-.2.5 0 1 0 1.3.1.4.1.7.1 1 .2.3.1.5.2.6.3.2.1.3.2.3.2.2.1.3.2.3.2.1.1.1.2.1.3Z"/></svg>