<svg width="16" height="16" viewBox="0 0 16 16" xmlns="http://www.w3.org/2000/svg" class="icon icon-enlarge" aria-hidden="true" focusable="false" fill="currentColor"><path d="M15.992.41A.5.5 0 0 0 15.5 0h-5l-.09.008A.5.5 0 0 0 10 .5l.008.09A.5.5 0 0 0 10.5 1h3.793l-3.147 3.146-.057.07a.5.5 0 0 0 .765.638L15 1.707V5.5l.008.09A.5.5 0 0 0 16 5.5v-5l-.008-.09Zm-15 10A.5.5 0 0 0 0 10.5v5l.008.09A.5.5 0 0 0 .5 16h5l.09-.008A.5.5 0 0 0 6 15.5l-.008-.09A.5.5 0 0 0 5.5 15H1.707l3.147-3.146.057-.07a.5.5 0 0 0-.765-.638L1 14.293V10.5l-.008-.09ZM5.5 0a.5.5 0 0 1 .09.992L5.5 1H1.707l3.147 3.146a.5.5 0 0 1-.638.765l-.07-.057L1 1.707V5.5a.5.5 0 0 1-.41.492L.5 6a.5.5 0 0 1-.492-.41L0 5.5v-5A.5.5 0 0 1 .41.008L.5 0h5Zm10 10a.5.5 0 0 1 .492.41l.008.09v5a.5.5 0 0 1-.41.492L15.5 16h-5a.5.5 0 0 1-.09-.992L10.5 15h3.793l-3.147-3.146a.5.5 0 0 1 .638-.765l.07.057L15 14.293V10.5a.5.5 0 0 1 .41-.492L15.5 10Z"/></svg>