<svg width="16" height="16" viewBox="0 0 16 16" xmlns="http://www.w3.org/2000/svg" class="icon icon-espace-perso" aria-hidden="true" focusable="false" fill="currentColor"><path fill-rule="evenodd" clip-rule="evenodd" d="M7.06 4.48a.849.849 0 0 1 .287.644.848.848 0 0 1-.276.635.974.974 0 0 1-.665.276h-.009a.782.782 0 0 0-.023.002h-.003l-.013-.002h-.637v1.047a.245.245 0 0 1-.074.18.251.251 0 0 1-.183.076.243.243 0 0 1-.181-.076.244.244 0 0 1-.076-.18V4.469c0-.07.025-.13.076-.18.05-.05.11-.076.18-.076h.908a.97.97 0 0 1 .689.267Zm-.675 1.042a.477.477 0 0 0 .316-.12.36.36 0 0 0-.004-.559.483.483 0 0 0-.327-.117h-.65v.796h.665Z"/><path d="M.343 7.338h1.575a.243.243 0 0 0 .18-.076c.05-.05.076-.11.076-.18a.25.25 0 0 0-.076-.183.243.243 0 0 0-.18-.076H.602v-.79h.948a.253.253 0 0 0 .183-.074.25.25 0 0 0 .076-.182.251.251 0 0 0-.076-.183.253.253 0 0 0-.183-.074H.602v-.79l1.316.005a.243.243 0 0 0 .18-.076c.05-.05.076-.11.076-.18a.253.253 0 0 0-.074-.184.25.25 0 0 0-.183-.076L.342 4.215a.243.243 0 0 0-.18.076.243.243 0 0 0-.076.182v2.609c0 .07.025.13.076.18.05.05.11.076.18.076Zm15.316 0h-1.575a.242.242 0 0 1-.18-.076.242.242 0 0 1-.077-.18V4.473c0-.072.025-.133.076-.182a.242.242 0 0 1 .18-.076l1.576.004a.255.255 0 0 1 .257.259.244.244 0 0 1-.077.18.243.243 0 0 1-.18.077l-1.316-.005v.79h.948c.071 0 .132.024.183.074.05.05.076.112.076.183a.25.25 0 0 1-.076.182.252.252 0 0 1-.183.074h-.948v.79h1.316c.07 0 .13.025.18.076a.25.25 0 0 1 .077.183.244.244 0 0 1-.077.18.243.243 0 0 1-.18.076Z"/><path fill-rule="evenodd" clip-rule="evenodd" d="m7.895 7.339-.047-.02a.256.256 0 0 1-.141-.335l.276-.663v-.003l.8-1.931a.146.146 0 0 1 .011-.022l.005-.01a.073.073 0 0 1 .009-.012c0-.002.002-.005.007-.01l.008-.01c0-.001.002-.004.007-.008l.008-.011.002-.002a.07.07 0 0 1 .007-.005.042.042 0 0 1 .011-.008l.009-.007a.115.115 0 0 0 .008-.006l.002-.002.009-.007a.045.045 0 0 1 .014-.006l.01-.005.005-.002.006-.004.003-.001a.081.081 0 0 0 .006-.003l.006-.002c.004 0 .007-.002.009-.003a.082.082 0 0 0 .015-.004l.009-.002a.086.086 0 0 0 .016-.003l.01-.002h.05l.014.002.01.003c.003 0 .008.001.015.004l.01.002a.17.17 0 0 1 .048.02l.008.004a.115.115 0 0 1 .014.009l.008.006a.214.214 0 0 1 .009.007l.003.002.008.006a.046.046 0 0 0 .01.009c0 .001.002.004.007.008l.009.011.007.01.008.01.006.011.007.011a.122.122 0 0 1 .01.022l.801 1.931v.003l.277.663a.255.255 0 0 1-.14.335.255.255 0 0 1-.098.02.238.238 0 0 1-.237-.159l-.209-.505H8.391l-.209.505a.237.237 0 0 1-.237.159h-.05ZM9.44 6.164l-.42-1.009-.418 1.009h.838Z"/><path d="M12.2 7.339c.401 0 .75-.135 1.048-.405a.246.246 0 0 0 .083-.178.248.248 0 0 0-.068-.185.244.244 0 0 0-.178-.085.246.246 0 0 0-.185.068c-.198.18-.431.27-.701.27a.998.998 0 0 1-.732-.305.999.999 0 0 1-.306-.733 1 1 0 0 1 .306-.735.998.998 0 0 1 .732-.305c.236 0 .447.072.633.215.056.043.12.06.191.05a.242.242 0 0 0 .17-.098.254.254 0 0 0-.046-.36 1.515 1.515 0 0 0-.948-.323c-.428 0-.794.152-1.098.457a1.496 1.496 0 0 0-.455 1.099c0 .427.152.794.455 1.098a1.5 1.5 0 0 0 1.098.455Zm-8.583-.512a.511.511 0 0 0 .35-.129h.001a.422.422 0 0 0 .157-.313.269.269 0 0 0-.08-.202c-.09-.096-.24-.145-.453-.148h-.01c-.356-.006-.628-.108-.817-.307a.763.763 0 0 1-.217-.576.921.921 0 0 1 .31-.662c.197-.18.432-.27.706-.27.236 0 .448.051.635.153a.827.827 0 0 1 .428.53.242.242 0 0 1-.028.194.24.24 0 0 1-.154.118.25.25 0 0 1-.194-.026.247.247 0 0 1-.117-.157c-.027-.097-.098-.173-.216-.228a.83.83 0 0 0-.354-.072.52.52 0 0 0-.353.128.431.431 0 0 0-.154.314.276.276 0 0 0 .08.204c.09.094.24.143.453.146h.01c.355.005.627.108.816.308a.759.759 0 0 1 .217.577.921.921 0 0 1-.31.659 1.01 1.01 0 0 1-.706.27 1.31 1.31 0 0 1-.635-.153.825.825 0 0 1-.428-.53.252.252 0 0 1 .182-.311.252.252 0 0 1 .311.182c.026.098.097.174.213.229a.844.844 0 0 0 .357.072Z"/><path fill-rule="evenodd" clip-rule="evenodd" d="M1.183 9.016a.62.62 0 0 0-.44-.171h-.58a.154.154 0 0 0-.115.048.154.154 0 0 0-.048.115v1.668c0 .045.016.084.049.115.031.033.07.049.115.049a.158.158 0 0 0 .116-.049.157.157 0 0 0 .047-.115v-.668h.407l.009.001h.022a.621.621 0 0 0 .424-.177.542.542 0 0 0 .176-.406.54.54 0 0 0-.182-.41Zm-.23.588a.306.306 0 0 1-.2.077H.326v-.508h.415c.082 0 .151.025.209.075a.23.23 0 0 1 .003.356Z"/><path d="M2.874 9.178v-.001l-.84-.003v.503h.606a.16.16 0 0 1 .116.048.16.16 0 0 1 .049.117.16.16 0 0 1-.049.116.156.156 0 0 1-.116.048h-.605v.504h.84c.045 0 .083.017.115.049a.158.158 0 0 1 .048.116.154.154 0 0 1-.048.116.154.154 0 0 1-.116.048H1.87a.154.154 0 0 1-.115-.048.156.156 0 0 1-.049-.116V9.011c0-.046.017-.085.049-.116a.155.155 0 0 1 .115-.049l1.005.003a.163.163 0 0 1 .164.165.154.154 0 0 1-.048.116.157.157 0 0 1-.116.048Z"/><path fill-rule="evenodd" clip-rule="evenodd" d="M4.7 9.426a.531.531 0 0 1-.115.331.59.59 0 0 1-.288.21l.315.638c.02.04.022.081.007.124a.157.157 0 0 1-.082.094.17.17 0 0 1-.072.017.15.15 0 0 1-.146-.092l-.368-.745H3.67v.662a.156.156 0 0 1-.048.115.156.156 0 0 1-.115.048.158.158 0 0 1-.116-.048.159.159 0 0 1-.047-.115V9.011a.16.16 0 0 1 .047-.116.158.158 0 0 1 .116-.048h.574a.61.61 0 0 1 .437.17.54.54 0 0 1 .182.409Zm-.609.25a.31.31 0 0 0 .2-.076.227.227 0 0 0-.004-.354.309.309 0 0 0-.207-.073h-.411v.504h.422Z"/><path d="M5.626 9.177a.33.33 0 0 0-.225.082.28.28 0 0 0-.099.2.175.175 0 0 0 .052.13c.057.06.153.092.288.094h.007c.227.003.4.069.52.197a.482.482 0 0 1 .14.367.587.587 0 0 1-.199.421.645.645 0 0 1-.45.172.832.832 0 0 1-.404-.097.526.526 0 0 1-.274-.339.16.16 0 0 1 .117-.198.162.162 0 0 1 .198.117c.017.061.062.11.136.145a.54.54 0 0 0 .228.046.325.325 0 0 0 .223-.082.269.269 0 0 0 .1-.2.173.173 0 0 0-.051-.128c-.058-.061-.154-.093-.29-.095h-.006c-.227-.004-.4-.07-.52-.196a.485.485 0 0 1-.14-.368.587.587 0 0 1 .2-.421.639.639 0 0 1 .449-.173c.15 0 .286.033.405.098.143.077.235.19.273.338a.156.156 0 0 1-.018.124.153.153 0 0 1-.098.074.162.162 0 0 1-.198-.116c-.017-.062-.063-.11-.138-.146a.533.533 0 0 0-.226-.046Z"/><path fill-rule="evenodd" clip-rule="evenodd" d="M6.857 9.138a.96.96 0 0 1 .704-.291.97.97 0 0 1 .706.29.967.967 0 0 1 .291.706.96.96 0 0 1-.291.704.963.963 0 0 1-.705.293.96.96 0 0 1-.705-.293.956.956 0 0 1-.293-.704c0-.275.098-.51.293-.705Zm.705 1.374a.645.645 0 0 0 .473-.197.641.641 0 0 0 .196-.472.646.646 0 0 0-.196-.473.648.648 0 0 0-.473-.196.643.643 0 0 0-.472.196.647.647 0 0 0-.197.473.64.64 0 0 0 .197.472.64.64 0 0 0 .472.197Z"/><path d="M10.3 8.898a.16.16 0 0 1 .117-.049l.001-.002c.045 0 .084.017.115.049.033.031.049.07.049.115v1.666l-.002.008v.007a.03.03 0 0 1-.001.008c0 .004 0 .007-.002.009v.007a.02.02 0 0 1-.002.007l-.001.001-.003.007-.002.008-.004.008-.004.007v.002l-.002.003-.002.003-.004.005-.002.002a.053.053 0 0 1-.004.006l-.004.006h-.001l-.005.006-.005.005-.004.004-.002.002a.03.03 0 0 1-.007.005l-.002.001v.002a.139.139 0 0 1-.021.014h-.002a.143.143 0 0 1-.022.01l-.004.002a.083.083 0 0 1-.023.005l-.004.001a.198.198 0 0 1-.045 0h-.004a.045.045 0 0 1-.01-.003h-.002l-.003-.001a.064.064 0 0 1-.014-.005h-.002a.07.07 0 0 1-.008-.003l-.004-.002a.005.005 0 0 1-.005-.003l-.008-.003-.002-.001-.003-.002-.003-.002-.003-.003-.002-.001-.005-.003a.022.022 0 0 1-.004-.003l-.001-.001-.005-.004a.118.118 0 0 1-.008-.008l-.002-.001v-.001l-.005-.006-.004-.005h-.002v-.002L9.29 9.491v1.184a.156.156 0 0 1-.048.116.155.155 0 0 1-.115.048.155.155 0 0 1-.115-.048.154.154 0 0 1-.049-.116V9.013a.16.16 0 0 1 .111-.154.159.159 0 0 1 .182.054l.998 1.286V9.013c0-.045.016-.084.047-.115Zm2.2-.048a.158.158 0 0 0-.117.048.159.159 0 0 0-.047.115V10.2l-.999-1.286a.16.16 0 0 0-.181-.054.16.16 0 0 0-.08.06.157.157 0 0 0-.031.094v1.662c0 .046.016.084.048.116s.07.048.116.048a.153.153 0 0 0 .115-.048.154.154 0 0 0 .048-.116V9.491l.999 1.284v.002h.001a.122.122 0 0 1 .005.005l.005.006.001.002a.095.095 0 0 0 .013.012l.002.001.003.003a.03.03 0 0 0 .004.003l.002.001.004.003s.002 0 .003.002l.002.002c.003 0 .006.002.01.004l.006.003a.082.082 0 0 0 .01.004.092.092 0 0 0 .018.005l.003.002h.003a.042.042 0 0 0 .01.002l.003.001h.003a.191.191 0 0 0 .041 0l.005-.001a.095.095 0 0 0 .024-.006l.003-.001a.143.143 0 0 0 .022-.01h.001a.139.139 0 0 0 .021-.014l.002-.002.003-.002-.002.001h.002a.023.023 0 0 0 .005-.005.024.024 0 0 0 .005-.006l.006-.005.006-.006.004-.006a.023.023 0 0 0 .005-.008l.005-.005.001-.002a.068.068 0 0 0 .003-.006l.005-.007.002-.007a.026.026 0 0 0 .003-.009l.003-.007.002-.003v-.003l.001-.002.001-.007c.002-.002.002-.005.002-.009a.026.026 0 0 0 0-.008v-.007a.038.038 0 0 0 .002-.008V9.01a.153.153 0 0 0-.049-.115.155.155 0 0 0-.115-.049l-.002.002Zm1.796.328h-.002v-.001l-.838-.003v.503h.606c.045 0 .084.016.116.048a.156.156 0 0 1 .048.117.156.156 0 0 1-.048.116.158.158 0 0 1-.117.048h-.605v.504h.84c.046 0 .084.017.116.049a.158.158 0 0 1 .048.116.154.154 0 0 1-.049.116.154.154 0 0 1-.115.048h-1.005a.153.153 0 0 1-.115-.048.153.153 0 0 1-.049-.116V9.011c0-.046.016-.085.049-.116a.153.153 0 0 1 .115-.049l1.005.003c.045 0 .084.017.117.049a.16.16 0 0 1 .046.116.154.154 0 0 1-.048.116.158.158 0 0 1-.115.048Zm1.657 1.382a.161.161 0 0 0-.117-.048h-.734V9.013a.154.154 0 0 0-.049-.115.155.155 0 0 0-.115-.049.155.155 0 0 0-.115.049.156.156 0 0 0-.049.115v1.663c0 .045.017.084.049.115.031.033.07.049.115.049h.898a.158.158 0 0 0 .117-.049.159.159 0 0 0 .047-.115.158.158 0 0 0-.047-.115Z"/></svg>