<svg width="16" height="16" viewBox="0 0 16 16" xmlns="http://www.w3.org/2000/svg" class="icon icon-excel" aria-hidden="true" focusable="false" fill="currentColor"><path fill-rule="evenodd" clip-rule="evenodd" d="M4.5 7a.5.5 0 0 0-.5.5v6a.5.5 0 0 0 .5.5h7a.5.5 0 0 0 .5-.5v-6a.5.5 0 0 0-.5-.5h-7ZM11 9V8H7.5v1H11ZM6.5 9H5V8h1.5v1Zm1 4H11v-1H7.5v1Zm-1-1v1H5v-1h1.5Zm0-1H5v-1h1.5v1Zm1 0v-1H11v1H7.5Z"/><path fill-rule="evenodd" clip-rule="evenodd" d="M9.5 0h-8a.5.5 0 0 0-.5.5v15a.5.5 0 0 0 .5.5h13a.5.5 0 0 0 .5-.5v-10a.497.497 0 0 0-.146-.353l-5-5A.5.5 0 0 0 9.5 0ZM9 1H2v14h12V6H9.5a.5.5 0 0 1-.492-.41L9 5.5V1Zm4.293 4L10 1.707V5h3.293Z"/></svg>