<svg width="16" height="16" viewBox="0 0 16 16" xmlns="http://www.w3.org/2000/svg" class="icon icon-exchange" aria-hidden="true" focusable="false" fill="currentColor"><path fill-rule="evenodd" clip-rule="evenodd" d="M1.365 2.176c0 1.173.96 2.528 2.187 2.528v.01c1.237 0 2.187-1.322 2.187-2.527A2.19 2.19 0 0 0 3.552 0C2.347 0 1.365 1.003 1.365 2.176Zm.95 0a1.238 1.238 0 0 1 2.474 0c0 .693-.586 1.579-1.237 1.579-.65 0-1.237-.896-1.237-1.579Z"/><path d="M10.41 5.248a.444.444 0 0 0 .33.139v-.01a.47.47 0 0 0 .33-.8L9.836 3.338h1.59a2.274 2.274 0 0 1 2.272 2.272v.34c0 .257.213.47.469.47s.47-.213.47-.47v-.34a3.214 3.214 0 0 0-3.211-3.211h-1.61l1.258-1.258a.47.47 0 0 0 0-.662.47.47 0 0 0-.662 0l-2.05 2.049 2.048 2.72ZM6.187 13.6H4.576c-1.77 0-3.21-1.44-3.21-3.21v-.342c0-.256.213-.47.469-.47s.469.214.469.47v.341a2.274 2.274 0 0 0 2.272 2.272h1.59l-1.238-1.237a.47.47 0 0 1 0-.662.47.47 0 0 1 .661 0l1.941 1.952a.474.474 0 0 1 .257.417.462.462 0 0 1-.063.232.463.463 0 0 1-.087.12L5.59 15.53a.46.46 0 0 1-.33.14v-.011a.444.444 0 0 1-.331-.14.47.47 0 0 1 0-.66l1.259-1.26Z"/><path fill-rule="evenodd" clip-rule="evenodd" d="M6.635 8.128H.469A.473.473 0 0 1 0 7.658v-.767c0-.821.533-1.536 1.323-1.76 1.482-.437 2.922-.448 4.458 0A1.83 1.83 0 0 1 7.104 6.9v.758c0 .256-.213.47-.47.47Zm-.47-.938H.95v-.288c0-.406.256-.747.64-.864 1.312-.395 2.56-.406 3.926 0a.89.89 0 0 1 .65.864v.288ZM15.531 16H9.366a.473.473 0 0 1-.47-.47v-.767c0-.821.534-1.536 1.323-1.76a7.65 7.65 0 0 1 4.459 0A1.83 1.83 0 0 1 16 14.773v.758c0 .256-.213.47-.469.47Zm-5.685-.938h5.216v-.288a.89.89 0 0 0-.65-.864 6.742 6.742 0 0 0-3.926 0 .893.893 0 0 0-.64.864v.288Z"/><path fill-rule="evenodd" clip-rule="evenodd" d="M10.262 10.048c0 1.173.96 2.528 2.186 2.528 1.238 0 2.187-1.323 2.187-2.528a2.19 2.19 0 0 0-2.187-2.187c-1.205 0-2.186 1.014-2.186 2.187Zm.95 0a1.238 1.238 0 0 1 2.474 0c0 .693-.587 1.579-1.238 1.579-.65 0-1.237-.896-1.237-1.579Z"/></svg>