<svg width="16" height="16" viewBox="0 0 16 16" xmlns="http://www.w3.org/2000/svg" class="icon icon-export-resume" aria-hidden="true" focusable="false" fill="currentColor"><path d="M6.2 0a.5.5 0 0 1 .09.992L6.2 1H2v14h12V8a.5.5 0 0 1 .41-.492l.09-.008a.5.5 0 0 1 .492.41L15 8v7.5a.5.5 0 0 1-.41.492L14.5 16h-13a.5.5 0 0 1-.492-.41L1 15.5V.5a.5.5 0 0 1 .41-.492L1.5 0h4.7Z"/><path d="M11.5 9a.5.5 0 0 1 .09.992L11.5 10h-7a.5.5 0 0 1-.09-.992L4.5 9h7Zm.5 3.5a.5.5 0 0 0-.5-.5h-7l-.09.008A.5.5 0 0 0 4.5 13h7l.09-.008A.5.5 0 0 0 12 12.5Z"/><path fill-rule="evenodd" clip-rule="evenodd" d="M4.5 3h3a.5.5 0 0 1 .5.5v3a.5.5 0 0 1-.5.5h-3a.5.5 0 0 1-.5-.5v-3a.5.5 0 0 1 .5-.5ZM7 6V4H5v2h2Z"/><path d="M14.867 0c.261 0 .48.189.524.437v.004c.006.03.009.06.009.09v4.335a.533.533 0 0 1-1.058.096l-.009-.096V1.82l-3.356 3.356a.533.533 0 0 1-.816-.68l.062-.074 3.356-3.356h-3.046a.534.534 0 0 1-.524-.438L10 .533c0-.261.189-.48.438-.524L10.533 0h4.334Z"/></svg>