<svg width="16" height="16" viewBox="0 0 16 16" xmlns="http://www.w3.org/2000/svg" class="icon icon-eye-close" aria-hidden="true" focusable="false" fill="currentColor"><path d="M8.5 5.5A.5.5 0 0 0 8 5a3.5 3.5 0 0 0-3.5 3.5.5.5 0 0 0 1 0A2.5 2.5 0 0 1 8 6a.5.5 0 0 0 .5-.5ZM11 8a.5.5 0 0 1 .5.5A3.5 3.5 0 0 1 8 12a.5.5 0 0 1 0-1 2.5 2.5 0 0 0 2.5-2.5.5.5 0 0 1 .5-.5Z"/><path fill-rule="evenodd" clip-rule="evenodd" d="M15.354 1.146a.5.5 0 0 0-.708 0l-2.678 2.679C10.732 2.979 9.407 2.5 8 2.5c-2.13 0-4.073 1.097-5.8 2.905A15.415 15.415 0 0 0 .336 7.803l-.125.202c-.072.12-.122.206-.149.256a.5.5 0 0 0 0 .478l.099.173.05.083a15.416 15.416 0 0 0 1.991 2.6c.334.35.677.675 1.028.969L.646 15.146l-.057.07a.5.5 0 0 0 .765.638l2.678-2.679C5.267 14.021 6.593 14.5 8 14.5c2.13 0 4.073-1.097 5.8-2.905a15.42 15.42 0 0 0 1.865-2.398l.125-.202a7.21 7.21 0 0 0 .149-.256.5.5 0 0 0 0-.478l-.099-.173-.05-.083a15.42 15.42 0 0 0-1.991-2.6 12.7 12.7 0 0 0-1.028-.969l2.583-2.582.057-.07a.5.5 0 0 0-.057-.638Zm-4.108 3.4C10.211 3.874 9.124 3.5 8 3.5c-1.808 0-3.52.966-5.076 2.595A14.426 14.426 0 0 0 1.097 8.47l-.019.032.177.28.197.297a14.42 14.42 0 0 0 1.472 1.827c.332.347.67.664 1.016.948l7.306-7.306Zm-6.492 7.907 7.306-7.306c.346.284.684.6 1.016.948a14.42 14.42 0 0 1 1.472 1.827l.198.297.175.282-.175.28-.198.297a14.415 14.415 0 0 1-1.472 1.827C11.52 12.535 9.808 13.5 8 13.5c-1.124 0-2.21-.373-3.246-1.047Z"/></svg>