<svg width="16" height="16" viewBox="0 0 16 16" xmlns="http://www.w3.org/2000/svg" class="icon icon-eye" aria-hidden="true" focusable="false" fill="currentColor"><path fill-rule="evenodd" clip-rule="evenodd" d="M8 5a3 3 0 1 0 0 6 3 3 0 0 0 0-6Zm0 1a2 2 0 1 1 0 4 2 2 0 0 1 0-4Z"/><path fill-rule="evenodd" clip-rule="evenodd" d="M8 2C5.87 2 3.927 3.097 2.2 4.905A15.415 15.415 0 0 0 .336 7.303l-.125.202c-.072.12-.122.206-.149.256a.5.5 0 0 0 0 .478l.099.173.05.083a15.413 15.413 0 0 0 1.991 2.6C3.927 12.903 5.87 14 8 14s4.073-1.097 5.8-2.905a15.418 15.418 0 0 0 1.865-2.398l.125-.202a7.21 7.21 0 0 0 .149-.256.5.5 0 0 0 0-.478l-.099-.173-.05-.083a15.42 15.42 0 0 0-1.991-2.6C12.073 3.097 10.13 2 8 2Zm0 1c1.808 0 3.52.966 5.076 2.595a14.42 14.42 0 0 1 1.472 1.827l.198.297.175.282-.175.28-.198.297a14.418 14.418 0 0 1-1.472 1.827C11.52 12.035 9.808 13 8 13c-1.808 0-3.52-.966-5.076-2.595a14.43 14.43 0 0 1-1.472-1.827l-.197-.297L1.078 8l.02-.032a14.426 14.426 0 0 1 1.827-2.373C4.48 3.965 6.191 3 8 3Z"/></svg>