<svg width="16" height="16" viewBox="0 0 16 16" xmlns="http://www.w3.org/2000/svg" class="icon icon-faq" aria-hidden="true" focusable="false" fill="currentColor"><path d="M15.414 1.586A1.998 1.998 0 0 0 14 1H2a2 2 0 0 0-2 2v8a2.002 2.002 0 0 0 2 2h3.266l2.35 2.82a.5.5 0 0 0 .768 0l2.35-2.82H14a2.002 2.002 0 0 0 2-2V3a2 2 0 0 0-.586-1.414ZM15 11a1.002 1.002 0 0 1-1 1h-3.5a.504.504 0 0 0-.385.18L8 14.719 5.884 12.18A.5.5 0 0 0 5.5 12H2a.997.997 0 0 1-1-1V3a.997.997 0 0 1 1-1h12a1.003 1.003 0 0 1 1 1v8ZM4.96 6.602H2.928V5.1h2.33v-.707H2.051v5.048h.877V7.302H4.96v-.7Zm1.782-2.209L4.835 9.441h.912l.409-1.176h1.956l.414 1.176h.914L7.53 4.392l-.788.001Zm-.34 3.166.732-2.095.731 2.095H6.402Zm7.323.733c.15-.351.229-.765.229-1.243v-.281c-.002-.493-.092-.924-.266-1.295a1.936 1.936 0 0 0-.737-.853 2.054 2.054 0 0 0-1.102-.296c-.408 0-.772.1-1.092.3-.316.2-.563.488-.736.865-.175.376-.261.811-.261 1.303v.285c.002.483.09.909.266 1.279.176.371.422.656.742.855.318.199.685.301 1.09.301.162 0 .313-.016.453-.047l1.076.85.568-.512-.867-.678c.273-.205.484-.482.637-.833Zm-.655-1.243c0 .568-.104 1.001-.313 1.297-.21.296-.509.443-.899.443-.387 0-.687-.152-.898-.461-.214-.307-.318-.734-.318-1.279v-.295c.004-.541.111-.96.325-1.257.216-.297.511-.446.888-.446.389 0 .688.146.9.44.213.294.316.725.316 1.293v.265h-.001Z"/></svg>