<svg width="17" height="16" viewBox="0 0 17 16" xmlns="http://www.w3.org/2000/svg" class="icon icon-fax" aria-hidden="true" focusable="false" fill="currentColor"><path fill-rule="evenodd" clip-rule="evenodd" d="M7.3 1H3.2a.5.5 0 0 0-.5.5v13.6a.5.5 0 0 0 .5.5h4.1a.5.5 0 0 0 .5-.5V1.5a.5.5 0 0 0-.5-.5Zm-.5 1v12.6H3.7V2h3.1Z"/><path d="M10.2 8.3a.5.5 0 0 0-.5-.5H9l-.09.008A.5.5 0 0 0 9 8.8h.7l.09-.008a.5.5 0 0 0 .41-.492Zm3.6-.5a.5.5 0 0 1 .09.992l-.09.008h-.7a.5.5 0 0 1-.09-.992l.09-.008h.7Zm-1.5.5a.5.5 0 0 0-.5-.5h-.7l-.09.008a.5.5 0 0 0 .09.992h.7l.09-.008a.5.5 0 0 0 .41-.492ZM9.7 9.8a.5.5 0 0 1 .09.992l-.09.008H9a.5.5 0 0 1-.09-.992L9 9.8h.7Zm4.6.5a.5.5 0 0 0-.5-.5h-.7l-.09.008a.5.5 0 0 0 .09.992h.7l.09-.008a.5.5 0 0 0 .41-.492Zm-2.5-.5a.5.5 0 0 1 .09.992l-.09.008h-.7a.5.5 0 0 1-.09-.992l.09-.008h.7Zm-1.6 2.6a.5.5 0 0 0-.5-.5H9l-.09.008A.5.5 0 0 0 9 12.9h.7l.09-.008a.5.5 0 0 0 .41-.492Zm3.6-.5a.5.5 0 0 1 .09.992l-.09.008h-.7a.5.5 0 0 1-.09-.992l.09-.008h.7Zm-1.5.5a.5.5 0 0 0-.5-.5h-.7l-.09.008a.5.5 0 0 0 .09.992h.7l.09-.008a.5.5 0 0 0 .41-.492Z"/><path d="M14.2 2c1.025 0 1.821.747 1.895 1.748l.005.152v10.2a.5.5 0 0 1-.41.492l-.09.008H8.7a.5.5 0 0 1-.09-.992l.09-.008 6.4-.001V3.9c0-.484-.32-.841-.782-.893L14.2 3H8.7a.5.5 0 0 1-.09-.992L8.7 2h5.5Zm-11.8.5a.5.5 0 0 0-.5-.5C.824 2 0 2.824 0 3.9v10.2l.008.09a.5.5 0 0 0 .492.41h1.4l.09-.008a.5.5 0 0 0 .41-.492l-.008-.09a.5.5 0 0 0-.492-.41H1V3.9l.007-.118C1.059 3.32 1.417 3 1.9 3a.5.5 0 0 0 .5-.5Z"/></svg>