<svg width="16" height="16" viewBox="0 0 16 16" xmlns="http://www.w3.org/2000/svg" class="icon icon-feedback" aria-hidden="true" focusable="false" fill="currentColor"><path fill-rule="evenodd" clip-rule="evenodd" d="M7.999.005 8.236 0C12.391-.013 15.84 3.064 16 7.02c-.064 1.759-.826 3.43-2.133 4.688V15.5c0 .359-.385.59-.724.468l-.083-.039-3.641-2.041-.196.03a9.212 9.212 0 0 1-.806.074l-.653.013C3.609 14.017.16 10.94 0 6.983c.164-4 3.75-7.12 8.019-6.978h-.02Zm6.935 7.016C14.793 3.572 11.7.881 8.019 1.004L7.736 1c-3.572 0-6.532 2.648-6.67 5.983C1.207 10.433 4.3 13.123 8 13l.358-.008a8.011 8.011 0 0 0 1.066-.12.564.564 0 0 1 .375.062l3.001 1.684V11.5a.48.48 0 0 1 .106-.3l.057-.06c1.207-1.093 1.914-2.583 1.971-4.12ZM8 9.001c-.59 0-1.067.448-1.067 1s.478 1 1.067 1 1.067-.448 1.067-1-.478-1-1.067-1Zm.525-5.588A.525.525 0 0 0 8 3.003c-.294 0-.533.224-.533.5v3.999l.008.09c.046.233.263.41.525.41.295 0 .534-.224.534-.5V3.503l-.01-.09Z"/></svg>