<svg width="16" height="16" viewBox="0 0 16 16" xmlns="http://www.w3.org/2000/svg" class="icon icon-file-content" aria-hidden="true" focusable="false" fill="currentColor"><path d="M7 5.5a.5.5 0 0 0-.5-.5h-2l-.09.008A.5.5 0 0 0 4.5 6h2l.09-.008A.5.5 0 0 0 7 5.5ZM11.5 8a.5.5 0 0 1 .09.992L11.5 9h-7a.5.5 0 0 1-.09-.992L4.5 8h7Zm0 3a.5.5 0 0 1 .09.992L11.5 12h-7a.5.5 0 0 1-.09-.992L4.5 11h7Z"/><path fill-rule="evenodd" clip-rule="evenodd" d="M1.5 0h8a.5.5 0 0 1 .354.146l5 5A.5.5 0 0 1 15 5.5v10a.5.5 0 0 1-.5.5h-13a.5.5 0 0 1-.5-.5V.5a.5.5 0 0 1 .5-.5ZM10 1.708V5h3.292L10 1.708ZM14 6H9.5a.5.5 0 0 1-.492-.41L9 5.5V1H2v14h12V6Z"/></svg>