<svg width="16" height="16" viewBox="0 0 16 16" xmlns="http://www.w3.org/2000/svg" class="icon icon-file-download" aria-hidden="true" focusable="false" fill="currentColor"><path d="M5.146 10.146a.5.5 0 0 1 .638-.057l.07.057L7.5 11.793V6.59a.5.5 0 0 1 .992-.09l.008.09v5.203l1.646-1.647a.5.5 0 0 1 .638-.057l.07.057a.5.5 0 0 1 .057.638l-.057.07-2.5 2.5a.5.5 0 0 1-.638.057l-.07-.057-2.5-2.5a.5.5 0 0 1 0-.708Z"/><path fill-rule="evenodd" clip-rule="evenodd" d="M9.5 0h-8a.5.5 0 0 0-.5.5v15a.5.5 0 0 0 .5.5h13a.5.5 0 0 0 .5-.5v-10a.5.5 0 0 0-.146-.354l-5-5A.5.5 0 0 0 9.5 0Zm3.792 5L10 1.708V5h3.292ZM9 1H2v14h12V6H9.5a.5.5 0 0 1-.492-.41L9 5.5V1Z"/></svg>