<svg width="16" height="16" viewBox="0 0 16 16" xmlns="http://www.w3.org/2000/svg" class="icon icon-file-refresh" aria-hidden="true" focusable="false" fill="currentColor"><path d="M10.892 6.91a.5.5 0 0 0-.492-.41l-.09.008A.5.5 0 0 0 9.9 7v.581A2.886 2.886 0 0 0 8 6.9c-1.776 0-3.3 1.524-3.3 3.3 0 1.776 1.524 3.3 3.3 3.3 1.776 0 3.3-1.524 3.3-3.3a.5.5 0 0 0-1 0c0 1.224-1.076 2.3-2.3 2.3-1.224 0-2.3-1.076-2.3-2.3 0-1.224 1.076-2.3 2.3-2.3.554 0 1.026.2 1.422.6H8.4l-.09.008a.5.5 0 0 0 .09.992h2l.09-.008A.5.5 0 0 0 10.9 9V7l-.008-.09Z"/><path fill-rule="evenodd" clip-rule="evenodd" d="M9.5 0h-8a.5.5 0 0 0-.5.5v15a.5.5 0 0 0 .5.5h13a.5.5 0 0 0 .5-.5v-10a.5.5 0 0 0-.146-.354l-5-5A.5.5 0 0 0 9.5 0ZM14 6H9.5a.5.5 0 0 1-.492-.41L9 5.5V1H2v14h12V6Zm-4-4.292V5h3.292L10 1.708Z"/></svg>