<svg width="16" height="16" viewBox="0 0 16 16" xmlns="http://www.w3.org/2000/svg" class="icon icon-file-warning" aria-hidden="true" focusable="false" fill="currentColor"><path d="M8 12.5a.5.5 0 1 0 0-1 .5.5 0 0 0 0 1Zm0-4a.5.5 0 0 1 .492.41L8.5 9v1.8a.5.5 0 0 1-.992.09L7.5 10.8V9a.5.5 0 0 1 .5-.5Z"/><path fill-rule="evenodd" clip-rule="evenodd" d="m7.561 6.56-3.5 6.4a.5.5 0 0 0 .439.74h7a.5.5 0 0 0 .438-.74l-3.5-6.4a.5.5 0 0 0-.877 0ZM8 7.842l2.657 4.859H5.342L8 7.842Z"/><path fill-rule="evenodd" clip-rule="evenodd" d="M1.5 0h8a.5.5 0 0 1 .354.146l5 5A.5.5 0 0 1 15 5.5v10a.5.5 0 0 1-.5.5h-13a.5.5 0 0 1-.5-.5V.5a.5.5 0 0 1 .5-.5ZM2 1h7v4.5l.008.09A.5.5 0 0 0 9.5 6H14v9H2V1Zm8 .708L13.292 5H10V1.708Z"/></svg>