<svg width="16" height="16" viewBox="0 0 16 16" xmlns="http://www.w3.org/2000/svg" class="icon icon-file-copies" aria-hidden="true" focusable="false" fill="currentColor"><path d="M7.5 0a.5.5 0 0 0 0 1H15v9.5a.5.5 0 0 0 1 0V.5a.5.5 0 0 0-.5-.5h-8Z"/><path d="M4 2.5a.5.5 0 0 1 .5-.5h9a.5.5 0 0 1 .5.5v11a.5.5 0 0 1-1 0V3H4.5a.5.5 0 0 1-.5-.5Z"/><path fill-rule="evenodd" clip-rule="evenodd" d="M2 4.5a.5.5 0 0 1 .5-.5h9a.5.5 0 0 1 .5.5v11a.5.5 0 0 1-.5.5h-9a.5.5 0 0 1-.5-.5v-11ZM3 5v10h8V5H3Z"/></svg>