<svg width="16" height="16" viewBox="0 0 16 16" xmlns="http://www.w3.org/2000/svg" class="icon icon-file-arrow" aria-hidden="true" focusable="false" fill="currentColor"><path d="M1.41 9.508a.5.5 0 0 0 .09.992h4.793l-1.646 1.646-.058.069a.5.5 0 0 0 .765.638l2.5-2.5.058-.069a.502.502 0 0 0-.058-.638l-2.5-2.5-.07-.058a.502.502 0 0 0-.638.058l-.058.07a.502.502 0 0 0 .058.638L6.293 9.5H1.5l-.09.008Z"/><path d="M14.994 5.421a.503.503 0 0 0-.141-.275l-5-5-.06-.051A.502.502 0 0 0 9.5 0h-8l-.09.008A.5.5 0 0 0 1 .5v7l.008.09A.5.5 0 0 0 1.5 8l.09-.008A.5.5 0 0 0 2 7.5V1h7v4.5l.008.09A.5.5 0 0 0 9.5 6H14v9H2v-2.5l-.008-.09A.5.5 0 0 0 1 12.5v3l.008.09A.5.5 0 0 0 1.5 16h13l.09-.008A.5.5 0 0 0 15 15.5v-10l-.006-.079ZM10 5V1.708L13.292 5H10Z"/></svg>