<svg width="16" height="16" viewBox="0 0 16 16" xmlns="http://www.w3.org/2000/svg" class="icon icon-filters" aria-hidden="true" focusable="false" fill="currentColor"><path d="M3.8 0a.5.5 0 0 1 .492.41L4.3.5v6.7a.5.5 0 0 1-.992.09L3.3 7.2V4.3H.5a.5.5 0 0 1-.09-.992L.5 3.3h2.8V.5a.5.5 0 0 1 .5-.5ZM16 3.8a.5.5 0 0 0-.5-.5H8l-.09.008A.5.5 0 0 0 8 4.3h7.5l.09-.008A.5.5 0 0 0 16 3.8Zm-7.5 8.4a.5.5 0 0 0-.5-.5H.5l-.09.008a.5.5 0 0 0 .09.992H8l.09-.008a.5.5 0 0 0 .41-.492Zm7-.5a.5.5 0 0 1 .09.992l-.09.008h-2.8v2.8a.5.5 0 0 1-.992.09l-.008-.09V8.8a.5.5 0 0 1 .992-.09l.008.09v2.9h2.8Z"/></svg>