<svg width="16" height="16" viewBox="0 0 16 16" xmlns="http://www.w3.org/2000/svg" class="icon icon-focus" aria-hidden="true" focusable="false" fill="currentColor"><path d="M5.5.5A.5.5 0 0 0 5 0H1.5l-.144.007A1.5 1.5 0 0 0 0 1.5V5l.008.09A.5.5 0 0 0 1 5V1.5l.008-.09A.5.5 0 0 1 1.5 1H5l.09-.008A.5.5 0 0 0 5.5.5Zm10.493.856A1.5 1.5 0 0 0 14.5 0H11l-.09.008A.5.5 0 0 0 11 1h3.5l.09.008A.5.5 0 0 1 15 1.5V5l.008.09A.5.5 0 0 0 16 5V1.5l-.007-.144ZM15.5 10.5a.5.5 0 0 1 .492.41L16 11v3.5a1.5 1.5 0 0 1-1.355 1.493L14.5 16H11a.5.5 0 0 1-.09-.992L11 15h3.5a.5.5 0 0 0 .492-.41L15 14.5V11a.5.5 0 0 1 .5-.5Zm-14.508.41A.5.5 0 0 0 0 11v3.5l.007.145A1.5 1.5 0 0 0 1.5 16H5l.09-.008A.5.5 0 0 0 5 15H1.5l-.09-.008A.5.5 0 0 1 1 14.5V11l-.008-.09Z"/><path fill-rule="evenodd" clip-rule="evenodd" d="M6 5a2 2 0 1 1 4 0 2 2 0 0 1-4 0Zm3 0a1 1 0 1 0-2 0 1 1 0 0 0 2 0Zm2.995 6.31A3.503 3.503 0 0 0 8.5 8h-1A3.5 3.5 0 0 0 4 11.5a.5.5 0 0 0 .5.5h7a.5.5 0 0 0 .5-.514l-.005-.177ZM8.5 9l.164.005a2.502 2.502 0 0 1 2.257 1.868l.027.127h-5.9l.034-.14A2.501 2.501 0 0 1 7.5 9h1Z"/></svg>