<svg width="16" height="16" viewBox="0 0 16 16" xmlns="http://www.w3.org/2000/svg" class="icon icon-folder-time" aria-hidden="true" focusable="false" fill="currentColor"><path d="M8 8a.5.5 0 0 1 .492.41l.008.09v1h1a.5.5 0 0 1 .492.41L10 10a.5.5 0 0 1-.41.492l-.09.008H8a.5.5 0 0 1-.492-.41L7.5 10V8.5A.5.5 0 0 1 8 8Z"/><path fill-rule="evenodd" clip-rule="evenodd" d="M8 6.5a3.5 3.5 0 1 0 0 7 3.5 3.5 0 0 0 0-7Zm0 1a2.5 2.5 0 1 1 0 5 2.5 2.5 0 0 1 0-5Z"/><path fill-rule="evenodd" clip-rule="evenodd" d="M.5 0h5a.5.5 0 0 1 .416.223L7.768 3H15.5a.5.5 0 0 1 .492.41L16 3.5v10c0 1.376-1.124 2.5-2.5 2.5h-11A2.506 2.506 0 0 1 0 13.5V.5A.5.5 0 0 1 .5 0Zm6.584 3.777L5.232 1H1v12.5c0 .775.599 1.42 1.356 1.493L2.5 15h11c.824 0 1.5-.676 1.5-1.5V4H7.5a.5.5 0 0 1-.353-.146l-.063-.077Z"/></svg>