<svg width="16" height="16" viewBox="0 0 16 16" xmlns="http://www.w3.org/2000/svg" class="icon icon-folder-search" aria-hidden="true" focusable="false" fill="currentColor"><path fill-rule="evenodd" clip-rule="evenodd" d="M9.602 10.895a2.8 2.8 0 1 0-.707.707l1.751 1.752.07.057a.5.5 0 0 0 .638-.765l-1.752-1.751ZM7.3 7.5a1.8 1.8 0 1 1 0 3.6 1.8 1.8 0 0 1 0-3.6Z"/><path fill-rule="evenodd" clip-rule="evenodd" d="M.5 0h5a.5.5 0 0 1 .416.223L7.767 3H15.5a.5.5 0 0 1 .492.41L16 3.5v10c0 1.376-1.124 2.5-2.5 2.5h-11A2.506 2.506 0 0 1 0 13.5V.5A.5.5 0 0 1 .5 0Zm6.584 3.777L5.231 1H1v12.5c0 .775.599 1.42 1.356 1.493L2.5 15h11c.824 0 1.5-.676 1.5-1.5V4H7.5a.5.5 0 0 1-.353-.146l-.063-.077Z"/></svg>