<svg width="16" height="16" viewBox="0 0 16 16" xmlns="http://www.w3.org/2000/svg" class="icon icon-folder-search-full" aria-hidden="true" focusable="false" fill="currentColor"><path fill-rule="evenodd" clip-rule="evenodd" d="M.5 0h5a.5.5 0 0 1 .416.223L7.767 3H15.5a.5.5 0 0 1 .492.41L16 3.5v10c0 1.376-1.124 2.5-2.5 2.5h-11A2.506 2.506 0 0 1 0 13.5V.5A.5.5 0 0 1 .5 0Zm4 9.3a2.8 2.8 0 1 1 5.102 1.595l1.752 1.751a.5.5 0 0 1-.638.765l-.07-.057-1.751-1.752A2.8 2.8 0 0 1 4.5 9.3Zm4.6 0a1.8 1.8 0 1 0-3.6 0 1.8 1.8 0 0 0 3.6 0Z"/></svg>