<svg width="16" height="16" viewBox="0 0 16 16" xmlns="http://www.w3.org/2000/svg" class="icon icon-folder-download" aria-hidden="true" focusable="false" fill="currentColor"><path d="M8 6.5a.5.5 0 0 1 .492.41L8.5 7v4.793l1.447-1.447a.5.5 0 0 1 .638-.057l.069.057a.5.5 0 0 1 .058.638l-.058.07-2.3 2.3a.5.5 0 0 1-.638.057l-.07-.057-2.3-2.3a.5.5 0 0 1 .638-.765l.07.057L7.5 11.793V7a.5.5 0 0 1 .5-.5Z"/><path fill-rule="evenodd" clip-rule="evenodd" d="M.5 0h5a.5.5 0 0 1 .416.223L7.768 3H15.5a.5.5 0 0 1 .492.41L16 3.5v10c0 1.376-1.124 2.5-2.5 2.5h-11A2.506 2.506 0 0 1 0 13.5V.5A.5.5 0 0 1 .5 0Zm6.584 3.777L5.232 1H1v12.5c0 .775.599 1.42 1.356 1.493L2.5 15h11c.824 0 1.5-.676 1.5-1.5V4H7.5a.5.5 0 0 1-.353-.146l-.063-.077Z"/></svg>