<svg width="16" height="16" viewBox="0 0 16 16" xmlns="http://www.w3.org/2000/svg" class="icon icon-gear" aria-hidden="true" focusable="false" fill="currentColor"><path fill-rule="evenodd" clip-rule="evenodd" d="M8 5a3 3 0 1 0 0 6 3 3 0 0 0 0-6Zm0 1a2 2 0 1 1 0 4 2 2 0 0 1 0-4Z"/><path fill-rule="evenodd" clip-rule="evenodd" d="m7 0-.09.008a.5.5 0 0 0-.403.41l-.312 1.866-.011.003a5.95 5.95 0 0 0-.951.395L3.694 1.583a.5.5 0 0 0-.644.053L1.636 3.05l-.057.07a.5.5 0 0 0 .004.574l1.098 1.54c-.108.209-.2.415-.282.628l-.116.334-1.865.31A.5.5 0 0 0 0 7v2l.008.09a.5.5 0 0 0 .41.403l1.865.312.004.011c.103.326.234.641.394.951l-1.098 1.539a.5.5 0 0 0 .053.644l1.414 1.414.07.057a.5.5 0 0 0 .574-.004l1.539-1.098c.21.108.416.2.629.282l.333.116.312 1.865A.5.5 0 0 0 7 16h2l.09-.008a.5.5 0 0 0 .403-.41l.311-1.865.012-.004a5.97 5.97 0 0 0 .95-.394l1.54 1.099a.5.5 0 0 0 .644-.053l1.414-1.414.057-.07a.5.5 0 0 0-.004-.574l-1.099-1.541c.11-.209.202-.415.283-.628l.115-.333 1.866-.312A.5.5 0 0 0 16 9V7l-.008-.09a.5.5 0 0 0-.41-.403l-1.866-.311-.003-.012a5.904 5.904 0 0 0-.395-.95l1.1-1.54a.5.5 0 0 0-.054-.644L12.95 1.636l-.069-.057a.5.5 0 0 0-.575.004l-1.539 1.099a5.8 5.8 0 0 0-.628-.283l-.334-.115-.31-1.866A.5.5 0 0 0 9 0H7Zm.423 1h1.153l.294 1.76a.5.5 0 0 0 .37.401c.462.119.9.3 1.305.54l.088.042a.5.5 0 0 0 .458-.064l1.45-1.036.817.816-1.037 1.45a.5.5 0 0 0-.023.546c.24.405.422.843.54 1.306l.028.08a.5.5 0 0 0 .375.29L15 7.423v1.153l-1.76.293a.5.5 0 0 0-.401.37c-.119.462-.3.9-.54 1.305l-.042.088a.5.5 0 0 0 .064.457l1.035 1.454-.815.815-1.45-1.038a.5.5 0 0 0-.546-.023 4.96 4.96 0 0 1-1.306.54l-.08.028a.5.5 0 0 0-.29.375L8.577 15H7.423l-.293-1.76a.5.5 0 0 0-.37-.401c-.462-.119-.9-.3-1.305-.54l-.088-.042a.5.5 0 0 0-.457.064l-1.452 1.037-.816-.816 1.037-1.451a.5.5 0 0 0 .023-.546 4.964 4.964 0 0 1-.54-1.306l-.028-.08a.5.5 0 0 0-.375-.29L1 8.578V7.424l1.76-.294a.5.5 0 0 0 .401-.37c.119-.462.3-.9.54-1.305l.042-.088a.5.5 0 0 0-.064-.457L2.642 3.459l.816-.816L4.91 3.679a.5.5 0 0 0 .545.023 4.96 4.96 0 0 1 1.306-.54l.08-.028a.5.5 0 0 0 .29-.375L7.422 1Z"/></svg>