<svg width="16" height="16" viewBox="0 0 16 16" xmlns="http://www.w3.org/2000/svg" class="icon icon-graduation" aria-hidden="true" focusable="false" fill="currentColor"><path fill-rule="evenodd" clip-rule="evenodd" d="m.279 5.752 7.5-3.7a.5.5 0 0 1 .442 0l7.5 3.7a.5.5 0 0 1 .005.894l-.826.419V11.5a.5.5 0 0 1-.992.09l-.008-.09V7.571l-1.3.659v5.07c0 1.027-.842 1.916-1.854 1.994l-.146.006H5.4c-1.027 0-1.916-.842-1.994-1.854L3.4 13.3V8.23L.274 6.646a.5.5 0 0 1 .005-.894Zm4.12 2.984V13.3c0 .486.411.932.89.993l.11.007h5.2c.487 0 .933-.41.994-.889l.007-.11V8.736l-3.374 1.709a.5.5 0 0 1-.452 0L4.4 8.736Zm9.982-2.53-6.38-3.148-6.383 3.148L8 9.44l6.381-3.234Z"/></svg>