<svg width="16" height="16" viewBox="0 0 16 16" xmlns="http://www.w3.org/2000/svg" class="icon icon-grid" aria-hidden="true" focusable="false" fill="currentColor"><path fill-rule="evenodd" clip-rule="evenodd" d="M6.5 0h-6a.5.5 0 0 0-.5.5v6a.5.5 0 0 0 .5.5h6a.5.5 0 0 0 .5-.5v-6a.5.5 0 0 0-.5-.5ZM6 1v5H1V1h5Zm9.5-1h-6a.5.5 0 0 0-.5.5v6a.5.5 0 0 0 .5.5h6a.5.5 0 0 0 .5-.5v-6a.5.5 0 0 0-.5-.5ZM15 1v5h-5V1h5ZM.5 9h6a.5.5 0 0 1 .5.5v6a.5.5 0 0 1-.5.5h-6a.5.5 0 0 1-.5-.5v-6A.5.5 0 0 1 .5 9ZM6 15v-5H1v5h5Zm9.5-6h-6a.5.5 0 0 0-.5.5v6a.5.5 0 0 0 .5.5h6a.5.5 0 0 0 .5-.5v-6a.5.5 0 0 0-.5-.5Zm-.5 1v5h-5v-5h5Z"/></svg>