<svg width="16" height="16" viewBox="0 0 16 16" xmlns="http://www.w3.org/2000/svg" class="icon icon-hacker" aria-hidden="true" focusable="false" fill="currentColor"><path fill-rule="evenodd" clip-rule="evenodd" d="M6.966 3.313a1.872 1.872 0 0 1 2.076 0l1.288.858a.51.51 0 0 1 .227.425c0 2.324-1.59 3.234-2.553 3.234-.963 0-2.553-.91-2.553-3.234a.51.51 0 0 1 .227-.425l1.288-.858Zm.566.85-1.05.7c.107 1.54 1.144 1.946 1.522 1.946.378 0 1.415-.406 1.523-1.946l-1.051-.7a.851.851 0 0 0-.944 0Zm-4.124 5.88a.51.51 0 0 1 .51-.511h8.171a.51.51 0 0 1 .51.51v5.447a.51.51 0 0 1-.51.511H3.92a.51.51 0 0 1-.51-.51v-5.447Zm1.021.51v4.426h7.15v-4.426h-7.15Z"/><path d="M4.43 4.59a4.806 4.806 0 0 0 1.23 3.069.51.51 0 1 1-.76.682 5.827 5.827 0 0 1-.62-.826L2.524 8.833a.854.854 0 0 0-.299.413l-.959 2.883a.852.852 0 0 0 .206.87l.766.768a.51.51 0 1 1-.722.722l-.766-.767a1.872 1.872 0 0 1-.453-1.916l.96-2.883c.12-.362.35-.679.655-.907l1.904-1.428a5.826 5.826 0 0 1-.407-1.978v-.014c0-.486.232-1.011.523-1.482A8.199 8.199 0 0 1 5.09 1.681 8.2 8.2 0 0 1 6.522.523C6.992.233 7.518 0 8.004 0c.485 0 1.011.232 1.481.523.487.302.986.711 1.433 1.158.447.448.857.946 1.158 1.433.291.47.524.996.524 1.482v.014a5.826 5.826 0 0 1-.407 1.979l1.904 1.427c.305.228.534.544.655.906l.96 2.884a1.872 1.872 0 0 1-.451 1.916l-.769.767a.51.51 0 1 1-.721-.723l.768-.766a.852.852 0 0 0 .205-.871l-.96-2.883a.852.852 0 0 0-.298-.412l-1.76-1.318c-.18.291-.387.568-.62.825a.51.51 0 1 1-.758-.682 4.806 4.806 0 0 0 1.23-3.07c-.002-.195-.11-.518-.37-.937a7.184 7.184 0 0 0-1.012-1.248 7.186 7.186 0 0 0-1.248-1.012c-.423-.262-.749-.37-.944-.37-.195 0-.52.108-.944.37a7.186 7.186 0 0 0-1.248 1.012c-.404.403-.76.841-1.012 1.248-.26.419-.368.742-.37.938Z"/></svg>