<svg width="16" height="16" viewBox="0 0 16 16" xmlns="http://www.w3.org/2000/svg" class="icon icon-handshake" aria-hidden="true" focusable="false" fill="currentColor"><path d="M1 6.5a.5.5 0 0 1-.992.09L0 6.5v-5a.5.5 0 0 1 .41-.492L.5 1h5.05c.172 0 .344.011.514.033a.5.5 0 0 1-.128.992l-.193-.019L5.55 2H1v4.5Zm9.363-2.844a.497.497 0 0 0-.673-.048L6.251 6.187l-.083.053a.615.615 0 0 1-.72-.98l3.034-2.644.156-.126A2.5 2.5 0 0 1 10.124 2H15v4.5l.008.09A.5.5 0 0 0 16 6.5v-5l-.008-.09A.5.5 0 0 0 15.5 1h-5.376l-.23.008a3.5 3.5 0 0 0-2.07.854L4.767 4.53l-.111.121a1.615 1.615 0 0 0-.367 1.303 1.615 1.615 0 0 0 2.563 1.034L9.953 4.66l4.318 4.319.072.082a.738.738 0 0 1-1.101.973l-1.388-1.388-.07-.057a.5.5 0 0 0-.637.765l1.364 1.364.01.01.02.02.119.119.071.082a.738.738 0 0 1-1.114.96l-1.527-1.527-.07-.057a.5.5 0 0 0-.637.765l1.128 1.127.01.011.072.083a.738.738 0 0 1-.072.96l-.058.07a.5.5 0 0 0 .766.637 1.73 1.73 0 0 0 .478-.907 1.737 1.737 0 0 0 2.162-1.838 1.738 1.738 0 0 0 1.11-2.962l-4.616-4.615Z"/><path fill-rule="evenodd" clip-rule="evenodd" d="m1.271 8.022.25-.25a1.737 1.737 0 0 1 2.457 0l.102.11c.259.308.395.684.407 1.064a1.73 1.73 0 0 1 1.312.507l.101.11c.307.364.44.824.401 1.272.404.027.8.196 1.109.504l.101.11c.283.336.418.753.407 1.166a1.56 1.56 0 0 1 1.012 2.661l-.26.26a1.56 1.56 0 0 1-2.659-.982 1.732 1.732 0 0 1-1.307-.507l-.102-.11a1.733 1.733 0 0 1-.408-1.13 1.731 1.731 0 0 1-1.24-.51l-.101-.11a1.733 1.733 0 0 1-.406-1.2 1.731 1.731 0 0 1-1.175-.508l-.102-.11a1.737 1.737 0 0 1 .101-2.347Zm4.14 4.276-.03.03a.737.737 0 0 0 .029 1.01l.075.067c.29.22.704.199.968-.065l.25-.25a.737.737 0 0 0 0-1.043l-.076-.066a.737.737 0 0 0-.93.03l-.286.287Zm-.319-1.095-.086.085a1.762 1.762 0 0 0-.053.051l-.25.25-.028.03a.737.737 0 0 1-.939.037l-.075-.066a.737.737 0 0 1 0-1.042l.388-.388a.737.737 0 0 1 .967-.066l.076.066a.737.737 0 0 1 0 1.043ZM2.228 8.479l-.25.25a.737.737 0 0 0 0 1.043l.076.066c.29.22.703.198.967-.066l.25-.25a.737.737 0 0 0 0-1.042l-.075-.066a.737.737 0 0 0-.968.065Zm4.943 5.558.26-.26a.56.56 0 0 1 .793.792l-.26.26a.56.56 0 0 1-.793-.792Z"/></svg>