<svg width="16" height="16" viewBox="0 0 16 16" xmlns="http://www.w3.org/2000/svg" class="icon icon-handicap" aria-hidden="true" focusable="false" fill="currentColor"><path fill-rule="evenodd" clip-rule="evenodd" d="M5.003 2a2 2 0 1 1 4 0 2 2 0 0 1-4 0Zm3 0a1 1 0 1 0-2 0 1 1 0 0 0 2 0Zm3 12.5a1.5 1.5 0 1 1 3 0 1.5 1.5 0 0 1-3 0Zm2 0a.5.5 0 1 0-1 0 .5.5 0 0 0 1 0Z"/><path d="M6.327 5.03A.495.495 0 0 1 6.512 5H7.68a1.5 1.5 0 0 1 1.437 1.065l.034.137.44 2.2a.5.5 0 0 1-.956.282l-.025-.086L8.17 6.4a.5.5 0 0 0-.403-.392L7.68 6l-.57-.001.72 3.601a.5.5 0 0 0 .403.392L8.32 10h3.18a1.5 1.5 0 0 1 1.5 1.5.5.5 0 0 1-.992.09L12 11.5a.5.5 0 0 0-.41-.492L11.5 11H8.32a1.5 1.5 0 0 1-1.435-1.065l-.035-.137-.729-3.645-2.267.756-.907 1.815a.5.5 0 0 1-.587.256l-.083-.033a.5.5 0 0 1-.257-.587l.033-.084 1-2a.5.5 0 0 1 .216-.22l.073-.03 2.985-.995Z"/><path d="M5.5 9a.5.5 0 0 1 0 1A2.5 2.5 0 1 0 8 12.5a.5.5 0 0 1 1 0A3.5 3.5 0 1 1 5.5 9Z"/></svg>