<svg width="16" height="16" viewBox="0 0 16 16" xmlns="http://www.w3.org/2000/svg" class="icon icon-hand" aria-hidden="true" focusable="false" fill="currentColor"><path fill-rule="evenodd" clip-rule="evenodd" d="M10.88 1.337a2.003 2.003 0 0 0-3.78 0A1.996 1.996 0 0 0 5.985 1l-.149.005A2.001 2.001 0 0 0 3.983 3v5.764l-1.64-.644-.148-.05a1.714 1.714 0 0 0-1.692.43 1.706 1.706 0 0 0-.083 2.33l2.63 2.907.192.21A6.648 6.648 0 0 0 8.045 16h1.31l.293-.007a6.651 6.651 0 0 0 4.408-1.938A6.628 6.628 0 0 0 16 9.361V3.499l-.007-.145a1.501 1.501 0 0 0-2.179-1.19 2.004 2.004 0 0 0-2.934-.827Zm-.888 2.167v2.994l.008.09a.5.5 0 0 0 .993-.09V2.991L11 2.882A1 1 0 0 1 12.996 3v3.499l.008.09a.5.5 0 0 0 .993-.09v-3l.008-.089a.5.5 0 0 1 .993.09v5.86l-.006.28a5.63 5.63 0 0 1-1.645 3.707A5.65 5.65 0 0 1 9.354 15H8.045l-.27-.006a5.648 5.648 0 0 1-3.977-1.922L1.17 10.167l-.064-.087a.711.711 0 0 1 .869-1.031l2.325.913.082.025a.5.5 0 0 0 .602-.49V2.999l.007-.117A1.001 1.001 0 0 1 6.987 3v3.499l.008.09a.5.5 0 0 0 .994-.09v-4.5l.006-.116a1.001 1.001 0 0 1 1.997.116v1.505Z"/></svg>