<svg width="16" height="16" viewBox="0 0 16 16" xmlns="http://www.w3.org/2000/svg" class="icon icon-handout" aria-hidden="true" focusable="false" fill="currentColor"><path d="M14.5 3.544a.503.503 0 0 0-.5-.507h-3l-.09.009a.505.505 0 0 0-.41.498c0 .28.224.506.5.506h3l.09-.008a.505.505 0 0 0 .41-.498Z"/><path fill-rule="evenodd" clip-rule="evenodd" d="M9 3.544C9 1.587 10.567 0 12.5 0S16 1.587 16 3.544s-1.567 3.543-3.5 3.543S9 5.501 9 3.544Zm6 0c0-1.398-1.12-2.532-2.5-2.532S10 2.146 10 3.544c0 1.397 1.12 2.53 2.5 2.53S15 4.942 15 3.545Z"/><path d="m.5 6.075 3.68.001c.133.002.233.006.348.012.177.01.345.027.509.051l.242.043 4.42.712c.73.149 1.301.86 1.301 1.61 0 .838-.646 1.539-1.455 1.614l-.145.006H6l2.59 1.968 3.652-1.233c1.352-.456 2.84.15 3.602 1.39l.095.164a.51.51 0 0 1-.197.686l-.084.037-8.072 2.723c-.588.238-1.36.167-1.996-.158l-.17-.094-5.2-3.544a.51.51 0 0 1-.135-.703.497.497 0 0 1 .615-.18l.08.043 5.177 3.53c.343.208.805.285 1.158.197l.127-.041 7.45-2.515-.04-.044c-.519-.51-1.25-.743-1.936-.576l-.158.046-3.9 1.316a.495.495 0 0 1-.375-.024L8.2 13.06l-4-3.038a.509.509 0 0 1 .213-.904l.087-.007h4.9c.324 0 .6-.28.6-.607 0-.24-.187-.5-.398-.589l-.08-.025-4.42-.712a4.178 4.178 0 0 0-.415-.063l-.215-.017a7.69 7.69 0 0 0-.415-.011H.5A.503.503 0 0 1 0 6.58c0-.28.224-.506.5-.506Z"/></svg>