<svg width="16" height="16" viewBox="0 0 16 16" xmlns="http://www.w3.org/2000/svg" class="icon icon-headphone" aria-hidden="true" focusable="false" fill="currentColor"><path fill-rule="evenodd" clip-rule="evenodd" d="M14.995 4.288A4.5 4.5 0 0 0 10.5 0h-5l-.212.005A4.5 4.5 0 0 0 1 4.5v2.55c-.619.632-1 1.496-1 2.45l.005.19A3.51 3.51 0 0 0 2 12.664v.837l.005.164A2.5 2.5 0 0 0 4.5 16h5l.09-.008A.5.5 0 0 0 9.5 15h-5l-.145-.007A1.5 1.5 0 0 1 3 13.5v-.536c.163.024.33.036.5.036h1a.5.5 0 0 0 .5-.5v-6a.5.5 0 0 0-.5-.5h-1c-.537 0-1.045.12-1.5.337V4.5l.005-.192A3.5 3.5 0 0 1 5.5 1h5l.192.005A3.5 3.5 0 0 1 14 4.5v1.837A3.482 3.482 0 0 0 12.5 6h-1a.5.5 0 0 0-.5.5v6a.5.5 0 0 0 .5.5h1a3.5 3.5 0 0 0 3.494-3.295l.006-.19a3.51 3.51 0 0 0-1-2.463V4.5l-.005-.212ZM12.5 7a2.49 2.49 0 0 1 1.688.655C14.687 8.112 15 8.77 15 9.5l-.005.162A2.497 2.497 0 0 1 12.5 12H12V7h.5Zm-10.697.663A2.496 2.496 0 0 1 3.5 7H4v5h-.5a2.5 2.5 0 0 1-2.497-2.353L1 9.486l.005-.163c.043-.653.342-1.24.798-1.66Z"/></svg>