<svg width="16" height="16" viewBox="0 0 16 16" xmlns="http://www.w3.org/2000/svg" class="icon icon-heart" aria-hidden="true" focusable="false" fill="currentColor"><path fill-rule="evenodd" clip-rule="evenodd" d="M11.274.006a4.46 4.46 0 0 0-3.218 1.623L8 1.7l-.056-.071A4.458 4.458 0 0 0 4.5 0 4.5 4.5 0 0 0 0 4.5c0 1.228.606 2.71 1.7 4.41.597.93 1.329 1.905 2.166 2.91a49.06 49.06 0 0 0 2.605 2.873l.448.453.74.72a.5.5 0 0 0 .682 0l.33-.316.41-.404a51.284 51.284 0 0 0 3.053-3.326 29.742 29.742 0 0 0 2.167-2.91C15.394 7.21 16 5.728 16 4.5A4.5 4.5 0 0 0 11.5 0l-.226.006ZM11.5 1A3.5 3.5 0 0 1 15 4.5c0 .992-.542 2.316-1.54 3.87a28.789 28.789 0 0 1-2.094 2.81 48.079 48.079 0 0 1-2.552 2.814l-.645.648-.169.164.026.027a48.061 48.061 0 0 1-3.392-3.653 28.785 28.785 0 0 1-2.093-2.81C1.54 6.816 1 5.492 1 4.5A3.5 3.5 0 0 1 4.5 1c1.29 0 2.447.713 3.06 1.84a.5.5 0 0 0 .88 0A3.481 3.481 0 0 1 11.5 1Z"/></svg>