<svg width="16" height="17" viewBox="0 0 16 17" xmlns="http://www.w3.org/2000/svg" class="icon icon-help" aria-hidden="true" focusable="false" fill="currentColor"><path fill-rule="evenodd" clip-rule="evenodd" d="M8 .004 8.241 0C12.396.02 15.89 3.115 16 7.032a7.203 7.203 0 0 1-2.133 4.673v3.797c0 .357-.38.589-.718.47l-.084-.038-3.66-2.002-.155.023a8.323 8.323 0 0 1-.999.047l-.491.003C3.605 13.985.112 10.89 0 6.989.114 3.035 3.749-.105 8.015.003H8Zm6.934 7.012c-.098-3.396-3.236-6.107-6.92-6.014L7.742 1c-3.576.03-6.579 2.695-6.675 5.989.098 3.396 3.237 6.107 6.934 6.013h.213c.603-.003.884-.022 1.151-.085a.565.565 0 0 1 .399.054l3.038 1.662v-3.13a.48.48 0 0 1 .101-.294l.055-.06a6.225 6.225 0 0 0 1.977-4.133Zm-7.787 3.187c0-.442.382-.8.853-.8.472 0 .854.358.854.8 0 .441-.382.8-.854.8-.471 0-.853-.359-.853-.8Zm1.067 0c0-.11-.096-.2-.214-.2s-.213.09-.213.2c0 .11.095.2.213.2s.214-.09.214-.2Zm2.159-6.265c-.68-1.02-2.531-1.208-3.98-.59a.488.488 0 0 0-.265.661.548.548 0 0 0 .706.249c1.018-.434 2.292-.304 2.634.21.362.543.16 1.17-.622 1.74-.987.72-1.272 1.23-1.272 2.095 0 .276.238.5.533.5.295 0 .533-.224.533-.5 0-.545.126-.77.861-1.306l.156-.119c1.053-.845 1.37-1.96.716-2.94Z"/></svg>