<svg width="16" height="16" viewBox="0 0 16 16" xmlns="http://www.w3.org/2000/svg" class="icon icon-home-full" aria-hidden="true" focusable="false" fill="currentColor"><path fill-rule="evenodd" clip-rule="evenodd" d="M10.948 16h2c.599 0 .999-.402.999-1.005V7.962h.999c.3 0 .6-.1.8-.301.4-.402.3-1.005-.1-1.407L8.65.226c-.4-.301-.9-.301-1.3 0L.354 6.254c-.4.402-.5 1.005-.1 1.407.1.2.4.301.7.301h1v7.033c0 .603.4 1.005.999 1.005h1.999c.6 0 1-.402 1-1.005v-3.014h3.997v3.014c0 .603.4 1.005 1 1.005Z"/></svg>