<svg width="16" height="16" viewBox="0 0 16 16" xmlns="http://www.w3.org/2000/svg" class="icon icon-hotel" aria-hidden="true" focusable="false" fill="currentColor"><path fill-rule="evenodd" clip-rule="evenodd" d="M.5 2a.5.5 0 0 1 .492.41L1 2.5V9h14.5a.5.5 0 0 1 .492.41L16 9.5v5a.5.5 0 0 1-.992.09L15 14.5V13H1v1.5a.5.5 0 0 1-.992.09L0 14.5v-12A.5.5 0 0 1 .5 2Zm.5 8v2h14v-2H1Z"/><path fill-rule="evenodd" clip-rule="evenodd" d="M2 6a2 2 0 1 1 4 0 2 2 0 0 1-4 0Zm3 0a1 1 0 1 0-2 0 1 1 0 0 0 2 0Zm8.5-2h-6a.5.5 0 0 0-.5.5v3a.5.5 0 0 0 .5.5h8a.5.5 0 0 0 .5-.5v-1A2.5 2.5 0 0 0 13.5 4ZM15 7H8V5h5.5l.145.007A1.5 1.5 0 0 1 15 6.5V7Z"/></svg>