<svg width="16" height="16" viewBox="0 0 16 16" xmlns="http://www.w3.org/2000/svg" class="icon icon-hourglass" aria-hidden="true" focusable="false" fill="currentColor"><path fill-rule="evenodd" clip-rule="evenodd" d="M14.5 0a.5.5 0 0 1 .09.992L14.5 1H13v.5c0 2.69-.817 5.118-2.19 6.468L10.775 8l.035.032c1.318 1.296 2.124 3.586 2.186 6.147L13 14.5v.5h1.5a.5.5 0 0 1 .09.992L14.5 16h-13a.5.5 0 0 1-.09-.992L1.5 15H3v-.5c0-2.69.817-5.118 2.19-6.468L5.224 8l-.034-.032C3.872 6.672 3.066 4.382 3.004 1.821L3 1.5V1H1.5a.5.5 0 0 1-.09-.992L1.5 0h13ZM4 15h8v-.5c0-2.72-.91-5.1-2.292-6.094a.5.5 0 0 1 0-.812c1.332-.957 2.224-3.2 2.288-5.793L12 1.5V1H4v.5c0 2.72.91 5.1 2.292 6.094a.5.5 0 0 1 0 .812c-1.332.957-2.224 3.2-2.288 5.793L4 14.5v.5Z"/></svg>