<svg width="16" height="16" viewBox="0 0 16 16" xmlns="http://www.w3.org/2000/svg" class="icon icon-info-point" aria-hidden="true" focusable="false" fill="currentColor"><path fill-rule="evenodd" clip-rule="evenodd" d="M9.903 1.91c0 1.083-.825 1.909-1.857 1.909-.981 0-1.807-.825-1.858-1.91C6.188.827 7.013 0 8.046 0c1.032 0 1.857.826 1.857 1.91ZM8.046.772c-.568 0-1.032.517-1.032 1.084 0 .671.465 1.187 1.032 1.136.568 0 1.084-.516 1.084-1.136 0-.62-.464-1.084-1.084-1.084ZM5.569 8.929a.407.407 0 0 0 .412-.413V6.503c0-.362.31-.62.62-.62h2.993c.362 0 .62.31.62.62v2.013c0 .206.155.413.413.413.206 0 .361-.103.413-.362V6.503c0-.774-.62-1.445-1.445-1.445H6.6c-.774 0-1.445.62-1.445 1.445v2.013c.052.309.258.412.413.413Zm7.121 1.187H3.505a.407.407 0 0 0-.413.412c0 .258.155.413.413.413h.567v4.697c0 .155.207.362.413.362h7.123c.103 0 .206-.052.31-.155.05-.052.05-.155.05-.258v-4.645h.62a.407.407 0 0 0 .413-.413c0-.207-.103-.413-.31-.413Zm-7.74 5.006v-4.284h6.245v4.284H4.949Z"/></svg>