<svg width="16" height="16" viewBox="0 0 16 16" xmlns="http://www.w3.org/2000/svg" class="icon icon-ink-pen" aria-hidden="true" focusable="false" fill="currentColor"><path fill-rule="evenodd" clip-rule="evenodd" d="M7.146.146A.5.5 0 0 1 7.784.09l.07.057 8 8a.5.5 0 0 1-.638.765l-.07-.057-1.399-1.4-1.767 6.183a.5.5 0 0 1-.313.334l-.078.02-10.99 2a.5.5 0 0 1-.6-.495L0 15.49c0-.026.003-.052.008-.077v-.002l2-11a.5.5 0 0 1 .279-.363l.075-.029 6.184-1.766-1.4-1.4a.5.5 0 0 1 0-.707Zm2.208 2.916-6.42 1.833-1.657 9.121 4-4a2 2 0 1 1 .707.707l-3.999 3.999 9.119-1.658 1.834-6.419-3.584-3.583ZM6.311 9.725a1 1 0 1 0 1.378-1.45 1 1 0 0 0-1.378 1.45Z"/></svg>