<svg width="16" height="16" viewBox="0 0 16 16" xmlns="http://www.w3.org/2000/svg" class="icon icon-key" aria-hidden="true" focusable="false" fill="currentColor"><path fill-rule="evenodd" clip-rule="evenodd" d="M5 9a2 2 0 1 0 0 4 2 2 0 0 0 0-4Zm0 1a1 1 0 1 1 0 2 1 1 0 0 1 0-2Z"/><path fill-rule="evenodd" clip-rule="evenodd" d="m12.5 0-.079.006a.5.5 0 0 0-.275.14L6.142 6.151l-.297-.067A4.402 4.402 0 0 0 5 6a5 5 0 1 0 5 5l-.01-.28a4.856 4.856 0 0 0-.141-.862l2.005-2.004.05-.06A.5.5 0 0 0 12 7.5V5h2.5a.5.5 0 0 0 .354-.146l1-1A.5.5 0 0 0 16 3.5v-3a.5.5 0 0 0-.5-.5h-3ZM15 1v2.293L14.293 4H11.5l-.09.008A.5.5 0 0 0 11 4.5v2.793L8.936 9.356a.5.5 0 0 0-.125.497c.125.42.189.787.189 1.147a4 4 0 1 1-4-4c.36 0 .727.064 1.147.189l.089.018a.5.5 0 0 0 .408-.143L12.707 1H15Z"/></svg>