<svg width="16" height="16" viewBox="0 0 16 16" xmlns="http://www.w3.org/2000/svg" class="icon icon-keyboard-full" aria-hidden="true" focusable="false" fill="currentColor"><path fill-rule="evenodd" clip-rule="evenodd" d="M14.4 2H1.6C.72 2 .008 2.771.008 3.714L0 12.286C0 13.229.72 14 1.6 14h12.8c.88 0 1.6-.771 1.6-1.714V3.714C16 2.771 15.28 2 14.4 2ZM7.2 4.9a.5.5 0 0 1 .5-.5h.6a.5.5 0 0 1 .5.5v.6a.5.5 0 0 1-.5.5h-.6a.5.5 0 0 1-.5-.5v-.6Zm0 2.4a.5.5 0 0 1 .5-.5h.6a.5.5 0 0 1 .5.5v.6a.5.5 0 0 1-.5.5h-.6a.5.5 0 0 1-.5-.5v-.6ZM4.8 4.9a.5.5 0 0 1 .5-.5h.6a.5.5 0 0 1 .5.5v.6a.5.5 0 0 1-.5.5h-.6a.5.5 0 0 1-.5-.5v-.6Zm0 2.4a.5.5 0 0 1 .5-.5h.6a.5.5 0 0 1 .5.5v.6a.5.5 0 0 1-.5.5h-.6a.5.5 0 0 1-.5-.5v-.6Zm-.8.6a.5.5 0 0 1-.5.5h-.6a.5.5 0 0 1-.5-.5v-.6a.5.5 0 0 1 .5-.5h.6a.5.5 0 0 1 .5.5v.6Zm0-2.4a.5.5 0 0 1-.5.5h-.6a.5.5 0 0 1-.5-.5v-.6a.5.5 0 0 1 .5-.5h.6a.5.5 0 0 1 .5.5v.6Zm7.2 5.6a.5.5 0 0 1-.5.5H5.3a.5.5 0 0 1-.5-.5v-.6a.5.5 0 0 1 .5-.5h5.4a.5.5 0 0 1 .5.5v.6Zm0-3.2a.5.5 0 0 1-.5.5h-.6a.5.5 0 0 1-.5-.5v-.6a.5.5 0 0 1 .5-.5h.6a.5.5 0 0 1 .5.5v.6Zm0-2.4a.5.5 0 0 1-.5.5h-.6a.5.5 0 0 1-.5-.5v-.6a.5.5 0 0 1 .5-.5h.6a.5.5 0 0 1 .5.5v.6Zm2.4 2.4a.5.5 0 0 1-.5.5h-.6a.5.5 0 0 1-.5-.5v-.6a.5.5 0 0 1 .5-.5h.6a.5.5 0 0 1 .5.5v.6Zm0-2.4a.5.5 0 0 1-.5.5h-.6a.5.5 0 0 1-.5-.5v-.6a.5.5 0 0 1 .5-.5h.6a.5.5 0 0 1 .5.5v.6Z"/></svg>