<svg width="16" height="17" viewBox="0 0 16 17" xmlns="http://www.w3.org/2000/svg" class="icon icon-knowledge" aria-hidden="true" focusable="false" fill="currentColor"><path fill-rule="evenodd" clip-rule="evenodd" d="M15.11 3.584A7 7 0 0 0 7.233.227l-.247.07A7 7 0 0 0 2 7.003v.347L.084 10.226l-.042.077a.5.5 0 0 0 .235.647L2 11.813v2.19l.006.15A2 2 0 0 0 4 16.002h3.5l.192-.005A3.5 3.5 0 0 0 11 12.503v-3.55a2.5 2.5 0 1 0-1 0v3.55l-.005.164A2.5 2.5 0 0 1 7.5 15.003H4l-.116-.007A1 1 0 0 1 3 14.003v-2.5l-.009-.093a.5.5 0 0 0-.267-.354L1.23 10.31l1.686-2.53.046-.086A.5.5 0 0 0 3 7.504v-.5l.005-.248a6 6 0 1 1 10.149 4.574.5.5 0 0 0-.154.361v3.812l.008.09a.5.5 0 0 0 .492.41l.09-.008a.5.5 0 0 0 .41-.492v-3.605l.044-.044a7 7 0 0 0 1.066-8.27ZM10.5 5.003a1.5 1.5 0 1 1 0 3 1.5 1.5 0 0 1 0-3Z"/></svg>