<svg width="16" height="16" viewBox="0 0 16 16" xmlns="http://www.w3.org/2000/svg" class="icon icon-launch" aria-hidden="true" focusable="false" fill="currentColor"><path d="M15.5 0a.5.5 0 0 1 .492.41L16 .5v7a.5.5 0 0 1-.992.09L15 7.5V1.707L7.854 8.854a.5.5 0 0 1-.765-.638l.057-.07L14.293 1H8.5a.5.5 0 0 1-.492-.41L8 .5a.5.5 0 0 1 .41-.492L8.5 0h7Z"/><path d="M7 3.5a.5.5 0 0 0-.5-.5h-5l-.144.007A1.5 1.5 0 0 0 0 4.5v10l.007.144A1.5 1.5 0 0 0 1.5 16h10l.144-.007A1.5 1.5 0 0 0 13 14.5v-5l-.008-.09A.5.5 0 0 0 12 9.5v5l-.008.09a.5.5 0 0 1-.492.41h-10l-.09-.008A.5.5 0 0 1 1 14.5v-10l.008-.09A.5.5 0 0 1 1.5 4h5l.09-.008A.5.5 0 0 0 7 3.5Z"/></svg>