<svg width="17" height="16" viewBox="0 0 17 16" xmlns="http://www.w3.org/2000/svg" class="icon icon-law" aria-hidden="true" focusable="false" fill="currentColor"><path d="M15.848 7.97 14.26 6.384a.534.534 0 0 0-.754-.001l-.036.035-3.796-3.901.006-.005a.532.532 0 0 0-.002-.754L8.09.167a.533.533 0 0 0-.754 0L2.97 4.533a.533.533 0 0 0 .002.754L4.56 6.875a.533.533 0 0 0 .754 0l.08-.08 1.473 1.55-6.71 6.742-.063.074a.536.536 0 0 0 .062.682.53.53 0 0 0 .753 0l6.694-6.725 1.543 1.622-.006.008a.534.534 0 0 0 .001.754l1.588 1.588c.21.209.547.21.756.002l4.365-4.365a.535.535 0 0 0-.002-.756ZM4.946 5.57a.548.548 0 0 0-.082.106l-.76-.762L7.715 1.3l.742.742L4.946 5.57ZM9.9 9.987 6.148 6.042 8.92 3.27l3.75 3.855-2.613 2.705-.156.156Zm1.204 1.974-.824-.825.003-.003.4-.414 3.202-3.203.832.832-3.613 3.613Z"/></svg>