<svg width="16" height="16" viewBox="0 0 16 16" xmlns="http://www.w3.org/2000/svg" class="icon icon-letter" aria-hidden="true" focusable="false" fill="currentColor"><path d="M13.992.41A.5.5 0 0 0 13.5 0h-11l-.09.008A.5.5 0 0 0 2 .5V5l.008.09a.5.5 0 0 0 .492.41l.09-.008A.5.5 0 0 0 3 5V1h10v4l.008.09A.5.5 0 0 0 14 5V.5l-.008-.09Z"/><path fill-rule="evenodd" clip-rule="evenodd" d="M15.265 6.059 8 9.933.735 6.059A.5.5 0 0 0 0 6.5v8A1.5 1.5 0 0 0 1.5 16h13a1.5 1.5 0 0 0 1.5-1.5v-8a.5.5 0 0 0-.735-.441Zm-7.03 4.882L15 7.334V14.5a.5.5 0 0 1-.5.5h-13l-.09-.008A.5.5 0 0 1 1 14.5V7.335l6.765 3.606a.5.5 0 0 0 .47 0Z"/><path d="M10.5 3a.5.5 0 0 1 .09.992L10.5 4h-5a.5.5 0 0 1-.09-.992L5.5 3h5Zm.5 3.5a.5.5 0 0 0-.5-.5h-5l-.09.008A.5.5 0 0 0 5.5 7h5l.09-.008A.5.5 0 0 0 11 6.5Z"/></svg>