<svg width="17" height="16" viewBox="0 0 17 16" xmlns="http://www.w3.org/2000/svg" class="icon icon-link" aria-hidden="true" focusable="false" fill="currentColor"><path d="M8.717 1.25a4.267 4.267 0 0 1 6.2 5.86l-.161.17-2.107 2.16a.533.533 0 0 1-.824-.67l.06-.075 2.112-2.165a3.2 3.2 0 0 0-4.376-4.666l-.155.145-2.16 2.106a.533.533 0 0 1-.807-.69l.063-.073L8.717 1.25ZM3.352 6.561a.533.533 0 0 1 .825.67l-.061.075-2.111 2.165a3.2 3.2 0 0 0 4.376 4.665l.154-.144 2.16-2.107a.533.533 0 0 1 .807.69l-.062.074-2.155 2.102a4.267 4.267 0 0 1-6.2-5.86l.16-.17 2.107-2.16Z"/><path d="M11.578 4.423a.533.533 0 0 0-.754 0l-6.4 6.4-.062.074a.534.534 0 0 0 .816.68l6.4-6.4.062-.073a.534.534 0 0 0-.062-.68Z"/></svg>