<svg width="16" height="16" viewBox="0 0 16 16" xmlns="http://www.w3.org/2000/svg" class="icon icon-lock" aria-hidden="true" focusable="false" fill="currentColor"><path fill-rule="evenodd" clip-rule="evenodd" d="M8 9a2 2 0 1 0 0 4 2 2 0 0 0 0-4Zm0 1a1 1 0 1 1 0 2 1 1 0 0 1 0-2Z"/><path fill-rule="evenodd" clip-rule="evenodd" d="M8 0a4 4 0 0 1 3.995 3.8L12 4v2h1.5A1.5 1.5 0 0 1 15 7.5v7a1.5 1.5 0 0 1-1.5 1.5h-11A1.5 1.5 0 0 1 1 14.5v-7A1.5 1.5 0 0 1 2.5 6H4V4a4 4 0 0 1 4-4Zm3 4v2H5V4l.005-.176A3 3 0 0 1 11 4ZM2.5 7h11a.5.5 0 0 1 .5.5v7a.5.5 0 0 1-.5.5h-11a.5.5 0 0 1-.5-.5v-7a.5.5 0 0 1 .5-.5Z"/></svg>