<svg width="16" height="16" viewBox="0 0 16 16" xmlns="http://www.w3.org/2000/svg" class="icon icon-logo" aria-hidden="true" focusable="false" fill="currentColor"><path d="M8 11.7c.9.8 2.1 1.3 3.7 1.3.6 0 1.2-.1 1.7-.3-1.4 1.7-3.5 2.8-5.9 2.8C3.4 15.5 0 12.2 0 8S3.4.5 7.5.5c2.5 0 4.6 1.1 6 2.9-.6-.3-1.2-.4-2-.4-.7 0-1.4.2-2 .4-.6.2-1.1.6-1.5 1-.5.4-.8.9-1 1.6-.2.6-.3 1.3-.3 2 0 1.5.4 2.8 1.3 3.7Z"/><path fill-rule="evenodd" clip-rule="evenodd" d="M15.5 5.2c-.3-.7-.9-1.2-1.5-1.6-.05-.05-.125-.075-.2-.1-.075-.025-.15-.05-.2-.1 1 1.3 1.6 2.9 1.6 4.6v.3l-.198.051c-.308.08-.57.149-.902.149H9.3c-.2 0-.3.1-.3.3 0 .5.1 1 .4 1.4.2.5.6.8 1 1 .4.2.8.4 1.3.4.3 0 .6 0 .9-.1.3-.1.5-.2.8-.4.1-.1.225-.175.35-.25.125-.075.25-.15.35-.25a5.34 5.34 0 0 1 .234-.214c.155-.136.322-.283.415-.407A8.666 8.666 0 0 1 13.4 12.7h.1c.9-.3 2-1.3 2.2-2.2.088-.438-.207-.569-.417-.662L15.2 9.8H15c.096-.482.193-.964.2-1.446V8.4c.2 0 .3-.1.4-.2.2-.1.4-.5.4-1.1 0-.6-.2-1.3-.5-1.9ZM15 9.8c-.043 0-.067 0-.089.008-.03.01-.053.034-.111.092a.523.523 0 0 1-.05.08l.05-.18h.2Zm.2-1.446V8.3v.054Z"/><path d="M13.6 7.3H9.3c-.2 0-.3-.1-.3-.2.1-.8.3-1.5.8-2s1-.7 1.7-.7 1.3.2 1.7.7c.4.4.6 1.1.7 1.9 0 .2-.2.3-.3.3Z"/></svg>