<svg width="16" height="16" viewBox="0 0 16 16" xmlns="http://www.w3.org/2000/svg" class="icon icon-mail" aria-hidden="true" focusable="false" fill="currentColor"><path d="M13.887 4.183a.5.5 0 0 0-.704-.07L8 8.355 2.817 4.113l-.075-.05a.5.5 0 0 0-.559.824l5.5 4.5.073.05a.5.5 0 0 0 .56-.05l5.5-4.5.065-.063a.5.5 0 0 0 .006-.64Z"/><path fill-rule="evenodd" clip-rule="evenodd" d="M14.5 1h-13A1.5 1.5 0 0 0 0 2.5v11A1.5 1.5 0 0 0 1.5 15h13a1.5 1.5 0 0 0 1.5-1.5v-11A1.5 1.5 0 0 0 14.5 1Zm-13 1h13a.5.5 0 0 1 .5.5v11a.5.5 0 0 1-.5.5h-13a.5.5 0 0 1-.5-.5v-11a.5.5 0 0 1 .5-.5Z"/></svg>