<svg width="16" height="16" viewBox="0 0 16 16" xmlns="http://www.w3.org/2000/svg" class="icon icon-map" aria-hidden="true" focusable="false" fill="currentColor"><path fill-rule="evenodd" clip-rule="evenodd" d="M15.314.036 10.5 1.962 5.696.041a.498.498 0 0 0-.392 0L.314 2.036A.5.5 0 0 0 0 2.5v13l.007.086a.5.5 0 0 0 .679.379L5.5 14.04l4.804 1.92a.495.495 0 0 0 .196.04h.015a.499.499 0 0 0 .181-.04l4.99-1.995A.5.5 0 0 0 16 13.5V.5a.5.5 0 0 0-.686-.465ZM10 14.762V2.84l-4-1.6v11.923l4 1.6Zm-5-1.6V1.239l-4 1.6v11.924l4-1.601Zm6 1.6 4-1.6V1.24l-4 1.6v11.923Z"/></svg>