<svg width="16" height="16" viewBox="0 0 16 16" xmlns="http://www.w3.org/2000/svg" class="icon icon-media-player" aria-hidden="true" focusable="false" fill="currentColor"><path fill-rule="evenodd" clip-rule="evenodd" d="M6 9.5v-6a.5.5 0 0 1 .757-.429l5 3a.5.5 0 0 1 0 .858l-5 3A.5.5 0 0 1 6 9.5Zm4.528-3L7 4.383v4.233L10.528 6.5Z"/><path fill-rule="evenodd" clip-rule="evenodd" d="M15.5 0H.5a.5.5 0 0 0-.5.5v12a.5.5 0 0 0 .5.5h15a.5.5 0 0 0 .5-.5V.5a.5.5 0 0 0-.5-.5ZM15 1v11H1V1h14Z"/><path d="M11.5 15a.5.5 0 0 1 .09.992L11.5 16h-7a.5.5 0 0 1-.09-.992L4.5 15h7Z"/></svg>