<svg width="16" height="17" viewBox="0 0 16 17" xmlns="http://www.w3.org/2000/svg" class="icon icon-megaphone" aria-hidden="true" focusable="false" fill="currentColor"><path fill-rule="evenodd" clip-rule="evenodd" d="M15.29.047 8.893 3H3.5A3.5 3.5 0 0 0 0 6.5l.005.192a3.5 3.5 0 0 0 3.183 3.294l2.542 4.927.076.136a2 2 0 0 0 3.483-1.962l-.912-1.77-.049-.077a.5.5 0 0 0-.84.535l.912 1.77.047.106a1 1 0 0 1-1.828.804L4.321 10H8.89l6.4 2.954A.5.5 0 0 0 16 12.5V.5a.5.5 0 0 0-.71-.454ZM9 9l.21.046L15 11.72V1.28L9.21 3.956 9 4H3.5a2.5 2.5 0 1 0 0 5H9Z"/></svg>