<svg width="16" height="16" viewBox="0 0 16 16" xmlns="http://www.w3.org/2000/svg" class="icon icon-menu" aria-hidden="true" focusable="false" fill="currentColor"><path d="M15.467 2c.294 0 .533.224.533.5a.51.51 0 0 1-.438.492L15.467 3H.533C.24 3 0 2.776 0 2.5a.51.51 0 0 1 .437-.492L.533 2h14.934Zm0 6c.294 0 .533.224.533.5a.51.51 0 0 1-.438.492L15.467 9H.533C.24 9 0 8.776 0 8.5a.51.51 0 0 1 .437-.492L.533 8h14.934ZM16 14.5c0-.276-.239-.5-.533-.5H.533l-.096.008A.51.51 0 0 0 0 14.5c0 .276.239.5.533.5h14.934l.095-.008A.51.51 0 0 0 16 14.5Z"/></svg>