<svg width="16" height="16" viewBox="0 0 16 16" xmlns="http://www.w3.org/2000/svg" class="icon icon-microphone" aria-hidden="true" focusable="false" fill="currentColor"><path fill-rule="evenodd" clip-rule="evenodd" d="M8.288.005 8.5 0A4.5 4.5 0 0 1 13 4.5v2a4.503 4.503 0 0 1-4.288 4.495L8.5 11A4.5 4.5 0 0 1 4 6.5v-2A4.503 4.503 0 0 1 8.288.005ZM8.5 1l-.175.004A3.5 3.5 0 0 0 5 4.5v2C5 8.433 6.567 10 8.488 10l.187-.004A3.5 3.5 0 0 0 12 6.5v-2A3.5 3.5 0 0 0 8.5 1Z"/><path d="M15.5 6a.5.5 0 0 1 .5.5 7.5 7.5 0 0 1-7 7.484V15.5a.5.5 0 0 1-.992.09L8 15.5v-1.516A7.5 7.5 0 0 1 1 6.5a.5.5 0 0 1 1 0 6.5 6.5 0 1 0 13 0 .5.5 0 0 1 .5-.5Z"/></svg>