<svg width="16" height="16" viewBox="0 0 16 16" xmlns="http://www.w3.org/2000/svg" class="icon icon-money-time" aria-hidden="true" focusable="false" fill="currentColor"><path d="m7.311 3.414-.095.008a.533.533 0 0 0-.435.525l-.001 2.88H3.92l-.095.008a.532.532 0 0 0-.434.525.53.53 0 0 0 .53.533h3.391l.095-.008a.534.534 0 0 0 .434-.525V3.947l-.008-.096a.531.531 0 0 0-.522-.437Z"/><path d="M7.311 13.547c-3.507 0-6.251-2.732-6.251-6.187 0-3.477 2.768-6.293 6.251-6.293 2.488 0 4.763 1.527 5.656 3.722a.53.53 0 1 0 .98-.403C12.893 1.788 10.228 0 7.311 0 3.239 0 0 3.296 0 7.36c0 4.045 3.222 7.253 7.311 7.253a.53.53 0 0 0 .53-.533.53.53 0 0 0-.53-.533Z"/><path d="M15.73 7.8c-.102-1.1-1.877-1.607-3.543-1.607-1.666 0-3.441.507-3.542 1.606h-.02V14h.041c.206 1.023 1.911 1.5 3.521 1.5 1.59 0 3.261-.365 3.512-1.344h.051V7.8h-.02Zm-3.542-.608c1.49 0 2.385.428 2.532.651-.147.23-1.04.657-2.532.657-1.489 0-2.382-.426-2.531-.653.149-.228 1.043-.655 2.531-.655Zm0 7.308c-1.597 0-2.52-.493-2.563-.7v-.689c.69.323 1.641.482 2.563.482.922 0 1.872-.159 2.563-.482v.79c-.062.177-.881.6-2.563.6Zm0-1.906c-1.597 0-2.52-.493-2.563-.7v-.782c.69.323 1.641.482 2.563.482.922 0 1.872-.159 2.563-.482v.778c-.044.211-.967.704-2.563.704Zm0-2c-1.597 0-2.52-.493-2.563-.7V9.11c.69.323 1.641.482 2.563.482.922 0 1.872-.159 2.563-.482v.78c-.044.21-.967.703-2.563.703Z"/></svg>