<svg width="16" height="16" viewBox="0 0 16 16" xmlns="http://www.w3.org/2000/svg" class="icon icon-moon" aria-hidden="true" focusable="false" fill="currentColor"><path fill-rule="evenodd" clip-rule="evenodd" d="M5.642.026A8.192 8.192 0 0 0 0 7.808 8.192 8.192 0 0 0 8.192 16a8.192 8.192 0 0 0 7.782-5.642.512.512 0 0 0-.59-.661 7.68 7.68 0 0 1-9.08-9.08.512.512 0 0 0-.662-.59Zm-.48 1.288-.013.148a8.704 8.704 0 0 0 8.675 9.419l.358-.008c.12-.005.238-.012.357-.022l.146-.015-.093.195a7.167 7.167 0 1 1-9.623-9.623l.194-.094Z"/></svg>