<svg width="16" height="16" viewBox="0 0 16 16" xmlns="http://www.w3.org/2000/svg" class="icon icon-moto" aria-hidden="true" focusable="false" fill="currentColor"><path fill-rule="evenodd" clip-rule="evenodd" d="M2.8 10.1c-1 0-1.9.8-1.9 1.9 0 1.1.8 1.9 1.9 1.9 1 0 1.9-.8 1.9-1.9 0-1.1-.8-1.9-1.9-1.9ZM0 12c0-1.6 1.3-2.8 2.8-2.8 1.5 0 2.8 1.3 2.8 2.8 0 1.5-1.3 2.8-2.8 2.8C1.3 14.8 0 13.5 0 12Zm13.2-2.9H13l-.2-.9c.3-.1.6-.1.9-.1.4 0 .7.1.9.2.2.1.5 0 .6-.2.1-.2 0-.5-.2-.6-.4-.2-1-.2-1.3-.2-.4 0-.8.1-1.1.2l-1.2-4.6c-.1-.2-.2-.4-.4-.4H9c-.3-.1-.5.2-.5.5s.2.6.5.6h1.5l.4 1.4H8.5c-.2 0-.3.1-.4.2l-.2.3c-.6.9-2.6 1.7-4 1.8-.2 0-.4-.1-.6-.1h-.2c-.2 0-.3.2-.4.4 0 .3.2.5.4.6h.7c1.6.2 2.8 1.6 2.8 3.2 0 .3.2.5.5.5h2.4c.3 0 .5-.2.5-.5 0-1.2.8-2.2 1.9-2.8l.1.8c-1 .4-1.7 1.4-1.7 2.6 0 1.6 1.3 2.8 2.8 2.8 1.6 0 2.8-1.3 2.8-2.8 0-1.5-1.2-2.9-2.7-2.9ZM9 11H7.5c-.1-1.2-.8-2.2-1.7-2.9C6.9 7.7 8.1 6.9 8.7 6v-.1h2.4l.5 1.8C10.2 8.3 9.1 9.5 9 11Zm4.2 2.8c-1 0-1.9-.8-1.9-1.9 0-.7.4-1.3 1-1.6l.4 1.7c.1.2.2.4.4.4h.2c.3-.1.4-.4.3-.7l-.4-1.6c1 0 1.9.8 1.9 1.9 0 1-.9 1.8-1.9 1.8Z"/></svg>