<svg width="16" height="16" viewBox="0 0 16 16" xmlns="http://www.w3.org/2000/svg" class="icon icon-movie" aria-hidden="true" focusable="false" fill="currentColor"><path fill-rule="evenodd" clip-rule="evenodd" d="M0 2.5a2.5 2.5 0 1 1 5 0 2.5 2.5 0 0 1-5 0Zm4 0a1.5 1.5 0 1 0-3 0 1.5 1.5 0 0 0 3 0ZM6 3a2 2 0 1 1 4 0 2 2 0 0 1-4 0Zm3 0a1 1 0 1 0-2 0 1 1 0 0 0 2 0Zm.5 3h-8A1.5 1.5 0 0 0 0 7.5v7A1.5 1.5 0 0 0 1.5 16h8l.144-.007A1.5 1.5 0 0 0 11 14.5v-1.262l4.314 1.726A.5.5 0 0 0 16 14.5v-7l-.007-.086a.5.5 0 0 0-.679-.378L11 8.76V7.5A1.5 1.5 0 0 0 9.5 6Zm-8 1h8a.5.5 0 0 1 .5.5v2l.007.086a.5.5 0 0 0 .679.378L15 8.238v5.523l-4.314-1.725A.5.5 0 0 0 10 12.5v2a.5.5 0 0 1-.5.5h-8a.5.5 0 0 1-.5-.5v-7a.5.5 0 0 1 .5-.5Z"/></svg>