<svg width="16" height="16" viewBox="0 0 16 16" xmlns="http://www.w3.org/2000/svg" class="icon icon-navigation" aria-hidden="true" focusable="false" fill="currentColor"><g clip-path="url(#a)"><path d="M8 5a1 1 0 1 0 0-2 1 1 0 0 0 0 2Z"/><path fill-rule="evenodd" clip-rule="evenodd" d="M1.5 4a.5.5 0 0 0-.5.5v10a.5.5 0 0 0 .5.5h13a.5.5 0 0 0 .5-.5v-10a.5.5 0 0 0-.5-.5h-1a.5.5 0 0 1 0-1h1A1.5 1.5 0 0 1 16 4.5v10a1.5 1.5 0 0 1-1.5 1.5h-13A1.5 1.5 0 0 1 0 14.5v-10A1.5 1.5 0 0 1 1.5 3h1a.5.5 0 0 1 0 1h-1Z"/><path fill-rule="evenodd" clip-rule="evenodd" d="M8 1a3 3 0 0 0-3 3c0 .52.186 1.163.503 1.865.312.692.734 1.402 1.163 2.045A24.778 24.778 0 0 0 8 9.72a24.658 24.658 0 0 0 1.334-1.81c.429-.643.85-1.353 1.163-2.045C10.814 5.163 11 4.52 11 4a3 3 0 0 0-3-3Zm0 9.5-.376.33-.004-.005-.008-.01-.03-.035a23.821 23.821 0 0 1-.52-.633 25.79 25.79 0 0 1-1.228-1.682c-.446-.67-.9-1.429-1.243-2.189C4.251 5.524 4 4.73 4 4a4 4 0 0 1 8 0c0 .73-.252 1.524-.591 2.276-.344.76-.797 1.52-1.243 2.189a25.782 25.782 0 0 1-1.747 2.315l-.031.036-.008.01-.003.003L8 10.5Zm0 0 .377.329a.501.501 0 0 1-.753 0L8 10.5Zm-2.146-.354a.5.5 0 0 1 0 .708l-3 3a.5.5 0 0 1-.708-.708l3-3a.5.5 0 0 1 .708 0Zm4.292 0a.5.5 0 0 1 .708 0l3 3a.5.5 0 0 1-.708.708l-3-3a.5.5 0 0 1 0-.708Z"/></g><defs><clipPath id="a"><path d="M0 0h16v16H0z"/></clipPath></defs></svg>