<svg width="16" height="16" viewBox="0 0 16 16" xmlns="http://www.w3.org/2000/svg" class="icon icon-no-paper" aria-hidden="true" focusable="false" fill="currentColor"><path d="M8.816 3.068a11.217 11.217 0 0 0-.456-.418l-.028-.024-.008-.006-.003-.003-.04.048L8 3l.281-.335.04-.048L8 2.348l-.321.269.031.037-.031-.037-.003.003-.008.006-.028.024-.101.089a13.669 13.669 0 0 0-1.425 1.484C5.355 5.146 4.5 6.463 4.5 7.792c0 1.046.391 1.876 1.057 2.436.534.449 1.213.699 1.942.776v2.308h1v-2.308c.729-.077 1.41-.327 1.944-.776.666-.56 1.057-1.39 1.057-2.436 0-1.33-.855-2.647-1.613-3.569-.391-.475-.78-.875-1.071-1.155ZM9.8 9.463c-.331.278-.777.463-1.3.535V7.064h-1v2.934c-.524-.072-.969-.257-1.3-.535-.419-.353-.7-.892-.7-1.671 0-.953.645-2.032 1.386-2.935.359-.438.721-.809.992-1.07L8 3.672l.122.116c.271.261.632.632.992 1.07.741.903 1.386 1.981 1.386 2.934 0 .779-.281 1.318-.7 1.671Z"/><path d="M8 0a8 8 0 1 0 0 16A8 8 0 0 0 8 0Zm0 15A7 7 0 1 1 8 1a7 7 0 0 1 0 14Z"/></svg>