<svg width="16" height="16" viewBox="0 0 16 16" xmlns="http://www.w3.org/2000/svg" class="icon icon-not-specified" aria-hidden="true" focusable="false" fill="currentColor"><path d="M8 4.1C5.8 4.1 4.1 5.8 4.1 8c0 .9.3 1.7.8 2.4L10.3 5c-.6-.6-1.4-.9-2.3-.9Zm-2.4 7c.7.5 1.5.8 2.4.8 2.2 0 3.9-1.8 3.9-3.9 0-.9-.3-1.7-.8-2.4l-5.5 5.5Z"/><path fill-rule="evenodd" clip-rule="evenodd" d="M8 0C3.6 0 0 3.6 0 8s3.6 8 8 8 8-3.6 8-8-3.6-8-8-8Zm0 12.9c-2.7 0-4.9-2.2-4.9-4.9S5.3 3.1 8 3.1s4.9 2.2 4.9 4.9-2.2 4.9-4.9 4.9Z"/></svg>