<svg width="16" height="16" viewBox="0 0 16 16" xmlns="http://www.w3.org/2000/svg" class="icon icon-notes" aria-hidden="true" focusable="false" fill="currentColor"><path fill-rule="evenodd" clip-rule="evenodd" d="M13.2 2.2h-3C10.2 1 9.2 0 8 0 6.8 0 5.8 1 5.8 2.2h-3c-.4 0-.8.3-.8.8v12.1c0 .5.4.9.8.9h10.4c.4 0 .8-.4.8-.9V3c0-.5-.4-.8-.8-.8ZM8 1.3c.5 0 .9.4.9.9s-.4.9-.9.9-.9-.4-.9-.9.4-.9.9-.9Zm4 11.2c0 .3-.2.5-.5.5h-7c-.3 0-.5-.2-.5-.5s.2-.5.5-.5h7c.3 0 .5.2.5.5Zm0-3c0 .3-.2.5-.5.5h-7c-.3 0-.5-.2-.5-.5s.2-.5.5-.5h7c.3 0 .5.2.5.5Zm0-3c0 .3-.2.5-.5.5h-7c-.3 0-.5-.2-.5-.5s.2-.5.5-.5h7c.3 0 .5.2.5.5Z"/></svg>