<svg width="16" height="16" viewBox="0 0 16 16" xmlns="http://www.w3.org/2000/svg" class="icon icon-overlap" aria-hidden="true" focusable="false" fill="currentColor"><path d="M15.992.41A.5.5 0 0 0 15.5 0h-10l-.09.008A.5.5 0 0 0 5 .5v3l.008.09A.5.5 0 0 0 5.5 4l.09-.008A.5.5 0 0 0 6 3.5V1h9v9h-2.5l-.09.008a.5.5 0 0 0 .09.992h3l.09-.008A.5.5 0 0 0 16 10.5V.5l-.008-.09ZM2.5 5a.5.5 0 0 1 .09.992L2.5 6H1v1.5a.5.5 0 0 1-.41.492L.5 8a.5.5 0 0 1-.492-.41L0 7.5v-2a.5.5 0 0 1 .41-.492L.5 5h2Zm-2 4a.5.5 0 0 1 .492.41L1 9.5v2.031a.5.5 0 0 1-.992.09L0 11.53V9.5A.5.5 0 0 1 .5 9Zm.492 4.41A.5.5 0 0 0 0 13.5v2l.008.09A.5.5 0 0 0 .5 16h2l.09-.008A.5.5 0 0 0 3 15.5l-.008-.09A.5.5 0 0 0 2.5 15H1v-1.5l-.008-.09ZM6.5 15a.5.5 0 0 1 .09.992L6.5 16h-2a.5.5 0 0 1-.09-.992L4.5 15h2Zm4.492-1.59A.5.5 0 0 0 10.5 13l-.09.008a.5.5 0 0 0-.41.492V15H8.5l-.09.008A.5.5 0 0 0 8.5 16h2l.09-.008A.5.5 0 0 0 11 15.5v-2l-.008-.09Z"/><path d="M10.5 9a.5.5 0 0 1 .492.41L11 9.5v2a.5.5 0 0 1-.992.09L10 11.5v-2a.5.5 0 0 1 .5-.5Zm.492-3.59A.5.5 0 0 0 10.5 5h-2l-.09.008A.5.5 0 0 0 8 5.5l.008.09A.5.5 0 0 0 8.5 6H10v1.5l.008.09A.5.5 0 0 0 11 7.5v-2l-.008-.09ZM6.5 5a.5.5 0 0 1 .09.992L6.5 6h-2a.5.5 0 0 1-.09-.992L4.5 5h2Z"/></svg>