<svg width="16" height="16" viewBox="0 0 16 16" xmlns="http://www.w3.org/2000/svg" class="icon icon-paint" aria-hidden="true" focusable="false" fill="currentColor"><path d="M4.785 6.089a.5.5 0 0 0-.638.765l5 5 .07.057a.5.5 0 0 0 .637-.765l-5-5-.07-.057Z"/><path fill-rule="evenodd" clip-rule="evenodd" d="m1.733 5.56-.122.131a2.5 2.5 0 0 0 .122 3.404l1.232 1.233-2.404 2.404A1.914 1.914 0 0 0 .434 15.3l.11.123c.376.377.863.578 1.37.578l.169-.007c.446-.04.866-.234 1.185-.553l2.403-2.404 1.233 1.233a2.5 2.5 0 0 0 3.535 0l5.415-5.415a.5.5 0 0 0 0-.708l-8-8a.5.5 0 0 0-.707 0L1.733 5.56ZM7.5 1.207 14.793 8.5l-5.061 5.062a1.5 1.5 0 0 1-2.121 0l-1.586-1.586a.5.5 0 0 0-.707 0L2.56 14.732a.914.914 0 0 1-1.293 0l-.077-.085a.914.914 0 0 1 .077-1.207l2.758-2.758a.5.5 0 0 0 0-.708L2.44 8.388a1.5 1.5 0 0 1 0-2.12L7.5 1.207Z"/></svg>