<svg width="16" height="16" viewBox="0 0 16 16" xmlns="http://www.w3.org/2000/svg" class="icon icon-pdf" aria-hidden="true" focusable="false" fill="currentColor"><path fill-rule="evenodd" clip-rule="evenodd" d="M10.9 11c.2 0 .4.1.5.2.05.05.075.1.1.15.025.05.05.1.1.15-.1.4-.3.5-.7.5-.427 0-.78-.146-1.187-.313A21.55 21.55 0 0 0 9.5 11.6c-.2-.1-.4-.2-.7-.1-.1.1-.1.1-.2.1-.05 0-.125.025-.2.05a.773.773 0 0 1-.2.05c-.8.2-1.5.4-1.8 1.2-.1.2-.4.5-.7.7-.053.027-.1.053-.143.078-.118.068-.21.122-.357.122-.2 0-.4 0-.5-.2-.231-.231-.106-.403.01-.561a.999.999 0 0 0 .09-.14c.3-.3.6-.6 1.1-.8.2-.1.3-.2.4-.4.15-.3.3-.624.45-.95.15-.324.3-.65.45-.95v-.5c-.1-.5-.2-1-.2-1.6.017-.05.03-.102.045-.155.07-.264.139-.527.555-.444.6 0 .6.5.6.7 0 .3 0 .7-.1 1.1V9c-.1.4.1.9.5 1.4.3.4.8.6 1.2.6h1.1ZM5 13.4s.1-.4.6-.5c0 0-.1.5-.6.5Zm2.6-6s.292.292.012.78c.009-.034-.02-.082-.056-.143-.09-.148-.223-.37.044-.637Zm0 .8a.044.044 0 0 0 .012-.02L7.6 8.2Zm-.4 3.1-.1.1 1.3-.3c-.3-.2-.5-.5-.7-.8-.1.15-.175.325-.25.5-.075.175-.15.35-.25.5Zm3 .2s.4-.3.8.1c.1 0-.4.3-.8-.1Z"/><path fill-rule="evenodd" clip-rule="evenodd" d="M1.5 0h8a.5.5 0 0 1 .354.146l5 5A.5.5 0 0 1 15 5.5v10a.5.5 0 0 1-.5.5h-13a.5.5 0 0 1-.5-.5V.5a.5.5 0 0 1 .5-.5Zm8.506 1.713L13.293 5H10l.006-3.287ZM2 1h7.007L9 5.5l.008.09A.5.5 0 0 0 9.5 6H14v9H2V1Z"/></svg>