<svg width="16" height="16" viewBox="0 0 16 16" xmlns="http://www.w3.org/2000/svg" class="icon icon-pencil" aria-hidden="true" focusable="false" fill="currentColor"><path fill-rule="evenodd" clip-rule="evenodd" d="M1.078 11.09a.53.53 0 0 1 .16-.282L9.75 2.294a.58.58 0 0 1 .01-.01L11.89.157a.533.533 0 0 1 .754 0l3.2 3.2a.533.533 0 0 1 0 .754L5.177 14.777a.534.534 0 0 1-.247.14L.663 15.984a.533.533 0 0 1-.647-.647l1.062-4.248Zm.811 1.153-.622 2.489 2.489-.623-1.867-1.866Zm2.91 1.402 7.78-7.779-2.446-2.445-7.779 7.778L4.8 13.645Zm6.088-10.979 2.446 2.446 1.38-1.38-2.446-2.445-1.38 1.38Z"/></svg>