<svg width="16" height="16" viewBox="0 0 16 16" xmlns="http://www.w3.org/2000/svg" class="icon icon-phone-call" aria-hidden="true" focusable="false" fill="currentColor"><path d="M16 7.467A7.466 7.466 0 0 0 8.533 0a.533.533 0 0 0 0 1.067 6.4 6.4 0 0 1 6.4 6.4.533.533 0 0 0 1.067 0Z"/><path fill-rule="evenodd" clip-rule="evenodd" d="M.156 2.29 2.29.156a.533.533 0 0 1 .754 0l3.2 3.2a.533.533 0 0 1 0 .754L4.487 5.867l5.646 5.645 1.757-1.756a.534.534 0 0 1 .68-.062l.074.062 3.2 3.2a.533.533 0 0 1 0 .755l-2.133 2.133c-.1.1-.236.156-.378.156C5.97 16 0 10.03 0 2.667c0-.142.056-.277.156-.377Zm4.957 1.443L2.667 1.287 1.069 2.884l.002.094c.162 6.527 5.424 11.789 11.95 11.951l.094.001 1.598-1.597-2.446-2.446-1.756 1.757a.534.534 0 0 1-.68.062l-.075-.062-6.4-6.4a.533.533 0 0 1 0-.754l1.757-1.757Z"/><path d="M8.533 3.2A4.267 4.267 0 0 1 12.8 7.467a.533.533 0 0 1-1.067 0 3.2 3.2 0 0 0-3.2-3.2.533.533 0 0 1 0-1.067Z"/></svg>