<svg width="16" height="16" viewBox="0 0 16 16" xmlns="http://www.w3.org/2000/svg" class="icon icon-phone-in" aria-hidden="true" focusable="false" fill="currentColor"><path fill-rule="evenodd" clip-rule="evenodd" d="M.156 2.29 2.29.156a.533.533 0 0 1 .754 0l3.2 3.2a.533.533 0 0 1 0 .754L4.487 5.867l5.646 5.645 1.757-1.756a.534.534 0 0 1 .68-.062l.074.062 3.2 3.2a.533.533 0 0 1 0 .755l-2.133 2.133c-.1.1-.236.156-.378.156C6 16 0 10.001 0 2.667c0-.142.056-.277.156-.377Zm4.956 1.443L2.666 1.287 1.068 2.884l.002.093c.164 6.5 5.452 11.789 11.952 11.952l.092.001 1.598-1.597-2.446-2.446-1.756 1.757a.534.534 0 0 1-.68.062l-.074-.062-6.4-6.4a.533.533 0 0 1 0-.754l1.756-1.757Z"/><path d="M10.658.437A.534.534 0 0 0 9.6.533v5.333a.54.54 0 0 0 .183.403.531.531 0 0 0 .35.131h5.333l.096-.009A.534.534 0 0 0 16 5.867l-.009-.096a.533.533 0 0 0-.525-.438h-4.045l3.356-3.356.061-.074a.533.533 0 0 0-.815-.68l-3.357 3.356V.533l-.008-.096Z"/></svg>