<svg width="16" height="16" viewBox="0 0 16 16" xmlns="http://www.w3.org/2000/svg" class="icon icon-phone" aria-hidden="true" focusable="false" fill="currentColor"><path fill-rule="evenodd" clip-rule="evenodd" d="M2.29.156.156 2.29c-.1.1-.156.235-.156.377C0 10.03 5.97 16 13.333 16a.534.534 0 0 0 .377-.156l2.134-2.133a.533.533 0 0 0 0-.755l-3.2-3.2-.074-.062a.534.534 0 0 0-.68.062l-1.757 1.756-5.646-5.645L6.244 4.11a.533.533 0 0 0 0-.754l-3.2-3.2a.533.533 0 0 0-.754 0Zm.376 1.131 2.446 2.446L3.356 5.49a.533.533 0 0 0 0 .754l6.4 6.4.074.062a.534.534 0 0 0 .68-.062l1.756-1.757 2.446 2.446-1.598 1.597h-.093C6.495 14.767 1.233 9.505 1.071 2.978l-.003-.094 1.598-1.597Z"/></svg>