<svg width="16" height="16" viewBox="0 0 16 16" xmlns="http://www.w3.org/2000/svg" class="icon icon-phone-out" aria-hidden="true" focusable="false" fill="currentColor"><path fill-rule="evenodd" clip-rule="evenodd" d="M.156 2.29 2.29.156a.533.533 0 0 1 .754 0l3.2 3.2a.533.533 0 0 1 0 .754L4.487 5.867l5.646 5.645 1.757-1.756a.534.534 0 0 1 .68-.062l.074.062 3.2 3.2a.533.533 0 0 1 0 .755l-2.133 2.133c-.1.1-.236.156-.378.156C6 16 0 10.001 0 2.667c0-.142.056-.277.156-.377Zm4.957 1.443L2.667 1.287 1.069 2.884l.002.093c.163 6.5 5.452 11.789 11.952 11.952l.092.001 1.598-1.597-2.446-2.446-1.756 1.757a.534.534 0 0 1-.68.062l-.075-.062-6.4-6.4a.533.533 0 0 1 0-.754l1.757-1.757Z"/><path d="M15.992.437A.534.534 0 0 0 15.466 0h-5.334l-.095.009A.533.533 0 0 0 9.6.533l.01.097a.533.533 0 0 0 .524.438h4.046l-3.356 3.356-.062.074a.534.534 0 0 0 .816.68l3.356-3.356v4.046l.009.096A.534.534 0 0 0 16 5.867V.53c0-.03-.003-.06-.008-.09V.438Z"/></svg>