<svg width="16" height="16" viewBox="0 0 16 16" xmlns="http://www.w3.org/2000/svg" class="icon icon-pin-full" aria-hidden="true" focusable="false" fill="currentColor"><path fill-rule="evenodd" clip-rule="evenodd" d="M15.686 5.71 10.291.3c-.4-.4-.999-.4-1.399 0a.97.97 0 0 0 0 1.403l.6.6L2.698 6.01l-1-1.002c-.4-.4-.999-.4-1.398 0a.97.97 0 0 0 0 1.403l3.896 3.906L.6 14.023 2 15.425l3.696-3.706 3.997 4.007c.5.5 1.199.2 1.398 0a.97.97 0 0 0 0-1.402l-.999-1.002 3.697-6.711.6.6c.599.602 1.198.201 1.398 0 .3-.4.3-1.1-.1-1.502Z"/></svg>