<svg width="16" height="16" viewBox="0 0 16 16" xmlns="http://www.w3.org/2000/svg" class="icon icon-pin" aria-hidden="true" focusable="false" fill="currentColor"><path fill-rule="evenodd" clip-rule="evenodd" d="M9.146.146A.5.5 0 0 1 9.784.09l.07.057 6 6a.5.5 0 0 1-.638.765l-.07-.057-1.174-1.175-4.498 8.088 1.38 1.38a.5.5 0 0 1-.638.764l-.07-.057-1.631-1.632a.499.499 0 0 1-.03-.03L1.808 7.515a.493.493 0 0 1-.03-.03l-1.63-1.63a.5.5 0 0 1 .637-.765l.07.057 1.379 1.38 8.088-4.498L9.146.854a.5.5 0 0 1 0-.708Zm1.91 2.617 2.18 2.18-4.497 8.089L2.968 7.26l8.088-4.498Z"/><path d="M4.354 11.646a.5.5 0 0 0-.708 0l-3.5 3.5-.057.07a.5.5 0 0 0 .765.638l3.5-3.5.057-.07a.5.5 0 0 0-.057-.638Z"/></svg>