<svg width="16" height="16" viewBox="0 0 16 16" xmlns="http://www.w3.org/2000/svg" class="icon icon-plane" aria-hidden="true" focusable="false" fill="currentColor"><path d="m12.619 7.128 2.604-2.605a2.65 2.65 0 0 0 0-3.748l-.16-.147a2.65 2.65 0 0 0-3.587.147L8.87 3.381 4.288.325 4.142.236a1.938 1.938 0 0 0-2.297.332L.149 2.264l-.06.072a.508.508 0 0 0 .137.71l5.388 3.592-1.119 1.12-.088.117-1.329 2.45-2.156-.16a.637.637 0 0 0-.5 1.086l1.402 1.39L.82 14.49c-.241.444.245.93.689.688l1.853-1.004 1.388 1.402a.637.637 0 0 0 1.086-.5l-.161-2.156 2.45-1.328.117-.088 1.12-1.12 3.59 5.388.06.074a.512.512 0 0 0 .725.004l1.696-1.697.116-.126a1.937 1.937 0 0 0 .125-2.317l-3.055-4.583ZM1.306 2.543l1.258-1.257.098-.085a.92.92 0 0 1 1.062-.03l4.414 2.942-1.791 1.792-5.041-3.362Zm6.271 8.191L2.529 13.47l2.736-5.048L6.737 6.95a.444.444 0 0 0 .065-.065L9.27 4.417a.707.707 0 0 0 .048-.047l2.875-2.875a1.637 1.637 0 0 1 2.088-.188l.113.087.125.114.104.114a1.632 1.632 0 0 1-.12 2.182l-6.926 6.93Zm7.138 2.702-1.26 1.258-3.36-5.04 1.792-1.792 2.942 4.414.064.113a.916.916 0 0 1-.178 1.047Z"/></svg>