<svg width="16" height="16" viewBox="0 0 16 16" xmlns="http://www.w3.org/2000/svg" class="icon icon-play-movie" aria-hidden="true" focusable="false" fill="currentColor"><g clip-path="url(#a)"><path d="M3.5 3a.5.5 0 0 0 0 1h1a.5.5 0 0 0 0-1h-1Zm4 0a.5.5 0 0 0 0 1h1a.5.5 0 0 0 0-1h-1Zm3.5.5a.5.5 0 0 1 .5-.5h1a.5.5 0 0 1 0 1h-1a.5.5 0 0 1-.5-.5ZM3.5 12a.5.5 0 0 0 0 1h1a.5.5 0 0 0 0-1h-1Zm3.5.5a.5.5 0 0 1 .5-.5h1a.5.5 0 0 1 0 1h-1a.5.5 0 0 1-.5-.5Zm4.5-.5a.5.5 0 0 0 0 1h1a.5.5 0 0 0 0-1h-1Z"/><path fill-rule="evenodd" clip-rule="evenodd" d="M6.258 5.063a.5.5 0 0 1 .507.013l4 2.5a.5.5 0 0 1 0 .848l-4 2.5A.5.5 0 0 1 6 10.5v-5a.5.5 0 0 1 .258-.437ZM7 9.598 9.557 8 7 6.402v3.196Z"/><path fill-rule="evenodd" clip-rule="evenodd" d="M1.5 0A1.5 1.5 0 0 0 0 1.5v13A1.5 1.5 0 0 0 1.5 16h13a1.5 1.5 0 0 0 1.5-1.5v-13A1.5 1.5 0 0 0 14.5 0h-13ZM1 1.5a.5.5 0 0 1 .5-.5h13a.5.5 0 0 1 .5.5v13a.5.5 0 0 1-.5.5h-13a.5.5 0 0 1-.5-.5v-13Z"/></g><defs><clipPath id="a"><path d="M0 0h16v16H0z"/></clipPath></defs></svg>