<svg width="17" height="17" viewBox="0 0 17 17" xmlns="http://www.w3.org/2000/svg" class="icon icon-plus-round" aria-hidden="true" focusable="false" fill="currentColor"><path d="M8.033 3.247a.5.5 0 0 1 .494.412l.008.09V7.53h3.783a.502.502 0 0 1 .09.996l-.09.008H8.535v3.783a.502.502 0 0 1-.996.09l-.008-.09V8.535H3.75a.502.502 0 0 1-.09-.996l.09-.008h3.78V3.75c0-.278.225-.502.502-.502Z"/><path fill-rule="evenodd" clip-rule="evenodd" d="M.033 8.033a8 8 0 1 1 16 0 8 8 0 0 1-16 0Zm14.996 0a6.996 6.996 0 1 0-13.991 0 6.996 6.996 0 0 0 13.991 0Z"/></svg>