<svg width="16" height="16" viewBox="0 0 16 16" xmlns="http://www.w3.org/2000/svg" class="icon icon-print" aria-hidden="true" focusable="false" fill="currentColor"><path d="M12.5 0a.5.5 0 0 1 .492.41L13 .5v3a.5.5 0 0 1-.992.09L12 3.5V1H4v2.5a.5.5 0 0 1-.41.492L3.5 4a.5.5 0 0 1-.492-.41L3 3.5v-3a.5.5 0 0 1 .41-.492L3.5 0h9Z"/><path fill-rule="evenodd" clip-rule="evenodd" d="M15.5 5a.5.5 0 0 1 .492.41L16 5.5v7a.5.5 0 0 1-.41.492L15.5 13H13v2.5a.5.5 0 0 1-.5.5h-9a.5.5 0 0 1-.5-.5V13H.5a.5.5 0 0 1-.492-.41L0 12.5v-7a.5.5 0 0 1 .41-.492L.5 5h15ZM4 15h8v-5H4v5Zm9-3V9.5a.5.5 0 0 0-.5-.5h-9a.5.5 0 0 0-.5.5V12H1V6h14v6h-2Z"/></svg>