<svg width="16" height="16" viewBox="0 0 16 16" xmlns="http://www.w3.org/2000/svg" class="icon icon-purse" aria-hidden="true" focusable="false" fill="currentColor"><path fill-rule="evenodd" clip-rule="evenodd" d="M3 2a2 2 0 1 1 4 0 2 2 0 0 1-4 0Zm3 0a1 1 0 1 0-2 0 1 1 0 0 0 2 0ZM2.99 5H.5l-.09.008A.5.5 0 0 0 .5 6h1.728L.287 10.335l-.064.18C-.673 13.208 1.313 16 4.162 16h7.676l.189-.004c2.81-.123 4.711-2.972 3.697-5.635L13.771 6H15.5l.09-.008A.5.5 0 0 0 15.5 5H2.989Zm9.686 1H3.324L1.21 10.717c-.766 2.012.658 4.163 2.774 4.278l.178.005h7.676c2.153 0 3.656-2.097 3.02-4.09l-.058-.167L12.676 6ZM11 0a2 2 0 1 0 0 4 2 2 0 0 0 0-4Zm0 1a1 1 0 1 1 0 2 1 1 0 0 1 0-2Z"/></svg>