<svg width="16" height="17" viewBox="0 0 16 17" xmlns="http://www.w3.org/2000/svg" class="icon icon-question" aria-hidden="true" focusable="false" fill="currentColor"><path d="M11.768 2.426C11.03-.27 7.236-.72 5.198 1.12a.5.5 0 1 0 .67.742c1.542-1.391 4.42-1.05 4.935.828.264.963.078 1.567-.61 2.422a46.694 46.694 0 0 1-.668.788l-.29.353C8.198 7.566 7.7 8.812 7.7 10.673a.5.5 0 1 0 1 0c0-1.711.465-2.778 1.492-4.013l.78-.921c.872-1.083 1.154-2.002.795-3.313ZM8.201 16.008a1.067 1.067 0 1 0 0-2.134 1.067 1.067 0 0 0 0 2.134Z"/></svg>