<svg width="17" height="17" viewBox="0 0 17 17" xmlns="http://www.w3.org/2000/svg" class="icon icon-question-round" aria-hidden="true" focusable="false" fill="currentColor"><path d="M9.104 12.854a1.071 1.071 0 1 1-2.142 0 1.071 1.071 0 0 1 2.142 0Zm1.473-8.475c-.511-1.869-3.097-2.175-4.487-.92a.502.502 0 0 0 .673.745c.892-.805 2.559-.608 2.846.44.149.545.043.863-.384 1.36l-.051.058-.276.306-.172.191-.155.182c-.7.847-1.04 1.673-1.04 2.899a.502.502 0 0 0 1.004 0c0-1.04.29-1.673.945-2.417l.146-.163c.128-.14.298-.328.361-.402l.128-.155c.525-.666.694-1.28.462-2.124Z"/><path fill-rule="evenodd" clip-rule="evenodd" d="M.033 8.033a8 8 0 1 1 16 0 8 8 0 0 1-16 0Zm14.996 0a6.996 6.996 0 1 0-13.991 0 6.996 6.996 0 0 0 13.991 0Z"/></svg>