<svg width="16" height="16" viewBox="0 0 16 16" xmlns="http://www.w3.org/2000/svg" class="icon icon-reduce" aria-hidden="true" focusable="false" fill="currentColor"><path d="M10.992.41A.5.5 0 0 0 10 .5v5l.008.09A.5.5 0 0 0 10.5 6h5l.09-.008A.5.5 0 0 0 16 5.5l-.008-.09A.5.5 0 0 0 15.5 5h-3.793L15.854.854l.057-.07a.5.5 0 0 0-.765-.638L11 4.293V.5l-.008-.09Zm-5.3 9.628a.498.498 0 0 0-.19-.038H.5l-.09.008A.5.5 0 0 0 0 10.5l.008.09A.5.5 0 0 0 .5 11h3.793L.146 15.146l-.057.07a.5.5 0 0 0 .765.638L5 11.707V15.5l.008.09A.5.5 0 0 0 6 15.5v-5a.503.503 0 0 0-.308-.462ZM5.5 0a.5.5 0 0 1 .492.41L6 .5v5a.499.499 0 0 1-.145.352l-.003.003A.498.498 0 0 1 5.5 6h-5a.5.5 0 0 1-.09-.992L.5 5h3.793L.146.854A.5.5 0 0 1 .784.089l.07.057L5 4.293V.5a.5.5 0 0 1 .41-.492L5.5 0ZM16 10.5a.5.5 0 0 1-.41.492L15.5 11h-3.793l4.147 4.146a.5.5 0 0 1-.638.765l-.07-.057L11 11.707V15.5a.5.5 0 0 1-.41.492L10.5 16a.5.5 0 0 1-.492-.41L10 15.5v-5.003a.499.499 0 0 1 .5-.497h5a.5.5 0 0 1 .5.5Z"/></svg>