<svg width="16" height="16" viewBox="0 0 16 16" xmlns="http://www.w3.org/2000/svg" class="icon icon-refund" aria-hidden="true" focusable="false" fill="currentColor"><path d="M5.683 1.85c3.373-1.632 7.459-.293 9.068 3.032 1.632 3.373.292 7.46-3.027 9.065-1.292.646-2.599.864-3.906.646a.5.5 0 0 1 .165-.986c1.092.182 2.186 0 3.3-.557 2.82-1.365 3.962-4.849 2.567-7.732-1.364-2.82-4.849-3.963-7.726-2.57a5.8 5.8 0 0 0-3.16 4.31l.771-.482a.5.5 0 0 1 .635.087l.054.072a.5.5 0 0 1-.087.634l-.072.055-1.6 1a.5.5 0 0 1-.619-.07l-.056-.067-1.4-2a.5.5 0 0 1 .762-.643l.058.07.619.885a6.813 6.813 0 0 1 3.654-4.75Z"/><path d="M9.5 4c.587 0 1.16.12 1.624.353a.5.5 0 1 1-.447.894C10.359 5.09 9.939 5 9.5 5c-1.11 0-1.979.67-2.372 1.7H8.9a.5.5 0 0 1 .09.992L8.9 7.7H6.91a4.063 4.063 0 0 0 0 .6H8.9a.5.5 0 0 1 .09.992L8.9 9.3H7.128C7.521 10.33 8.39 11 9.5 11c.439 0 .86-.088 1.177-.247a.5.5 0 1 1 .447.894C10.66 11.88 10.087 12 9.5 12c-1.69 0-2.972-1.112-3.423-2.7H5.1a.5.5 0 0 1-.09-.992L5.1 8.3h.81a5.045 5.045 0 0 1 0-.6H5.1a.5.5 0 0 1-.09-.992L5.1 6.7h.977C6.529 5.112 7.81 4 9.5 4Z"/></svg>