<svg width="16" height="16" viewBox="0 0 16 16" xmlns="http://www.w3.org/2000/svg" class="icon icon-reload" aria-hidden="true" focusable="false" fill="currentColor"><path d="M13.9 2.963C12.495 1.019 10.457 0 7.967 0 3.574 0 0 3.35 0 7.5a.5.5 0 0 0 1 0C1 3.918 4.112 1 7.967 1c2.341 0 4.195 1.01 5.424 3h-3.258l-.09.008a.5.5 0 0 0 .09.992H14.4l.09-.008a.5.5 0 0 0 .41-.492v-4l-.008-.09A.5.5 0 0 0 14.4 0l-.09.008A.5.5 0 0 0 13.9.5v2.463ZM15.466 8a.5.5 0 0 1 .5.5c0 4.15-3.573 7.5-7.966 7.5-2.454 0-4.49-1.011-5.9-2.906V15.5a.5.5 0 0 1-.41.492L1.6 16a.5.5 0 0 1-.492-.41L1.1 15.5v-4a.5.5 0 0 1 .41-.492L1.6 11h4.267a.5.5 0 0 1 .09.992l-.09.008H2.563C3.796 13.974 5.671 15 8 15c3.854 0 6.966-2.918 6.966-6.5a.5.5 0 0 1 .5-.5Z"/></svg>