<svg width="16" height="16" viewBox="0 0 16 16" xmlns="http://www.w3.org/2000/svg" class="icon icon-respond-arrow" aria-hidden="true" focusable="false" fill="currentColor"><path fill-rule="evenodd" clip-rule="evenodd" d="M8 1.5v3.541l-.05.002C3.076 5.22 0 7.798 0 13.5c0 .504.66.691.925.263l.163-.254c1.54-2.323 3.774-3.366 6.76-3.495L8 10.008V13.5a.5.5 0 0 0 .825.38l7-6a.5.5 0 0 0 0-.76l-7-6A.5.5 0 0 0 8 1.5Zm1 1.087L14.731 7.5l-5.73 4.912V9.5a.5.5 0 0 0-.5-.5l-.35.004c-2.88.06-5.198.884-6.93 2.726l-.12.131.006-.041C1.66 7.74 4.342 6.033 8.5 6.033a.5.5 0 0 0 .5-.5V2.587Z"/></svg>