<svg width="16" height="16" viewBox="0 0 16 16" xmlns="http://www.w3.org/2000/svg" class="icon icon-resume" aria-hidden="true" focusable="false" fill="currentColor"><path d="M12 3.5a.5.5 0 0 0-.5-.5h-2l-.09.008A.5.5 0 0 0 9.5 4h2l.09-.008A.5.5 0 0 0 12 3.5ZM11.5 6a.5.5 0 0 1 .09.992L11.5 7h-2a.5.5 0 0 1-.09-.992L9.5 6h2Zm.5 3.5a.5.5 0 0 0-.5-.5h-7l-.09.008A.5.5 0 0 0 4.5 10h7l.09-.008A.5.5 0 0 0 12 9.5Zm-.5 2.5a.5.5 0 0 1 .09.992L11.5 13h-7a.5.5 0 0 1-.09-.992L4.5 12h7Z"/><path fill-rule="evenodd" clip-rule="evenodd" d="M7.5 3h-3a.5.5 0 0 0-.5.5v3a.5.5 0 0 0 .5.5h3a.5.5 0 0 0 .5-.5v-3a.5.5 0 0 0-.5-.5ZM7 4v2H5V4h2Z"/><path fill-rule="evenodd" clip-rule="evenodd" d="M14.5 0h-13a.5.5 0 0 0-.5.5v15a.5.5 0 0 0 .5.5h13a.5.5 0 0 0 .5-.5V.5a.5.5 0 0 0-.5-.5ZM14 1v14H2V1h12Z"/></svg>