<svg width="16" height="16" viewBox="0 0 16 16" xmlns="http://www.w3.org/2000/svg" class="icon icon-rib" aria-hidden="true" focusable="false" fill="currentColor"><path d="M13.5 7.5a.5.5 0 0 1 .09.992l-.09.008h-11a.5.5 0 0 1-.09-.992L2.5 7.5h11ZM7 5.5a.5.5 0 0 0-.5-.5h-4l-.09.008A.5.5 0 0 0 2.5 6h4l.09-.008A.5.5 0 0 0 7 5.5Zm-3.5 5a.5.5 0 0 1 .09.992l-.09.008h-1a.5.5 0 0 1-.09-.992l.09-.008h1ZM7 11a.5.5 0 0 0-.5-.5h-1l-.09.008a.5.5 0 0 0 .09.992h1l.09-.008A.5.5 0 0 0 7 11Zm2.5-.5a.5.5 0 0 1 .09.992l-.09.008h-1a.5.5 0 0 1-.09-.992l.09-.008h1Zm4.5.5a.5.5 0 0 0-.5-.5h-2l-.09.008a.5.5 0 0 0 .09.992h2l.09-.008A.5.5 0 0 0 14 11Z"/><path fill-rule="evenodd" clip-rule="evenodd" d="M1.5 2.5h13c.853 0 1.5.601 1.5 1.4v8.2c0 .799-.647 1.4-1.5 1.4h-13c-.853 0-1.5-.601-1.5-1.4V3.9c0-.799.647-1.4 1.5-1.4Zm13 1h-13c-.316 0-.5.17-.5.4v8.2c0 .23.184.4.5.4h13c.316 0 .5-.17.5-.4V3.9c0-.23-.184-.4-.5-.4Z"/></svg>