<svg width="17" height="16" viewBox="0 0 17 16" xmlns="http://www.w3.org/2000/svg" class="icon icon-ribbon" aria-hidden="true" focusable="false" fill="currentColor"><path fill-rule="evenodd" clip-rule="evenodd" d="M3 5a5 5 0 1 1 10 0A5 5 0 0 1 3 5Zm9 0a4 4 0 1 0-8 0 4 4 0 0 0 8 0Z"/><path d="M2.37 8.593a.5.5 0 0 1 .921.379l-.034.083-1.823 3.492 2.038-.431a.5.5 0 0 1 .522.216l.042.078.81 1.918 1.591-3.047a.5.5 0 0 1 .591-.247l.084.035a.5.5 0 0 1 .246.591l-.034.083-2.081 3.988a.5.5 0 0 1-.86.047l-.044-.083-1.064-2.516-2.671.567a.5.5 0 0 1-.58-.645l.033-.075L2.37 8.593Zm11.212-.076a.5.5 0 0 0-.626-.136l-.076.049a.5.5 0 0 0-.136.625l1.821 3.492-2.036-.431-.088-.01a.5.5 0 0 0-.476.304l-.812 1.918-1.59-3.047-.048-.076a.5.5 0 0 0-.838.538l2.08 3.988.052.08a.5.5 0 0 0 .853-.116l1.062-2.516 2.672.567.082.011a.5.5 0 0 0 .466-.731L13.63 8.593l-.048-.076Z"/></svg>