<svg width="16" height="16" viewBox="0 0 16 16" xmlns="http://www.w3.org/2000/svg" class="icon icon-roadsign" aria-hidden="true" focusable="false" fill="currentColor"><path fill-rule="evenodd" clip-rule="evenodd" d="M8.5 0a.5.5 0 0 1 .492.41L9 .5V3h3.5a.5.5 0 0 1 .32.116l3 2.5a.5.5 0 0 1 0 .768l-3 2.5A.5.5 0 0 1 12.5 9H.5a.5.5 0 0 1-.5-.5v-5A.5.5 0 0 1 .5 3H5V.5a.5.5 0 0 1 .41-.492L5.5 0h3ZM8 1v2H6V1h2ZM1 4h11.318l2.4 2-2.401 2H1V4Z"/><path d="M8.992 10.41A.5.5 0 0 0 8.5 10l-.09.008A.5.5 0 0 0 8 10.5V15H6v-4.5l-.008-.09A.5.5 0 0 0 5 10.5v5l.008.09A.5.5 0 0 0 5.5 16h3l.09-.008A.5.5 0 0 0 9 15.5v-5l-.008-.09Z"/></svg>