<svg width="16" height="16" viewBox="0 0 16 16" xmlns="http://www.w3.org/2000/svg" class="icon icon-road" aria-hidden="true" focusable="false" fill="currentColor"><path d="M4.32.363a.5.5 0 0 1 .978.185L5.28.637l-4.267 15a.5.5 0 0 1-.978-.185l.016-.089 4.267-15ZM11.063.02a.5.5 0 0 1 .585.26l.033.083 4.266 15a.5.5 0 0 1-.93.358l-.031-.084-4.267-15a.5.5 0 0 1 .344-.618ZM8.492 1.41a.5.5 0 0 0-.992.09v2l.008.09A.5.5 0 0 0 8.5 3.5v-2l-.008-.09ZM8 6a.5.5 0 0 1 .492.41l.008.09v2a.5.5 0 0 1-.992.09L7.5 8.5v-2A.5.5 0 0 1 8 6Zm.492 5.41a.5.5 0 0 0-.992.09v3l.008.09a.5.5 0 0 0 .992-.09v-3l-.008-.09Z"/></svg>