<svg width="16" height="16" viewBox="0 0 16 16" xmlns="http://www.w3.org/2000/svg" class="icon icon-rocket" aria-hidden="true" focusable="false" fill="currentColor"><path d="M15.87.529A.5.5 0 0 0 15.343 0c-2.687.14-5.026.907-7.036 2.163a5.964 5.964 0 0 0-6.324 1.362 5.981 5.981 0 0 0-.915 1.19.5.5 0 0 0 .077.609l2.06 2.06a14.683 14.683 0 0 0-.547.973l-.119.239a6.95 6.95 0 0 0-.183.406.499.499 0 0 0 .11.539l3.861 3.86a.498.498 0 0 0 .543.11l.122-.053a13.88 13.88 0 0 0 1.307-.693l.18-.108 2.065 2.066.074.06a.5.5 0 0 0 .534.017c.442-.262.84-.564 1.19-.915a5.96 5.96 0 0 0 1.354-6.357c1.253-2.005 2.021-4.333 2.172-7Zm-1.278.535.234-.022-.02.23a13.764 13.764 0 0 1-.948 3.767l-3.04-3.04a13.625 13.625 0 0 1 3.774-.935ZM2.138 4.902l.071-.103a4.78 4.78 0 0 1 .482-.566 4.963 4.963 0 0 1 4.56-1.341 15.656 15.656 0 0 0-1.8 1.594 16.506 16.506 0 0 0-1.686 2.043L2.138 4.902Zm9.5 8.278-.178.169c-.123.11-.252.215-.388.313l-.104.072-1.637-1.637a16.617 16.617 0 0 0 2.058-1.711 15.924 15.924 0 0 0 1.588-1.803 4.968 4.968 0 0 1-1.339 4.597Zm1.12-6.033a.505.505 0 0 0-.075.115A14.36 14.36 0 0 1 10.69 9.67a15.613 15.613 0 0 1-2.395 1.92l-.034.023c-.158.102-.316.2-.474.295l-.254.148c-.166.096-.325.182-.476.26l-.267.134-3.372-3.372.023-.047c.138-.285.308-.605.512-.95a15.496 15.496 0 0 1 2.215-2.9 14.32 14.32 0 0 1 2.503-2.063c.38-.245.771-.471 1.176-.677l3.565 3.564c-.2.393-.419.773-.654 1.14Z"/><path d="M2.086 12.087C1.306 12.867 1 16 1 16s3.133-.305 3.914-1.086a2 2 0 1 0-2.828-2.828ZM10 8a1 1 0 1 0 0-2 1 1 0 0 0 0 2Z"/></svg>