<svg width="16" height="16" viewBox="0 0 16 16" xmlns="http://www.w3.org/2000/svg" class="icon icon-save" aria-hidden="true" focusable="false" fill="currentColor"><path d="M9.5 2a.5.5 0 0 1 .492.41L10 2.5v3a.5.5 0 0 1-.41.492L9.5 6h-6a.5.5 0 0 1-.492-.41L3 5.5v-3a.5.5 0 0 1 .992-.09L4 2.5V5h5V2.5a.5.5 0 0 1 .41-.492L9.5 2Zm3.492 7.41A.5.5 0 0 0 12.5 9h-9l-.09.008A.5.5 0 0 0 3 9.5v4l.008.09A.5.5 0 0 0 3.5 14l.09-.008A.5.5 0 0 0 4 13.5V10h8v3.5l.008.09A.5.5 0 0 0 13 13.5v-4l-.008-.09Z"/><path fill-rule="evenodd" clip-rule="evenodd" d="M.5 0h11a.5.5 0 0 1 .354.146l4 4A.5.5 0 0 1 16 4.5v11a.5.5 0 0 1-.5.5H.5a.5.5 0 0 1-.5-.5V.5A.5.5 0 0 1 .5 0ZM15 4.707 11.293 1H1v14h14V4.707Z"/></svg>