<svg width="16" height="16" viewBox="0 0 16 16" xmlns="http://www.w3.org/2000/svg" class="icon icon-search-file" aria-hidden="true" focusable="false" fill="currentColor"><path fill-rule="evenodd" clip-rule="evenodd" d="M10.1 9.3c0 .593-.184 1.142-.498 1.595l1.752 1.751a.5.5 0 0 1-.638.765l-.07-.057-1.751-1.752A2.8 2.8 0 1 1 10.1 9.3Zm-1 0a1.8 1.8 0 1 0-3.6 0 1.8 1.8 0 0 0 3.6 0Z"/><path fill-rule="evenodd" clip-rule="evenodd" d="M9.5 0h-8a.5.5 0 0 0-.5.5v15a.5.5 0 0 0 .5.5h13a.5.5 0 0 0 .5-.5v-10a.497.497 0 0 0-.146-.353l-5-5A.5.5 0 0 0 9.5 0ZM9 1H2v14h12V6H9.5a.5.5 0 0 1-.492-.41L9 5.5V1Zm4.293 4L10 1.707V5h3.293Z"/></svg>