<svg width="16" height="16" viewBox="0 0 16 16" xmlns="http://www.w3.org/2000/svg" class="icon icon-send" aria-hidden="true" focusable="false" fill="currentColor"><path fill-rule="evenodd" clip-rule="evenodd" d="M16 .516a.5.5 0 0 0-.686-.48l-15 6-.078.039A.5.5 0 0 0 .2 6.9l2.002 1.5.077.048a.5.5 0 0 0 .623-.147l.048-.077a.5.5 0 0 0-.148-.623l-1.29-.968 13.316-5.326-2.663 13.316-6.797-5.097 3.91-2.61.07-.057a.5.5 0 0 0-.626-.775L4.234 9.082a.497.497 0 0 0-.23.42L4 15.5l.007.09a.5.5 0 0 0 .873.236l2.825-3.296L12.2 15.9l.07.045a.5.5 0 0 0 .72-.346l3-15L16 .516ZM6.903 11.927l-1.9-1.425L5 14.147l1.903-2.22Z"/></svg>