<svg width="16" height="16" viewBox="0 0 16 16" xmlns="http://www.w3.org/2000/svg" class="icon icon-share" aria-hidden="true" focusable="false" fill="currentColor"><path d="M11.146.146a.5.5 0 0 1 .638-.057l.07.057 4 4a.5.5 0 0 1 .057.638l-.057.07-4 4a.5.5 0 0 1-.765-.638l.057-.07L14.293 5H9.5a3.5 3.5 0 0 0-3.495 3.308L6 8.5v2a.5.5 0 0 1-.992.09L5 10.5v-2a4.5 4.5 0 0 1 4.288-4.495L9.5 4h4.793L11.146.854a.5.5 0 0 1-.057-.638l.057-.07Z"/><path d="M3.5 3a.5.5 0 0 1 .09.992L3.5 4h-2a.5.5 0 0 0-.492.41L1 4.5v10a.5.5 0 0 0 .41.492L1.5 15h11a.5.5 0 0 0 .492-.41L13 14.5v-3a.5.5 0 0 1 .992-.09l.008.09v3a1.5 1.5 0 0 1-1.356 1.493L12.5 16h-11a1.5 1.5 0 0 1-1.493-1.356L0 14.5v-10a1.5 1.5 0 0 1 1.356-1.493L1.5 3h2Z"/></svg>