<svg width="16" height="17" viewBox="0 0 16 17" xmlns="http://www.w3.org/2000/svg" class="icon icon-shield" aria-hidden="true" focusable="false" fill="currentColor"><path fill-rule="evenodd" clip-rule="evenodd" d="M8.7 8.304c1.546 0 2.8 1.292 2.8 2.8a.5.5 0 0 1-.5.501H5a.5.5 0 0 1-.5-.5 2.763 2.763 0 0 1 2.8-2.801h1.4Zm.147 1.006L8.7 9.304H7.3c-.82 0-1.48.497-1.711 1.22l-.023.08h4.858l-.017-.056a1.837 1.837 0 0 0-1.56-1.238ZM8 3.702a2.1 2.1 0 1 0 0 4.2 2.1 2.1 0 0 0 0-4.2Zm0 1a1.1 1.1 0 1 1 0 2.2 1.1 1.1 0 0 1 0-2.2Z"/><path fill-rule="evenodd" clip-rule="evenodd" d="M7.918.007h.164l6 1a.5.5 0 0 1 .418.494v8.003c0 3.578-2.924 6.503-6.5 6.503s-6.5-2.925-6.5-6.503V1.501a.5.5 0 0 1 .418-.494l6-1ZM13.5 1.925 8 1.007l-5.5.917v7.58c0 2.951 2.357 5.381 5.28 5.498l.22.004c3.024 0 5.5-2.477 5.5-5.502v-7.58Z"/></svg>