<svg width="16" height="16" viewBox="0 0 16 16" xmlns="http://www.w3.org/2000/svg" class="icon icon-shuffle" aria-hidden="true" focusable="false" fill="currentColor"><path d="M12.146.146a.5.5 0 0 1 .638-.057l.07.057 2.98 2.981a.499.499 0 0 1 .077.657l-.004.006a.502.502 0 0 1-.048.057l-.005.007-3 3a.5.5 0 0 1-.765-.638l.057-.07L14.294 4h-1.997a3.5 3.5 0 0 0-2.47 1.02l-.146.155-5.613 6.315a4.5 4.5 0 0 1-3.124 1.505L.704 13H.5a.5.5 0 0 1-.09-.992L.5 12h.204a3.5 3.5 0 0 0 2.47-1.02l.146-.155L8.933 4.51a4.5 4.5 0 0 1 3.124-1.505l.24-.006h1.995L12.146.854a.5.5 0 0 1-.057-.638l.057-.07Z"/><path d="M8.586 9.606a.5.5 0 0 0-.681.726l1.029 1.157.164.176a4.5 4.5 0 0 0 3.2 1.335h1.995l-2.147 2.146-.057.07a.5.5 0 0 0 .765.638l2.989-2.99a.499.499 0 0 0 0-.728l-2.99-2.99-.069-.057a.5.5 0 0 0-.638.057l-.057.07a.5.5 0 0 0 .057.638L14.293 12h-1.996l-.213-.007a3.5 3.5 0 0 1-2.403-1.168l-1.03-1.157-.065-.062ZM.704 3a4.5 4.5 0 0 1 3.2 1.336l.164.175 1.028 1.157a.5.5 0 0 1-.682.726l-.066-.062L3.32 5.175A3.5 3.5 0 0 0 .917 4.007L.704 4H.5a.5.5 0 0 1-.09-.992L.5 3h.204Z"/></svg>