<svg width="16" height="16" viewBox="0 0 16 16" xmlns="http://www.w3.org/2000/svg" class="icon icon-sound-on" aria-hidden="true" focusable="false" fill="currentColor"><g clip-path="url(#a)"><path fill-rule="evenodd" clip-rule="evenodd" d="M12 1.5a.5.5 0 0 0-.777-.416L5.349 5H.5a.5.5 0 0 0-.5.5v6a.5.5 0 0 0 .5.5h4.849l5.874 3.916A.5.5 0 0 0 12 15.5v-14ZM5.777 5.916 11 2.434v12.132l-5.223-3.482A.5.5 0 0 0 5.5 11H1V6h4.5a.5.5 0 0 0 .277-.084Z"/><path d="M14.35 4.573a.5.5 0 0 0-.7.714A4.482 4.482 0 0 1 15 8.5a4.48 4.48 0 0 1-1.287 3.15.5.5 0 1 0 .714.7A5.48 5.48 0 0 0 16 8.5c0-1.538-.632-2.93-1.65-3.927Z"/></g><defs><clipPath id="a"><path d="M0 0h16v16H0z"/></clipPath></defs></svg>