<svg width="16" height="16" viewBox="0 0 16 16" xmlns="http://www.w3.org/2000/svg" class="icon icon-sound-off" aria-hidden="true" focusable="false" fill="currentColor"><g clip-path="url(#a)"><path fill-rule="evenodd" clip-rule="evenodd" d="M14.736 1.06A.5.5 0 0 1 15 1.5v14a.5.5 0 0 1-.777.416L8.349 12H1.5a.5.5 0 0 1-.5-.5v-6a.5.5 0 0 1 .5-.5h6.849l5.874-3.916a.5.5 0 0 1 .513-.025ZM14 2.433 8.777 5.916A.5.5 0 0 1 8.5 6H2v5h6.5a.5.5 0 0 1 .277.084L14 14.566V2.434Z"/></g><defs><clipPath id="a"><path d="M0 0h16v16H0z"/></clipPath></defs></svg>