<svg width="16" height="16" viewBox="0 0 16 16" xmlns="http://www.w3.org/2000/svg" class="icon icon-sphere-emploi" aria-hidden="true" focusable="false" fill="currentColor"><path fill-rule="evenodd" clip-rule="evenodd" d="M9.687.178a8 8 0 1 0 6.094 5.957l.001-.022a1.603 1.603 0 0 0 0-.78A5.576 5.576 0 0 0 10.26.154h-.032c-.182 0-.363.008-.541.025Zm2.325 1.845c.152.297.284.626.394.978a10.042 10.042 0 0 0-1.974-.222V.576c.587.083 1.143.589 1.58 1.447ZM8.11 3c.6-.13 1.245-.205 1.91-.22V.587c-.565.11-1.095.61-1.517 1.435a6.114 6.114 0 0 0-.393.979Zm.028-1.165a6.9 6.9 0 0 0-.489 1.28 6.745 6.745 0 0 0-1.28.489c-.479.244-.865.53-1.143.84A5.176 5.176 0 0 1 8.942.729c-.295.274-.569.647-.804 1.108Zm-.487 6.497a6.9 6.9 0 0 1-1.28-.489c-.48-.247-.865-.531-1.144-.84a5.18 5.18 0 0 0 3.716 3.718c-.297-.277-.568-.649-.803-1.11a6.798 6.798 0 0 1-.49-1.279Zm5.217-.002c-.13.465-.294.896-.49 1.28a4.07 4.07 0 0 1-.774 1.084A5.182 5.182 0 0 0 15.2 7.099a4.137 4.137 0 0 1-1.054.743 6.797 6.797 0 0 1-1.28.49Zm-.002-5.217a6.9 6.9 0 0 1 1.28.49c.428.22.782.47 1.051.74A5.181 5.181 0 0 0 11.6.75c.286.273.55.638.777 1.086.197.386.361.816.49 1.28Zm2.517 2.5h-2.18c-.008-.71-.083-1.4-.223-2.038.352.11.682.241.979.394.785.4 1.274.9 1.417 1.43l.007.212v.002Zm-.007.41h-2.177a9.91 9.91 0 0 1-.22 1.845c.351-.112.68-.241.978-.394.785-.399 1.274-.9 1.417-1.43.002-.005.002-.013.002-.02Zm-4.944 2.642a10.182 10.182 0 0 0 1.973-.22c-.109.352-.24.68-.393.978-.439.859-.994 1.365-1.582 1.447V8.666h.002ZM7.537 7.87a9.983 9.983 0 0 1-.219-1.845H5.136c.135.54.628 1.045 1.422 1.452.297.153.627.284.979.393Zm-.223-2.256H5.103c.055-.611.566-1.193 1.454-1.646a6.16 6.16 0 0 1 .979-.394c-.14.64-.215 1.329-.222 2.04Zm5.475.41h-2.357v2.23c.739-.011 1.45-.1 2.1-.26.15-.61.236-1.277.257-1.97Zm-2.77 2.642v2.194c-.562-.111-1.095-.611-1.516-1.436a6.16 6.16 0 0 1-.393-.978c.602.13 1.245.205 1.91.22Zm0-.412v-2.23h-2.29c.02.692.107 1.359.258 1.97.63.155 1.319.243 2.034.26Zm0-2.64V3.191a9.516 9.516 0 0 0-2.033.26 9.569 9.569 0 0 0-.262 2.163h2.296Zm2.513-2.164a9.556 9.556 0 0 0-2.1-.26v2.424h2.361a9.528 9.528 0 0 0-.261-2.164Z"/></svg>