<svg width="16" height="16" viewBox="0 0 16 16" xmlns="http://www.w3.org/2000/svg" class="icon icon-star" aria-hidden="true" focusable="false" fill="currentColor"><path fill-rule="evenodd" clip-rule="evenodd" d="M5.35 5.106.429 5.82l-.084.02a.5.5 0 0 0-.193.833l3.562 3.47-.841 4.905-.008.08a.5.5 0 0 0 .733.447l4.403-2.316 4.402 2.316.074.031a.5.5 0 0 0 .651-.558l-.841-4.904 3.563-3.471.056-.065a.5.5 0 0 0-.334-.788l-4.921-.715L8.448.646a.5.5 0 0 0-.897 0L5.35 5.106ZM8 1.997l1.87 3.787.051.083a.5.5 0 0 0 .325.19l4.18.607L11.4 9.613l-.063.074a.5.5 0 0 0-.08.368l.713 4.164-3.738-1.966-.09-.036a.5.5 0 0 0-.375.036l-3.74 1.966.715-4.164.007-.097a.5.5 0 0 0-.15-.345L1.573 6.664l4.18-.606a.5.5 0 0 0 .377-.274L8 1.997Z"/></svg>