<svg width="16" height="16" viewBox="0 0 16 16" xmlns="http://www.w3.org/2000/svg" class="icon icon-stopwatch" aria-hidden="true" focusable="false" fill="currentColor"><path d="M12 .5a.5.5 0 0 0-.5-.5h-6l-.09.008A.5.5 0 0 0 5.5 1H8v.5l.008.09A.5.5 0 0 0 9 1.5V1h2.5l.09-.008A.5.5 0 0 0 12 .5ZM8.5 6a.5.5 0 0 1 .492.41L9 6.5v3a.5.5 0 0 1-.992.09L8 9.5v-3a.5.5 0 0 1 .5-.5Z"/><path fill-rule="evenodd" clip-rule="evenodd" d="M8.5 3a6.5 6.5 0 1 0 0 13 6.5 6.5 0 0 0 0-13Zm0 1a5.5 5.5 0 1 1 0 11 5.5 5.5 0 0 1 0-11Z"/></svg>