<svg width="16" height="16" viewBox="0 0 16 16" xmlns="http://www.w3.org/2000/svg" class="icon icon-stroller" aria-hidden="true" focusable="false" fill="currentColor"><path d="M9.633 1.001 9.7 1a.5.5 0 0 1 0 1C8.669 2 7.676 3.431 7.604 5.195L7.6 5.4v.5a.5.5 0 0 1-.992.09L6.6 5.9v-.5c0-1.336.445-2.578 1.149-3.4H7.2C6.144 2 5.174 3.371 5.104 5.188L5.1 5.4v.5a.5.5 0 0 1-.992.09L4.1 5.9v-.5c0-1.352.425-2.572 1.107-3.382-1.372.17-2.52 1.508-2.602 3.188L2.6 5.4v.5a.5.5 0 0 1-.992.09L1.6 5.9v-.5c0-2.345 1.664-4.28 3.707-4.395L5.5 1h4.1l.033.001Z"/><path fill-rule="evenodd" clip-rule="evenodd" d="M16 3.7a.5.5 0 0 0-.5-.5h-.3l-.128.007c-.851.092-1.672 1.08-1.672 1.993l-.001 1.7H1.5l-.09.008A.5.5 0 0 0 1 7.4v1l.007.226c.059.922.471 1.853 1.104 2.587A2.6 2.6 0 1 0 6.504 12.3h1.791a2.603 2.603 0 0 0 2.505 3.3 2.6 2.6 0 0 0 2.177-4.022C13.885 10.841 14.4 9.68 14.4 8.4V5.2l.007-.095c.062-.418.506-.905.793-.905h.3l.09-.008A.5.5 0 0 0 16 3.7Zm-6.301 8.14a.5.5 0 0 1-.322.428 1.6 1.6 0 1 0 2.645-.3.498.498 0 0 1-.276-.259 1.595 1.595 0 0 0-2.047.13ZM10.8 10.4c.548 0 1.056.17 1.475.458.66-.499 1.064-1.31 1.119-2.242L13.4 8.4l-.001-.5H2v.5c0 .771.36 1.6.93 2.23a2.594 2.594 0 0 1 3.037.67h2.866a2.594 2.594 0 0 1 1.967-.9Zm-7.856 1.398a.498.498 0 0 0 .393-.255 1.597 1.597 0 0 1 1.897.438c.03.077.078.144.14.197a1.6 1.6 0 1 1-2.43-.38Z"/></svg>