<svg width="16" height="16" viewBox="0 0 16 16" xmlns="http://www.w3.org/2000/svg" class="icon icon-support" aria-hidden="true" focusable="false" fill="currentColor"><path d="M8 .5C3.864.5.5 3.864.5 8c0 4.137 3.364 7.5 7.5 7.5 4.137 0 7.5-3.363 7.5-7.5C15.5 3.864 12.137.5 8 .5ZM14.5 8a6.458 6.458 0 0 1-1.54 4.19l-1.505-1.505A4.348 4.348 0 0 0 12.396 8c0-1.032-.372-1.97-.97-2.72l1.503-1.504A6.46 6.46 0 0 1 14.5 8ZM4.604 8A3.4 3.4 0 0 1 8 4.604 3.4 3.4 0 0 1 11.396 8 3.4 3.4 0 0 1 8 11.396 3.4 3.4 0 0 1 4.604 8Zm7.619-4.931-1.504 1.504A4.351 4.351 0 0 0 8 3.604c-1.016 0-1.94.36-2.685.941L3.809 3.04a6.465 6.465 0 0 1 8.414.029ZM1.5 8c0-1.628.606-3.115 1.6-4.257l1.502 1.503A4.354 4.354 0 0 0 3.604 8c0 1.031.372 1.968.969 2.719l-1.504 1.504A6.463 6.463 0 0 1 1.5 8Zm2.275 4.93 1.504-1.504a4.35 4.35 0 0 0 2.72.971 4.352 4.352 0 0 0 2.754-.998l1.503 1.502a6.462 6.462 0 0 1-8.481.029Z"/></svg>