<svg width="16" height="16" viewBox="0 0 16 16" xmlns="http://www.w3.org/2000/svg" class="icon icon-swap" aria-hidden="true" focusable="false" fill="currentColor"><path d="M11.784.089a.5.5 0 0 0-.638.057l-.057.07a.5.5 0 0 0 .057.638L14.293 4H.469l-.085.008A.492.492 0 0 0 0 4.5c0 .276.21.5.469.5h13.824l-3.147 3.146-.057.07a.5.5 0 0 0 .765.638l4-4 .057-.07a.5.5 0 0 0-.057-.638l-4-4-.07-.057ZM4.146 7.146a.5.5 0 0 1 .765.638l-.057.07L1.707 11h13.824c.26 0 .469.224.469.5 0 .245-.166.45-.384.492L15.53 12H1.707l3.147 3.146a.5.5 0 0 1 .057.638l-.057.07a.5.5 0 0 1-.638.057l-.07-.057-4-4a.5.5 0 0 1-.057-.638l.057-.07 4-4Z"/></svg>