<svg width="16" height="16" viewBox="0 0 16 16" xmlns="http://www.w3.org/2000/svg" class="icon icon-tablet" aria-hidden="true" focusable="false" fill="currentColor"><path d="M8.5 3a.5.5 0 0 1 .09.992L8.5 4h-1a.5.5 0 0 1-.09-.992L7.5 3h1Z"/><path fill-rule="evenodd" clip-rule="evenodd" d="M13.5 0h-11A1.5 1.5 0 0 0 1 1.5v13A1.5 1.5 0 0 0 2.5 16h11a1.5 1.5 0 0 0 1.5-1.5v-13A1.5 1.5 0 0 0 13.5 0Zm.5 12V1.5a.5.5 0 0 0-.5-.5h-11a.5.5 0 0 0-.5.5V12h12ZM2 13h12v1.5a.5.5 0 0 1-.5.5h-11a.5.5 0 0 1-.5-.5V13Z"/></svg>