<svg width="16" height="16" viewBox="0 0 16 16" xmlns="http://www.w3.org/2000/svg" class="icon icon-target" aria-hidden="true" focusable="false" fill="currentColor"><path d="M5.5 16c-.5 0-1.1-.1-1.6-.3-1.4-.4-2.5-1.4-3.2-2.7-.7-1.3-.8-2.8-.4-4.2C.7 7.4 1.7 6.3 3 5.6c1.3-.7 2.8-.8 4.2-.4.3.1.4.4.3.6-.1.3-.4.5-.6.4-1.2-.4-2.4-.2-3.5.3-1 .6-1.8 1.5-2.2 2.7-.4 1.1-.3 2.4.3 3.4.6 1.1 1.5 1.9 2.6 2.2 2.4.7 4.9-.6 5.6-2.9.3-.9.3-1.8 0-2.7-.1-.3.1-.5.3-.6.3-.1.5.1.6.3.3 1.1.3 2.2 0 3.3C10 14.5 7.8 16 5.5 16Zm8-9h-.2l-3-1c-.1 0-.3-.2-.3-.3l-1-3c0-.2 0-.4.1-.6l2-2c.2-.1.3-.1.5-.1s.3.2.4.3l.9 2.8 2.8.9c.2.1.3.2.3.4s0 .3-.1.5l-2 2c-.1 0-.3.1-.4.1Zm-2.6-1.9 2.5.8 1.2-1.2-2.3-.7c-.1 0-.3-.2-.3-.3l-.7-2.2-1.2 1.2.8 2.4Z"/><path d="M5.5 11c-.1 0-.3 0-.4-.1-.2-.2-.2-.5 0-.7l9-9c.2-.2.5-.2.7 0 .2.2.2.5 0 .7l-9 9c0 .1-.2.1-.3.1Z"/></svg>