<svg width="16" height="16" viewBox="0 0 16 16" xmlns="http://www.w3.org/2000/svg" class="icon icon-theater" aria-hidden="true" focusable="false" fill="currentColor"><path d="M8.091 4.596c.949 0 1.698.794 1.698 1.698a.5.5 0 0 1-.99.09l-.009-.09c0-.365-.315-.7-.699-.7-.423 0-.699.276-.699.7a.5.5 0 1 1-.999 0c0-.975.723-1.698 1.698-1.698Zm6.393 1.698c0-.904-.75-1.698-1.698-1.698-.904 0-1.698.75-1.698 1.698a.5.5 0 1 0 .999 0c0-.384.334-.7.699-.7.384 0 .7.335.7.7l.007.09a.5.5 0 0 0 .991-.09Z"/><path fill-rule="evenodd" clip-rule="evenodd" d="M12.886 8.392H8.091a.5.5 0 0 0-.5.499c0 1.575 1.323 2.897 2.898 2.897 1.574 0 2.896-1.322 2.896-2.897a.5.5 0 0 0-.499-.5Zm-.572.998-.018.064c-.248.761-.98 1.335-1.807 1.335l-.145-.006c-.768-.062-1.43-.612-1.663-1.329l-.018-.064h3.65Z"/><path fill-rule="evenodd" clip-rule="evenodd" d="M10.488.7a11.3 11.3 0 0 0-1.765.166c-.48.077-.985.177-1.505.296a32.52 32.52 0 0 0-.853.207l-.404.107c-.238.064-.413.115-.51.144a.5.5 0 0 0-.351.403l-.032.247a14.52 14.52 0 0 0-.038.377c-.15 1.702-.082 3.576.364 5.357.716 2.86 2.298 4.918 4.943 5.758.102.032.21.031.312-.003 2.579-.873 4.141-2.914 4.875-5.726.472-1.812.554-3.718.414-5.432l-.05-.498a4.7 4.7 0 0 0-.01-.075.5.5 0 0 0-.356-.41l-.385-.106-.138-.037a35.35 35.35 0 0 0-1.28-.313 26.478 26.478 0 0 0-1.326-.266C11.656.77 11.013.7 10.488.7Zm0 .999c.46 0 1.05.064 1.736.182.405.07.834.156 1.276.255.287.065.57.132.842.201l.582.152.018.194c.132 1.612.055 3.412-.385 5.097l-.079.287c-.655 2.268-1.909 3.889-3.898 4.655l-.097.035.156.053c-2.274-.722-3.637-2.497-4.277-5.049-.414-1.656-.478-3.426-.337-5.026l.023-.248.174-.047c.382-.104.794-.207 1.218-.304.5-.114.985-.21 1.442-.284.618-.1 1.161-.153 1.606-.153Z"/><path d="M4.31 7.928a.5.5 0 0 1 .649.278c.302.755-.12 1.645-.878 1.948-.754.302-1.644-.12-1.947-.878a.5.5 0 0 1 .886-.451l.041.08c.104.26.423.412.65.321.23-.092.376-.354.342-.57l-.022-.079a.5.5 0 0 1 .279-.65Z"/><path d="M4.555 4.699a.5.5 0 0 0-.656-.263c-.374.16-.809.396-1.297.694l-.201.126-.417.268c-.423.279-.848.577-1.255.874l-.118.086-.417.314a.5.5 0 0 0-.178.519c.008.033.02.078.037.135l.125.409c.068.207.146.43.235.666a15.23 15.23 0 0 0 1.283 2.632c1.61 2.6 3.769 4.118 6.53 3.924a.5.5 0 0 0 .38-.221c.04-.06.082-.11.154-.186l.31-.319c.099-.105.164-.187.236-.294a.5.5 0 0 0-.831-.554c-.04.059-.081.11-.153.186l-.286.291-.102.111-.27.002c-2.097-.04-3.787-1.315-5.119-3.466a14.25 14.25 0 0 1-1.198-2.46l-.08-.215-.138-.406-.054-.17.643-.465c.27-.192.544-.38.816-.56.203-.133.4-.259.59-.375l.22-.132c.36-.213.68-.38.948-.496a.5.5 0 0 0 .263-.655Z"/></svg>