<svg width="16" height="16" viewBox="0 0 16 16" xmlns="http://www.w3.org/2000/svg" class="icon icon-thumb-up" aria-hidden="true" focusable="false" fill="currentColor"><path d="M9.988 2.336A2.5 2.5 0 0 0 7.495 0a.5.5 0 0 0-.474.342l-2 6-.02.088a.5.5 0 0 0 .337.544l.088.021a.5.5 0 0 0 .544-.337l1.87-5.617.075.019A1.5 1.5 0 0 1 8.994 2.5v4l.008.09a.5.5 0 0 0 .491.41h4.005l.15.007a1.499 1.499 0 0 1 1.316 1.819l-1.11 5-.036.134A1.5 1.5 0 0 1 12.39 15H5.496l-.09.008a.5.5 0 0 0 .09.992h6.895l.175-.006a2.499 2.499 0 0 0 2.264-1.951l1.11-5 .034-.186a2.501 2.501 0 0 0-.525-1.923l-.124-.143A2.498 2.498 0 0 0 13.497 6H9.993V2.5l-.005-.164Z"/><path fill-rule="evenodd" clip-rule="evenodd" d="M3.498 7H.5a.5.5 0 0 0-.5.5v8a.5.5 0 0 0 .5.5h2.998a.5.5 0 0 0 .5-.5v-8a.5.5 0 0 0-.5-.5Zm-.5 1v7H1V8h1.999Z"/></svg>