<svg width="16" height="16" viewBox="0 0 16 16" xmlns="http://www.w3.org/2000/svg" class="icon icon-thumb-down" aria-hidden="true" focusable="false" fill="currentColor"><path fill-rule="evenodd" clip-rule="evenodd" d="M3.498 0H.5a.5.5 0 0 0-.5.5v8a.5.5 0 0 0 .5.5h2.998a.5.5 0 0 0 .5-.5v-8a.5.5 0 0 0-.5-.5Zm-.5 1v7H1V1h1.998Z"/><path d="M14.787 1.789A2.499 2.499 0 0 0 12.392 0H5.496l-.09.008a.5.5 0 0 0 .09.992h6.896l.139.006a1.5 1.5 0 0 1 1.324 1.169l1.11 5 .025.148A1.5 1.5 0 0 1 13.5 9H9.494l-.09.008a.5.5 0 0 0-.41.492v4l-.007.145a1.501 1.501 0 0 1-1.071 1.295l-.075.018-1.87-5.616-.037-.083a.5.5 0 0 0-.912.4l1.999 6 .036.082a.5.5 0 0 0 .438.259l.164-.005A2.5 2.5 0 0 0 9.993 13.5V10h3.505l.189-.007a2.498 2.498 0 0 0 2.253-3.036l-1.11-5-.043-.168Z"/></svg>