<svg width="16" height="16" viewBox="0 0 16 16" xmlns="http://www.w3.org/2000/svg" class="icon icon-tild-full" aria-hidden="true" focusable="false" fill="currentColor"><path fill-rule="evenodd" clip-rule="evenodd" d="M8 0C3.6 0 0 3.6 0 8s3.6 8 8 8 8-3.6 8-8-3.6-8-8-8Zm4.1 8.4c-.5.6-1.1.8-1.9.8-.4 0-.8 0-1.1-.2-.4-.1-.8-.5-1.3-.9-.6-.5-1-.8-1.2-.9-.3-.1-.5-.2-.8-.2-.5 0-.9.2-1.2.5-.3.4-.4.9-.4 1.5h-1c0-.9.2-1.6.7-2.1.5-.5 1.1-.8 1.9-.8.4 0 .8.1 1.2.3.4.2.8.5 1.4 1 .4.4.7.6 1 .8.3.1.6.2.9.2.5 0 .9-.2 1.2-.5.3-.4.4-.9.4-1.5h.9c0 .8-.2 1.5-.7 2Z"/></svg>