<svg width="16" height="16" viewBox="0 0 16 16" xmlns="http://www.w3.org/2000/svg" class="icon icon-todo" aria-hidden="true" focusable="false" fill="currentColor"><path fill-rule="evenodd" clip-rule="evenodd" d="M5.5 0h5a.5.5 0 0 1 .5.5v2a.5.5 0 0 1-.5.5h-5a.5.5 0 0 1-.5-.5v-2a.5.5 0 0 1 .5-.5ZM10 1H6v1h4V1Z"/><path d="M3.5 1a.5.5 0 0 1 .09.992L3.5 2h-1a.5.5 0 0 0-.492.41L2 2.5v12a.5.5 0 0 0 .41.492L2.5 15h11a.5.5 0 0 0 .492-.41L14 14.5v-12a.5.5 0 0 0-.41-.492L13.5 2h-1a.5.5 0 0 1-.09-.992L12.5 1h1a1.5 1.5 0 0 1 1.493 1.356L15 2.5v12a1.5 1.5 0 0 1-1.355 1.493L13.5 16h-11a1.5 1.5 0 0 1-1.493-1.355L1 14.5v-12a1.5 1.5 0 0 1 1.356-1.493L2.5 1h1Z"/><path d="M11.411 7.284a.5.5 0 0 0-.765-.638L7 10.293 5.354 8.646l-.07-.057a.5.5 0 0 0-.638.765l2 2 .07.057a.5.5 0 0 0 .638-.057l4-4 .057-.07Z"/></svg>