<svg width="16" height="16" viewBox="0 0 16 16" xmlns="http://www.w3.org/2000/svg" class="icon icon-tool" aria-hidden="true" focusable="false" fill="currentColor"><path fill-rule="evenodd" clip-rule="evenodd" d="M11.5 0A4.5 4.5 0 0 0 7 4.5l.007.26c.02.344.079.683.175 1.01l.034.107-7.014 5.222a.5.5 0 0 0-.056.755l4 4 .077.063a.5.5 0 0 0 .678-.118l5.221-7.016.108.035A4.5 4.5 0 0 0 16 4.5c0-.64-.14-1.263-.405-1.846l-.045-.081a.5.5 0 0 0-.764-.067L13 4.293 11.707 3l1.787-1.786a.5.5 0 0 0-.148-.81A4.458 4.458 0 0 0 11.5 0Zm.246 1.009c.082.006.163.015.244.027l.225.041-1.568 1.57a.5.5 0 0 0 0 .707l2 2 .069.057a.5.5 0 0 0 .638-.057l1.568-1.57.042.226a3.5 3.5 0 0 1-4.827 3.715l-.08-.026a.5.5 0 0 0-.515.188l-5.098 6.85-3.182-3.182 6.85-5.097a.5.5 0 0 0 .163-.595A3.5 3.5 0 0 1 11.5 1l.246.009Z"/></svg>