<svg width="16" height="16" viewBox="0 0 16 16" xmlns="http://www.w3.org/2000/svg" class="icon icon-touch" aria-hidden="true" focusable="false" fill="currentColor"><path d="M7.892.41A.5.5 0 0 0 6.9.5v1l.008.09A.5.5 0 0 0 7.9 1.5v-1L7.892.41Zm1.402 4.145C9.217 3.644 8.427 2.9 7.5 2.9l-.149.005C6.415 2.974 5.6 3.68 5.6 4.6v5.93l-1.648-.962-.132-.07c-.715-.334-1.632-.05-2.049.645a1.572 1.572 0 0 0 .275 1.81l3.8 3.8.07.058a.5.5 0 0 0 .637-.764l-3.8-3.8-.06-.074a.565.565 0 0 1-.046-.55c.145-.238.542-.346.796-.194l2.405 1.403.078.037A.5.5 0 0 0 6.6 11.4V4.6l.007-.083c.057-.331.445-.617.893-.617.424 0 .8.376.8.8v3l.008.09a.5.5 0 0 0 .492.41h3.5l.123.006A1.184 1.184 0 0 1 13.5 9.4v6.1l.008.09a.5.5 0 0 0 .992-.09V9.4l-.006-.16A2.184 2.184 0 0 0 12.3 7.2l-3-.001V4.7l-.006-.145Zm.452-3.309a.5.5 0 0 1 .765.638l-.057.07-.7.7a.5.5 0 0 1-.766-.638l.058-.07.7-.7Z"/><path d="M11.7 4.2a.5.5 0 0 0-.5-.5h-1l-.09.008a.5.5 0 0 0 .09.992h1l.09-.008a.5.5 0 0 0 .41-.492ZM4.446 1.246a.5.5 0 0 1 .638-.057l.07.057.7.7a.5.5 0 0 1-.639.765l-.069-.057-.7-.7a.5.5 0 0 1 0-.708ZM5.2 4.2a.5.5 0 0 0-.5-.5h-1l-.09.008a.5.5 0 0 0 .09.992h1l.09-.008A.5.5 0 0 0 5.2 4.2Z"/></svg>