<svg width="16" height="16" viewBox="0 0 16 16" xmlns="http://www.w3.org/2000/svg" class="icon icon-train" aria-hidden="true" focusable="false" fill="currentColor"><path d="M6 10a1 1 0 1 1-2 0 1 1 0 0 1 2 0Zm5 1a1 1 0 1 0 0-2 1 1 0 0 0 0 2Z"/><path fill-rule="evenodd" clip-rule="evenodd" d="M3.5 0h9A1.5 1.5 0 0 1 14 1.5v11a.5.5 0 0 1-.5.5h-1.066l1.482 2.223a.5.5 0 0 1-.775.625l-.057-.07L11.232 13H4.768l-1.852 2.777a.5.5 0 0 1-.875-.475l.043-.08L3.566 13H2.5a.5.5 0 0 1-.5-.5v-11A1.5 1.5 0 0 1 3.5 0ZM3 8v4h10V8H3Zm10-1H3V1.5a.5.5 0 0 1 .5-.5h9l.09.008A.5.5 0 0 1 13 1.5V7Z"/><path d="M.5 3a.5.5 0 0 1 .492.41L1 3.5v3a.5.5 0 0 1-.992.09L0 6.5v-3A.5.5 0 0 1 .5 3Zm15.492.41A.5.5 0 0 0 15 3.5v3l.008.09A.5.5 0 0 0 16 6.5v-3l-.008-.09Z"/></svg>