<svg width="16" height="17" viewBox="0 0 16 17" xmlns="http://www.w3.org/2000/svg" class="icon icon-translation" aria-hidden="true" focusable="false" fill="currentColor"><path d="M7.982 8.897a.502.502 0 0 0-.353-.616 6.02 6.02 0 0 1-2.06-1.011c.994-1.035 1.643-2.388 1.849-4.09h1.685l.09-.008a.502.502 0 0 0-.09-.996H5.322V.536l-.008-.09a.503.503 0 0 0-.996.089v1.64H.535l-.09.008a.504.504 0 0 0 .09.997h1.674a7.037 7.037 0 0 0 1.853 4.077 6.873 6.873 0 0 1-.555.362c-.66.386-1.37.655-2.081.825a6.06 6.06 0 0 1-.924.159.504.504 0 0 0 .067 1.003 6.973 6.973 0 0 0 1.09-.186 8.6 8.6 0 0 0 2.355-.934c.28-.164.546-.342.796-.535A7.007 7.007 0 0 0 7.366 9.25a.502.502 0 0 0 .616-.353ZM3.219 3.18h3.186c-.195 1.432-.746 2.556-1.583 3.419A6.036 6.036 0 0 1 3.219 3.18Zm12.236 12.15-1.397-3.195a.543.543 0 0 0-.016-.035l-2.335-5.339-.047-.086a.503.503 0 0 0-.873.085l-3.75 8.569-.028.086a.502.502 0 0 0 .287.575l.086.028a.504.504 0 0 0 .576-.287l1.274-2.912h4.029l1.273 2.912.044.08a.504.504 0 0 0 .618.179.5.5 0 0 0 .259-.66Zm-5.783-3.514 1.574-3.602 1.576 3.602h-3.15Z"/></svg>