<svg width="16" height="16" viewBox="0 0 16 16" xmlns="http://www.w3.org/2000/svg" class="icon icon-trash" aria-hidden="true" focusable="false" fill="currentColor"><path d="M13.5 6a.5.5 0 0 0-.5.5v7l-.007.145A1.5 1.5 0 0 1 11.5 15h-7l-.145-.007A1.5 1.5 0 0 1 3 13.5v-7l-.008-.09A.5.5 0 0 0 2 6.5v7l.005.164A2.5 2.5 0 0 0 4.5 16h7l.164-.006A2.498 2.498 0 0 0 14 13.5v-7l-.008-.09A.5.5 0 0 0 13.5 6Zm2-3H11V.5l-.008-.09A.5.5 0 0 0 10.5 0h-5l-.09.008A.5.5 0 0 0 5 .5V3H.5l-.09.008A.5.5 0 0 0 .5 4h15l.09-.008A.5.5 0 0 0 15.5 3ZM10 3H6V1h4v2Z"/></svg>