<svg width="16" height="16" viewBox="0 0 16 16" xmlns="http://www.w3.org/2000/svg" class="icon icon-trend" aria-hidden="true" focusable="false" fill="currentColor"><path d="M15.692 3.038A.498.498 0 0 0 15.5 3h-6l-.09.008A.5.5 0 0 0 9 3.5l.008.09A.5.5 0 0 0 9.5 4h4.793L8.5 9.793 4.854 6.146l-.07-.057a.5.5 0 0 0-.638.057l-4 4-.057.07a.5.5 0 0 0 .057.638l.07.057a.5.5 0 0 0 .638-.057L4.5 7.207l3.646 3.647.07.057a.5.5 0 0 0 .638-.057L15 4.707V9.5l.008.09A.5.5 0 0 0 16 9.5v-6a.507.507 0 0 0-.146-.354.499.499 0 0 0-.162-.108Z"/></svg>