<svg width="16" height="16" viewBox="0 0 16 16" xmlns="http://www.w3.org/2000/svg" class="icon icon-truck" aria-hidden="true" focusable="false" fill="currentColor"><path d="M14 .5a.5.5 0 0 0-.5-.5h-11l-.09.008A.5.5 0 0 0 2.5 1h11l.09-.008A.5.5 0 0 0 14 .5ZM4 12a1 1 0 1 0 0-2 1 1 0 0 0 0 2Zm9-1a1 1 0 1 1-2 0 1 1 0 0 1 2 0Z"/><path fill-rule="evenodd" clip-rule="evenodd" d="M12.5 2a1.5 1.5 0 0 1 1.493 1.356L14 3.5v4.793l.854.853A.5.5 0 0 1 15 9.5v6a.5.5 0 0 1-.41.492L14.5 16h-3a.5.5 0 0 1-.492-.41L11 15.5V14H5v1.5a.5.5 0 0 1-.41.492L4.5 16h-3a.5.5 0 0 1-.492-.41L1 15.5v-6a.5.5 0 0 1 .146-.354L2 8.293V3.5a1.5 1.5 0 0 1 1.356-1.493L3.5 2h9Zm.5 1.5V8H3V3.5l.008-.09A.5.5 0 0 1 3.5 3h9l.09.008A.5.5 0 0 1 13 3.5ZM12 14v1h2v-1h-2Zm2-1V9.707L13.293 9H2.706L2 9.706V13h12ZM4 14H2v1h2v-1Z"/><path d="M.5 5a.5.5 0 0 1 .492.41L1 5.5v2a.5.5 0 0 1-.992.09L0 7.5v-2A.5.5 0 0 1 .5 5Zm15.492.41A.5.5 0 0 0 15 5.5v2l.008.09A.5.5 0 0 0 16 7.5v-2l-.008-.09Z"/></svg>