<svg width="16" height="16" viewBox="0 0 16 16" xmlns="http://www.w3.org/2000/svg" class="icon icon-unlink" aria-hidden="true" focusable="false" fill="currentColor"><path d="M14.967 1.033a3.547 3.547 0 0 0-5.004 0L8.156 2.84l-.17.18a3.393 3.393 0 0 0-.83 1.703.532.532 0 0 0 1.05.175c.08-.488.322-.926.701-1.306l1.808-1.807.135-.126a2.485 2.485 0 0 1 3.366.126 2.484 2.484 0 0 1 0 3.5l-1.808 1.808-.145.135a2.332 2.332 0 0 1-1.161.567.532.532 0 0 0 .175 1.048c.718-.12 1.353-.469 1.883-.999l1.807-1.807.148-.157a3.548 3.548 0 0 0-.148-4.847ZM5.335 7.594a.532.532 0 0 0-.612-.437c-.718.12-1.353.469-1.883.999L1.033 9.963l-.148.157a3.548 3.548 0 0 0 .148 4.847 3.547 3.547 0 0 0 5.004 0l1.807-1.807.17-.18a3.393 3.393 0 0 0 .83-1.703.532.532 0 0 0-1.05-.175c-.08.488-.322.926-.701 1.306l-1.808 1.808-.135.125a2.486 2.486 0 0 1-3.365-.125 2.484 2.484 0 0 1 0-3.501l1.807-1.808.145-.135a2.332 2.332 0 0 1 1.161-.567.532.532 0 0 0 .437-.611Z"/><path d="M6.242 9.006a.532.532 0 0 1 .813.678l-.061.074-1.488 1.488a.532.532 0 0 1-.814-.678l.062-.073 1.488-1.489Zm5.004-4.252a.532.532 0 0 0-.751 0L9.006 6.242l-.061.074a.532.532 0 0 0 .813.678l1.488-1.489.062-.073a.532.532 0 0 0-.062-.678Zm-1.12 7.711c.261 0 .478.188.523.436l.009.096v1.7a.531.531 0 0 1-1.055.096l-.008-.095v-1.701c0-.294.238-.532.531-.532Zm2.11-.969a.532.532 0 0 0-.679.813l1.383 1.383.073.061a.532.532 0 0 0 .678-.813l-1.382-1.382-.073-.062Zm2.462-1.901a.532.532 0 0 1 .095 1.054l-.095.009h-1.701a.532.532 0 0 1-.096-1.055l.096-.008h1.7ZM6.397 1.207a.532.532 0 0 0-1.055.095v1.701l.009.096a.532.532 0 0 0 1.054-.096v-1.7l-.008-.096ZM2.309 2.309a.532.532 0 0 1 .678-.062l.073.062L4.442 3.69a.532.532 0 0 1-.678.813l-.073-.062L2.309 3.06a.532.532 0 0 1 0-.751Zm1.226 3.565a.532.532 0 0 0-.531-.532H1.303l-.096.009a.532.532 0 0 0 .096 1.054h1.7l.096-.008a.532.532 0 0 0 .436-.523Z"/></svg>