<svg width="17" height="16" viewBox="0 0 17 16" xmlns="http://www.w3.org/2000/svg" class="icon icon-upload" aria-hidden="true" focusable="false" fill="currentColor"><path d="M8.033 0a.502.502 0 0 0-.351.143L2.334 5.135l-.06.068a.499.499 0 0 0 .038.639l.067.06c.191.141.462.13.642-.037l4.51-4.212V11.5l.008.09a.502.502 0 0 0 .996-.09V1.653l4.51 4.212.072.055c.2.129.47.101.638-.078a.499.499 0 0 0-.022-.707l-5.356-5h-.001A.504.504 0 0 0 8.3.076.5.5 0 0 0 8.033 0Zm8 15.5c0-.276-.225-.5-.502-.5H.535l-.09.008a.5.5 0 0 0 .09.992h14.996l.09-.008a.5.5 0 0 0 .412-.492Z"/></svg>