<svg width="16" height="16" viewBox="0 0 16 16" xmlns="http://www.w3.org/2000/svg" class="icon icon-user-add" aria-hidden="true" focusable="false" fill="currentColor"><path fill-rule="evenodd" clip-rule="evenodd" d="M8 0a4 4 0 1 0 0 8 4 4 0 0 0 0-8Zm0 1a3 3 0 1 1 0 6 3 3 0 0 1 0-6Z"/><path d="M10 10.5a.5.5 0 0 0-.5-.5h-3l-.221.004A5.5 5.5 0 0 0 1 15.5a.5.5 0 0 0 .5.5h9l.09-.008A.5.5 0 0 0 11 15.5l-.008-.09A.5.5 0 0 0 10.5 15H2.028l.015-.128A4.5 4.5 0 0 1 6.5 11h3l.09-.008A.5.5 0 0 0 10 10.5Zm3.5-.5a.5.5 0 0 1 .492.41l.008.09V12h1.5a.5.5 0 0 1 .09.992L15.5 13H14v1.5a.5.5 0 0 1-.992.09L13 14.5V13h-1.5a.5.5 0 0 1-.09-.992L11.5 12H13v-1.5a.5.5 0 0 1 .5-.5Z"/></svg>