<svg width="16" height="16" viewBox="0 0 16 16" xmlns="http://www.w3.org/2000/svg" class="icon icon-user-business" aria-hidden="true" focusable="false" fill="currentColor"><path d="M13.3 11.6c-1.2-1-2.5-1.6-3.8-1.6h-.1c-.1 0-.2.1-.2.1L8 11.2l-1.2-1.1c-.1-.1-.2-.1-.3-.1C3.4 10 1 12.4 1 15.5c0 .3.2.5.5.5h13c.3 0 .5-.2.5-.5 0-1.5-.6-2.9-1.7-3.9ZM2 14.9c.3-2.1 1.9-3.7 4-3.8h.2l1.2 1.1V14c0 .3.2.5.5.5s.5-.2.5-.5v-1.9L9.7 11c1.1 0 2 .5 3 1.4l.2.2c.6.6 1 1.4 1.1 2.3v.2H2v-.2ZM8 8c2.2 0 4-1.8 4-4s-1.8-4-4-4-4 1.8-4 4 1.8 4 4 4Zm0-7c1.7 0 3 1.3 3 3S9.7 7 8 7 5 5.7 5 4s1.3-3 3-3Z"/></svg>