<svg width="16" height="16" viewBox="0 0 16 16" xmlns="http://www.w3.org/2000/svg" class="icon icon-users" aria-hidden="true" focusable="false" fill="currentColor"><path fill-rule="evenodd" clip-rule="evenodd" d="M5.5 1a3.5 3.5 0 1 0 0 7 3.5 3.5 0 0 0 0-7Zm0 1a2.5 2.5 0 1 1 0 5 2.5 2.5 0 0 1 0-5Zm7 0a2.5 2.5 0 1 0 0 5 2.5 2.5 0 0 0 0-5Zm0 1a1.5 1.5 0 1 1 0 3 1.5 1.5 0 0 1 0-3Zm-7 6 .238.005A5.5 5.5 0 0 1 11 14.5a.5.5 0 0 1-.5.5H.5a.5.5 0 0 1-.5-.5A5.5 5.5 0 0 1 5.5 9Zm.206 1.005L5.489 10l-.208.005a4.501 4.501 0 0 0-4.238 3.867L1.027 14H9.97l-.017-.146a4.5 4.5 0 0 0-4.031-3.835l-.216-.014Z"/><path d="M15.995 11.308a3.5 3.5 0 0 0-5.431-2.724.5.5 0 1 0 .554.832c.409-.272.89-.417 1.381-.416l.165.005A2.5 2.5 0 0 1 15 11.5l-.001.499-2.5.001-.089.008a.5.5 0 0 0 .09.992h3l.09-.008A.5.5 0 0 0 16 12.5v-1l-.005-.192Z"/></svg>