<svg width="16" height="16" viewBox="0 0 16 16" xmlns="http://www.w3.org/2000/svg" class="icon icon-user-check" aria-hidden="true" focusable="false" fill="currentColor"><path fill-rule="evenodd" clip-rule="evenodd" d="M3 4a4 4 0 1 1 8 0 4 4 0 0 1-8 0Zm7 0a3 3 0 1 0-6 0 3 3 0 0 0 6 0Z"/><path d="M8.5 10a5.477 5.477 0 0 1 2.75.737.5.5 0 0 1-.5.866 4.477 4.477 0 0 0-1.987-.596L8.5 11h-3a4.5 4.5 0 0 0-4.457 3.872L1.028 15H7.5a.5.5 0 0 1 .492.41L8 15.5a.5.5 0 0 1-.41.492L7.5 16h-7a.5.5 0 0 1-.5-.5 5.5 5.5 0 0 1 5.279-5.496L5.5 10h3Z"/><path d="M15.854 11.146a.5.5 0 0 0-.708 0L11.5 14.793l-1.646-1.647-.07-.057a.5.5 0 0 0-.638.765l2 2 .07.057a.5.5 0 0 0 .638-.057l4-4 .057-.07a.5.5 0 0 0-.057-.638Z"/></svg>