<svg width="16" height="16" viewBox="0 0 16 16" xmlns="http://www.w3.org/2000/svg" class="icon icon-user-pin" aria-hidden="true" focusable="false" fill="currentColor"><path fill-rule="evenodd" clip-rule="evenodd" d="M6.4 4.6a1.6 1.6 0 1 1 3.2 0 1.6 1.6 0 0 1-3.2 0Zm2.2 0a.6.6 0 1 0-1.2 0 .6.6 0 0 0 1.2 0Zm-.2 2.1a2.72 2.72 0 0 1 2.7 2.7.5.5 0 0 1-.5.5H5.4a.5.5 0 0 1-.5-.5c0-1.407 1.254-2.7 2.7-2.7h.8Zm.144 1.007L8.4 7.7h-.8c-.7 0-1.355.523-1.599 1.167l-.012.033h4.03l-.017-.058a1.73 1.73 0 0 0-1.458-1.135Z"/><path fill-rule="evenodd" clip-rule="evenodd" d="M8 0C4.724 0 2 2.724 2 6c0 .434.047.879.138 1.334.347 1.737 1.317 3.565 2.714 5.406a26.13 26.13 0 0 0 1.927 2.254l.333.341.51.496.042.039a.5.5 0 0 0 .672 0l.248-.234.304-.3a26.122 26.122 0 0 0 2.26-2.596c1.397-1.841 2.367-3.669 2.714-5.406A6.8 6.8 0 0 0 14 6c0-3.276-2.724-6-6-6Zm0 1c2.724 0 5 2.276 5 5 0 .366-.04.745-.118 1.137-.313 1.563-1.217 3.267-2.53 4.998a25.135 25.135 0 0 1-1.854 2.168l-.319.327-.179.178-.335-.337a25.126 25.126 0 0 1-2.016-2.336C4.334 10.404 3.43 8.7 3.118 7.137A5.802 5.802 0 0 1 3 6c0-2.724 2.276-5 5-5Z"/></svg>