<svg width="16" height="16" viewBox="0 0 16 16" xmlns="http://www.w3.org/2000/svg" class="icon icon-user" aria-hidden="true" focusable="false" fill="currentColor"><path fill-rule="evenodd" clip-rule="evenodd" d="M8 0a4 4 0 1 0 0 8 4 4 0 0 0 0-8Zm0 1a3 3 0 1 1 0 6 3 3 0 0 1 0-6Zm5.39 10.61A5.5 5.5 0 0 0 9.5 10h-3A5.5 5.5 0 0 0 1 15.5a.5.5 0 0 0 .5.5h13a.5.5 0 0 0 .5-.5 5.5 5.5 0 0 0-1.61-3.89ZM6.5 11h3a4.5 4.5 0 0 1 3.182 1.318l.164.173a4.501 4.501 0 0 1 1.098 2.3l.027.209H2.028l.016-.128A4.5 4.5 0 0 1 6.5 11Z"/></svg>