<svg width="16" height="16" viewBox="0 0 16 16" xmlns="http://www.w3.org/2000/svg" class="icon icon-user-remove" aria-hidden="true" focusable="false" fill="currentColor"><path fill-rule="evenodd" clip-rule="evenodd" d="M4 4a4 4 0 1 1 8 0 4 4 0 0 1-8 0Zm7 0a3 3 0 1 0-6 0 3 3 0 0 0 6 0Z"/><path d="M9.5 10a.5.5 0 0 1 .09.992L9.5 11h-3a4.5 4.5 0 0 0-4.457 3.872L2.028 15H10.5a.5.5 0 0 1 .492.41l.008.09a.5.5 0 0 1-.41.492L10.5 16h-9a.5.5 0 0 1-.5-.5 5.5 5.5 0 0 1 5.279-5.496L6.5 10h3Zm6.5 2.5a.5.5 0 0 0-.5-.5h-4l-.09.008a.5.5 0 0 0 .09.992h4l.09-.008A.5.5 0 0 0 16 12.5Z"/></svg>