<svg width="16" height="17" viewBox="0 0 16 17" xmlns="http://www.w3.org/2000/svg" class="icon icon-viadeo" aria-hidden="true" focusable="false" fill="currentColor"><path d="M11.818 8.1a.744.744 0 0 1 .251-.05c.201.402.302.805.201 1.308.101.503.101.905.101 1.409 0 1.106-.402 2.213-1.107 3.119-.302.403-.704.906-1.207 1.208-.604.503-1.309.704-2.013.905-.503.1-1.006.1-1.61.1-.604 0-1.208-.1-1.811-.402-.604-.2-1.107-.603-1.61-1.006-.705-.604-1.208-1.308-1.51-2.113-.201-.503-.302-1.006-.402-1.51V9.961c.1-1.308.503-2.515 1.408-3.522.403-.503.805-.905 1.309-1.207a12.274 12.274 0 0 1 1.71-.704c.604-.101 1.107-.101 1.61-.101.16.032.321.054.478.075.336.046.657.09.931.227.05 0 .076.025.1.05.026.025.051.05.101.05-.1.202-.2.403-.2.504 0 .1-.026.226-.051.352-.025.126-.05.251-.05.352h-.101l-.2-.051c-.31-.081-.574-.15-.907-.15h-.906c-.402.1-.704.201-1.006.302-.503.2-.906.503-1.308.805-.403.402-.805.905-1.208 1.408-.05.202-.1.428-.15.655-.051.226-.101.452-.152.654v1.107c0 .603.202 1.207.504 1.71.301.503.603.906 1.106 1.308.604.403 1.107.705 1.812.805h.201c.503-.2.906-.402 1.308-.805.403-.302.705-.805 1.006-1.308.302-.604.504-1.207.705-1.811l.302-1.51c.1-.402.201-.805.201-1.207.1-.906.1-1.811.1-2.717v-.403c.202.604.403 1.208.504 1.812.1.503.1 1.107.1 1.61 0 1.107-.301 2.214-.805 3.22-.603 1.207-1.408 2.214-2.515 3.019-.05 0-.076.025-.1.05-.026.025-.051.05-.102.05h.302c1.007-.1 1.912-.503 2.617-1.207.503-.503.805-1.107 1.006-1.811l.044-.215c.084-.408.157-.764.157-1.194 0-.503-.1-1.107-.302-1.61v-.101c.202 0 .403 0 .504-.1a.504.504 0 0 1 .2-.101.506.506 0 0 0 .202-.1c.1 0 .176-.026.252-.051ZM9.352 3.119c.201.402.302.905.403 1.409-.202-.403-.302-.705-.403-1.007C8.85 2.314 8.245 1.207 7.642.1c.301.302.603.704.905 1.107.403.604.604 1.207.805 1.912Z"/><path d="M14.283.502c.201.403.403.906.503 1.309.202.603.202 1.106.202 1.911-.05.202-.101.428-.151.655-.05.226-.101.452-.151.654l-.302.603c-.202.302-.403.604-.705.906-.302.302-.603.403-1.006.503-.402 0-.704 0-1.006-.1-.302-.101-.604-.302-.906-.504l-.201-.2c0-.101.1-.101.1-.101.504-.302 1.007-.604 1.51-1.007.402-.302.805-.603 1.107-1.006.201-.201.402-.403.503-.704 0-.118.035-.202.063-.27a.36.36 0 0 0 .038-.133v-.1c-.906 1.509-2.114 2.415-3.724 2.817v-.1a2.679 2.679 0 0 1-.302-1.208c0-.503.101-.906.504-1.409.2-.201.402-.402.603-.503.202-.05.378-.126.554-.201.176-.076.352-.151.553-.202h.1c.504-.2.907-.402 1.31-.805.2-.2.402-.503.603-.805 0-.1 0-.1.1-.2 0 .05.026.075.05.1.026.025.051.05.051.1Z"/></svg>