<svg width="16" height="16" viewBox="0 0 16 16" xmlns="http://www.w3.org/2000/svg" class="icon icon-walk" aria-hidden="true" focusable="false" fill="currentColor"><path d="m10.854 11.146-1-1-.069-.059a.504.504 0 0 0-.639.059l-.059.069a.5.5 0 0 0 .059.638l.854.854V15.5l.008.09A.5.5 0 0 0 11 15.5v-4l-.006-.078a.508.508 0 0 0-.14-.276Z"/><path d="M12.947 7.276 12.9 7.2a.5.5 0 0 0-.623-.147l-1.68.838-1.883-1.885.299-1.054a2.5 2.5 0 1 0-.929-.391l-.407 1.436a.483.483 0 0 0-.01.036l-2.647 9.33-.017.089a.499.499 0 0 0 .978.184l2.42-8.529 1.746 1.746.07.059a.502.502 0 0 0 .508.035l2-1 .076-.047a.501.501 0 0 0 .146-.624ZM8 2.5a1.5 1.5 0 1 1 .885 1.368l-.01-.004A1.5 1.5 0 0 1 8 2.5ZM5.8 6.9a.5.5 0 0 0-.524-.847l-2 1-.079.049A.5.5 0 0 0 3 7.5v2l.008.09A.5.5 0 0 0 3.5 10l.09-.008A.5.5 0 0 0 4 9.5V7.809l1.724-.862L5.8 6.9Z"/></svg>