<svg width="17" height="16" viewBox="0 0 17 16" xmlns="http://www.w3.org/2000/svg" class="icon icon-warning" aria-hidden="true" focusable="false" fill="currentColor"><path d="M8.033 5.833c.246 0 .451.177.494.41l.008.09v3.734a.501.501 0 0 1-.996.09l-.008-.09V6.333c0-.276.225-.5.502-.5Zm0 7.967c.591 0 1.071-.478 1.071-1.067s-.48-1.067-1.071-1.067c-.592 0-1.071.478-1.071 1.067 0 .59.48 1.067 1.07 1.067Z"/><path fill-rule="evenodd" clip-rule="evenodd" d="M.093 15.163 7.591 1.296c.19-.35.694-.35.884 0l7.497 13.867a.5.5 0 0 1-.442.737H.535a.5.5 0 0 1-.442-.737ZM14.69 14.9 8.033 2.588 1.375 14.9H14.69Z"/></svg>