<svg width="16" height="16" viewBox="0 0 16 16" xmlns="http://www.w3.org/2000/svg" class="icon icon-web-resume" aria-hidden="true" focusable="false" fill="currentColor"><path d="M6.2 0a.5.5 0 0 1 .09.992L6.2 1H2v14h12V8a.5.5 0 0 1 .41-.492l.09-.008a.5.5 0 0 1 .492.41L15 8v7.5a.5.5 0 0 1-.41.492L14.5 16h-13a.5.5 0 0 1-.492-.41L1 15.5V.5a.5.5 0 0 1 .41-.492L1.5 0h4.7Z"/><path d="M11.5 9a.5.5 0 0 1 .09.992L11.5 10h-7a.5.5 0 0 1-.09-.992L4.5 9h7Zm.5 3.5a.5.5 0 0 0-.5-.5h-7l-.09.008A.5.5 0 0 0 4.5 13h7l.09-.008A.5.5 0 0 0 12 12.5Z"/><path fill-rule="evenodd" clip-rule="evenodd" d="M4.5 3h3a.5.5 0 0 1 .5.5v3a.5.5 0 0 1-.5.5h-3a.5.5 0 0 1-.5-.5v-3a.5.5 0 0 1 .5-.5ZM7 6V4H5v2h2Z"/><path d="M15 4.4C15 1.991 13.044 0 10.6 0a.5.5 0 0 0 0 1C12.488 1 14 2.54 14 4.4a.5.5 0 0 0 1 0ZM9.9 2.5c1.407 0 2.6 1.154 2.6 2.6a.5.5 0 0 1-1 0c0-.886-.738-1.6-1.6-1.6a.5.5 0 0 1 0-1ZM9.6 6a.6.6 0 1 0 0-1.2.6.6 0 0 0 0 1.2Z"/></svg>