<svg width="16" height="16" viewBox="0 0 16 16" xmlns="http://www.w3.org/2000/svg" class="icon icon-webcam" aria-hidden="true" focusable="false" fill="currentColor"><path fill-rule="evenodd" clip-rule="evenodd" d="M5.029 7c0-1.657 1.33-3 2.97-3C9.64 4 10.97 5.343 10.97 7S9.64 10 8 10c-1.641 0-2.971-1.343-2.971-3ZM9.98 7c0-1.105-.887-2-1.98-2a1.99 1.99 0 0 0-1.981 2c0 1.105.887 2 1.98 2A1.99 1.99 0 0 0 9.98 7Z"/><path fill-rule="evenodd" clip-rule="evenodd" d="M8 0C4.17 0 1.068 3.134 1.068 7c0 1.386.399 2.679 1.088 3.766L.178 14.093l-.068.13c-.178.398-.14.867.111 1.232l.081.106c.286.336.73.497 1.167.416L8 14.778l6.533 1.201.13.017a1.24 1.24 0 0 0 1.117-.539c.278-.406.295-.94.043-1.363l-1.979-3.328A7.017 7.017 0 0 0 14.931 7c0-3.866-3.103-7-6.931-7Zm5.2 11.627a6.9 6.9 0 0 1-4.258 2.309l5.767 1.06a.253.253 0 0 0 .256-.107.26.26 0 0 0 .033-.225l-.025-.055-1.773-2.982Zm-6.143 2.309a6.9 6.9 0 0 1-4.259-2.309l-1.771 2.98a.26.26 0 0 0 .008.28.254.254 0 0 0 .197.11l.06-.004 5.765-1.057ZM3.16 10.482A5.917 5.917 0 0 0 8 13c3.28 0 5.94-2.686 5.94-6S11.28 1 8 1C4.718 1 2.058 3.686 2.058 7a6.013 6.013 0 0 0 1.103 3.482Z"/></svg>