<svg width="16" height="16" viewBox="0 0 16 16" xmlns="http://www.w3.org/2000/svg" class="icon icon-world" aria-hidden="true" focusable="false" fill="currentColor"><path fill-rule="evenodd" clip-rule="evenodd" d="M10.367 6.072c-1.6-.001-3.02 1.173-2.854 2.602.077.664.087 1.195.052 1.862l-.044.724c-.06 1.24.1 1.619.971 1.976 1.767.72 4.686-2.119 4.787-4.464l.001-.2a2.744 2.744 0 0 0-2.742-2.506l-.17.006Zm.186.995c.86.015 1.57.623 1.712 1.445l.016.133v-.022c.025 1.737-2.37 4.112-3.41 3.687l-.118-.052c-.225-.11-.27-.237-.241-.823l.03-.485c.06-.896.062-1.545-.036-2.391-.083-.718.718-1.418 1.739-1.483l.308-.009Z"/><path fill-rule="evenodd" clip-rule="evenodd" d="M0 8a7.99 7.99 0 0 1 3.44-6.574A7.956 7.956 0 0 1 8 0a8 8 0 1 1-8 8Zm1 0a6.988 6.988 0 0 1 2.69-5.516c.311.286.577.62.787.989.487.827.721 1.76.4 2.176-.175.227-.49.431-1.073.72l-.078.039c-.074.036-.185.09-.278.137l-.317.16C2.387 7.1 2.045 7.431 2.045 8c0 .535.217.857.95 1.703l.077.09.218.26c.082.1.149.19.205.272a1.933 1.933 0 0 1 0 2.168c-.118.185-.26.346-.42.48A6.978 6.978 0 0 1 1 8Zm7 7a6.969 6.969 0 0 1-4.16-1.37c.188-.174.352-.371.49-.588a2.928 2.928 0 0 0-.007-3.277 5.064 5.064 0 0 0-.255-.341l-.434-.512c-.442-.518-.59-.75-.59-.912 0-.066.197-.232.716-.494l.716-.356c.577-.3.927-.546 1.192-.89.673-.87.357-2.128-.325-3.288a5.018 5.018 0 0 0-.804-1.058A6.953 6.953 0 0 1 6.818 1.1v.095c0 .4.197.778.569 1.246.046.058.092.114.145.177l.374.433c.214.248.276.327.358.452l.05.078.48.806c.329.506.706.745 1.287.704a16.756 16.756 0 0 0 3.665-1.089A7 7 0 0 1 8 15ZM7.818 1.182c-.001-.061 0-.121.005-.18L8 1a6.98 6.98 0 0 1 5.088 2.192c-1.01.41-2.059.714-3.132.907-.118.006-.176-.03-.323-.257l-.122-.207c-.088-.15-.206-.351-.303-.51l-.145-.228a3.227 3.227 0 0 0-.2-.265l-.486-.565a8.062 8.062 0 0 1-.207-.25l-.084-.108c-.183-.246-.268-.423-.268-.527Z"/></svg>