<svg width="48" height="48" viewBox="0 0 48 48" xmlns="http://www.w3.org/2000/svg" class="icon icon-alarm-lg" aria-hidden="true" focusable="false" fill="currentColor"><path fill-rule="evenodd" clip-rule="evenodd" d="M24 16a1 1 0 0 1 1 1v9h9a1 1 0 1 1 0 2H24a1 1 0 0 1-1-1V17a1 1 0 0 1 1-1Z"/><path fill-rule="evenodd" clip-rule="evenodd" d="M24 11c-8.837 0-16 7.163-16 16s7.163 16 16 16c8.836 0 16-7.163 16-16s-7.164-16-16-16ZM6 27c0-9.941 8.059-18 18-18s18 8.059 18 18-8.059 18-18 18S6 36.941 6 27Z"/><path fill-rule="evenodd" clip-rule="evenodd" d="M12.707 38.293a1 1 0 0 1 0 1.414l-5 5a1 1 0 0 1-1.414-1.414l5-5a1 1 0 0 1 1.414 0Zm22.586 0a1 1 0 0 1 1.414 0l5 5a1 1 0 0 1-1.414 1.414l-5-5a1 1 0 0 1 0-1.414ZM10.894 2.062a11 11 0 0 1 7.166 1.76 1 1 0 0 1 .157 1.542L4.364 19.217a1 1 0 0 1-1.542-.157 11 11 0 0 1 8.072-16.998Zm4.98 2.817A9 9 0 0 0 3.878 16.873L15.873 4.88Zm16.252.001 11.995 11.993A9 9 0 0 0 32.126 4.88ZM29.94 3.821A11 11 0 0 1 45.178 19.06a1 1 0 0 1-1.542.157L29.783 5.364a1 1 0 0 1 .156-1.542Z"/></svg>