<svg width="48" height="48" viewBox="0 0 48 48" xmlns="http://www.w3.org/2000/svg" class="icon icon-algo-setting-lg" aria-hidden="true" focusable="false" fill="currentColor"><path fill-rule="evenodd" clip-rule="evenodd" d="M41 41a2 2 0 1 0 0 4 2 2 0 0 0 0-4Zm-4 2a4 4 0 1 1 8 0 4 4 0 0 1-8 0ZM7 41a2 2 0 1 0 0 4 2 2 0 0 0 0-4Zm-4 2a4 4 0 1 1 8 0 4 4 0 0 1-8 0ZM24 3a2 2 0 1 0 0 4 2 2 0 0 0 0-4Zm-4 2a4 4 0 1 1 8 0 4 4 0 0 1-8 0Zm21-2a2 2 0 1 0 0 4 2 2 0 0 0 0-4Zm-4 2a4 4 0 1 1 8 0 4 4 0 0 1-8 0ZM7 3a2 2 0 1 0 0 4 2 2 0 0 0 0-4ZM3 5a4 4 0 1 1 8 0 4 4 0 0 1-8 0Z"/><path fill-rule="evenodd" clip-rule="evenodd" d="M41 7a1 1 0 0 1 1 1v6a1 1 0 0 1-.293.707l-4 4a1 1 0 0 1-1.414-1.414L40 13.586V8a1 1 0 0 1 1-1ZM7 7a1 1 0 0 1 1 1v5.586l3.707 3.707a1 1 0 0 1-1.414 1.414l-4-4A1 1 0 0 1 6 14V8a1 1 0 0 1 1-1Zm17 0a1 1 0 0 1 1 1v3a1 1 0 1 1-2 0V8a1 1 0 0 1 1-1Zm0 34a2 2 0 1 0 0 4 2 2 0 0 0 0-4Zm-4 2a4 4 0 1 1 8 0 4 4 0 0 1-8 0Zm16.293-13.707a1 1 0 0 1 1.414 0l4 4A1 1 0 0 1 42 34v6a1 1 0 1 1-2 0v-5.586l-3.707-3.707a1 1 0 0 1 0-1.414Zm-24.586 0a1 1 0 0 1 0 1.414L8 34.414V40a1 1 0 1 1-2 0v-6a1 1 0 0 1 .293-.707l4-4a1 1 0 0 1 1.414 0Z"/><path fill-rule="evenodd" clip-rule="evenodd" d="M24 36a1 1 0 0 1 1 1v3a1 1 0 1 1-2 0v-3a1 1 0 0 1 1-1Zm0-16a4 4 0 1 0 0 8 4 4 0 0 0 0-8Zm-6 4a6 6 0 1 1 12 0 6 6 0 0 1-12 0Z"/><path fill-rule="evenodd" clip-rule="evenodd" d="M24 15a1 1 0 0 1 1 1v3a1 1 0 1 1-2 0v-3a1 1 0 0 1 1-1Zm-6.364 2.636a1 1 0 0 1 1.414 0l2.121 2.12a1 1 0 0 1-1.414 1.415l-2.121-2.12a1 1 0 0 1 0-1.415ZM15 24a1 1 0 0 1 1-1h3a1 1 0 1 1 0 2h-3a1 1 0 0 1-1-1Zm6.171 2.829a1 1 0 0 1 0 1.414l-2.12 2.121a1 1 0 0 1-1.415-1.414l2.12-2.121a1 1 0 0 1 1.415 0ZM24 28a1 1 0 0 1 1 1v3a1 1 0 1 1-2 0v-3a1 1 0 0 1 1-1Zm2.829-1.171a1 1 0 0 1 1.414 0l2.121 2.12a1 1 0 0 1-1.414 1.415l-2.121-2.12a1 1 0 0 1 0-1.415ZM28 24a1 1 0 0 1 1-1h3a1 1 0 1 1 0 2h-3a1 1 0 0 1-1-1Zm2.364-6.364a1 1 0 0 1 0 1.414l-2.12 2.121a1 1 0 0 1-1.415-1.414l2.12-2.121a1 1 0 0 1 1.415 0Z"/></svg>