<svg width="48" height="48" viewBox="0 0 48 48" xmlns="http://www.w3.org/2000/svg" class="icon icon-apple-lg" aria-hidden="true" focusable="false" fill="currentColor"><path d="M34 2V0a7 7 0 0 0-7 7v2a7 7 0 0 0 7-7Z"/><path fill-rule="evenodd" clip-rule="evenodd" d="M16.042 2.713a1 1 0 0 1 1.246-.67c2.357.706 4.281 2.382 5.607 4.371 1.118 1.678 1.849 3.633 2.05 5.539.798-.06 1.637-.186 2.527-.332.183-.03.37-.06.557-.092h.002c1.066-.178 2.197-.366 3.332-.462 2.71-.229 5.605.053 8.329 2.244 2.559 2.057 4.107 6.034 4.29 10.588.184 4.599-1.008 9.96-4.145 14.975-3.028 4.841-6.18 6.591-9.136 7.015-1.44.207-2.772.09-3.912-.065-.352-.048-.674-.097-.971-.142-.719-.109-1.295-.196-1.818-.196-.523 0-1.099.087-1.817.196-.298.045-.62.094-.972.142-1.14.155-2.472.272-3.911.065-2.957-.424-6.109-2.174-9.137-7.015-3.137-5.016-4.33-10.376-4.145-14.975.183-4.554 1.732-8.531 4.29-10.588 2.724-2.19 5.62-2.471 8.33-2.243 1.134.096 2.266.284 3.331.462l.559.092c.844.138 1.64.258 2.401.32-.194-1.486-.785-3.048-1.698-4.419-1.133-1.698-2.708-3.022-4.518-3.565a1 1 0 0 1-.67-1.245ZM24 14c-.05 0-.1-.004-.147-.01-1.21-.015-2.448-.198-3.648-.394l-.58-.096c-1.067-.178-2.108-.35-3.155-.439-2.433-.205-4.738.063-6.908 1.809-1.932 1.553-3.375 4.86-3.545 9.11-.169 4.203.922 9.165 3.842 13.834 2.784 4.451 5.468 5.772 7.725 6.096 1.167.167 2.284.078 3.358-.068.256-.035.52-.075.787-.115h.001c.782-.12 1.585-.24 2.27-.24s1.488.12 2.27.24h.001c.267.04.53.08.787.115 1.074.146 2.192.235 3.359.068 2.256-.324 4.94-1.645 7.724-6.096 2.92-4.669 4.011-9.63 3.842-13.835-.17-4.25-1.612-7.556-3.544-9.11-2.171-1.746-4.475-2.014-6.908-1.809-1.047.089-2.088.262-3.156.44a219.8 219.8 0 0 1-.58.095c-1.2.197-2.438.38-3.647.394A1.031 1.031 0 0 1 24 14Z"/></svg>