<svg width="48" height="48" viewBox="0 0 48 48" xmlns="http://www.w3.org/2000/svg" class="icon icon-arrow-left-round-lg" aria-hidden="true" focusable="false" fill="currentColor"><path d="M22.707 15.293a1 1 0 0 1 0 1.414L16.414 23H36a1 1 0 1 1 0 2H16.414l6.293 6.293a1 1 0 0 1-1.414 1.414l-8-8a1 1 0 0 1 0-1.414l8-8a1 1 0 0 1 1.414 0Z"/><path fill-rule="evenodd" clip-rule="evenodd" d="M24 1C11.297 1 1 11.297 1 24s10.297 23 23 23 23-10.297 23-23S36.703 1 24 1ZM3 24C3 12.402 12.402 3 24 3s21 9.402 21 21-9.402 21-21 21S3 35.598 3 24Z"/></svg>