<svg width="48" height="48" viewBox="0 0 48 48" xmlns="http://www.w3.org/2000/svg" class="icon icon-arrow-up-lg-1" aria-hidden="true" focusable="false" fill="currentColor"><path d="m15.293 21.293 8-8a1 1 0 0 1 1.414 0l8 8a1 1 0 0 1-1.414 1.414L25 16.414v19.67c0 .506-.448.916-1 .916s-1-.41-1-.917V16.414l-6.293 6.293a1 1 0 0 1-1.414-1.414Z"/><path fill-rule="evenodd" clip-rule="evenodd" d="M24 1C11.297 1 1 11.297 1 24s10.297 23 23 23 23-10.297 23-23S36.703 1 24 1ZM3 24C3 12.402 12.402 3 24 3s21 9.402 21 21-9.402 21-21 21S3 35.598 3 24Z"/></svg>