<svg width="48" height="48" viewBox="0 0 48 48" xmlns="http://www.w3.org/2000/svg" class="icon icon-at-lg" aria-hidden="true" focusable="false" fill="currentColor"><path fill-rule="evenodd" clip-rule="evenodd" d="M33.915 5.677c-9.072-3.681-19.362-.948-24.256 4.751v.001c-2.745 3.19-4.942 8.022-5.514 13.122-.57 5.086.482 10.346 4.102 14.511 3.719 4.279 9.043 5.765 14.143 5.924 5.101.159 9.828-1.02 12.122-1.896a1 1 0 0 1 .714 1.868c-2.506.958-7.497 2.195-12.898 2.027-5.404-.169-11.368-1.753-15.59-6.611-4.073-4.685-5.197-10.548-4.58-16.046.614-5.484 2.967-10.697 5.984-14.203C13.648 2.713 24.876-.15 34.667 3.823c10.01 4.062 11.635 13.47 11.291 18.774-.169 2.606-.657 5.42-1.826 7.663-1.193 2.288-3.134 4.039-6.125 4.269-1.444.111-2.653-.139-3.647-.67-.991-.528-1.706-1.3-2.223-2.134a8.906 8.906 0 0 1-.883-1.958 11.55 11.55 0 0 1-4.404 3.784c-2.562 1.246-5.594 1.48-8.249.063-2.66-1.42-3.855-3.792-4.21-6.23-.35-2.405.103-4.922.756-6.854.665-1.965 2.082-4.619 4.912-6.309 2.857-1.706 6.97-2.319 12.787-.546a1 1 0 0 1 .7 1.081l-.013.11a133.018 133.018 0 0 0-.174 1.461c-.11.96-.255 2.261-.388 3.634a102.403 102.403 0 0 0-.325 4.044c-.07 1.25-.078 2.198-.014 2.67l.005.037c.166 1.162.439 2.73 1.2 3.96.373.6.847 1.094 1.464 1.423.613.327 1.432.526 2.552.44 2.14-.165 3.548-1.362 4.505-3.2.98-1.88 1.442-4.37 1.604-6.868.318-4.905-1.193-13.198-10.047-16.79Zm-3.29 21.032c-.063-.7-.037-1.723.024-2.816.07-1.272.196-2.74.331-4.126a211.365 211.365 0 0 1 .48-4.41c-4.977-1.356-8.24-.694-10.376.582-2.278 1.36-3.466 3.53-4.043 5.233-.587 1.736-.962 3.924-.67 5.924.286 1.968 1.2 3.701 3.172 4.754 1.977 1.055 4.32.93 6.432-.098 2.05-.997 3.8-2.812 4.65-5.043Z"/></svg>