<svg width="48" height="48" viewBox="0 0 48 48" xmlns="http://www.w3.org/2000/svg" class="icon icon-baby-lg" aria-hidden="true" focusable="false" fill="currentColor"><path fill-rule="evenodd" clip-rule="evenodd" d="M18 7a6 6 0 1 1 12 0 6 6 0 0 1-12 0Zm6-4a4 4 0 1 0 0 8 4 4 0 0 0 0-8Z"/><path fill-rule="evenodd" clip-rule="evenodd" d="M21.174 16 10.27 7.616a3.068 3.068 0 0 0-3.89 4.746L16 20.776V26c0 .523.051 1.041.151 1.548l-4.078 5.109a3.75 3.75 0 0 0-.426 4.02l4 8a3.75 3.75 0 1 0 6.708-3.354l-2.883-5.765 2.049-1.952a7.998 7.998 0 0 0 4.959 0l2.049 1.952-2.883 5.765a3.751 3.751 0 0 0 4.54 5.235 3.75 3.75 0 0 0 2.168-1.88l4-8a3.75 3.75 0 0 0-.427-4.021l-4.078-5.11c.1-.506.151-1.024.151-1.547v-5.224l9.62-8.414a3.067 3.067 0 0 0-3.89-4.746L26.827 16h-5.652ZM30 24v-3.678a1 1 0 0 1 .342-.753l9.972-8.722.013-.011.012-.01a1.07 1.07 0 0 0-.173-1.768 1.069 1.069 0 0 0-1.181.115l-.015.013-.01.007-11.184 8.6a1 1 0 0 1-.61.207h-6.332a1 1 0 0 1-.61-.207L9.04 9.193a1.068 1.068 0 1 0-1.353 1.654l9.972 8.722a1 1 0 0 1 .341.753V24h12Zm-.187 3.485a5.999 5.999 0 0 1-10.056 2.758A6 6 0 0 1 18 26h12c0 .505-.064 1.004-.187 1.485Zm-12.872 2.28-3.306 4.141a1.75 1.75 0 0 0-.2 1.877l4 8a1.75 1.75 0 0 0 3.131-1.566l-3.214-6.426a1 1 0 0 1 .205-1.171l2.038-1.942a8.006 8.006 0 0 1-2.654-2.914Zm14.118-.001 3.306 4.14v.002a1.75 1.75 0 0 1 .2 1.877l-4 8a1.75 1.75 0 1 1-3.13-1.566l3.213-6.426a1 1 0 0 0-.204-1.171l-2.039-1.942a8 8 0 0 0 2.654-2.914Z"/></svg>