<svg width="48" height="48" viewBox="0 0 48 48" xmlns="http://www.w3.org/2000/svg" class="icon icon-bell-lg" aria-hidden="true" focusable="false" fill="currentColor"><path fill-rule="evenodd" clip-rule="evenodd" d="M24 1A15 15 0 0 0 9 16v8c0 3.128-1.491 6.651-2.864 9.208C5.05 35.23 6.417 38 8.886 38h30.227c2.47 0 3.837-2.77 2.75-4.792C40.492 30.651 39 27.128 39 24v-8A15 15 0 0 0 24 1Zm-9.193 5.808A13 13 0 0 1 37 16v8c0 3.649 1.698 7.54 3.102 10.154.453.844-.204 1.846-.989 1.846H8.886c-.785 0-1.441-1.002-.988-1.846C9.301 31.541 11 27.65 11 24v-8a13 13 0 0 1 3.807-9.192Z"/><path d="M20 41a1 1 0 1 0-2 0 6 6 0 1 0 12 0 1 1 0 1 0-2 0 4 4 0 1 1-8 0Z"/></svg>