<svg width="48" height="48" viewBox="0 0 48 48" xmlns="http://www.w3.org/2000/svg" class="icon icon-bell-close-lg" aria-hidden="true" focusable="false" fill="currentColor"><path fill-rule="evenodd" clip-rule="evenodd" d="M8.586 38H8.57c-1.07 0-2.04-.55-2.58-1.47-.55-.92-.56-2.04-.04-2.98C7.34 31.02 9 27.32 9 24v-8C9 7.73 15.72 1 24 1c5.645 0 10.844 3.244 13.377 8.208l6.915-6.915a1 1 0 1 1 1.414 1.414l-42 42a1 1 0 0 1-1.414-1.414L8.586 38Zm27.29-27.29C33.8 6.068 29.107 3 23.99 3c-7.17 0-13 5.83-13 13v8c0 3.74-1.79 7.78-3.3 10.51-.25.46-.07.85.01 1 .09.15.34.49.86.49h2.025l25.29-25.29Z"/><path d="M39 17a1 1 0 1 0-2 0v7c0 3.649 1.698 7.54 3.102 10.154.453.844-.204 1.846-.988 1.846H18a1 1 0 1 0 0 2h21.114c2.468 0 3.836-2.77 2.75-4.792C40.49 30.651 39 27.128 39 24v-7ZM20 41a1 1 0 1 0-2 0 6 6 0 1 0 12 0 1 1 0 1 0-2 0 4 4 0 1 1-8 0Z"/></svg>