<svg width="48" height="48" viewBox="0 0 48 48" xmlns="http://www.w3.org/2000/svg" class="icon icon-bike-lg" aria-hidden="true" focusable="false" fill="currentColor"><path fill-rule="evenodd" clip-rule="evenodd" d="M25 10a1 1 0 0 1 1-1h6.331a3 3 0 0 1 2.952 2.463l1.153 6.344.005.026.576 3.167C42.532 21.009 47 25.483 47 31c0 5.523-4.477 10-10 10s-10-4.477-10-10c0-4.845 3.445-8.885 8.02-9.804L34.62 19H14.754l-.707 2.473C18.08 22.762 21 26.54 21 31c0 5.523-4.477 10-10 10S1 36.523 1 31s4.477-10 10-10c.367 0 .73.02 1.086.058l.952-3.333A1 1 0 0 1 14 17h20.257l-.942-5.179a1 1 0 0 0-.984-.821H26a1 1 0 0 1-1-1ZM11.526 23.017a8 8 0 1 0 1.971.38l-2.536 8.878a1 1 0 1 1-1.923-.55l2.488-8.708Zm25.49 9.162-1.639-9.014a8 8 0 1 0 2.005-.156l1.602 8.812a1 1 0 0 1-1.968.358Z"/><path d="M10 11a1 1 0 1 0 0 2h8a1 1 0 1 0 0-2h-8Z"/></svg>