<svg width="48" height="48" viewBox="0 0 48 48" xmlns="http://www.w3.org/2000/svg" class="icon icon-bill-lg" aria-hidden="true" focusable="false" fill="currentColor"><path d="M13 14a1 1 0 0 1 1-1h10a1 1 0 1 1 0 2H14a1 1 0 0 1-1-1Zm19-1a1 1 0 1 0 0 2h2a1 1 0 1 0 0-2h-2Zm-19 9a1 1 0 0 1 1-1h10a1 1 0 1 1 0 2H14a1 1 0 0 1-1-1Zm19-1a1 1 0 1 0 0 2h2a1 1 0 1 0 0-2h-2Zm-19 9a1 1 0 0 1 1-1h10a1 1 0 1 1 0 2H14a1 1 0 0 1-1-1Zm19-1a1 1 0 1 0 0 2h2a1 1 0 1 0 0-2h-2Z"/><path fill-rule="evenodd" clip-rule="evenodd" d="M5 2a1 1 0 0 1 1-1h36a1 1 0 0 1 1 1v42a1 1 0 0 1-1.555.832L36 41.202l-5.445 3.63a1 1 0 0 1-1.11 0L24 41.202l-5.445 3.63a1 1 0 0 1-1.11 0L12 41.202l-5.445 3.63A1 1 0 0 1 5 44V2Zm2 1v39.132l4.445-2.964a1 1 0 0 1 1.11 0L18 42.798l5.445-3.63a1 1 0 0 1 1.11 0L30 42.798l5.445-3.63a1 1 0 0 1 1.11 0L41 42.132V3H7Z"/></svg>