<svg width="48" height="48" viewBox="0 0 48 48" xmlns="http://www.w3.org/2000/svg" class="icon icon-book-open-lg" aria-hidden="true" focusable="false" fill="currentColor"><path fill-rule="evenodd" clip-rule="evenodd" d="M8 4a1 1 0 0 0-1 1h1l-1 .001V8H2a1 1 0 0 0-1 1v33a1 1 0 0 0 1 1h44a1 1 0 0 0 1-1V9a1 1 0 0 0-1-1h-5V5a1 1 0 0 0-1-1c-9.158 0-13.57 1.656-16.012 3.663C21.52 5.695 17.095 4 8 4Zm31 2.007c-8.643.122-12.228 1.832-14 3.423V25a1 1 0 1 1-2 0V9.441c-1.82-1.574-5.453-3.308-14-3.434v26c8.44.117 12.647 1.72 15.005 3.65 2.342-1.896 6.485-3.532 14.995-3.65v-26ZM7 10v23a1 1 0 0 0 1 1c9.858 0 13.571 1.986 15.293 3.707a1 1 0 0 0 1.407.008C26.428 36.023 30.07 34 40 34a1 1 0 0 0 1-1V10h4v31H3V10h4Z"/></svg>