<svg width="48" height="48" viewBox="0 0 48 48" xmlns="http://www.w3.org/2000/svg" class="icon icon-book-lg" aria-hidden="true" focusable="false" fill="currentColor"><path fill-rule="evenodd" clip-rule="evenodd" d="M10 1a5 5 0 0 0-5 5v36a5 5 0 0 0 5 5h32a1 1 0 0 0 1-1V2a1 1 0 0 0-1-1H10Zm0 44a3 3 0 0 1 0-6h31v6H10Zm1-8h-1a4.978 4.978 0 0 0-3 1V6a3 3 0 0 1 3-3h12v16a1 1 0 0 0 1.555.832L29 16.202l5.445 3.63A1 1 0 0 0 36 19V3h5v34H13V10a1 1 0 1 0-2 0v27ZM24 3v14.131l4.445-2.963a1 1 0 0 1 1.11 0L34 17.13V3H24Z"/></svg>