<svg width="48" height="48" viewBox="0 0 48 48" xmlns="http://www.w3.org/2000/svg" class="icon icon-books-lg" aria-hidden="true" focusable="false" fill="currentColor"><path fill-rule="evenodd" clip-rule="evenodd" d="M3 12a1 1 0 0 1 1-1h7a1 1 0 1 1 0 2H5v30a1 1 0 1 1-2 0V12Z"/><path fill-rule="evenodd" clip-rule="evenodd" d="M10 17a1 1 0 0 1 1 1v6a1 1 0 1 1-2 0v-6a1 1 0 0 1 1-1Zm5-12a1 1 0 0 1 1-1h10a1 1 0 0 1 1 1v38a1 1 0 0 1-1 1H16a1 1 0 0 1-1-1V5Zm2 1v36h8V6h-8Z"/><path fill-rule="evenodd" clip-rule="evenodd" d="M21 10a1 1 0 0 1 1 1v8a1 1 0 1 1-2 0v-8a1 1 0 0 1 1-1Zm16.037-5.127a1 1 0 0 1 .434.63l7.507 35.21a1 1 0 0 1-.77 1.186l-9.78 2.085a1 1 0 0 1-1.186-.77L25.735 8.008a1 1 0 0 1 .77-1.187l9.78-2.086a1 1 0 0 1 .752.139ZM27.9 8.567l7.09 33.252 7.823-1.668L35.724 6.9 27.9 8.567Z"/><path fill-rule="evenodd" clip-rule="evenodd" d="M41.573 24.791a1 1 0 0 1-.77 1.187l-9.78 2.085a1 1 0 1 1-.416-1.956l9.78-2.085a1 1 0 0 1 1.186.77Z"/><path fill-rule="evenodd" clip-rule="evenodd" d="M26.504 6.82a1 1 0 0 1 1.187.77l7.507 35.208a1 1 0 0 1-1.956.416L25.735 8.008a1 1 0 0 1 .77-1.187Zm6.141 4.825a1 1 0 0 1 1.187.77l1.146 5.373a1 1 0 1 1-1.956.418l-1.146-5.374a1 1 0 0 1 .77-1.187Z"/><path fill-rule="evenodd" clip-rule="evenodd" d="M1 43a1 1 0 0 1 1-1h44a1 1 0 1 1 0 2H2a1 1 0 0 1-1-1Zm14-15a1 1 0 0 1 1-1h10a1 1 0 1 1 0 2H16a1 1 0 0 1-1-1ZM3 32a1 1 0 0 1 1-1h7a1 1 0 1 1 0 2H4a1 1 0 0 1-1-1Z"/></svg>