<svg width="48" height="48" viewBox="0 0 48 48" xmlns="http://www.w3.org/2000/svg" class="icon icon-briefcase-search-lg" aria-hidden="true" focusable="false" fill="currentColor"><path fill-rule="evenodd" clip-rule="evenodd" d="M13.715 2a1 1 0 0 0-1 1v3.286H4.43A2.428 2.428 0 0 0 2 8.714V23a1 1 0 0 0 1 1h11.143v1.857a1 1 0 0 0 1 1h7.142a1 1 0 0 0 1-1v-5.714a1 1 0 0 0-1-1h-7.142a1 1 0 0 0-1 1V22H4V8.714c0-.237.192-.428.429-.428H33c.237 0 .429.191.429.428V20a1 1 0 1 0 2 0V8.714A2.428 2.428 0 0 0 33 6.286h-8.285V3a1 1 0 0 0-1-1h-10Zm2.428 21.023v-1.88h5.142v3.714h-5.142v-1.834Zm6.572-16.737V4h-8v2.286h8Z"/><path d="M4.428 25.571a1 1 0 0 1 1 1v5c0 .237.192.429.429.429h12.857a1 1 0 1 1 0 2H5.857a2.428 2.428 0 0 1-2.429-2.429v-5a1 1 0 0 1 1-1Z"/><path fill-rule="evenodd" clip-rule="evenodd" d="M37.965 39.38a8.62 8.62 0 1 1 1.414-1.414l6.328 6.327a1 1 0 0 1-1.414 1.414l-6.328-6.327ZM26 32.619a6.619 6.619 0 1 1 11.298 4.68l-.01.01a6.598 6.598 0 0 1-4.67 1.93A6.62 6.62 0 0 1 26 32.619Z"/></svg>