<svg width="48" height="48" viewBox="0 0 48 48" xmlns="http://www.w3.org/2000/svg" class="icon icon-briefcase-lg" aria-hidden="true" focusable="false" fill="currentColor"><path fill-rule="evenodd" clip-rule="evenodd" d="M16 3a1 1 0 0 1 1-1h14a1 1 0 0 1 1 1v6a1 1 0 1 1-2 0V4H18v5a1 1 0 1 1-2 0V3Z"/><path fill-rule="evenodd" clip-rule="evenodd" d="M4 10a1 1 0 0 0-1 1v19h16a1 1 0 1 1 0 2H2a1 1 0 0 1-1-1V11a3 3 0 0 1 3-3h40a3 3 0 0 1 3 3v20a1 1 0 0 1-1 1H29a1 1 0 1 1 0-2h16V11a1 1 0 0 0-1-1H4Zm0 25a1 1 0 0 1 1 1v7a1 1 0 0 0 1 1h36a1 1 0 0 0 1-1v-7a1 1 0 1 1 2 0v7a3 3 0 0 1-3 3H6a3 3 0 0 1-3-3v-7a1 1 0 0 1 1-1Z"/><path fill-rule="evenodd" clip-rule="evenodd" d="M18 27a1 1 0 0 1 1-1h10a1 1 0 0 1 1 1v8a1 1 0 0 1-1 1H19a1 1 0 0 1-1-1v-8Zm2 1v6h8v-6h-8Z"/></svg>