<svg width="48" height="48" viewBox="0 0 48 48" xmlns="http://www.w3.org/2000/svg" class="icon icon-briefcase-check-lg" aria-hidden="true" focusable="false" fill="currentColor"><path fill-rule="evenodd" clip-rule="evenodd" d="M13.459 1.375a1 1 0 0 0-1 1v3.75h-3.66A1.011 1.011 0 0 0 8.7 6.12H3.16A2.583 2.583 0 0 0 .575 8.703v14.5c0 .157.036.306.1.438a2.584 2.584 0 0 0 2.488 1.884h10.879v2.183a1 1 0 0 0 1 1h7.917a1 1 0 0 0 1-1v-2.183h6.455a1 1 0 1 0 0-2h-6.455v-2.15a1 1 0 0 0-1-1h-7.917a1 1 0 0 0-1 1v2.15H3.163a.583.583 0 0 1-.583-.583V17.4a1.01 1.01 0 0 0-.005-.1V8.704c0-.322.261-.583.584-.583h4.058c.033.003.066.005.1.005h27.5c.322 0 .583.26.583.583V21.25a1 1 0 1 0 2 0V8.708a2.583 2.583 0 0 0-2.583-2.583h-9.275v-3.75a1 1 0 0 0-1-1H13.458Zm10.083 4.75v-2.75h-9.084v2.75h9.084Zm-7.5 16.25v4.333h5.917v-4.333h-5.917Z"/><path d="M4.167 28.5a1 1 0 1 0-2 0v5.542a2.583 2.583 0 0 0 2.583 2.583h18.5a1 1 0 1 0 0-2H4.75a.583.583 0 0 1-.583-.583V28.5Zm36.54 4.793a1 1 0 0 1 0 1.414l-4 4a1 1 0 0 1-1.414 0l-2-2a1 1 0 0 1 1.414-1.414L36 36.586l3.293-3.293a1 1 0 0 1 1.414 0Z"/><path fill-rule="evenodd" clip-rule="evenodd" d="M27 36c0-5.523 4.477-10 10-10s10 4.477 10 10-4.477 10-10 10-10-4.477-10-10Zm10-8a8 8 0 1 0 0 16 8 8 0 0 0 0-16Z"/></svg>