<svg width="48" height="48" viewBox="0 0 48 48" xmlns="http://www.w3.org/2000/svg" class="icon icon-building-lg" aria-hidden="true" focusable="false" fill="currentColor"><path d="M16 31a1 1 0 0 1 1-1h4a1 1 0 1 1 0 2h-4a1 1 0 0 1-1-1Zm1 5a1 1 0 1 0 0 2h4a1 1 0 1 0 0-2h-4Zm-1-11a1 1 0 0 1 1-1h4a1 1 0 1 1 0 2h-4a1 1 0 0 1-1-1Z"/><path fill-rule="evenodd" clip-rule="evenodd" d="M23.263 2.035A1 1 0 0 0 22 3v9a1 1 0 1 0 2 0V4.31l20 5.454V44H28V17a1 1 0 0 0-1-1H11a1 1 0 0 0-1 1v27H4V26h2a1 1 0 1 0 0-2H3a1 1 0 0 0-1 1v20a1 1 0 0 0 1 1h42a1 1 0 0 0 1-1V9a1 1 0 0 0-.737-.965l-22-6ZM26 18v26H12V18h14Z"/><path d="M33 14a1 1 0 0 1 1 1v22a1 1 0 1 1-2 0V15a1 1 0 0 1 1-1Zm7 3a1 1 0 1 0-2 0v20a1 1 0 1 0 2 0V17Z"/></svg>