<svg width="48" height="48" viewBox="0 0 48 48" xmlns="http://www.w3.org/2000/svg" class="icon icon-bulb-lg" aria-hidden="true" focusable="false" fill="currentColor"><path d="M24 11a7 7 0 0 0-7 7 1 1 0 1 1-2 0 9 9 0 0 1 9-9 1 1 0 1 1 0 2Z"/><path fill-rule="evenodd" clip-rule="evenodd" d="M7 18C7 8.61 14.61 1 24 1s17 7.61 17 17c0 6.894-4.108 12.818-10 15.485V41a1 1 0 0 1-1 1H18a1 1 0 0 1-1-1v-7.515C11.108 30.818 7 24.895 7 18ZM24 3C15.715 3 9 9.715 9 18c0 6.29 3.878 11.671 9.376 13.9a1 1 0 0 1 .624.926V40h10v-7.174a1 1 0 0 1 .624-.927C35.122 29.671 39 24.291 39 18c0-8.285-6.715-15-15-15Z"/><path d="M18 45a1 1 0 1 0 0 2h12a1 1 0 1 0 0-2H18Z"/></svg>