<svg width="48" height="48" viewBox="0 0 48 48" xmlns="http://www.w3.org/2000/svg" class="icon icon-bullet-list-lg" aria-hidden="true" focusable="false" fill="currentColor"><path fill-rule="evenodd" clip-rule="evenodd" d="M8 3a5 5 0 1 0 0 10A5 5 0 0 0 8 3ZM5 8a3 3 0 1 1 6 0 3 3 0 0 1-6 0Zm3 11a5 5 0 1 0 0 10 5 5 0 0 0 0-10Zm-3 5a3 3 0 1 1 6 0 3 3 0 0 1-6 0ZM3 40a5 5 0 1 1 10 0 5 5 0 0 1-10 0Zm5-3a3 3 0 1 0 0 6 3 3 0 0 0 0-6Z"/><path d="M20 7a1 1 0 1 0 0 2h24a1 1 0 1 0 0-2H20Zm-1 17a1 1 0 0 1 1-1h24a1 1 0 1 1 0 2H20a1 1 0 0 1-1-1Zm1 15a1 1 0 1 0 0 2h24a1 1 0 1 0 0-2H20Z"/></svg>