<svg width="48" height="48" viewBox="0 0 48 48" xmlns="http://www.w3.org/2000/svg" class="icon icon-bus-lg" aria-hidden="true" focusable="false" fill="currentColor"><path d="M11 34a1 1 0 0 1 1-1h4a1 1 0 1 1 0 2h-4a1 1 0 0 1-1-1Zm21-1a1 1 0 1 0 0 2h4a1 1 0 1 0 0-2h-4Z"/><path fill-rule="evenodd" clip-rule="evenodd" d="M5 6a5 5 0 0 1 5-5h28a5 5 0 0 1 5 5v34a1 1 0 0 1-1 1h-1v5a1 1 0 0 1-1 1h-7a1 1 0 0 1-1-1v-5H16v5a1 1 0 0 1-1 1H8a1 1 0 0 1-1-1v-5H6a1 1 0 0 1-1-1V6Zm2 0a3 3 0 0 1 3-3h28a3 3 0 0 1 3 3v3H7V6Zm0 21V11h34v16H26.414l5.293-5.293a1 1 0 0 0-1.414-1.414L23.586 27H7Zm0 2v10h34V29H7Zm32 12h-5v4h5v-4Zm-25 0H9v4h5v-4Z"/><path d="M3 21a1 1 0 1 0-2 0v6a1 1 0 1 0 2 0v-6Zm44 0a1 1 0 1 0-2 0v6a1 1 0 1 0 2 0v-6Z"/></svg>