<svg width="48" height="48" viewBox="0 0 48 48" xmlns="http://www.w3.org/2000/svg" class="icon icon-calculator-lg" aria-hidden="true" focusable="false" fill="currentColor"><path d="M10 13a1 1 0 1 0 0 2h8a1 1 0 1 0 0-2h-8Zm28.207-1.793a1 1 0 0 0-1.414-1.414L34 12.586l-2.793-2.793a1 1 0 1 0-1.414 1.414L32.586 14l-2.793 2.793a1 1 0 0 0 1.414 1.414L34 15.414l2.793 2.793a1 1 0 0 0 1.414-1.414L35.414 14l2.793-2.793ZM14 29a1 1 0 0 1 1 1v3h3a1 1 0 1 1 0 2h-3v3a1 1 0 1 1-2 0v-3h-3a1 1 0 1 1 0-2h3v-3a1 1 0 0 1 1-1Zm15 8a1 1 0 0 1 1-1h8a1 1 0 1 1 0 2h-8a1 1 0 0 1-1-1Zm1-7a1 1 0 1 0 0 2h8a1 1 0 1 0 0-2h-8Z"/><path fill-rule="evenodd" clip-rule="evenodd" d="M4 3a1 1 0 0 0-1 1v40a1 1 0 0 0 1 1h40a1 1 0 0 0 1-1V4a1 1 0 0 0-1-1H4Zm19 2H5v18h18V5Zm20 0v18H25V5h18ZM23 25H5v18h18V25Zm2 18V25h18v18H25Z"/></svg>