<svg width="48" height="48" viewBox="0 0 48 48" xmlns="http://www.w3.org/2000/svg" class="icon icon-calendar-edit-lg" aria-hidden="true" focusable="false" fill="currentColor"><path fill-rule="evenodd" clip-rule="evenodd" d="M13 1a1 1 0 0 1 1 1v3h20V2a1 1 0 1 1 2 0v3h6a4 4 0 0 1 4 4v16.012a1 1 0 1 1-2 0V17H4v22a2 2 0 0 0 2 2h15a1 1 0 1 1 0 2H6a4 4 0 0 1-4-4V9a4 4 0 0 1 4-4h6V2a1 1 0 0 1 1-1Zm21 6v3a1 1 0 1 0 2 0V7h6a2 2 0 0 1 2 2v6H4V9a2 2 0 0 1 2-2h6v3a1 1 0 1 0 2 0V7h20Z"/><path fill-rule="evenodd" clip-rule="evenodd" d="M41.432 27c-.946 0-1.853.376-2.522 1.045L26.2 40.754a1 1 0 0 0-.273.51l-.908 4.54a1 1 0 0 0 1.177 1.177l4.54-.908a1 1 0 0 0 .51-.274l12.71-12.709A3.568 3.568 0 0 0 41.431 27Zm-1.108 2.46a1.568 1.568 0 0 1 2.217 2.216L30.046 44.171l-2.771.554.554-2.77 12.495-12.496Z"/></svg>