<svg width="48" height="48" viewBox="0 0 48 48" xmlns="http://www.w3.org/2000/svg" class="icon icon-calendar-lg" aria-hidden="true" focusable="false" fill="currentColor"><path fill-rule="evenodd" clip-rule="evenodd" d="M7 7a3 3 0 0 0-3 3v31a3 3 0 0 0 3 3h34a3 3 0 0 0 3-3V10a3 3 0 0 0-3-3H7Zm-5 3a5 5 0 0 1 5-5h34a5 5 0 0 1 5 5v31a5 5 0 0 1-5 5H7a5 5 0 0 1-5-5V10Z"/><path fill-rule="evenodd" clip-rule="evenodd" d="M13 1a1 1 0 0 1 1 1v9a1 1 0 1 1-2 0V2a1 1 0 0 1 1-1Zm22 0a1 1 0 0 1 1 1v9a1 1 0 1 1-2 0V2a1 1 0 0 1 1-1ZM2 17a1 1 0 0 1 1-1h42a1 1 0 1 1 0 2H3a1 1 0 0 1-1-1Zm6 14a1 1 0 0 1 1-1h30a1 1 0 1 1 0 2H9a1 1 0 0 1-1-1Z"/><path fill-rule="evenodd" clip-rule="evenodd" d="M18 22a1 1 0 0 1 1 1v16a1 1 0 1 1-2 0V23a1 1 0 0 1 1-1Zm12 0a1 1 0 0 1 1 1v16a1 1 0 1 1-2 0V23a1 1 0 0 1 1-1Z"/></svg>