<svg width="48" height="48" viewBox="0 0 48 48" xmlns="http://www.w3.org/2000/svg" class="icon icon-calendar-download-lg" aria-hidden="true" focusable="false" fill="currentColor"><path fill-rule="evenodd" clip-rule="evenodd" d="M13 1a1 1 0 0 1 1 1v3h20V2a1 1 0 1 1 2 0v3h6a4 4 0 0 1 4 4v16.012a1 1 0 1 1-2 0V17H4v22a2 2 0 0 0 2 2h15a1 1 0 1 1 0 2H6a4 4 0 0 1-4-4V9a4 4 0 0 1 4-4h6V2a1 1 0 0 1 1-1Zm21 6v3a1 1 0 1 0 2 0V7h6a2 2 0 0 1 2 2v6H4V9a2 2 0 0 1 2-2h6v3a1 1 0 1 0 2 0V7h20Zm2 21a1 1 0 1 0-2 0v15.586l-4.293-4.293a1 1 0 0 0-1.414 1.414l6 6a1 1 0 0 0 1.414 0l6-6a1 1 0 0 0-1.414-1.414L36 43.586V28Z"/></svg>