<svg width="48" height="48" viewBox="0 0 48 48" xmlns="http://www.w3.org/2000/svg" class="icon icon-calendar-clock-lg" aria-hidden="true" focusable="false" fill="currentColor"><path fill-rule="evenodd" clip-rule="evenodd" d="M35 32a1 1 0 0 1 1 1v3h3a1 1 0 1 1 0 2h-4a1 1 0 0 1-1-1v-4a1 1 0 0 1 1-1Z"/><path fill-rule="evenodd" clip-rule="evenodd" d="M35 29a8 8 0 1 0 0 16 8 8 0 0 0 0-16Zm-10 8c0-5.523 4.477-10 10-10s10 4.477 10 10-4.477 10-10 10-10-4.477-10-10ZM2 16a1 1 0 0 1 1-1h42a1 1 0 1 1 0 2H3a1 1 0 0 1-1-1Z"/><path fill-rule="evenodd" clip-rule="evenodd" d="M6 7a2 2 0 0 0-2 2v30a2 2 0 0 0 2 2h15a1 1 0 1 1 0 2H6a4 4 0 0 1-4-4V9a4 4 0 0 1 4-4h36a4 4 0 0 1 4 4v16.012a1 1 0 1 1-2 0V9a2 2 0 0 0-2-2H6Z"/><path fill-rule="evenodd" clip-rule="evenodd" d="M13 1a1 1 0 0 1 1 1v8a1 1 0 1 1-2 0V2a1 1 0 0 1 1-1Zm22 0a1 1 0 0 1 1 1v8a1 1 0 1 1-2 0V2a1 1 0 0 1 1-1Z"/></svg>