<svg width="48" height="48" viewBox="0 0 48 48" xmlns="http://www.w3.org/2000/svg" class="icon icon-car-lg" aria-hidden="true" focusable="false" fill="currentColor"><path d="M44 20h-7.36l-3.93-8.65A4.026 4.026 0 0 0 29.07 9H10.65c-1.37 0-2.64.69-3.37 1.85l-6.12 9.61c-.1.16-.16.35-.16.54v12c0 .55.45 1 1 1h3.09c.48 2.83 2.94 5 5.91 5s5.43-2.17 5.91-5h12.18c.48 2.83 2.94 5 5.91 5s5.43-2.17 5.91-5H46c.55 0 1-.45 1-1V23c0-1.65-1.35-3-3-3Zm-13.11-7.83L34.45 20H21v-9h8.07c.78 0 1.5.46 1.82 1.17Zm-21.93-.25c.37-.58 1-.93 1.69-.93H19V20H3.82l5.14-8.07v-.01ZM11 36.99c-2.21 0-4-1.79-4-4s1.79-4 4-4 4 1.79 4 4-1.79 4-4 4Zm24 0c-2.21 0-4-1.79-4-4s1.79-4 4-4 4 1.79 4 4-1.79 4-4 4Zm10-5h-4.09c-.48-2.83-2.94-5-5.91-5s-5.43 2.17-5.91 5H16.91c-.48-2.83-2.94-5-5.91-5s-5.43 2.17-5.91 5H3V22h41c.55 0 1 .45 1 1v9-.01Z"/></svg>