<svg width="48" height="48" viewBox="0 0 48 48" xmlns="http://www.w3.org/2000/svg" class="icon icon-card-euro-lg" aria-hidden="true" focusable="false" fill="currentColor"><path fill-rule="evenodd" clip-rule="evenodd" d="M1 6c0-2.752 2.248-5 5-5h36c2.752 0 5 2.248 5 5v14a1 1 0 0 1-1 1H3v11c0 1.648 1.352 3 3 3h12a1 1 0 1 1 0 2H6c-2.752 0-5-2.248-5-5V6Zm44 0v3H3V6c0-1.648 1.352-3 3-3h36c1.648 0 3 1.352 3 3Zm0 5H3v8h42v-8Z"/><path d="M37.18 29.63c-2.526 0-4.68 1.418-5.712 3.52H30.01l-.14.013-.023.004a1.034 1.034 0 0 0 .185 2.05h.826a6.643 6.643 0 0 0 0 1.56h-.848l-.14.012-.023.004a1.034 1.034 0 0 0 .185 2.05h1.435c1.033 2.103 3.186 3.52 5.712 3.52 1.092 0 2.222-.336 3.18-.883a1.033 1.033 0 0 0-1.026-1.794c-.673.385-1.455.61-2.154.61-1.316 0-2.471-.558-3.251-1.453h2.313l.141-.012.022-.004a1.033 1.033 0 0 0-.185-2.05h-3.273a4.519 4.519 0 0 1 0-1.56h3.295l.141-.013.022-.004a1.033 1.033 0 0 0-.185-2.05h-2.291c.78-.895 1.935-1.453 3.251-1.453.863 0 1.573.201 2.066.554a1.033 1.033 0 1 0 1.201-1.682c-.905-.647-2.05-.94-3.267-.94Z"/><path fill-rule="evenodd" clip-rule="evenodd" d="M25 36c0-6.075 4.925-11 11-11s11 4.925 11 11-4.925 11-11 11-11-4.925-11-11Zm11-9a9 9 0 1 0 0 18 9 9 0 0 0 0-18Z"/><path d="M9 27a1 1 0 1 0 0 2h9a1 1 0 1 0 0-2H9Z"/></svg>