<svg width="48" height="48" viewBox="0 0 48 48" xmlns="http://www.w3.org/2000/svg" class="icon icon-chart-lg" aria-hidden="true" focusable="false" fill="currentColor"><path fill-rule="evenodd" clip-rule="evenodd" d="M1 27C1 15.955 9.955 7 21 7a1 1 0 0 1 1 1v18h18a1 1 0 0 1 1 1c0 11.045-8.955 20-20 20S1 38.045 1 27ZM20 9.027C10.524 9.547 3 17.395 3 27c0 9.94 8.06 18 18 18 9.605 0 17.454-7.524 17.973-17H21a1 1 0 0 1-1-1V9.027Z"/><path fill-rule="evenodd" clip-rule="evenodd" d="M26 2a1 1 0 0 1 1-1c11.045 0 20 8.955 20 20a1 1 0 0 1-1 1H27a1 1 0 0 1-1-1V2Zm2 1.027V20h16.973C44.472 10.855 37.145 3.528 28 3.027Z"/></svg>