<svg width="48" height="48" viewBox="0 0 48 48" xmlns="http://www.w3.org/2000/svg" class="icon icon-check-list-lg" aria-hidden="true" focusable="false" fill="currentColor"><path fill-rule="evenodd" clip-rule="evenodd" d="M4 2a1 1 0 0 0-1 1v10a1 1 0 0 0 1 1h10a1 1 0 0 0 1-1V3a1 1 0 0 0-1-1H4Zm1 10V4h8v8H5Z"/><path d="M21 7a1 1 0 1 0 0 2h23a1 1 0 1 0 0-2H21Zm0 16a1 1 0 1 0 0 2h23a1 1 0 1 0 0-2H21Zm-1 17a1 1 0 0 1 1-1h23a1 1 0 1 1 0 2H21a1 1 0 0 1-1-1Z"/><path fill-rule="evenodd" clip-rule="evenodd" d="M3 35a1 1 0 0 1 1-1h10a1 1 0 0 1 1 1v10a1 1 0 0 1-1 1H4a1 1 0 0 1-1-1V35Zm2 1v8h8v-8H5Z"/><path d="M15.79 19.614a1 1 0 0 0-1.58-1.228l-6.304 8.106-3.199-3.2a1 1 0 0 0-1.414 1.415l4 4a1 1 0 0 0 1.496-.093l7-9Z"/></svg>