<svg width="48" height="48" viewBox="0 0 48 48" xmlns="http://www.w3.org/2000/svg" class="icon icon-clock-lg" aria-hidden="true" focusable="false" fill="currentColor"><path fill-rule="evenodd" clip-rule="evenodd" d="M24 1a1 1 0 0 1 1 1v8a1 1 0 1 1-2 0V2a1 1 0 0 1 1-1Zm13 23a1 1 0 0 1 1-1h8a1 1 0 1 1 0 2h-8a1 1 0 0 1-1-1ZM24 37a1 1 0 0 1 1 1v8a1 1 0 1 1-2 0v-8a1 1 0 0 1 1-1ZM1 24a1 1 0 0 1 1-1h8a1 1 0 1 1 0 2H2a1 1 0 0 1-1-1Z"/><path fill-rule="evenodd" clip-rule="evenodd" d="M24 3C12.402 3 3 12.402 3 24s9.402 21 21 21 21-9.402 21-21S35.598 3 24 3ZM1 24C1 11.297 11.297 1 24 1s23 10.297 23 23-10.297 23-23 23S1 36.703 1 24Z"/><path fill-rule="evenodd" clip-rule="evenodd" d="M15.445 11.168a1 1 0 0 1 1.387.277L24.535 23H32a1 1 0 1 1 0 2h-8.535l-8.297-12.445a1 1 0 0 1 .277-1.387Z"/></svg>