<svg width="48" height="48" viewBox="0 0 48 48" xmlns="http://www.w3.org/2000/svg" class="icon icon-cloud-upload-lg" aria-hidden="true" focusable="false" fill="currentColor"><path d="M33.89 6.255A16.026 16.026 0 0 0 7.052 16.538 8.927 8.927 0 0 0 1 25.001v.002A9.024 9.024 0 0 0 9.997 34H17a1 1 0 1 0 0-2h-6.998A7.024 7.024 0 0 1 3 24.998a6.927 6.927 0 0 1 5.243-6.728A1 1 0 0 0 9 17.348a14.026 14.026 0 0 1 28.003-.28L37 18h1a7 7 0 0 1 0 14h-7a1 1 0 0 0 0 2h7a9 9 0 0 0 .913-17.954 16.027 16.027 0 0 0-5.022-9.79Z"/><path d="M23.293 16.293a1 1 0 0 1 1.414 0l8 8a1 1 0 0 1-1.414 1.414L25 19.414V45a1 1 0 1 1-2 0V19.414l-6.293 6.293a1 1 0 0 1-1.414-1.414l8-8Z"/></svg>