<svg width="48" height="48" viewBox="0 0 48 48" xmlns="http://www.w3.org/2000/svg" class="icon icon-compass-lg" aria-hidden="true" focusable="false" fill="currentColor"><path fill-rule="evenodd" clip-rule="evenodd" d="M24 1a1 1 0 0 1 1 1v6a1 1 0 1 1-2 0V2a1 1 0 0 1 1-1Zm15 23a1 1 0 0 1 1-1h6a1 1 0 1 1 0 2h-6a1 1 0 0 1-1-1ZM24 39a1 1 0 0 1 1 1v6a1 1 0 1 1-2 0v-6a1 1 0 0 1 1-1ZM1 24a1 1 0 0 1 1-1h6a1 1 0 1 1 0 2H2a1 1 0 0 1-1-1Zm18.293-4.707a1 1 0 0 1 1.414 0l8 8a1 1 0 0 1-1.414 1.414l-8-8a1 1 0 0 1 0-1.414Z"/><path fill-rule="evenodd" clip-rule="evenodd" d="M24 3C12.402 3 3 12.402 3 24s9.402 21 21 21 21-9.402 21-21S35.598 3 24 3ZM1 24C1 11.297 11.297 1 24 1s23 10.297 23 23-10.297 23-23 23S1 36.703 1 24Z"/><path fill-rule="evenodd" clip-rule="evenodd" d="M34.707 13.293a1 1 0 0 1 .212 1.1l-6 14a1 1 0 0 1-.525.526l-14 6a1 1 0 0 1-1.313-1.313l6-14a1 1 0 0 1 .525-.525l14-6a1 1 0 0 1 1.101.212Zm-13.945 7.469-4.858 11.334 11.334-4.858 4.858-11.334-11.334 4.858Z"/></svg>