<svg width="48" height="48" viewBox="0 0 48 48" xmlns="http://www.w3.org/2000/svg" class="icon icon-computer-lg" aria-hidden="true" focusable="false" fill="currentColor"><path fill-rule="evenodd" clip-rule="evenodd" d="M6 41a1 1 0 0 1 1-1h7a1 1 0 1 1 0 2H7a1 1 0 0 1-1-1ZM2 7a1 1 0 0 1 1-1h11a1 1 0 1 1 0 2H4v26h10a1 1 0 1 1 0 2H3a1 1 0 0 1-1-1V7Zm16-4a1 1 0 0 1 1-1h26a1 1 0 0 1 1 1v42a1 1 0 0 1-1 1H19a1 1 0 0 1-1-1V3Zm2 1v40h24V4H20Z"/><path fill-rule="evenodd" clip-rule="evenodd" d="M27 12a1 1 0 0 1 1-1h8a1 1 0 1 1 0 2h-8a1 1 0 0 1-1-1Zm0 8a1 1 0 0 1 1-1h8a1 1 0 1 1 0 2h-8a1 1 0 0 1-1-1Zm5 9a3 3 0 1 0 0 6 3 3 0 0 0 0-6Zm-5 3a5 5 0 1 1 10 0 5 5 0 0 1-10 0Z"/></svg>