<svg width="48" height="48" viewBox="0 0 48 48" xmlns="http://www.w3.org/2000/svg" class="icon icon-connection-lg" aria-hidden="true" focusable="false" fill="currentColor"><path fill-rule="evenodd" clip-rule="evenodd" d="M29 10a8 8 0 0 0 .491 2.766l-12.904 6.692a8 8 0 1 0 0 9.083l12.904 6.692a8 8 0 1 0 .922-1.775l-12.903-6.69A7.984 7.984 0 0 0 18 24c0-.973-.174-1.905-.491-2.767l12.904-6.692A8 8 0 1 0 29 10Zm8-6a6 6 0 1 0 0 12 6 6 0 0 0 0-12Zm-5.344 31.27a1.064 1.064 0 0 0 .032-.063 6 6 0 1 1-.033.063ZM15.304 21.193a6 6 0 1 0-10.609 5.613 6 6 0 0 0 10.61-5.613Z"/></svg>