<svg width="48" height="48" viewBox="0 0 48 48" xmlns="http://www.w3.org/2000/svg" class="icon icon-contact-user-lg" aria-hidden="true" focusable="false" fill="currentColor"><path fill-rule="evenodd" clip-rule="evenodd" d="M14 31c0 .55.45 1 1 1h18c.55 0 1-.45 1-1v-2.23c0-2.24-1.44-4.17-3.59-4.8-4.41-1.3-8.55-1.28-12.83-.01a4.965 4.965 0 0 0-3.58 4.8V31Zm2-2.24c0-1.34.86-2.5 2.15-2.88 3.9-1.16 7.65-1.18 11.69.01 1.29.38 2.16 1.54 2.16 2.88V30H16v-1.24ZM30 15c0 3.24-2.62 7-6 7s-6-3.69-6-7 2.69-6 6-6 6 2.76 6 6Zm-2 0c0-2.21-1.79-4-4-4s-4 1.75-4 4 1.85 5 4 5 4-2.79 4-5Z"/><path fill-rule="evenodd" clip-rule="evenodd" d="M2 2c-.55 0-1 .45-1 1v35c0 .55.45 1 1 1h13.59l7.71 7.71c.2.2.45.29.71.29.26 0 .51-.1.71-.29L32.43 39h13.59c.55 0 1-.45 1-1V3c0-.55-.45-1-1-1H2Zm43 35H32c-.27 0-.52.11-.71.29L24 44.58l-7.29-7.29A.99.99 0 0 0 16 37H3V4h42v33Z"/></svg>