<svg width="48" height="48" viewBox="0 0 48 48" xmlns="http://www.w3.org/2000/svg" class="icon icon-cpf-lg" aria-hidden="true" focusable="false" fill="currentColor"><path d="M19.421 4.076a3.97 3.97 0 0 0 3.972 3.972c2.195 0 3.972-1.881 3.972-4.076A3.97 3.97 0 0 0 23.393 0c-2.195 0-3.972 1.881-3.972 4.076Zm6.585 15.574v13.587c0 1.463-1.15 2.717-2.718 2.717-1.463 0-2.717-1.15-2.717-2.717V20.59l-3.45 3.867c-1.044 1.045-2.716 1.15-3.762.105-1.045-1.045-1.15-2.718-.104-3.763l8.466-9.302a2.6 2.6 0 0 1 3.867 0l8.78 9.302c1.045 1.045.94 2.822-.105 3.763a2.65 2.65 0 0 1-3.763 0l-4.494-4.913Z"/><path d="M39.5 18.5c-.314-.314-.314-.627 0-.94.314-.314.616-.314.93 0l6.584 7.42c.314.313.314.94 0 1.15L24.647 47.765c-.313.313-.94.313-1.15 0L1.236 26.13c-.313-.314-.313-.941 0-1.255l7.316-7.42c.314-.314.635-.269.949.045.314.314.314.686 0 1l-7 7 21.5 21 21.5-21-6-7Z"/></svg>