<svg width="48" height="48" viewBox="0 0 48 48" xmlns="http://www.w3.org/2000/svg" class="icon icon-credit-card-lg" aria-hidden="true" focusable="false" fill="currentColor"><path d="M9 32a1 1 0 0 1 1-1h10a1 1 0 1 1 0 2H10a1 1 0 0 1-1-1Zm26-1a1 1 0 1 0 0 2h3a1 1 0 1 0 0-2h-3Z"/><path fill-rule="evenodd" clip-rule="evenodd" d="M1 11c0-2.252 1.748-4 4-4h38c2.252 0 4 1.748 4 4v26c0 2.252-1.748 4-4 4H5c-2.252 0-4-1.748-4-4V11Zm2 0c0-1.148.852-2 2-2h38c1.148 0 2 .852 2 2v4H3v-4Zm0 12v-6h42v6H3Zm0 2v12c0 1.148.852 2 2 2h38c1.148 0 2-.852 2-2V25H3Z"/></svg>