<svg width="48" height="48" viewBox="0 0 48 48" xmlns="http://www.w3.org/2000/svg" class="icon icon-crossroad-lg" aria-hidden="true" focusable="false" fill="currentColor"><path fill-rule="evenodd" clip-rule="evenodd" d="M8.293 14.293A1 1 0 0 1 9 14h15a1 1 0 1 1 0 2H9.414l-3 3 3 3H24a1 1 0 1 1 0 2H9a1 1 0 0 1-.707-.293l-4-4a1 1 0 0 1 0-1.414l4-4ZM28 7a1 1 0 0 1 1-1h10a1 1 0 0 1 .707.293l4 4a1 1 0 0 1 0 1.414l-4 4A1 1 0 0 1 39 16H29a1 1 0 1 1 0-2h9.586l3-3-3-3H29a1 1 0 0 1-1-1Zm0 16a1 1 0 0 1 1-1h10a1 1 0 0 1 .707.293l4 4a1 1 0 0 1 0 1.414l-4 4A1 1 0 0 1 39 32H29a1 1 0 1 1 0-2h9.586l3-3-3-3H29a1 1 0 0 1-1-1ZM17 47a1 1 0 0 1 1-1h12a1 1 0 1 1 0 2H18a1 1 0 0 1-1-1Z"/><path fill-rule="evenodd" clip-rule="evenodd" d="M24 2a1 1 0 0 1 1 1v44a1 1 0 1 1-2 0V3a1 1 0 0 1 1-1Z"/></svg>