<svg width="48" height="48" viewBox="0 0 48 48" xmlns="http://www.w3.org/2000/svg" class="icon icon-deaf-lg" aria-hidden="true" focusable="false" fill="currentColor"><path d="M13.393 6.393A15 15 0 0 1 39 17c0 5.31-1.882 8.277-4.085 11.003-.34.422-.685.835-1.03 1.248-1.86 2.226-3.719 4.452-4.937 8.068-.7 2.076-1.492 4.24-2.817 5.876-1.382 1.703-3.311 2.8-6.13 2.805H20a7.983 7.983 0 0 1-6.452-3.282 1 1 0 1 1 1.616-1.178A5.983 5.983 0 0 0 19.998 44c2.201-.004 3.567-.816 4.579-2.065 1.068-1.317 1.766-3.148 2.475-5.254 1.348-3.998 3.463-6.524 5.333-8.757.335-.4.662-.79.974-1.177C35.4 24.223 37 21.689 37 17a13 13 0 1 0-26 0 1 1 0 1 1-2 0 15 15 0 0 1 4.393-10.607Zm31.314-3.1a1 1 0 0 0-1.414 0l-3 3a1 1 0 0 0 1.414 1.414l3-3a1 1 0 0 0 0-1.414Z"/><path d="M22.409 12.243a5 5 0 0 1 6.503 5.676 1 1 0 1 0 1.964.374A7.001 7.001 0 1 0 17 17.003a1 1 0 0 0 2-.006 5 5 0 0 1 3.409-4.754Zm3.298 11.464a1 1 0 0 0-1.414-1.414l-21 21a1 1 0 1 0 1.414 1.414l21-21Z"/></svg>