<svg width="48" height="48" viewBox="0 0 48 48" xmlns="http://www.w3.org/2000/svg" class="icon icon-deal-lg" aria-hidden="true" focusable="false" fill="currentColor"><path fill-rule="evenodd" clip-rule="evenodd" d="M9 3a6 6 0 1 0 0 12A6 6 0 0 0 9 3ZM5 9a4 4 0 1 1 8 0 4 4 0 0 1-8 0Z"/><path d="M8 18a7 7 0 0 0-7 7v18a1 1 0 0 0 1 1h12a1 1 0 0 0 1-1V31a1 1 0 1 0-2 0v11H3V25a5 5 0 0 1 5-5c1.299 0 2.225.34 3.01.882.819.564 1.52 1.371 2.331 2.395l.438.558c1.51 1.934 3.373 4.319 6.765 6.055a1 1 0 0 0 .912-1.78c-2.985-1.528-4.595-3.584-6.11-5.518-.146-.187-.291-.373-.437-.556-.814-1.029-1.675-2.05-2.763-2.8C11.025 18.461 9.701 18 8 18Zm26.221 5.836c-1.51 1.934-3.372 4.318-6.765 6.054a1 1 0 0 1-.911-1.78c2.984-1.528 4.595-3.584 6.11-5.518.145-.187.29-.373.436-.556.814-1.029 1.675-2.05 2.763-2.8C36.975 18.461 38.3 18 40 18a7 7 0 0 1 7 7v18a1 1 0 0 1-1 1H34a1 1 0 0 1-1-1V31a1 1 0 1 1 2 0v11h10V25a5 5 0 0 0-5-5c-1.298 0-2.225.34-3.01.882-.818.564-1.52 1.371-2.33 2.395-.144.181-.29.368-.439.559Z"/><path fill-rule="evenodd" clip-rule="evenodd" d="M39 3a6 6 0 1 0 0 12 6 6 0 0 0 0-12Zm-4 6a4 4 0 1 1 8 0 4 4 0 0 1-8 0Z"/></svg>