<svg width="48" height="48" viewBox="0 0 48 48" xmlns="http://www.w3.org/2000/svg" class="icon icon-describe-lg" aria-hidden="true" focusable="false" fill="currentColor"><path fill-rule="evenodd" clip-rule="evenodd" d="M11 14a1 1 0 0 1 1-1h24a1 1 0 1 1 0 2H12a1 1 0 0 1-1-1Zm0 10a1 1 0 0 1 1-1h14a1 1 0 1 1 0 2H12a1 1 0 0 1-1-1Z"/><path fill-rule="evenodd" clip-rule="evenodd" d="M6 5a3 3 0 0 0-3 3v21a3 3 0 0 0 3 3h6a1 1 0 0 1 1 1v8.943l12.382-9.73A1 1 0 0 1 26 32h16a3 3 0 0 0 3-3V8a3 3 0 0 0-3-3H6Zm0-2a5 5 0 0 0-5 5v21a5 5 0 0 0 5 5h5v10a1 1 0 0 0 1.618.786L26.346 34H42a5 5 0 0 0 5-5V8a5 5 0 0 0-5-5H6Z"/></svg>