<svg width="48" height="48" viewBox="0 0 48 48" xmlns="http://www.w3.org/2000/svg" class="icon icon-discrimination-lg" aria-hidden="true" focusable="false" fill="currentColor"><path d="M30.6 7.6a6.6 6.6 0 1 1 13.2 0 6.6 6.6 0 0 1-13.2 0Zm14.395 17.67C44.847 21.247 41.398 18 37.2 18c-3.386 0-5.613 1.436-6.837 3.8a8.82 8.82 0 0 0-.842 2.557 8.098 8.098 0 0 0-.12 1.067L29.4 46.42l.01.104c.05.27.295.476.59.476h14.4l.108-.01a.586.586 0 0 0 .492-.57V25.54l-.005-.27Z"/><path fill-rule="evenodd" clip-rule="evenodd" d="M18.595 25.521C18.447 21.358 14.998 18 10.8 18c-3.386 0-5.613 1.485-6.837 3.932a9.346 9.346 0 0 0-.842 2.644A8.54 8.54 0 0 0 3 25.68l.001 20.72.01.108A.6.6 0 0 0 3.6 47H18l.108-.01a.6.6 0 0 0 .492-.59V25.8l-.005-.279Zm-12.86-2.753C6.638 21.028 8.24 20 10.8 20l.232.005c3.083.118 5.568 2.587 5.568 5.585V45H5V25.59l.006-.174c.01-.173.036-.41.086-.695a6.737 6.737 0 0 1 .643-1.953ZM10.8 1a6.6 6.6 0 1 0 0 13.2 6.6 6.6 0 0 0 0-13.2Zm0 2a4.6 4.6 0 1 1 0 9.2 4.6 4.6 0 0 1 0-9.2Z"/></svg>