<svg width="48" height="48" viewBox="0 0 48 48" xmlns="http://www.w3.org/2000/svg" class="icon icon-double-file-lg" aria-hidden="true" focusable="false" fill="currentColor"><path d="M9 2a1 1 0 0 1 1-1h34a1 1 0 0 1 1 1v40a1 1 0 1 1-2 0V3H10a1 1 0 0 1-1-1Z"/><path d="M14 17a1 1 0 1 0 0 2h16a1 1 0 1 0 0-2H14Zm-1 9a1 1 0 0 1 1-1h16a1 1 0 1 1 0 2H14a1 1 0 0 1-1-1Zm1 7a1 1 0 1 0 0 2h8a1 1 0 1 0 0-2h-8Z"/><path fill-rule="evenodd" clip-rule="evenodd" d="M5 8a1 1 0 0 1 1-1h32a1 1 0 0 1 1 1v38a1 1 0 0 1-1 1H6a1 1 0 0 1-1-1V8Zm2 1v36h30V9H7Z"/></svg>