<svg width="48" height="47" viewBox="0 0 48 47" xmlns="http://www.w3.org/2000/svg" class="icon icon-download-lg" aria-hidden="true" focusable="false" fill="currentColor"><path fill-rule="evenodd" clip-rule="evenodd" d="M24 3a1 1 0 0 1 1 1v29a1 1 0 1 1-2 0V4a1 1 0 0 1 1-1Z"/><path fill-rule="evenodd" clip-rule="evenodd" d="M13.293 22.293a1 1 0 0 1 1.414 0L24 31.586l9.293-9.293a1 1 0 0 1 1.414 1.414l-10 10a1 1 0 0 1-1.414 0l-10-10a1 1 0 0 1 0-1.414Z"/><path fill-rule="evenodd" clip-rule="evenodd" d="M4 31a1 1 0 0 1 1 1v8a3 3 0 0 0 3 3h32a3 3 0 0 0 3-3v-8a1 1 0 1 1 2 0v8a5 5 0 0 1-5 5H8a5 5 0 0 1-5-5v-8a1 1 0 0 1 1-1Z"/></svg>