<svg width="48" height="48" viewBox="0 0 48 48" xmlns="http://www.w3.org/2000/svg" class="icon icon-draft-lg" aria-hidden="true" focusable="false" fill="currentColor"><path fill-rule="evenodd" clip-rule="evenodd" d="M24 22a3 3 0 1 0 0 6 3 3 0 0 0 0-6Zm-1 3a1 1 0 1 1 2 0 1 1 0 0 1-2 0Z"/><path fill-rule="evenodd" clip-rule="evenodd" d="M24 11a1 1 0 0 1 .768.36l10 12a1 1 0 0 1 .155 1.025L30.5 35H32a1 1 0 1 1 0 2H16a1 1 0 1 1 0-2h1.5l-4.423-10.615a1 1 0 0 1 .155-1.025l10-12A1 1 0 0 1 24 11Zm-4.333 24-4.51-10.825L24 13.562l8.844 10.613L28.334 35h-8.667Z"/><path fill-rule="evenodd" clip-rule="evenodd" d="M6 1a1 1 0 0 0-1 1v44a1 1 0 0 0 1 1h36a1 1 0 0 0 1-1V2a1 1 0 0 0-1-1H6Zm1 44V3h34v42H7Z"/></svg>