<svg width="48" height="48" viewBox="0 0 48 48" xmlns="http://www.w3.org/2000/svg" class="icon icon-edit-lg" aria-hidden="true" focusable="false" fill="currentColor"><path fill-rule="evenodd" clip-rule="evenodd" d="M2 9a1 1 0 0 1 1-1h16a1 1 0 1 1 0 2H4v34h34V29a1 1 0 1 1 2 0v16a1 1 0 0 1-1 1H3a1 1 0 0 1-1-1V9Zm30.293-1.707a1 1 0 0 1 1.414 0l7 7a1 1 0 0 1-1.414 1.414l-7-7a1 1 0 0 1 0-1.414Z"/><path fill-rule="evenodd" clip-rule="evenodd" d="M37.293 2.293a1 1 0 0 1 1.414 0l7 7a1 1 0 0 1 0 1.414l-22 22a1 1 0 0 1-.42.25l-10 3a1 1 0 0 1-1.245-1.244l3-10a1 1 0 0 1 .25-.42l22-22ZM16.885 25.529l-2.394 7.98 7.98-2.394L43.586 10 38 4.414 16.885 25.53Z"/></svg>