<svg width="48" height="48" viewBox="0 0 48 48" xmlns="http://www.w3.org/2000/svg" class="icon icon-emploi-store-lg" aria-hidden="true" focusable="false" fill="currentColor"><path d="M46.026 14.299c.208-.416.312-.728.312-1.04 0-.044-.002-.087-.005-.13-.012-.25-.024-.479.42-1.012-.104-.208-.415-.52-.83-.831a6.627 6.627 0 0 1-1.04-.624c-.416-.208-1.039-.52-1.87-.727a44.923 44.923 0 0 0-2.91-.623C38.962 9.104 37.61 9 36.053 9c-2.078 0-3.844.208-5.299.623-1.454.416-2.597 1.04-3.532 1.767-.935.83-1.559 1.662-1.974 2.597a8.338 8.338 0 0 0-.624 3.117c0 1.143.312 2.182.728 3.013.52.935 1.039 1.662 1.87 2.286.727.623 1.662 1.143 2.701 1.558a16.53 16.53 0 0 0 3.429.935l4.883.831c.935.208 1.766.416 2.597.624.831.207 1.559.52 2.182.935.623.415 1.143.935 1.455 1.558.311.623.519 1.455.519 2.39 0 1.974-.727 3.324-2.286 4.26-1.558.935-3.636 1.35-6.337 1.35a20.91 20.91 0 0 1-3.74-.312c-1.144-.207-2.079-.519-3.014-.83-.935-.312-1.766-.728-2.39-1.04a10.256 10.256 0 0 1-1.558-.935l-1.454 2.286c.281.169.593.337.935.523.29.157.601.325.935.516.727.416 1.558.831 2.597 1.143 1.04.312 2.182.623 3.429.831 1.247.208 2.597.312 4.156.312 1.974 0 3.74-.208 5.195-.624 1.454-.415 2.7-.935 3.636-1.662 1.039-.727 1.766-1.559 2.182-2.597.52-1.04.727-2.182.727-3.325 0-2.182-.727-3.844-2.182-5.091-1.454-1.247-3.636-2.182-6.545-2.701l-4.987-.935c-1.04-.208-2.078-.416-2.91-.728-.83-.311-1.558-.623-2.181-1.039-.52-.415-1.04-.83-1.35-1.454-.313-.52-.52-1.247-.52-2.078 0-3.533 2.701-5.299 8.311-5.299 1.351 0 2.702.208 3.74.416 1.144.208 2.079.52 2.91.83.707.266 1.264.607 1.735.895l.239.145.393.312c.334.263.598.47.75.623.207-.208.415-.416.623-.727ZM4.26 9.416C1.455 9.416 0 10.87 0 13.57v25.767h22.65v-6.754H7.272v-4.779h14.13c.104-.208.311-.727.52-1.35.207-.728.31-1.351.31-2.182 0-1.143-.31-1.974-.83-2.494-.52-.52-1.455-.83-2.806-.83H7.273v-4.676h14.65c.103-.208.31-.727.519-1.35a7.422 7.422 0 0 0 .311-2.183c0-1.143-.311-1.974-.83-2.493-.52-.52-1.455-.831-2.806-.831H4.26Z"/></svg>