<svg width="48" height="48" viewBox="0 0 48 48" xmlns="http://www.w3.org/2000/svg" class="icon icon-enlarge-lg" aria-hidden="true" focusable="false" fill="currentColor"><path fill-rule="evenodd" clip-rule="evenodd" d="M18.707 29.293a1 1 0 0 1 0 1.414l-14 14a1 1 0 0 1-1.414-1.414l14-14a1 1 0 0 1 1.414 0Zm26-26a1 1 0 0 1 0 1.414l-14 14a1 1 0 0 1-1.414-1.414l14-14a1 1 0 0 1 1.414 0Zm-15.414 26a1 1 0 0 1 1.414 0l14 14a1 1 0 0 1-1.414 1.414l-14-14a1 1 0 0 1 0-1.414Zm-26-26a1 1 0 0 1 1.414 0l14 14a1 1 0 0 1-1.414 1.414l-14-14a1 1 0 0 1 0-1.414Z"/><path fill-rule="evenodd" clip-rule="evenodd" d="M31 4a1 1 0 0 1 1-1h12a1 1 0 0 1 1 1v12a1 1 0 1 1-2 0V5H32a1 1 0 0 1-1-1ZM4 31a1 1 0 0 1 1 1v11h11a1 1 0 1 1 0 2H4a1 1 0 0 1-1-1V32a1 1 0 0 1 1-1ZM3 4a1 1 0 0 1 1-1h12a1 1 0 1 1 0 2H5v11a1 1 0 1 1-2 0V4Zm41 27a1 1 0 0 1 1 1v12a1 1 0 0 1-1 1H32a1 1 0 1 1 0-2h11V32a1 1 0 0 1 1-1Z"/></svg>