<svg width="48" height="48" viewBox="0 0 48 48" xmlns="http://www.w3.org/2000/svg" class="icon icon-espace-perso" aria-hidden="true" focusable="false" fill="currentColor"><path fill-rule="evenodd" clip-rule="evenodd" d="M21.18 13.441c.575.536.861 1.18.861 1.932l.002-.001c0 .74-.276 1.375-.83 1.906-.547.527-1.212.801-1.996.828h-.026l-.068.005-.01.001-.039-.006h-1.912v3.14a.736.736 0 0 1-.222.541.754.754 0 0 1-.55.228.73.73 0 0 1-.54-.228.732.732 0 0 1-.229-.541v-7.838c0-.213.075-.393.228-.541a.73.73 0 0 1 .542-.228h2.72c.81 0 1.5.267 2.07.802Zm-2.024 3.126a1.43 1.43 0 0 0 .946-.358c.261-.236.392-.513.392-.836 0-.325-.135-.607-.404-.841a1.45 1.45 0 0 0-.98-.353h-1.95v2.388h1.996Z"/><path d="M5.754 22.015a.73.73 0 0 0 .541-.228.73.73 0 0 0 .228-.541.751.751 0 0 0-.228-.55.73.73 0 0 0-.541-.228H1.806V18.1H4.65a.76.76 0 0 0 .55-.222.748.748 0 0 0 .227-.547.754.754 0 0 0-.228-.55.76.76 0 0 0-.549-.221H1.806v-2.37l3.948.013a.73.73 0 0 0 .541-.228.73.73 0 0 0 .228-.541.76.76 0 0 0-.222-.549.751.751 0 0 0-.549-.228l-4.725-.013a.73.73 0 0 0-.541.228.73.73 0 0 0-.228.547v7.825c0 .212.076.393.228.542a.73.73 0 0 0 .541.228h4.727Zm41.222 0H42.25a.727.727 0 0 1-.542-.228.726.726 0 0 1-.228-.541V13.42a.73.73 0 0 1 .228-.547.727.727 0 0 1 .542-.228l4.725.013a.766.766 0 0 1 .771.777.731.731 0 0 1-.23.542.73.73 0 0 1-.541.227l-3.948-.013v2.368h2.844c.214 0 .396.074.549.223a.754.754 0 0 1 .228.549.748.748 0 0 1-.228.547.755.755 0 0 1-.55.222h-2.843v2.368h3.948a.73.73 0 0 1 .541.229c.152.152.23.334.23.549a.731.731 0 0 1-.23.541.73.73 0 0 1-.541.228Z"/><path fill-rule="evenodd" clip-rule="evenodd" d="m23.685 22.017-.142-.059h-.003a.764.764 0 0 1-.419-.418.764.764 0 0 1 0-.587l.828-1.99v-.008l2.401-5.794a.437.437 0 0 1 .034-.065l.013-.033c.014-.018.023-.03.027-.033 0-.006.006-.016.02-.033l.027-.027c0-.004.006-.012.019-.025.017-.018.026-.029.026-.033l.006-.005.019-.015a.127.127 0 0 1 .033-.025c-.003 0 .004-.006.027-.02l.024-.019a.104.104 0 0 1 .008-.006l.025-.02a.135.135 0 0 1 .04-.02.269.269 0 0 1 .032-.013l.015-.006c.021-.012.027-.016.018-.012l.009-.004.018-.01.018-.004a.155.155 0 0 0 .027-.009.246.246 0 0 0 .046-.013l.026-.006a.26.26 0 0 0 .046-.008l.034-.006h.15l.038.006.034.008c.009 0 .024.003.044.012.027.004.037.007.027.007a.51.51 0 0 1 .144.059c-.004-.005.005 0 .027.012a.344.344 0 0 1 .04.027l.026.02c.012.007.02.014.026.019l.008.006c.003 0 .013.007.025.02a.137.137 0 0 0 .032.025c0 .004.005.012.019.025.018.018.027.029.027.033l.02.027c.016.018.025.029.025.033 0 .005.006.015.02.033.013.018.019.029.019.033a.366.366 0 0 1 .032.065l2.401 5.794v.008l.83 1.99a.764.764 0 0 1 0 .587.754.754 0 0 1-.419.418.765.765 0 0 1-.293.059c-.345 0-.58-.16-.712-.477l-.627-1.514h-3.777l-.627 1.514c-.13.316-.367.477-.711.477h-.15Zm4.635-3.525-1.26-3.027-1.252 3.027h2.512Z"/><path d="M36.599 22.017a4.535 4.535 0 0 0 3.145-1.214.737.737 0 0 0 .248-.535.743.743 0 0 0-.203-.555.732.732 0 0 0-.535-.254.738.738 0 0 0-.554.203 3.025 3.025 0 0 1-2.103.808 2.99 2.99 0 0 1-2.197-.913 2.996 2.996 0 0 1-.916-2.2c0-.86.305-1.597.916-2.204a2.993 2.993 0 0 1 2.197-.914c.71 0 1.343.215 1.899.645a.76.76 0 0 0 .575.15.725.725 0 0 0 .508-.294.762.762 0 0 0-.138-1.083 4.545 4.545 0 0 0-2.844-.966c-1.282 0-2.382.456-3.294 1.371-.909.91-1.363 2.007-1.363 3.296 0 1.282.454 2.382 1.363 3.295.914.91 2.012 1.365 3.294 1.365l.002-.001ZM10.85 20.48c.41 0 .759-.129 1.05-.385h.004c.297-.252.453-.566.471-.94a.807.807 0 0 0-.241-.605c-.27-.288-.722-.437-1.358-.444h-.033c-1.066-.018-1.882-.326-2.448-.921-.465-.497-.682-1.073-.652-1.73a2.763 2.763 0 0 1 .933-1.984c.588-.539 1.293-.809 2.115-.809.71 0 1.345.152 1.905.456.673.366 1.102.897 1.285 1.593a.727.727 0 0 1-.084.58.72.72 0 0 1-.463.353.75.75 0 0 1-.58-.078.74.74 0 0 1-.353-.47c-.08-.292-.294-.52-.647-.685a2.49 2.49 0 0 0-1.063-.216c-.41 0-.762.13-1.058.386-.292.258-.445.57-.463.94a.829.829 0 0 0 .241.612c.269.284.722.43 1.358.438h.031c1.065.017 1.881.326 2.447.926.465.492.682 1.068.652 1.73-.036.78-.346 1.438-.933 1.976a3.03 3.03 0 0 1-2.115.81c-.708 0-1.344-.153-1.905-.457-.673-.365-1.102-.896-1.285-1.592a.756.756 0 0 1 .078-.58.736.736 0 0 1 .47-.353.755.755 0 0 1 .58.078.74.74 0 0 1 .352.47c.078.292.291.52.64.685.313.144.668.216 1.069.216Z"/><path fill-rule="evenodd" clip-rule="evenodd" d="M3.549 27.047a1.86 1.86 0 0 0-1.321-.513H.49a.462.462 0 0 0-.345.146.462.462 0 0 0-.145.345v5.002c0 .137.048.252.145.347.095.097.21.145.345.145a.475.475 0 0 0 .35-.145.472.472 0 0 0 .143-.347v-2.002h1.219l.026.003h.008l.042-.003h.017c.5-.017.924-.194 1.273-.53.353-.339.528-.744.528-1.216 0-.48-.183-.891-.549-1.233l.002.001Zm-.688 1.766a.918.918 0 0 1-.605.23H.981v-1.525h1.245a.92.92 0 0 1 .626.225.688.688 0 0 1 .009 1.07Z"/><path d="M8.622 27.535H8.62v-.005l-2.515-.009v1.51H7.92a.48.48 0 0 1 .35.145.48.48 0 0 1 .145.35.48.48 0 0 1-.146.349.469.469 0 0 1-.35.144H6.105v1.512h2.518c.138 0 .252.05.347.145a.475.475 0 0 1 .145.35.463.463 0 0 1-.145.346.461.461 0 0 1-.347.146H5.607a.463.463 0 0 1-.346-.146.469.469 0 0 1-.146-.346v-4.992c0-.138.05-.255.146-.35a.466.466 0 0 1 .346-.145l3.015.009a.488.488 0 0 1 .492.495.463.463 0 0 1-.145.346.472.472 0 0 1-.347.146Z"/><path fill-rule="evenodd" clip-rule="evenodd" d="M14.098 28.277c0 .366-.114.698-.342.995h.001a1.775 1.775 0 0 1-.865.628l.945 1.916c.058.12.066.243.02.37a.47.47 0 0 1-.245.284.508.508 0 0 1-.218.05.453.453 0 0 1-.436-.275l-1.104-2.235h-.846v1.986a.467.467 0 0 1-.146.345.467.467 0 0 1-.345.144.475.475 0 0 1-.346-.144.476.476 0 0 1-.143-.345v-4.964a.47.47 0 0 1 .143-.346.473.473 0 0 1 .346-.146h1.724c.513 0 .95.17 1.31.509.364.337.547.748.547 1.228Zm-1.825.753a.927.927 0 0 0 .6-.23h-.002a.682.682 0 0 0-.012-1.062.927.927 0 0 0-.62-.22h-1.232v1.512h1.266Z"/><path d="M16.877 27.532c-.26 0-.485.08-.674.244l-.001.002a.837.837 0 0 0-.296.6.526.526 0 0 0 .155.391c.171.18.46.273.866.28h.019c.681.01 1.201.206 1.563.59.297.312.436.681.417 1.103-.021.496-.22.918-.595 1.263a1.934 1.934 0 0 1-1.349.516c-.451 0-.858-.098-1.215-.293-.43-.232-.704-.571-.82-1.015a.478.478 0 0 1 .349-.594.485.485 0 0 1 .596.35c.049.184.186.33.407.436.2.091.428.138.683.138a.974.974 0 0 0 .67-.246.807.807 0 0 0 .3-.599.52.52 0 0 0-.154-.387c-.172-.183-.462-.277-.867-.283h-.02c-.68-.012-1.201-.209-1.563-.588a1.456 1.456 0 0 1-.415-1.104c.023-.5.22-.921.595-1.265a1.917 1.917 0 0 1 1.349-.517 2.5 2.5 0 0 1 1.216.292c.43.233.704.572.82 1.016a.467.467 0 0 1-.055.37.46.46 0 0 1-.295.224.485.485 0 0 1-.594-.35c-.05-.186-.189-.331-.413-.436a1.598 1.598 0 0 0-.679-.138Z"/><path fill-rule="evenodd" clip-rule="evenodd" d="M20.573 27.413a2.881 2.881 0 0 1 2.111-.873c.824 0 1.529.291 2.115.873.584.587.875 1.292.875 2.117s-.291 1.528-.875 2.112a2.888 2.888 0 0 1-2.114.877 2.88 2.88 0 0 1-2.112-.877 2.87 2.87 0 0 1-.88-2.112c0-.825.293-1.53.88-2.117Zm2.112 4.124c.553 0 1.026-.197 1.42-.591.393-.392.588-.863.588-1.416 0-.554-.195-1.026-.588-1.42a1.945 1.945 0 0 0-1.42-.587 1.93 1.93 0 0 0-1.416.586 1.94 1.94 0 0 0-.591 1.42c0 .553.196 1.025.59 1.417.392.393.863.59 1.417.59Z"/><path d="M30.9 26.693a.478.478 0 0 1 .351-.145l.003-.006c.135 0 .25.05.345.145.098.095.145.21.145.347v4.996c0 .006 0 .014-.003.026v.02c0 .005 0 .01-.002.015a.235.235 0 0 1-.002.01c0 .012-.002.02-.004.025l-.003.021c-.002.012-.005.018-.006.022l-.002.004c0 .004-.003.01-.009.02a.178.178 0 0 1-.007.024v.002l-.01.021-.013.023-.002.005-.003.008a.17.17 0 0 0-.006.01l-.013.014-.003.004-.002.004-.013.018-.012.016a.056.056 0 0 0-.01.01l-.003.004-.005.004c-.008.01-.012.017-.015.017l-.012.011-.006.005a.09.09 0 0 1-.021.017l.005-.004-.003.002-.007.005-.003.004a.417.417 0 0 1-.063.042h-.004a.428.428 0 0 1-.066.03l-.009.005a.269.269 0 0 1-.07.016l-.014.005a.593.593 0 0 1-.134 0l-.012-.002a.14.14 0 0 1-.03-.007l.001.002s-.003 0-.008-.003l-.009-.004a.193.193 0 0 1-.033-.009l-.01-.004-.007-.003a.207.207 0 0 1-.034-.014c-.005 0-.01-.003-.015-.009l-.022-.009-.008-.003-.009-.006-.005-.003-.004-.003a.142.142 0 0 0-.007-.005l-.003-.002a.198.198 0 0 1-.018-.014c-.01-.004-.015-.01-.017-.012l-.014-.012a.452.452 0 0 1-.025-.022l-.005-.005v-.003l-.016-.016s-.003-.006-.012-.017h-.005v-.004l-2.993-3.852v3.552c0 .136-.05.252-.146.346a.466.466 0 0 1-.346.146.465.465 0 0 1-.345-.146.463.463 0 0 1-.146-.346v-4.988a.47.47 0 0 1 .091-.283.48.48 0 0 1 .242-.179.476.476 0 0 1 .546.162l2.994 3.858V27.04c0-.137.048-.252.141-.347Z"/><path fill-rule="evenodd" clip-rule="evenodd" d="M37.498 26.548a.475.475 0 0 0-.35.145.477.477 0 0 0-.14.347v3.556l-2.996-3.858a.478.478 0 0 0-.544-.162.48.48 0 0 0-.242.179.47.47 0 0 0-.091.283v4.988c0 .136.048.252.145.346.095.098.21.146.347.146a.458.458 0 0 0 .345-.146.463.463 0 0 0 .145-.346v-3.552l2.996 3.852v.004h.004c.01.01.014.017.014.017l.016.016v.003l.003.005c.01.012.023.022.038.034l.003.002.002.002a.073.073 0 0 0 .006.005c.002 0 .003.002.005.003l.018.014.01.007a.133.133 0 0 1 .017.012.17.17 0 0 1 .03.012c.006.006.01.01.017.01l.033.013a.276.276 0 0 0 .053.017l.006.002c.008.004.011.005.01.002a.132.132 0 0 0 .028.006l.012.003c.01.003.015.003.01 0a.574.574 0 0 0 .125 0l.012-.005a.284.284 0 0 0 .07-.016l.01-.005a.428.428 0 0 0 .066-.03h.004c.02-.01.04-.024.063-.042l.006-.004.005-.003.002-.002a.069.069 0 0 0 .016-.015l.016-.016c.003 0 .01-.006.017-.017l.018-.018.013-.016a.068.068 0 0 0 .015-.026l.014-.013.006-.012a.339.339 0 0 0 .007-.012l.014-.023.007-.02a.077.077 0 0 0 .01-.026.063.063 0 0 0 .008-.021.08.08 0 0 0 .008-.02l.001-.006.003-.02c.005-.007.005-.014.005-.026.003-.01.003-.018.003-.024v-.021a.113.113 0 0 0 .004-.026v-4.996a.46.46 0 0 0-.147-.347.466.466 0 0 0-.345-.145l-.006.006Zm.31 5.862.003-.002c.003-.003.002-.002-.004.002Z"/><path d="M42.886 27.535h-.004l.002-.005-2.516-.009v1.51h1.816c.137 0 .254.049.35.145a.469.469 0 0 1 .145.35.467.467 0 0 1-.145.349.473.473 0 0 1-.35.144h-1.816v1.512h2.52a.47.47 0 0 1 .346.145.475.475 0 0 1 .146.35.463.463 0 0 1-.146.346.463.463 0 0 1-.346.146h-3.015a.458.458 0 0 1-.345-.146.46.46 0 0 1-.147-.346v-4.992c0-.138.048-.255.147-.35a.458.458 0 0 1 .345-.145l3.015.009c.135 0 .252.05.35.145a.482.482 0 0 1 .14.35.463.463 0 0 1-.145.346.475.475 0 0 1-.346.146Zm4.973 4.147a.483.483 0 0 0-.35-.145h-2.203V27.04a.463.463 0 0 0-.145-.347.466.466 0 0 0-.346-.145.466.466 0 0 0-.346.145.469.469 0 0 0-.145.347v4.987a.47.47 0 0 0 .145.347c.094.097.21.145.346.145h2.695a.475.475 0 0 0 .349-.145.477.477 0 0 0 .141-.347.473.473 0 0 0-.141-.345Z"/></svg>