<svg width="48" height="48" viewBox="0 0 48 48" xmlns="http://www.w3.org/2000/svg" class="icon icon-euro-lg" aria-hidden="true" focusable="false" fill="currentColor"><path d="M15 24a11 11 0 0 1 .414-3H24a1 1 0 1 0 0-2h-7.8a11 11 0 0 1 9.8-6c2.005 0 3.88.535 5.498 1.47a1 1 0 0 0 1-1.732A12.948 12.948 0 0 0 26 11c-5.407 0-10.044 3.302-12.004 8H10a1 1 0 1 0 0 2h3.348A13.036 13.036 0 0 0 13 24c0 1.032.12 2.037.348 3H10a1 1 0 1 0 0 2h3.996c1.96 4.698 6.597 8 12.004 8 2.366 0 4.588-.633 6.501-1.74a1 1 0 0 0-1.002-1.731A10.934 10.934 0 0 1 26 35a11 11 0 0 1-9.8-6H24a1 1 0 1 0 0-2h-8.586A11.01 11.01 0 0 1 15 24Z"/><path fill-rule="evenodd" clip-rule="evenodd" d="M24 1C11.297 1 1 11.297 1 24s10.297 23 23 23 23-10.297 23-23S36.703 1 24 1ZM3 24C3 12.402 12.402 3 24 3s21 9.402 21 21-9.402 21-21 21S3 35.598 3 24Z"/></svg>