<svg width="48" height="48" viewBox="0 0 48 48" xmlns="http://www.w3.org/2000/svg" class="icon icon-excel-lg" aria-hidden="true" focusable="false" fill="currentColor"><path d="M30.01 33.615c0 .487-.124.919-.371 1.297-.247.378-.604.672-1.07.88-.464.21-1.011.315-1.637.315-.523 0-.961-.037-1.316-.11a4.833 4.833 0 0 1-1.106-.384v-1.891c.405.208.825.37 1.262.486.437.116.838.174 1.203.174.315 0 .546-.054.693-.163a.503.503 0 0 0 .22-.422.473.473 0 0 0-.088-.282 1.046 1.046 0 0 0-.285-.244c-.13-.082-.48-.251-1.044-.505-.512-.232-.896-.458-1.152-.677a2.075 2.075 0 0 1-.57-.752 2.485 2.485 0 0 1-.185-1.004c0-.724.263-1.288.79-1.692.527-.404 1.25-.606 2.17-.606.813 0 1.642.188 2.487.563l-.65 1.638c-.734-.336-1.368-.504-1.901-.504-.276 0-.476.048-.602.145a.438.438 0 0 0-.188.359c0 .154.08.292.239.414.159.122.59.344 1.297.666.677.305 1.146.63 1.41.98.262.35.394.789.394 1.319ZM15.137 36h2.455l-2.675-3.852 2.487-4.001h-2.422l-1.364 2.428-1.418-2.428H9.847l2.449 3.835L9.69 36h2.4l1.515-2.455L15.136 36Zm3.336-7.853V36h5.146v-1.713h-3.024v-6.14h-2.122ZM35.843 36h2.455l-2.675-3.852 2.487-4.001h-2.422l-1.364 2.428-1.418-2.428h-2.353l2.449 3.835L30.397 36h2.401l1.514-2.455L35.843 36Z"/><path fill-rule="evenodd" clip-rule="evenodd" d="M7 1a1 1 0 0 0-1 1v20H2a1 1 0 0 0-1 1v18a1 1 0 0 0 1 1h4v4a1 1 0 0 0 1 1h34a1 1 0 0 0 1-1v-4h4a1 1 0 0 0 1-1V23a1 1 0 0 0-1-1h-4v-8c0-.02 0-.04-.002-.06a1 1 0 0 0-.29-.647l-12-12-.012-.01A.997.997 0 0 0 29 1H7Zm33 21v-7H29a1 1 0 0 1-1-1V3H8v19h32Zm5 18V24H3v16h42ZM8 42h32v3H8v-3ZM30 4.414V13h8.586L30 4.414Z"/></svg>