<svg width="48" height="48" viewBox="0 0 48 48" xmlns="http://www.w3.org/2000/svg" class="icon icon-exchange-lg" aria-hidden="true" focusable="false" fill="currentColor"><path fill-rule="evenodd" clip-rule="evenodd" d="M17 7c0 3.24-2.62 7-6 7s-6-3.69-6-7 2.69-6 6-6 6 2.76 6 6Zm-2 0c0-2.21-1.79-4-4-4S7 4.75 7 7s1.85 5 4 5 4-2.79 4-5Z"/><path d="m31.29 15.71-6-6 .01.02a1.004 1.004 0 0 1 0-1.42l6-6a.996.996 0 1 1 1.41 1.41l-4.29 4.29h5.59c4.96 0 9 4.04 9 9v1c0 .55-.45 1-1 1s-1-.45-1-1v-1c0-3.86-3.14-7-7-7h-5.59l4.29 4.29c.39.39.39 1.02 0 1.41-.2.19-.45.29-.71.29-.26 0-.51-.09-.71-.29ZM22.7 38.29c.1.1.17.21.22.33l.01-.02a1 1 0 0 1-.22 1.09l-6 6c-.2.19-.45.29-.71.29a.996.996 0 0 1-.71-1.7l4.29-4.29h-5.59c-4.96 0-9-4.04-9-9v-1c0-.55.45-1 1-1s1 .45 1 1v1c0 3.86 3.14 7 7 7h5.59l-4.29-4.29a.996.996 0 1 1 1.41-1.41l6 6Z"/><path fill-rule="evenodd" clip-rule="evenodd" d="M21 23v-2.23c0-2.24-1.44-4.17-3.59-4.8-4.41-1.3-8.56-1.28-12.83-.01A4.965 4.965 0 0 0 1 20.76V23c0 .55.45 1 1 1h18c.55 0 1-.45 1-1Zm-2-1H3v-1.24c0-1.34.86-2.5 2.15-2.88 3.9-1.16 7.65-1.18 11.69.01 1.29.38 2.16 1.54 2.16 2.88V22Zm24.41 16.97c-4.41-1.3-8.55-1.28-12.83-.01a4.965 4.965 0 0 0-3.58 4.8V46c0 .55.45 1 1 1h18c.55 0 1-.45 1-1v-2.23c0-2.24-1.44-4.17-3.59-4.8Zm1.59 4.8V45H29v-1.24c0-1.34.86-2.5 2.15-2.88 3.9-1.16 7.65-1.18 11.69.01 1.29.38 2.16 1.54 2.16 2.88ZM31 30c0-3.31 2.69-6 6-6s6 2.76 6 6-2.62 7-6 7-6-3.69-6-7Zm2 0c0 2.25 1.85 5 4 5s4-2.79 4-5-1.79-4-4-4-4 1.75-4 4Z"/></svg>