<svg width="48" height="48" viewBox="0 0 48 48" xmlns="http://www.w3.org/2000/svg" class="icon icon-export-resume-lg" aria-hidden="true" focusable="false" fill="currentColor"><path d="M7 1h9a1 1 0 1 1 0 2H7v42h34V28a1 1 0 0 1 2 0v17a2 2 0 0 1-2 2H7a2 2 0 0 1-2-2V3a2 2 0 0 1 2-2Z"/><path d="M28 1a1 1 0 1 0 0 2h11.586L27.293 15.293a1 1 0 0 0 1.414 1.414L41 4.414V16a1 1 0 1 0 2 0V2a1 1 0 0 0-1-1H28Z"/><path fill-rule="evenodd" clip-rule="evenodd" d="M13 11a1 1 0 0 0-1 1v9a1 1 0 0 0 1 1h9a1 1 0 0 0 1-1v-9a1 1 0 0 0-1-1h-9Zm1 9v-7h7v7h-7Z"/><path d="M12 28a1 1 0 0 1 1-1h22a1 1 0 1 1 0 2H13a1 1 0 0 1-1-1Zm1 7a1 1 0 1 0 0 2h22a1 1 0 1 0 0-2H13Z"/></svg>