<svg width="48" height="48" viewBox="0 0 48 48" xmlns="http://www.w3.org/2000/svg" class="icon icon-eye-lg" aria-hidden="true" focusable="false" fill="currentColor"><path fill-rule="evenodd" clip-rule="evenodd" d="M24 14c-5.523 0-10 4.477-10 10s4.477 10 10 10 10-4.477 10-10-4.477-10-10-10Zm-8 10a8 8 0 1 1 16 0 8 8 0 0 1-16 0Z"/><path fill-rule="evenodd" clip-rule="evenodd" d="M24 8c-5.887 0-10.885 2.673-14.683 5.738-3.802 3.067-6.48 6.587-7.752 8.435l-.002.002a3.219 3.219 0 0 0 .009 3.649l.001.002c1.282 1.844 3.98 5.364 7.787 8.432C13.163 37.323 18.154 40 24 40c5.797 0 10.777-2.674 14.584-5.734 3.811-3.064 6.53-6.581 7.828-8.428l.002-.002a3.215 3.215 0 0 0 .008-3.672l-.001-.003c-1.289-1.85-3.988-5.367-7.794-8.43C34.825 10.67 29.84 8 24 8ZM3.213 23.306c1.214-1.763 3.766-5.112 7.36-8.012C14.17 12.392 18.734 10 24 10c5.214 0 9.768 2.387 13.373 5.289 3.6 2.898 6.174 6.246 7.406 8.014a1.215 1.215 0 0 1-.004 1.386c-1.241 1.767-3.836 5.117-7.444 8.018C33.717 35.612 29.169 38 24 38c-5.221 0-9.78-2.393-13.386-5.299-3.602-2.902-6.174-6.254-7.399-8.015a1.22 1.22 0 0 1-.003-1.38Z"/></svg>