<svg width="48" height="48" viewBox="0 0 48 48" xmlns="http://www.w3.org/2000/svg" class="icon icon-eye-close-lg" aria-hidden="true" focusable="false" fill="currentColor"><path fill-rule="evenodd" clip-rule="evenodd" d="M3.985 45a1.025 1.025 0 0 1-.705-.29.996.996 0 0 1 0-1.41l7.779-7.781a39.328 39.328 0 0 1-9.49-9.699 3.242 3.242 0 0 1 0-3.65C4.5 17.91 12.55 8 24 8c4.01.075 7.87 1.224 11.24 3.333l8.04-8.043a.996.996 0 1 1 1.41 1.41l-8.484 8.486a1.001 1.001 0 0 1-.262.263l-4.816 4.817a1.011 1.011 0 0 1-.14.14l-12.597 12.6a1.01 1.01 0 0 1-.104.104l-4.89 4.892a.952.952 0 0 1-.17.17L4.69 44.71a.981.981 0 0 1-.705.29Zm12.263-14.672-3.754 3.755A37.637 37.637 0 0 1 3.21 24.69c-.28-.41-.28-.97 0-1.38C5.36 20.19 13.2 10 23.98 10.01a19.884 19.884 0 0 1 9.802 2.78l-3.466 3.467c-3.924-3.212-9.735-2.988-13.396.673-3.661 3.662-3.885 9.474-.672 13.398Zm1.428-1.428 11.222-11.224c-3.136-2.438-7.678-2.216-10.558.664-2.88 2.88-3.101 7.43-.664 10.56Z"/><path d="M3.985 45h.005-.01.005ZM24 40c-2.16 0-4.29-.36-6.33-1.05-.52-.18-.8-.75-.63-1.27.18-.52.74-.8 1.27-.63 1.84.62 3.75.94 5.69.95 10.6 0 18.58-10.19 20.77-13.31.29-.41.29-.97 0-1.39a40.671 40.671 0 0 0-5.73-6.57.988.988 0 0 1-.05-1.41.988.988 0 0 1 1.41-.05c2.24 2.07 4.26 4.39 6.01 6.89.76 1.1.76 2.58 0 3.67C43.42 30.09 35.25 40 24 40Z"/><path d="M21.77 33.75c.72.17 1.47.25 2.22.25l.02-.01c.74 0 1.49-.09 2.21-.25 5.38-1.22 8.76-6.59 7.54-11.97a.995.995 0 0 0-1.2-.75c-.53.13-.87.66-.75 1.2.97 4.3-1.74 8.6-6.04 9.58a7.88 7.88 0 0 1-3.55 0c-.54-.12-1.07.21-1.2.75-.13.54.21 1.08.75 1.2Z"/></svg>