<svg width="48" height="48" viewBox="0 0 48 48" xmlns="http://www.w3.org/2000/svg" class="icon icon-faq-lg" aria-hidden="true" focusable="false" fill="currentColor"><path d="M44.104 5.563A5.328 5.328 0 0 0 40.334 4h-32A5.335 5.335 0 0 0 3 9.333v21.334A5.335 5.335 0 0 0 8.333 36h8.709l6.266 7.52a1.335 1.335 0 0 0 2.048 0L31.624 36h8.71a5.34 5.34 0 0 0 3.77-1.563c1-1 1.563-2.36 1.563-3.77V9.333c0-1.413-.563-2.77-1.563-3.77ZM43 30.667a2.67 2.67 0 0 1-2.667 2.667H31c-.395 0-.77.175-1.027.48l-5.64 6.77-5.642-6.77a1.335 1.335 0 0 0-1.024-.48H8.333a2.67 2.67 0 0 1-2.667-2.667V9.333c0-.706.28-1.386.782-1.885a2.675 2.675 0 0 1 1.885-.781h32c.71 0 1.387.28 1.886.781.498.501.781 1.179.781 1.885v21.334ZM16.227 18.939h-5.419v-4.006h6.213v-1.885H8.47v13.461h2.339v-5.704h5.419V18.94Zm4.752-5.891-5.086 13.461h2.432l1.091-3.136h5.216l1.104 3.136h2.437L23.08 13.045l-2.101.003Zm-.907 8.443 1.952-5.587 1.95 5.587h-3.902ZM39.6 23.445c.4-.936.61-2.04.61-3.314v-.75c-.005-1.314-.245-2.464-.709-3.453-.464-.99-1.114-1.75-1.965-2.275-.85-.525-1.83-.789-2.939-.789-1.088 0-2.058.267-2.912.8-.842.533-1.501 1.301-1.962 2.307-.467 1.002-.696 2.162-.696 3.474v.76c.005 1.288.24 2.424.709 3.411.47.99 1.125 1.75 1.979 2.28.848.53 1.826.803 2.906.803.432 0 .835-.043 1.208-.126l2.87 2.267 1.514-1.365-2.312-1.808c.728-.547 1.291-1.286 1.699-2.222Zm-1.747-3.314c0 1.514-.277 2.669-.834 3.458-.56.79-1.358 1.182-2.398 1.182-1.032 0-1.832-.406-2.394-1.23-.571-.818-.848-1.957-.848-3.41v-.787c.01-1.443.296-2.56.866-3.352.576-.792 1.363-1.19 2.368-1.19 1.038 0 1.835.39 2.4 1.174.568.784.843 1.933.843 3.448v.707h-.003Z"/></svg>