<svg width="48" height="48" viewBox="0 0 48 48" xmlns="http://www.w3.org/2000/svg" class="icon icon-fax-lg" aria-hidden="true" focusable="false" fill="currentColor"><path fill-rule="evenodd" clip-rule="evenodd" d="M9.371 2c-.559 0-1.012.453-1.012 1.012v41.796c0 .56.453 1.012 1.012 1.012h12.54c.558 0 1.011-.453 1.011-1.012V3.012C22.922 2.453 22.47 2 21.91 2H9.371Zm1.013 41.796V4.024h10.514v39.772H10.384Z"/><path d="M5.192 5.135A5.204 5.204 0 0 0 0 10.326v31.37l.012.137.004.022c.086.472.499.83.996.83h4.202l.137-.012.022-.004c.473-.085.831-.498.831-.996v-.022l-.012-.137-.004-.022a1.012 1.012 0 0 0-.996-.83H2.024v-30.33l.006-.186a3.18 3.18 0 0 1 3.162-2.988 1.012 1.012 0 1 0 0-2.024Zm37.616 0h-16.74l-.138.012-.022.004a1.012 1.012 0 0 0 .182 2.008H42.8l.186.005a3.18 3.18 0 0 1 2.988 3.162v30.335H26.068l-.138.012-.022.004a1.012 1.012 0 0 0 .182 2.009h20.92l.137-.013.022-.004a1.01 1.01 0 0 0 .83-.996L48 10.326l-.005-.232v-.01a5.205 5.205 0 0 0-5.187-4.95Z"/><path d="M29.224 22.898h-2.111l-.138.012-.022.004a1.012 1.012 0 0 0 .182 2.008h2.111l.138-.012.022-.004a1.012 1.012 0 0 0-.182-2.008Zm6.27 0h-2.112l-.138.012-.021.004a1.012 1.012 0 0 0 .181 2.008h2.112l.137-.012.022-.004a1.012 1.012 0 0 0-.181-2.008Zm6.269 0h-2.111l-.138.012-.022.004a1.012 1.012 0 0 0 .181 2.008h2.112l.138-.012.021-.004a1.012 1.012 0 0 0-.18-2.008Zm-12.539 6.269h-2.111l-.138.013-.022.004a1.012 1.012 0 0 0 .182 2.008h2.111l.138-.013.022-.003a1.012 1.012 0 0 0-.182-2.009Zm6.27 0h-2.112l-.138.013-.021.004a1.012 1.012 0 0 0 .181 2.008h2.112l.137-.013.022-.003a1.012 1.012 0 0 0-.181-2.009Zm6.269 0h-2.111l-.138.013-.022.004a1.012 1.012 0 0 0 .181 2.008h2.112l.138-.013.021-.003a1.012 1.012 0 0 0-.18-2.009Zm-12.539 6.27h-2.111l-.138.012-.022.004a1.012 1.012 0 0 0 .182 2.008h2.111l.138-.012.022-.004a1.012 1.012 0 0 0-.182-2.008Zm6.27 0h-2.112l-.138.012-.021.004a1.012 1.012 0 0 0 .181 2.008h2.112l.137-.012.022-.004a1.012 1.012 0 0 0-.181-2.008Zm6.269 0h-2.112l-.137.012-.022.004a1.012 1.012 0 0 0 .181 2.008h2.112l.138-.012.021-.004a1.012 1.012 0 0 0-.18-2.008Z"/></svg>