<svg width="48" height="48" viewBox="0 0 48 48" xmlns="http://www.w3.org/2000/svg" class="icon icon-file-refresh-lg" aria-hidden="true" focusable="false" fill="currentColor"><path d="M24 23a8.002 8.002 0 0 0-7.17 4.445 1 1 0 0 1-1.79-.89A10.002 10.002 0 0 1 24 21a9.814 9.814 0 0 1 7 2.909V22a1 1 0 1 1 2 0v4.968A1.002 1.002 0 0 1 31.98 28H27a1 1 0 1 1 0-2h3.188c-1.454-1.834-3.668-3-6.188-3Zm8.96 10.445a1 1 0 1 0-1.79-.89A8 8 0 0 1 24 37a7.843 7.843 0 0 1-6.187-3H21a1 1 0 1 0 0-2h-4.979a.995.995 0 0 0-.82.399A.995.995 0 0 0 15 33v5a1 1 0 1 0 2 0v-1.91A9.814 9.814 0 0 0 24 39a10 10 0 0 0 8.96-5.555Z"/><path fill-rule="evenodd" clip-rule="evenodd" d="M5 2a1 1 0 0 1 1-1h24a1 1 0 0 1 .696.282l.011.01 12 12A.998.998 0 0 1 43 14v32a1 1 0 0 1-1 1H6a1 1 0 0 1-1-1V2Zm2 1h22v11a1 1 0 0 0 1 1h11v30H7V3Zm24 1.414L39.586 13H31V4.414Z"/></svg>