<svg width="48" height="48" viewBox="0 0 48 48" xmlns="http://www.w3.org/2000/svg" class="icon icon-file-download-lg" aria-hidden="true" focusable="false" fill="currentColor"><path fill-rule="evenodd" clip-rule="evenodd" d="M24 39h-.01a1.024 1.024 0 0 1-.7-.29l-8-8a.996.996 0 1 1 1.41-1.41l6.3 6.3V18c0-.55.45-1 1-1s1 .45 1 1v17.58l6.28-6.28a.996.996 0 1 1 1.41 1.41l-7.896 7.896A1 1 0 0 1 24 39Zm-.01 0H24h-.02.01Z"/><path fill-rule="evenodd" clip-rule="evenodd" d="M5 2a1 1 0 0 1 1-1h24a1 1 0 0 1 .696.282l.011.01 12 12A.998.998 0 0 1 43 14v32a1 1 0 0 1-1 1H6a1 1 0 0 1-1-1V2Zm2 1h22v11a1 1 0 0 0 1 1h11v30H7V3Zm24 1.414L39.586 13H31V4.414Z"/></svg>