<svg width="48" height="48" viewBox="0 0 48 48" xmlns="http://www.w3.org/2000/svg" class="icon icon-file-arrow-lg" aria-hidden="true" focusable="false" fill="currentColor"><path fill-rule="evenodd" clip-rule="evenodd" d="M5 2a1 1 0 0 1 1-1h24a1 1 0 0 1 .696.282l.011.01 12 12A.998.998 0 0 1 43 14v32a1 1 0 0 1-1 1H6a1 1 0 0 1-1-1v-9a1 1 0 1 1 2 0v8h34V15H30a1 1 0 0 1-1-1V3H7v16a1 1 0 1 1-2 0V2Zm26 11V4.414L39.586 13H31Z"/><path d="M16.293 19.293a1 1 0 0 1 1.414 0l8 8a1 1 0 0 1 0 1.414l-8 8a1 1 0 0 1-1.414-1.414L22.586 29H2a1 1 0 1 1 0-2h20.586l-6.293-6.293a1 1 0 0 1 0-1.414Z"/></svg>