<svg width="48" height="48" viewBox="0 0 48 48" xmlns="http://www.w3.org/2000/svg" class="icon icon-file-warning-lg" aria-hidden="true" focusable="false" fill="currentColor"><path fill-rule="evenodd" clip-rule="evenodd" d="M6 1a1 1 0 0 0-1 1v44a1 1 0 0 0 1 1h36a1 1 0 0 0 1-1V14c0-.02 0-.04-.002-.06a1 1 0 0 0-.29-.647l-12-12A.997.997 0 0 0 30 1H5.999Zm23 2H7v42h34V15H30a1 1 0 0 1-1-1V3Zm10.586 10L31 4.414V13h8.586Z"/><path d="M24 22a1 1 0 0 1 1 1v8a1 1 0 1 1-2 0v-8a1 1 0 0 1 1-1Zm0 12a2 2 0 1 0 0 4 2 2 0 0 0 0-4Z"/><path fill-rule="evenodd" clip-rule="evenodd" d="M12 30c0-6.627 5.373-12 12-12s12 5.373 12 12-5.373 12-12 12-12-5.373-12-12Zm12-10c-5.523 0-10 4.477-10 10s4.477 10 10 10 10-4.477 10-10-4.477-10-10-10Z"/></svg>