<svg width="48" height="48" viewBox="0 0 48 48" xmlns="http://www.w3.org/2000/svg" class="icon icon-file-content-lg" aria-hidden="true" focusable="false" fill="currentColor"><path d="M14 35a1 1 0 1 0 0 2h20a1 1 0 1 0 0-2H14Zm-1-9a1 1 0 0 1 1-1h20a1 1 0 1 1 0 2H14a1 1 0 0 1-1-1Zm1-11a1 1 0 1 0 0 2h8a1 1 0 1 0 0-2h-8Z"/><path fill-rule="evenodd" clip-rule="evenodd" d="M5 2a1 1 0 0 1 1-1h24a1 1 0 0 1 .696.282l.011.01 12 12A.998.998 0 0 1 43 14v32a1 1 0 0 1-1 1H6a1 1 0 0 1-1-1V2Zm2 1h22v11a1 1 0 0 0 1 1h11v30H7V3Zm24 1.414L39.586 13H31V4.414Z"/></svg>