<svg width="48" height="48" viewBox="0 0 48 48" xmlns="http://www.w3.org/2000/svg" class="icon icon-filters-lg" aria-hidden="true" focusable="false" fill="currentColor"><path fill-rule="evenodd" clip-rule="evenodd" d="M18.287 24a1 1 0 0 1 1-1H46a1 1 0 1 1 0 2H19.287a1 1 0 0 1-1-1ZM1 24a1 1 0 0 1 1-1h7.857a1 1 0 0 1 0 2H2a1 1 0 0 1-1-1Z"/><path fill-rule="evenodd" clip-rule="evenodd" d="M9.858 16.714a1 1 0 0 1 1 1v12.572a1 1 0 1 1-2 0V17.714a1 1 0 0 1 1-1ZM1 8.286a1 1 0 0 1 1-1h26.714a1 1 0 1 1 0 2H2a1 1 0 0 1-1-1Zm36.142 0a1 1 0 0 1 1-1H46a1 1 0 0 1 0 2h-7.857a1 1 0 0 1-1-1Z"/><path fill-rule="evenodd" clip-rule="evenodd" d="M38.142 1a1 1 0 0 1 1 1v12.571a1 1 0 1 1-2 0V2a1 1 0 0 1 1-1ZM1 39.714a1 1 0 0 1 1-1h26.714a1 1 0 1 1 0 2H2a1 1 0 0 1-1-1Zm36.142 0a1 1 0 0 1 1-1H46a1 1 0 0 1 0 2h-7.857a1 1 0 0 1-1-1Z"/><path fill-rule="evenodd" clip-rule="evenodd" d="M38.142 32.429a1 1 0 0 1 1 1V46a1 1 0 1 1-2 0V33.429a1 1 0 0 1 1-1Z"/></svg>