<svg width="48" height="48" viewBox="0 0 48 48" xmlns="http://www.w3.org/2000/svg" class="icon icon-focus-lg" aria-hidden="true" focusable="false" fill="currentColor"><path d="M1 2a1 1 0 0 1 1-1h8a1 1 0 1 1 0 2H3v7a1 1 0 1 1-2 0V2Z"/><path fill-rule="evenodd" clip-rule="evenodd" d="M24 5a9 9 0 0 0-9 9c0 2.467.994 4.943 2.582 6.806C19.172 22.67 21.432 24 24 24c2.569 0 4.828-1.33 6.418-3.194C32.006 18.943 33 16.467 33 14a9 9 0 0 0-9-9Zm-7 9a7 7 0 0 1 14 0c0 1.95-.797 3.975-2.104 5.508C27.59 21.039 25.849 22 24 22c-1.85 0-3.59-.96-4.896-2.492C17.797 17.975 17 15.95 17 14Zm7 13c-4.79 0-8.3.916-10.69 1.907A6.99 6.99 0 0 0 9 35.375V38a1 1 0 0 0 1 1h28a1 1 0 0 0 1-1v-2.625a6.99 6.99 0 0 0-4.31-6.468C32.3 27.916 28.79 27 24 27Zm-9.925 3.755C16.223 29.865 19.472 29 24 29c4.528 0 7.777.864 9.925 1.755A4.99 4.99 0 0 1 37 35.375V37H11v-1.625a4.99 4.99 0 0 1 3.075-4.62Z"/><path d="M38 1a1 1 0 1 0 0 2h7v7a1 1 0 1 0 2 0V2a1 1 0 0 0-1-1h-8ZM2 37a1 1 0 0 1 1 1v7h7a1 1 0 1 1 0 2H2a1 1 0 0 1-1-1v-8a1 1 0 0 1 1-1Zm45 1a1 1 0 1 0-2 0v7h-7a1 1 0 1 0 0 2h8a1 1 0 0 0 1-1v-8Z"/></svg>