<svg width="48" height="48" viewBox="0 0 48 48" xmlns="http://www.w3.org/2000/svg" class="icon icon-folder-search-full-lg" aria-hidden="true" focusable="false" fill="currentColor"><path d="M28 26a6 6 0 1 1-12 0 6 6 0 0 1 12 0Z"/><path fill-rule="evenodd" clip-rule="evenodd" d="M23.555 11H46a1 1 0 0 1 1 1v28a5.006 5.006 0 0 1-5 5H6a5.006 5.006 0 0 1-5-5V4a1 1 0 0 1 1-1h16a1 1 0 0 1 .848.47L23.555 11ZM32 38a2 2 0 0 0 1.414-3.414l-4.53-4.53a8.027 8.027 0 1 0-2.828 2.828l4.53 4.53A2 2 0 0 0 32 38Z"/></svg>