<svg width="48" height="48" viewBox="0 0 48 48" xmlns="http://www.w3.org/2000/svg" class="icon icon-folder-time-lg" aria-hidden="true" focusable="false" fill="currentColor"><path d="M24 22a1 1 0 0 1 1 1v4h4a1 1 0 1 1 0 2h-5a1 1 0 0 1-1-1v-5a1 1 0 0 1 1-1Z"/><path fill-rule="evenodd" clip-rule="evenodd" d="M24 17c-6.075 0-11 4.925-11 11s4.925 11 11 11 11-4.925 11-11-4.925-11-11-11Zm-9 11a9 9 0 1 1 18 0 9 9 0 0 1-18 0Z"/><path fill-rule="evenodd" clip-rule="evenodd" d="M1 4a1 1 0 0 1 1-1h16a1 1 0 0 1 .848.47L23.554 11H46a1 1 0 0 1 1 1v28a5 5 0 0 1-5 5H6a5 5 0 0 1-5-5V4Zm2 1v35a3 3 0 0 0 3 3h36a3 3 0 0 0 3-3V13H23a1 1 0 0 1-.848-.47L17.446 5H3Z"/></svg>