<svg width="48" height="48" viewBox="0 0 48 48" xmlns="http://www.w3.org/2000/svg" class="icon icon-folder-download-lg" aria-hidden="true" focusable="false" fill="currentColor"><path d="M24 16a1 1 0 0 1 1 1v15.586l5.293-5.293a1 1 0 0 1 1.414 1.414l-7 7a1 1 0 0 1-1.414 0l-7-7a1 1 0 0 1 1.414-1.414L23 32.586V17a1 1 0 0 1 1-1Z"/><path fill-rule="evenodd" clip-rule="evenodd" d="M2 1a1 1 0 0 0-1 1v36a5 5 0 0 0 5 5h36a5 5 0 0 0 5-5V10a1 1 0 0 0-1-1H23.554l-4.706-7.53A1 1 0 0 0 18 1H2Zm1 37V3h14.446l4.706 7.53A1 1 0 0 0 23 11h22v27a3 3 0 0 1-3 3H6a3 3 0 0 1-3-3Z"/></svg>