<svg width="48" height="48" viewBox="0 0 48 48" xmlns="http://www.w3.org/2000/svg" class="icon icon-gear-lg" aria-hidden="true" focusable="false" fill="currentColor"><path fill-rule="evenodd" clip-rule="evenodd" d="M24 18a6 6 0 1 0 0 12 6 6 0 0 0 0-12Zm-8 6a8 8 0 1 1 16 0 8 8 0 0 1-16 0Z"/><path fill-rule="evenodd" clip-rule="evenodd" d="M20.003 1.917A1 1 0 0 1 21 1h6a1 1 0 0 1 .997.917l.474 5.687c1.383.378 2.713.931 3.956 1.646l4.362-3.691a1 1 0 0 1 1.353.055l4.248 4.243a1 1 0 0 1 .056 1.354l-3.691 4.362a16.89 16.89 0 0 1 1.642 3.956l5.686.474A1 1 0 0 1 47 21v6a1 1 0 0 1-.917.997l-5.687.474a16.88 16.88 0 0 1-1.646 3.956l3.691 4.362a1 1 0 0 1-.056 1.353l-4.243 4.243a1 1 0 0 1-1.353.056l-4.362-3.691a16.89 16.89 0 0 1-3.956 1.642l-.474 5.691A1 1 0 0 1 27 47h-6a1 1 0 0 1-.997-.917l-.474-5.686a16.874 16.874 0 0 1-3.961-1.647l-4.362 3.691a1 1 0 0 1-1.353-.056L5.61 38.142a1 1 0 0 1-.056-1.353l3.691-4.362a16.891 16.891 0 0 1-1.642-3.956l-5.686-.474A1 1 0 0 1 1 27v-6a1 1 0 0 1 .917-.997l5.687-.474a16.874 16.874 0 0 1 1.646-3.956L5.559 11.21a1 1 0 0 1 .055-1.353L9.857 5.61a1 1 0 0 1 1.354-.056l4.362 3.691a16.891 16.891 0 0 1 3.956-1.642l.474-5.686ZM21.92 3l-.458 5.483a1 1 0 0 1-.775.892 14.89 14.89 0 0 0-4.677 1.942 1 1 0 0 1-1.181-.082l-4.207-3.56-2.943 2.946 3.561 4.208a1 1 0 0 1 .081 1.182 14.873 14.873 0 0 0-1.946 4.676 1 1 0 0 1-.892.775L3 21.92v4.16l5.483.458a1 1 0 0 1 .892.775 14.89 14.89 0 0 0 1.942 4.677 1 1 0 0 1-.082 1.181l-3.56 4.208 2.941 2.941 4.208-3.56a1 1 0 0 1 1.182-.081 14.876 14.876 0 0 0 4.68 1.946 1 1 0 0 1 .776.892L21.92 45h4.16l.458-5.488a1 1 0 0 1 .775-.892 14.89 14.89 0 0 0 4.677-1.942 1 1 0 0 1 1.181.082l4.208 3.56 2.941-2.941-3.56-4.208a1 1 0 0 1-.081-1.182 14.873 14.873 0 0 0 1.946-4.676 1 1 0 0 1 .892-.775L45 26.08v-4.16l-5.483-.458a1 1 0 0 1-.892-.775 14.89 14.89 0 0 0-1.942-4.677 1 1 0 0 1 .082-1.181l3.56-4.207-2.946-2.943-4.208 3.561a1 1 0 0 1-1.182.081 14.873 14.873 0 0 0-4.676-1.946 1 1 0 0 1-.775-.892L26.08 3h-4.16Z"/></svg>