<svg width="48" height="48" viewBox="0 0 48 48" xmlns="http://www.w3.org/2000/svg" class="icon icon-globe-lg" aria-hidden="true" focusable="false" fill="currentColor"><path fill-rule="evenodd" clip-rule="evenodd" d="M24 1c12.703 0 23 10.297 23 23S36.703 47 24 47 1 36.703 1 24 11.297 1 24 1ZM3.023 25a20.881 20.881 0 0 0 2.506 9h7.64c-.681-2.746-1.088-5.792-1.158-9H3.023Zm3.741 11a21.038 21.038 0 0 0 11.407 8.18c-1.083-1.138-2.038-2.566-2.844-4.176A27.27 27.27 0 0 1 13.73 36H6.764Zm23.065 8.18A21.038 21.038 0 0 0 41.236 36H34.27a27.27 27.27 0 0 1-1.598 4.004c-.806 1.61-1.76 3.038-2.844 4.176ZM42.471 34a20.881 20.881 0 0 0 2.506-9h-8.988c-.07 3.208-.476 6.254-1.157 9h7.639Zm2.506-11a20.881 20.881 0 0 0-2.506-9h-7.64c.681 2.746 1.088 5.792 1.158 9h8.988Zm-3.741-11a21.038 21.038 0 0 0-11.407-8.18c1.083 1.138 2.038 2.566 2.844 4.176A27.267 27.267 0 0 1 34.27 12h6.965ZM18.17 3.82A21.038 21.038 0 0 0 6.764 12h6.965c.455-1.448.992-2.79 1.598-4.004.806-1.61 1.76-3.038 2.844-4.176ZM5.529 14h7.64c-.681 2.746-1.088 5.792-1.158 9H3.023a20.881 20.881 0 0 1 2.506-9Zm11.587-5.11A24.61 24.61 0 0 0 15.833 12H23V3.111c-2.12.47-4.21 2.43-5.884 5.78ZM14.011 23c.075-3.255.51-6.307 1.222-9H23v9h-8.989Zm1.222 11c-.711-2.693-1.147-5.745-1.222-9H23v9h-7.767Zm1.883 5.11A24.607 24.607 0 0 1 15.833 36H23v8.889c-2.12-.47-4.21-2.43-5.884-5.78Zm13.768 0c-1.675 3.348-3.763 5.309-5.884 5.779V36h7.167a24.607 24.607 0 0 1-1.283 3.11ZM33.989 25c-.075 3.255-.51 6.307-1.222 9H25v-9h8.989Zm-1.222-11c.711 2.693 1.147 5.745 1.222 9H25v-9h7.767ZM25 12h7.167a24.61 24.61 0 0 0-1.283-3.11C29.209 5.543 27.12 3.582 25 3.112V12Z"/></svg>