<svg width="48" height="48" viewBox="0 0 48 48" xmlns="http://www.w3.org/2000/svg" class="icon icon-graduation-lg" aria-hidden="true" focusable="false" fill="currentColor"><path fill-rule="evenodd" clip-rule="evenodd" d="M45 14a1 1 0 0 1 1 1v11a1 1 0 1 1-2 0V15a1 1 0 0 1 1-1Z"/><path fill-rule="evenodd" clip-rule="evenodd" d="M23.606 5.08a1 1 0 0 1 .788 0l21 9a1 1 0 0 1 0 1.84l-21 9a1 1 0 0 1-.788 0l-21-9a1 1 0 0 1 0-1.84l21-9ZM5.54 15 24 22.912 42.461 15 24 7.088 5.539 15Z"/><path fill-rule="evenodd" clip-rule="evenodd" d="M9 16.75a1 1 0 0 1 1 1V35c0 1.314 1.18 2.813 3.816 4.044C16.371 40.236 19.97 41 24 41c4.03 0 7.629-.764 10.184-1.956C36.82 37.814 38 36.314 38 35V17.75a1 1 0 1 1 2 0V35c0 2.552-2.178 4.553-4.97 5.856C32.154 42.197 28.253 43 24 43s-8.155-.803-11.03-2.144C10.178 39.553 8 37.552 8 35V17.75a1 1 0 0 1 1-1Z"/><path d="M47 27a2 2 0 1 1-4 0 2 2 0 0 1 4 0Z"/></svg>