<svg width="48" height="48" viewBox="0 0 48 48" xmlns="http://www.w3.org/2000/svg" class="icon icon-hacker-lg" aria-hidden="true" focusable="false" fill="currentColor"><path fill-rule="evenodd" clip-rule="evenodd" d="M13 13.971a15.94 15.94 0 0 0 4.703 10.318 1 1 0 1 1-1.406 1.422A17.94 17.94 0 0 1 11 14c0-1.37.61-2.86 1.459-4.252.864-1.416 2.045-2.842 3.341-4.112 1.296-1.27 2.733-2.41 4.126-3.239C21.29 1.586 22.73 1 24 1s2.71.586 4.074 1.397c1.393.829 2.83 1.969 4.126 3.239 1.296 1.27 2.477 2.696 3.341 4.112.85 1.392 1.46 2.882 1.46 4.252l-.003.062a17.94 17.94 0 0 1-5.295 11.65 1 1 0 0 1-1.406-1.423A15.94 15.94 0 0 0 35 13.97c-.009-.826-.4-1.926-1.166-3.181-.76-1.247-1.83-2.546-3.034-3.726-1.204-1.18-2.517-2.215-3.749-2.948C25.79 3.364 24.73 3 24.001 3c-.73 0-1.79.364-3.052 1.116-1.232.733-2.545 1.768-3.749 2.948-1.204 1.18-2.273 2.48-3.034 3.726-.766 1.255-1.156 2.355-1.166 3.18ZM11 30a1 1 0 0 1 1-1h24a1 1 0 0 1 1 1v16a1 1 0 0 1-1 1H12a1 1 0 0 1-1-1V30Zm2 1v14h22V31H13Z"/><path fill-rule="evenodd" clip-rule="evenodd" d="M14.5 19.757a1 1 0 0 1-.327 1.376L8.747 24.48a5 5 0 0 0-2.278 3.275l-1.746 8.733a5 5 0 0 0 1.902 4.98l.975.732a1 1 0 0 1-1.2 1.6l-.975-.73a7.001 7.001 0 0 1-2.663-6.974l1.746-8.733a7 7 0 0 1 3.19-4.585l5.425-3.347a1 1 0 0 1 1.376.326Zm19.001 0a1 1 0 0 1 1.376-.326l5.426 3.347a7.001 7.001 0 0 1 3.19 4.585l1.746 8.733a7 7 0 0 1-2.664 6.973l-.975.731a1 1 0 1 1-1.2-1.6l.975-.731a5 5 0 0 0 1.903-4.98l-1.746-8.734a5.002 5.002 0 0 0-2.279-3.275l-5.426-3.347a1 1 0 0 1-.326-1.376Zm-11.982-9.491a5 5 0 0 1 4.962 0l5.015 2.866A1 1 0 0 1 32 14c0 2.296-1.127 4.758-2.589 6.618-.739.94-1.595 1.77-2.497 2.37C26.024 23.582 25.018 24 24 24c-1.018 0-2.023-.418-2.914-1.012-.901-.6-1.758-1.43-2.497-2.37C17.127 18.758 16 16.296 16 14a1 1 0 0 1 .504-.868l5.015-2.866ZM24 11.606a3 3 0 0 0-1.489.396l-4.48 2.561c.163 1.577.981 3.356 2.13 4.82.636.808 1.342 1.48 2.034 1.941.703.469 1.323.676 1.805.676s1.102-.207 1.805-.676c.692-.461 1.398-1.133 2.034-1.942 1.15-1.463 1.968-3.242 2.131-4.819l-4.481-2.56A3 3 0 0 0 24 11.606ZM24 36a2 2 0 1 0 0 4 2 2 0 0 0 0-4Zm-4 2a4 4 0 1 1 8 0 4 4 0 0 1-8 0Z"/></svg>