<svg width="48" height="48" viewBox="0 0 48 48" xmlns="http://www.w3.org/2000/svg" class="icon icon-handicap-lg.svg" aria-hidden="true" focusable="false" fill="currentColor"><path fill-rule="evenodd" clip-rule="evenodd" d="M22 1a5 5 0 1 0 0 10 5 5 0 0 0 0-10Zm-3 5a3 3 0 1 1 6 0 3 3 0 0 1-6 0Zm20 33a4 4 0 1 0 0 8 4 4 0 0 0 0-8Zm-2 4a2 2 0 1 1 4 0 2 2 0 0 1-4 0Z"/><path d="M15.42 26.65a1 1 0 0 1-.444 1.343A8.983 8.983 0 1 0 28 36a1 1 0 1 1 2-.003 10.983 10.983 0 1 1-15.924-9.791 1 1 0 0 1 1.343.443Z"/><path d="M18.829 14.06c.195-.04.395-.06.595-.06H23.5a5.001 5.001 0 0 1 4.954 4.339l.87 6.529a1 1 0 1 1-1.982.264l-.87-6.529A3 3 0 0 0 23.5 16h-3.358l1.384 10.397A3 3 0 0 0 24.5 29H37a3 3 0 0 1 3 3v3a1 1 0 0 1-2 0v-3a1 1 0 0 0-1-1H24.5a5 5 0 0 1-4.956-4.339l-1.359-10.205-7.179 3.192a1 1 0 0 0-.462.417l-3.676 6.431a1 1 0 0 1-1.736-.992l3.676-6.431a3 3 0 0 1 1.386-1.253l8.013-3.562a3.005 3.005 0 0 1 .622-.198Z"/><path fill-rule="evenodd" clip-rule="evenodd" d="M16 36a3 3 0 1 1 6 0 3 3 0 0 1-6 0Zm3-1a1 1 0 1 0 0 2 1 1 0 0 0 0-2Z"/></svg>