<svg width="48" height="48" viewBox="0 0 48 48" xmlns="http://www.w3.org/2000/svg" class="icon icon-handshake-lg" aria-hidden="true" focusable="false" fill="currentColor"><path d="M6 22.87c-.55 0-1-.45-1-1V18.9l-2.71-2.76a.996.996 0 0 1 0-1.41L12.72 4.28c.19-.18.44-.29.71-.29.27 0 .52.1.71.29l1.58 1.58H19c.55 0 1 .45 1 1s-.45 1-1 1h-3.69a.99.99 0 0 1-.71-.29l-1.16-1.16-9.04 9.03 2.31 2.35c.19.19.29.44.29.7v3.38c0 .55-.45 1-1 1Zm35-4.38v3.38c0 .55.45 1 1 1s1-.45 1-1V18.9l2.71-2.76c.38-.39.38-1.02 0-1.41L35.27 4.29c-.38-.38-1.04-.38-1.41 0l-1.58 1.58H28a9.79 9.79 0 0 0-6.95 2.87l-6.66 6.93c-.64.67-.99 1.54-.97 2.47.02.93.39 1.79 1.06 2.43 1.17 1.12 2.99 1.28 4.32.39l6.42-4.14a7.435 7.435 0 0 0 6.28 1.79l9.7 9.94c.64.66.66 1.71-.02 2.46-.68.68-1.79.68-2.47 0l-1.98-1.98a.996.996 0 1 0-1.41 1.41l2.76 2.76c.72.72.72 1.89 0 2.61s-1.89.72-2.61 0l-2.76-2.76-1.41 1.41 2.21 2.21c.71.71.71 1.87 0 2.58s-1.87.71-2.58 0a.996.996 0 0 0-.38-.23c-.15-.24-.33-.48-.53-.68l-1.29-1.29a.996.996 0 1 0-1.41 1.41l1.29 1.29c.71.71.71 1.87 0 2.58-.23.23-.52.39-.83.47-.54.14-.86.68-.72 1.22.12.45.52.75.97.75.08 0 .17 0 .25-.03a3.803 3.803 0 0 0 2.82-3.15c.37.12.75.19 1.14.19.98 0 1.96-.37 2.71-1.12.67-.67 1.02-1.53 1.09-2.4.25.05.51.08.76.08.99 0 1.97-.38 2.72-1.13a3.843 3.843 0 0 0 .96-3.75c.81-.11 1.56-.46 2.14-1.05l.13-.13a3.766 3.766 0 0 0-.09-5.13l-9.03-9.26c.54-.28 1.05-.62 1.53-1.03a7 7 0 0 0 .76-.78 1 1 0 1 0-1.53-1.29c-.17.2-.36.39-.56.57-2.25 1.99-5.71 1.77-7.69-.48a.998.998 0 0 0-1.29-.18l-7.12 4.59a1.464 1.464 0 0 1-1.87-2.23l6.65-6.91a7.842 7.842 0 0 1 5.53-2.27h4.69c.27 0 .52-.11.71-.29l1.16-1.16 9.03 9.03-2.3 2.35c-.18.19-.29.44-.29.7l-.04-.02Z"/><path fill-rule="evenodd" clip-rule="evenodd" d="M18.45 34.4a3.812 3.812 0 0 1 1.1 2.489 3.842 3.842 0 0 1 3.32 1.061 3.833 3.833 0 0 1 0 5.41l-.38.38c-.74.75-1.72 1.12-2.7 1.12-.98 0-1.95-.37-2.7-1.12-.7-.71-1.1-1.65-1.11-2.65a2.55 2.55 0 0 0-.178.019 2.09 2.09 0 0 1-.262.021c-.97 0-1.95-.37-2.7-1.12a3.799 3.799 0 0 1-1.09-2.4 3.812 3.812 0 0 1-3.49-1.05 3.812 3.812 0 0 1-1.13-2.72c0-.141.017-.271.033-.403a8.47 8.47 0 0 0 .017-.137 3.69 3.69 0 0 1-2.5-1.08c-.03-.03-.08-.08-.12-.13a3.746 3.746 0 0 1 .09-5.13l.42-.43c1.43-1.46 3.8-1.5 5.28-.09.72.69 1.14 1.63 1.16 2.63 0 .041-.005.08-.01.117-.005.035-.01.07-.01.103 1.06-.07 2.14.29 2.95 1.1.73.73 1.13 1.69 1.13 2.72a.64.64 0 0 1-.01.095.646.646 0 0 0-.01.095c1.04-.05 2.1.3 2.9 1.1ZM6.08 28.37l.42-.43c.34-.35.8-.52 1.25-.52.45 0 .87.16 1.21.48A1.765 1.765 0 0 1 9 30.4l-.43.43c-.33.33-.77.51-1.23.51-.47 0-.91-.18-1.3-.58-.62-.68-.6-1.73.04-2.39Zm3.59 6.79c-.35-.35-.54-.81-.54-1.3s.19-.96.54-1.3l.75-.75a1.833 1.833 0 0 1 2.6 0c.35.35.54.81.54 1.3s-.19.96-.54 1.3l-.75.75c-.7.7-1.91.7-2.61 0h.01Zm4.57 3.45c-.71-.71-.71-1.87 0-2.58l.21-.21c.71-.71 1.87-.71 2.58 0s.71 1.87 0 2.58l-.21.21c-.71.71-1.87.71-2.58 0Zm7.22 3.35-.38.38c-.71.71-1.87.71-2.58 0-.34-.34-.53-.8-.53-1.29s.19-.95.53-1.29l.38-.38c.71-.71 1.87-.71 2.58 0s.71 1.87 0 2.58Z"/></svg>