<svg width="48" height="48" viewBox="0 0 48 48" xmlns="http://www.w3.org/2000/svg" class="icon icon-handicap-full-lg" aria-hidden="true" focusable="false" fill="currentColor"><path d="M27 6a5 5 0 1 1-10 0 5 5 0 0 1 10 0Zm-5 30a3 3 0 1 1-6 0 3 3 0 0 1 6 0Z"/><path fill-rule="evenodd" clip-rule="evenodd" d="M12.889 26.854A11 11 0 1 1 25.11 45.146a11 11 0 0 1-12.22-18.292Zm1.666 15.798A8 8 0 0 0 19 44a8.009 8.009 0 0 0 8-8 8 8 0 1 0-12.445 6.652Z"/><path d="M37.5 47a3.5 3.5 0 1 0 0-7 3.5 3.5 0 0 0 0 7ZM7.008 26.736a2 2 0 0 0 2.728-.744l3.6-6.3 4.733-1.4v.016l.855 4.7h.073a12.966 12.966 0 0 1 9.91 4.6L26.927 16.7a4.507 4.507 0 0 0-5.227-3.628c-.083.015-10.262 3.01-10.262 3.01a2.008 2.008 0 0 0-1.17.926l-4 7a2 2 0 0 0 .74 2.728ZM29.233 28H37.5a2.5 2.5 0 0 1 2.5 2.5V38h-5v-5h-3.362a12.93 12.93 0 0 0-2.405-5Z"/></svg>