<svg width="48" height="48" viewBox="0 0 48 48" xmlns="http://www.w3.org/2000/svg" class="icon icon-hand-lg" aria-hidden="true" focusable="false" fill="currentColor"><path fill-rule="evenodd" clip-rule="evenodd" d="M39.104 6.544a4 4 0 0 0-6.199-2.87 4 4 0 0 0-7.55 0A3.999 3.999 0 0 0 19.13 7v18.991a1.998 1.998 0 0 1-2.95 1.75l-6.88-3.7a3.577 3.577 0 0 0-4.25.62 3.594 3.594 0 0 0-.28 4.77l8.52 10.78c3.4 4.32 8.51 6.79 14 6.79h-.01c9.84 0 17.84-8 17.84-17.84V10a3.999 3.999 0 0 0-6.016-3.456ZM32.13 23c-.55 0-1-.45-1-1V5c0-1.1-.9-2-2-2s-2 .9-2 2v17c0 .55-.45 1-1 1s-1-.45-1-1V7c0-1.1-.9-2-2-2s-2 .9-2 2v18.98c0 1.07-.42 2.07-1.17 2.83-.75.75-1.76 1.17-2.83 1.17-.66 0-1.31-.17-1.9-.48l-6.88-3.7c-.63-.34-1.38-.23-1.89.28-.57.57-.62 1.48-.12 2.12l8.51 10.78a15.74 15.74 0 0 0 12.43 6.03c8.73 0 15.84-7.11 15.84-15.84V10c0-1.1-.9-2-2-2a2.007 2.007 0 0 0-1.99 1.799V22c0 .55-.45 1-1 1s-1-.45-1-1V10.142a.99.99 0 0 1-.01-.142c0-.096.003-.192.01-.287V7c0-1.1-.9-2-2-2s-2 .9-2 2v15c0 .55-.45 1-1 1Z"/></svg>