<svg width="48" height="48" viewBox="0 0 48 48" xmlns="http://www.w3.org/2000/svg" class="icon icon-handout-lg" aria-hidden="true" focusable="false" fill="currentColor"><path fill-rule="evenodd" clip-rule="evenodd" d="M13 9a6 6 0 1 1 12 0 6 6 0 0 1-12 0Zm6-4a4 4 0 1 0 0 8 4 4 0 0 0 0-8Zm14 8a6 6 0 1 0 0 12 6 6 0 0 0 0-12Zm-4 6a4 4 0 1 1 8 0 4 4 0 0 1-8 0ZM9 25v-1a1 1 0 0 0-1-1H2a1 1 0 0 0-1 1v16a1 1 0 0 0 1 1h6a1 1 0 0 0 .888-.54l9.535 4.027a.985.985 0 0 0 .088.033 10.36 10.36 0 0 0 5.517.199c.038-.01.075-.02.112-.034l21.203-7.746a1 1 0 0 0 .617-1.22L45 36l.96-.281v-.001l-.002-.003-.002-.006-.005-.018-.006-.02-.01-.031a6.168 6.168 0 0 0-.296-.707 7.16 7.16 0 0 0-1.082-1.6C43.495 32.147 41.734 31 39 31h-9.413c-1.243-1.16-2.892-2-4.587-2h-5.485c-1.95-2.573-5.134-4-8.515-4H9Zm-2 0H3v14h4V25Zm2 13.337V27h2c2.997 0 5.68 1.332 7.17 3.556A1 1 0 0 0 19 31h6c1.114 0 2.374.608 3.383 1.617l.033.033c.026.031.055.06.085.088.654.688 1.124 1.482 1.35 2.262H17a1 1 0 1 0 0 2h14a1 1 0 0 0 1-1c0-1.046-.32-2.074-.837-3H39c2.099 0 3.338.853 4.067 1.667.237.264.423.53.568.767L23.51 42.786a8.358 8.358 0 0 1-4.354-.16L9 38.336Z"/></svg>