<svg width="48" height="48" viewBox="0 0 48 48" xmlns="http://www.w3.org/2000/svg" class="icon icon-headphone-lg" aria-hidden="true" focusable="false" fill="currentColor"><path fill-rule="evenodd" clip-rule="evenodd" d="M8 32.488a1 1 0 0 1 1 1V38a5 5 0 0 0 5 5h3a1 1 0 1 1 0 2h-3a7 7 0 0 1-7-7v-4.512a1 1 0 0 1 1-1ZM22 3C14.82 3 9 8.82 9 16v.512a1 1 0 1 1-2 0V16C7 7.716 13.716 1 22 1h4c8.284 0 15 6.716 15 15v.512a1 1 0 1 1-2 0V16c0-7.18-5.82-13-13-13h-4Z"/><path fill-rule="evenodd" clip-rule="evenodd" d="M1 25c0-5.523 4.477-10 10-10 .77 0 1.513.094 2.223.256a1 1 0 0 1 .777.975v17.538a1 1 0 0 1-.777.975A9.967 9.967 0 0 1 11 35C5.477 35 1 30.523 1 25Zm10-8a8 8 0 0 0-8 8 8 8 0 0 0 8 8c.338 0 .67-.023 1-.066V17.066A7.694 7.694 0 0 0 11 17Zm25 .066v15.868c.33.043.663.066 1 .066a8 8 0 0 0 8-8 8 8 0 0 0-8-8c-.337 0-.67.023-1 .066Zm-1.222-1.81A9.967 9.967 0 0 1 37 15c5.523 0 10 4.477 10 10s-4.477 10-10 10a9.96 9.96 0 0 1-2.222-.256 1 1 0 0 1-.778-.975V16.231a1 1 0 0 1 .778-.975ZM16 42a1 1 0 0 1 1-1h12a1 1 0 0 1 1 1v4a1 1 0 0 1-1 1H17a1 1 0 0 1-1-1v-4Zm2 1v2h10v-2H18Z"/></svg>