<svg width="48" height="48" viewBox="0 0 48 48" xmlns="http://www.w3.org/2000/svg" class="icon icon-help-lg" aria-hidden="true" focusable="false" fill="currentColor"><path fill-rule="evenodd" clip-rule="evenodd" d="M1 22C1 11.372 11.441 3 24 3s23 8.372 23 19c0 4.546-1.9 8.664-5.151 11.968l1.144 9.917a1 1 0 0 1-1.363 1.044l-11.526-4.59C28.155 40.716 26.087 41 24 41 11.441 41 1 32.628 1 22ZM24 5C12.159 5 3 12.828 3 22s9.159 17 21 17c2.009 0 4.038-.287 6.004-.68a1 1 0 0 1 .566.051l10.245 4.08-1.008-8.736a1 1 0 0 1 .297-.833C43.238 29.842 45 26.092 45 22c0-9.172-9.158-17-21-17Z"/><path fill-rule="evenodd" clip-rule="evenodd" d="M22 31a2 2 0 1 1 4 0 2 2 0 0 1-4 0Zm3.008-18.967c-1.448-.136-3.132.145-4.604.796A1 1 0 1 1 19.596 11c1.762-.78 3.788-1.128 5.599-.958 1.787.168 3.558.868 4.506 2.402 1.81 2.927.412 6.146-2.213 8.366-1.186 1.004-1.82 1.742-2.168 2.365-.329.59-.431 1.13-.431 1.825a1 1 0 1 1-2 0c0-.94.149-1.838.684-2.799.517-.927 1.36-1.849 2.623-2.918 2.275-1.924 2.855-4.087 1.803-5.788-.482-.781-1.519-1.323-2.991-1.462Z"/></svg>