<svg width="48" height="48" viewBox="0 0 48 48" xmlns="http://www.w3.org/2000/svg" class="icon icon-hotel-lg" aria-hidden="true" focusable="false" fill="currentColor"><path fill-rule="evenodd" clip-rule="evenodd" d="M3 7a1 1 0 0 0-2 0v34a1 1 0 1 0 2 0v-5h42v5a1 1 0 1 0 2 0V27a1 1 0 0 0-1-1H3V7Zm0 21v6h42v-6H3Z"/><path fill-rule="evenodd" clip-rule="evenodd" d="M6 18a5 5 0 1 1 10 0 5 5 0 0 1-10 0Zm5-3a3 3 0 1 0 0 6 3 3 0 0 0 0-6Zm9-1a1 1 0 0 0-1 1v7a1 1 0 0 0 1 1h26a1 1 0 0 0 1-1v-3a5 5 0 0 0-5-5H20Zm1 7v-5h21a3 3 0 0 1 3 3v2H21Z"/></svg>