<svg width="48" height="48" viewBox="0 0 48 48" xmlns="http://www.w3.org/2000/svg" class="icon icon-hourglass-lg" aria-hidden="true" focusable="false" fill="currentColor"><path fill-rule="evenodd" clip-rule="evenodd" d="M6 2a1 1 0 0 1 1-1h34a1 1 0 1 1 0 2H7a1 1 0 0 1-1-1Zm0 44a1 1 0 0 1 1-1h34a1 1 0 1 1 0 2H7a1 1 0 0 1-1-1Z"/><path fill-rule="evenodd" clip-rule="evenodd" d="M10 1a1 1 0 0 1 1 1v7.578a7 7 0 0 0 1.176 3.882l6.656 9.985a1 1 0 0 1 0 1.11l-6.656 9.985A7 7 0 0 0 11 38.422V46a1 1 0 1 1-2 0v-7.578a9 9 0 0 1 1.512-4.992L16.798 24l-6.286-9.43A9 9 0 0 1 9 9.578V2a1 1 0 0 1 1-1Zm28 0a1 1 0 0 1 1 1v7.578a9 9 0 0 1-1.512 4.992L31.202 24l6.286 9.43A9.001 9.001 0 0 1 39 38.422V46a1 1 0 1 1-2 0v-7.578a7 7 0 0 0-1.176-3.882l-6.656-9.985a1 1 0 0 1 0-1.11l6.656-9.985A7 7 0 0 0 37 9.578V2a1 1 0 0 1 1-1ZM24 26.62a1 1 0 0 1 .832.445l6.833 10.249c.218.328.334.713.335 1.106V39a1 1 0 0 1-1 1H17a1 1 0 0 1-1-1v-.578a2 2 0 0 1 .337-1.111l.001-.001 6.83-10.245A1 1 0 0 1 24 26.62Zm0 2.803L18.282 38h11.437L24 29.423Z"/></svg>