<svg width="48" height="48" viewBox="0 0 48 48" xmlns="http://www.w3.org/2000/svg" class="icon icon-info-point-lg" aria-hidden="true" focusable="false" fill="currentColor"><path fill-rule="evenodd" clip-rule="evenodd" d="M20.11 11.39a5.5 5.5 0 1 0 7.78-7.78 5.5 5.5 0 0 0-7.78 7.78Zm1.415-6.365a3.5 3.5 0 1 1 4.95 4.95 3.5 3.5 0 0 1-4.95-4.95ZM33 20v6h4a1 1 0 0 1 1 1v6a1 1 0 0 1-1 1h-3v13a1 1 0 0 1-1 1H15a1 1 0 0 1-1-1V34h-3a1 1 0 0 1-1-1v-6a1 1 0 0 1 1-1h4v-6a5 5 0 0 1 5-5h1a1 1 0 0 1 .8.4l2.2 2.933 2.2-2.933a1 1 0 0 1 .8-.4h1a5 5 0 0 1 5 5Zm-15.121-2.121A3 3 0 0 1 20 17h.5l2.7 3.6a1 1 0 0 0 1.6 0l2.7-3.6h.5a3 3 0 0 1 3 3v6H17v-6a3 3 0 0 1 .879-2.121ZM16 34v12h16V34H16Zm20-2v-4H12v4h24Z"/></svg>