<svg width="48" height="48" viewBox="0 0 48 48" xmlns="http://www.w3.org/2000/svg" class="icon icon-info-lg" aria-hidden="true" focusable="false" fill="currentColor"><path d="M21.9 13.333a2.1 2.1 0 1 1 4.2 0 2.1 2.1 0 0 1-4.2 0Zm-2.189 6.434h4.29c.507 0 .928.366 1.016.848l.004.022.012.14V34.7h3.234a1.033 1.033 0 0 1 .185 2.05l-.022.004-.14.013h-8.556a1.033 1.033 0 0 1-.186-2.05l.023-.004.14-.013h3.256V21.833h-3.233c-.508 0-.93-.365-1.017-.848l-.004-.022-.013-.14V20.8c0-.508.366-.93.848-1.017l.023-.004.14-.012Z"/><path fill-rule="evenodd" clip-rule="evenodd" d="M24 1C11.297 1 1 11.297 1 24s10.297 23 23 23 23-10.297 23-23S36.703 1 24 1ZM3 24C3 12.402 12.402 3 24 3s21 9.402 21 21-9.402 21-21 21S3 35.598 3 24Z"/></svg>