<svg width="48" height="48" viewBox="0 0 48 48" xmlns="http://www.w3.org/2000/svg" class="icon icon-ink-pen-lg" aria-hidden="true" focusable="false" fill="currentColor"><path fill-rule="evenodd" clip-rule="evenodd" d="M24.936 11.649a1 1 0 0 1-.585 1.287L8.9 18.731 5.196 42.804l24.073-3.703 5.795-15.452a1 1 0 1 1 1.872.702l-6 16a1 1 0 0 1-.784.637l-26 4a1 1 0 0 1-1.14-1.14l4-26a1 1 0 0 1 .637-.784l16-6a1 1 0 0 1 1.287.585Z"/><path fill-rule="evenodd" clip-rule="evenodd" d="M17.907 30.093a1 1 0 0 1 0 1.414l-13.2 13.2a1 1 0 0 1-1.414-1.414l13.2-13.2a1 1 0 0 1 1.414 0Zm22.79-1.436a1 1 0 0 1-1.414 0l-20.01-20.01a1 1 0 0 1 0-1.415l4.03-4.03a1 1 0 0 1 1.414 0l20.01 20.01a1 1 0 0 1 0 1.415l-4.03 4.03Zm-.707-2.12 2.617-2.617L24.01 5.323 21.394 7.94 39.99 26.536Z"/><path fill-rule="evenodd" clip-rule="evenodd" d="M20 25a3 3 0 1 0 0 6 3 3 0 0 0 0-6Zm-5 3a5 5 0 1 1 10 0 5 5 0 0 1-10 0Z"/></svg>