<svg width="48" height="48" viewBox="0 0 48 48" xmlns="http://www.w3.org/2000/svg" class="icon icon-key-lg" aria-hidden="true" focusable="false" fill="currentColor"><path fill-rule="evenodd" clip-rule="evenodd" d="M14 29a5 5 0 1 0 0 10 5 5 0 0 0 0-10Zm-3 5a3 3 0 1 1 6 0 3 3 0 0 1-6 0Z"/><path fill-rule="evenodd" clip-rule="evenodd" d="M37 1a1 1 0 0 0-.707.293L18.286 19.3a13.5 13.5 0 1 0 10.226 9.602l3.195-3.195A1 1 0 0 0 32 25v-5h5a1 1 0 0 0 1-1v-5h5a1 1 0 0 0 .707-.293l3-3A1 1 0 0 0 47 10V2a1 1 0 0 0-1-1h-9ZM19.307 21.107 37.414 3H45v6.586L42.586 12H37a1 1 0 0 0-1 1v5h-5a1 1 0 0 0-1 1v5.586l-3.325 3.325a1 1 0 0 0-.243 1.018 11.5 11.5 0 1 1-8.08-7.56 1 1 0 0 0 .955-.262Z"/></svg>