<svg width="48" height="48" viewBox="0 0 48 48" xmlns="http://www.w3.org/2000/svg" class="icon icon-keyboard-full-lg" aria-hidden="true" focusable="false" fill="currentColor"><path fill-rule="evenodd" clip-rule="evenodd" d="M43.2 6H4.8C2.16 6 .024 8.314.024 11.143L0 36.857C0 39.686 2.16 42 4.8 42h38.4c2.64 0 4.8-2.314 4.8-5.143V11.143C48 8.314 45.84 6 43.2 6Zm-21.6 8.7a1.5 1.5 0 0 1 1.5-1.5h1.8a1.5 1.5 0 0 1 1.5 1.5v1.8a1.5 1.5 0 0 1-1.5 1.5h-1.8a1.5 1.5 0 0 1-1.5-1.5v-1.8Zm0 7.2a1.5 1.5 0 0 1 1.5-1.5h1.8a1.5 1.5 0 0 1 1.5 1.5v1.8a1.5 1.5 0 0 1-1.5 1.5h-1.8a1.5 1.5 0 0 1-1.5-1.5v-1.8Zm-7.2-7.2a1.5 1.5 0 0 1 1.5-1.5h1.8a1.5 1.5 0 0 1 1.5 1.5v1.8a1.5 1.5 0 0 1-1.5 1.5h-1.8a1.5 1.5 0 0 1-1.5-1.5v-1.8Zm0 7.2a1.5 1.5 0 0 1 1.5-1.5h1.8a1.5 1.5 0 0 1 1.5 1.5v1.8a1.5 1.5 0 0 1-1.5 1.5h-1.8a1.5 1.5 0 0 1-1.5-1.5v-1.8ZM12 23.7a1.5 1.5 0 0 1-1.5 1.5H8.7a1.5 1.5 0 0 1-1.5-1.5v-1.8a1.5 1.5 0 0 1 1.5-1.5h1.8a1.5 1.5 0 0 1 1.5 1.5v1.8Zm0-7.2a1.5 1.5 0 0 1-1.5 1.5H8.7a1.5 1.5 0 0 1-1.5-1.5v-1.8a1.5 1.5 0 0 1 1.5-1.5h1.8a1.5 1.5 0 0 1 1.5 1.5v1.8Zm21.6 16.8a1.5 1.5 0 0 1-1.5 1.5H15.9a1.5 1.5 0 0 1-1.5-1.5v-1.8a1.5 1.5 0 0 1 1.5-1.5h16.2a1.5 1.5 0 0 1 1.5 1.5v1.8Zm0-9.6a1.5 1.5 0 0 1-1.5 1.5h-1.8a1.5 1.5 0 0 1-1.5-1.5v-1.8a1.5 1.5 0 0 1 1.5-1.5h1.8a1.5 1.5 0 0 1 1.5 1.5v1.8Zm0-7.2a1.5 1.5 0 0 1-1.5 1.5h-1.8a1.5 1.5 0 0 1-1.5-1.5v-1.8a1.5 1.5 0 0 1 1.5-1.5h1.8a1.5 1.5 0 0 1 1.5 1.5v1.8Zm7.2 7.2a1.5 1.5 0 0 1-1.5 1.5h-1.8a1.5 1.5 0 0 1-1.5-1.5v-1.8a1.5 1.5 0 0 1 1.5-1.5h1.8a1.5 1.5 0 0 1 1.5 1.5v1.8Zm0-7.2a1.5 1.5 0 0 1-1.5 1.5h-1.8a1.5 1.5 0 0 1-1.5-1.5v-1.8a1.5 1.5 0 0 1 1.5-1.5h1.8a1.5 1.5 0 0 1 1.5 1.5v1.8Z"/></svg>