<svg width="48" height="48" viewBox="0 0 48 48" xmlns="http://www.w3.org/2000/svg" class="icon icon-knowledge-lg" aria-hidden="true" focusable="false" fill="currentColor"><path fill-rule="evenodd" clip-rule="evenodd" d="M29 18a3 3 0 1 0 0 6 3 3 0 0 0 0-6Zm-5 3a5 5 0 1 1 10 0 5 5 0 0 1-10 0Z"/><path fill-rule="evenodd" clip-rule="evenodd" d="M24.797 1.03A20 20 0 0 1 39 36.193V46a1 1 0 1 1-2 0V35.725a1 1 0 0 1 .369-.775A18 18 0 1 0 8 21v2a1 1 0 0 1-.086.406l-3.612 8.127 3.145 1.572A1 1 0 0 1 8 34v8a3 3 0 0 0 3 3h8a9 9 0 0 0 9-9V25a1 1 0 0 1 2 0v11a11 11 0 0 1-11 11h-8a5 5 0 0 1-5-5v-7.382l-3.447-1.724a1 1 0 0 1-.467-1.3L6 22.788V21A20.001 20.001 0 0 1 24.797 1.03Z"/><path fill-rule="evenodd" clip-rule="evenodd" d="M35.364 13.222a1 1 0 0 1 1.414 0 11 11 0 0 1 0 15.556 1 1 0 1 1-1.414-1.414 9 9 0 0 0 0-12.728 1 1 0 0 1 0-1.414Zm-12.728 0a1 1 0 0 1 0 1.414 9 9 0 0 0 0 12.728 1 1 0 0 1-1.414 1.414 11 11 0 0 1 0-15.556 1 1 0 0 1 1.414 0Z"/></svg>