<svg width="48" height="48" viewBox="0 0 48 48" xmlns="http://www.w3.org/2000/svg" class="icon icon-knowledge-full-lg" aria-hidden="true" focusable="false" fill="currentColor"><path d="M30 24a3 3 0 1 0 0-6 3 3 0 0 0 0 6Z"/><path d="M25.229 1.015c-10.823.408-19.23 9.645-19.23 20.476v1.3l-3.525 7.93a2 2 0 0 0 .933 2.6L6 34.618V42a5 5 0 0 0 5 5h7a11 11 0 0 0 11-11V25.9a5 5 0 1 1 2 0V36a12.994 12.994 0 0 1-6.1 11H36a2 2 0 0 0 2-2v-8.027A19.983 19.983 0 0 0 25.229 1.015Zm-1.593 26.349a1 1 0 1 1-1.414 1.414 11 11 0 0 1 0-15.556 1 1 0 1 1 1.414 1.414 9 9 0 0 0 0 12.728Zm14.142 1.414a1 1 0 0 1-1.414-1.414 9 9 0 0 0 0-12.728.998.998 0 0 1 .316-1.645.999.999 0 0 1 1.098.231 11 11 0 0 1 0 15.556Z"/></svg>