<svg width="48" height="48" viewBox="0 0 48 48" xmlns="http://www.w3.org/2000/svg" class="icon icon-launch-lg" aria-hidden="true" focusable="false" fill="currentColor"><path fill-rule="evenodd" clip-rule="evenodd" d="M45.707 2.293a1 1 0 0 1 0 1.414l-22 22a1 1 0 0 1-1.414-1.414l22-22a1 1 0 0 1 1.414 0Z"/><path fill-rule="evenodd" clip-rule="evenodd" d="M28 3a1 1 0 0 1 1-1h16a1 1 0 0 1 1 1v16a1 1 0 1 1-2 0V4H29a1 1 0 0 1-1-1ZM3.464 9.464A5 5 0 0 1 7 8h12a1 1 0 1 1 0 2H7a3 3 0 0 0-3 3v28a3 3 0 0 0 3 3h28a3 3 0 0 0 3-3V29a1 1 0 1 1 2 0v12a5 5 0 0 1-5 5H7a5 5 0 0 1-5-5V13a5 5 0 0 1 1.464-3.536Z"/></svg>