<svg width="48" height="48" viewBox="0 0 48 48" xmlns="http://www.w3.org/2000/svg" class="icon icon-law-lg" aria-hidden="true" focusable="false" fill="currentColor"><path fill-rule="evenodd" clip-rule="evenodd" d="M32.708 20.293a1 1 0 0 1 0 1.414l-8 8a1 1 0 0 1-1.415 0L17 23.414 6.707 33.707a1 1 0 0 1-1.414 0l-4-4a1 1 0 0 1 0-1.414L11.586 18l-6.293-6.293a1 1 0 0 1 0-1.414l8-8a1 1 0 0 1 1.415 0l18 18ZM7.414 11 14 4.414 30.586 21 24 27.586 7.414 11Zm8.172 11L13 19.414 3.414 29 6 31.586 15.586 22ZM42 40a1 1 0 0 0-1-1H18a1 1 0 0 0-1 1v5h-3a1 1 0 1 0 0 2h31a1 1 0 1 0 0-2h-3v-5Zm-2 5H19v-4h21v4Z"/><path d="M45 33a1 1 0 1 1 0 2h-6a1 1 0 1 1 0-2h6Zm-3.979-11.021a1 1 0 0 0-1.414 0l-4.243 4.243a1 1 0 1 0 1.414 1.414l4.243-4.243a1 1 0 0 0 0-1.414Z"/></svg>