<svg width="48" height="48" viewBox="0 0 48 48" xmlns="http://www.w3.org/2000/svg" class="icon icon-letter-lg" aria-hidden="true" focusable="false" fill="currentColor"><path fill-rule="evenodd" clip-rule="evenodd" d="M10.81 15.613a1 1 0 0 1-.223 1.397L3 22.51V45h42V22.51l-7.587-5.5a1 1 0 0 1 1.174-1.62l8 5.8A1 1 0 0 1 47 22v24a1 1 0 0 1-1 1H2a1 1 0 0 1-1-1V22a1 1 0 0 1 .413-.81l8-5.8a1 1 0 0 1 1.397.223Z"/><path fill-rule="evenodd" clip-rule="evenodd" d="M9 2a1 1 0 0 1 1-1h28a1 1 0 0 1 1 1v24.4a1 1 0 1 1-2 0V3H11v23.4a1 1 0 1 1-2 0V2Z"/><path fill-rule="evenodd" clip-rule="evenodd" d="M1.122 21.521a1 1 0 0 1 1.357-.399l44 24a1 1 0 0 1-.958 1.756l-44-24a1 1 0 0 1-.399-1.357Z"/><path fill-rule="evenodd" clip-rule="evenodd" d="M46.878 21.521a1 1 0 0 1-.399 1.357l-22 12a1 1 0 1 1-.958-1.756l22-12a1 1 0 0 1 1.357.4ZM17 12a1 1 0 0 1 1-1h12a1 1 0 1 1 0 2H18a1 1 0 0 1-1-1Zm0 8a1 1 0 0 1 1-1h12a1 1 0 1 1 0 2H18a1 1 0 0 1-1-1Z"/></svg>