<svg width="48" height="48" viewBox="0 0 48 48" xmlns="http://www.w3.org/2000/svg" class="icon icon-link-lg" aria-hidden="true" focusable="false" fill="currentColor"><path d="M32.885 2.722a9.485 9.485 0 0 1 10.337 15.47l-5 5a9.441 9.441 0 0 1-5.049 2.633 1 1 0 1 1-.347-1.97 7.442 7.442 0 0 0 3.98-2.076l.002-.001 5-5A7.485 7.485 0 1 0 31.222 6.192l-5.001 5.001a7.44 7.44 0 0 0-2.076 3.98 1 1 0 0 1-1.97-.347 9.44 9.44 0 0 1 2.633-5.049h.001l4.999-5a9.485 9.485 0 0 1 3.077-2.055Zm-16.9 20.264a1 1 0 0 1-.812 1.159 7.44 7.44 0 0 0-3.98 2.076l-5.001 5.001a7.486 7.486 0 1 0 10.586 10.586l5-5 .001-.001a7.441 7.441 0 0 0 2.076-3.98 1 1 0 1 1 1.97.346 9.441 9.441 0 0 1-2.633 5.05l-5 5A9.485 9.485 0 1 1 4.778 29.807l4.999-4.999a9.44 9.44 0 0 1 5.05-2.634 1 1 0 0 1 1.158.811Z"/><path d="M32.707 16.707a1 1 0 0 0-1.414-1.414l-16 16a1 1 0 0 0 1.414 1.414l16-16Z"/></svg>