<svg width="48" height="48" viewBox="0 0 48 48" xmlns="http://www.w3.org/2000/svg" class="icon icon-linkedin-lg" aria-hidden="true" focusable="false" fill="currentColor"><path fill-rule="evenodd" clip-rule="evenodd" d="M46 0H2C.9 0 0 .9 0 2v44c0 1.1.9 2 2 2h44c1.1 0 2-.9 2-2V2c0-1.1-.9-2-2-2ZM14.2 40.9H7.1V18h7.1v22.9Zm-3.5-26c-2.3 0-4.1-1.8-4.1-4.1s1.8-4.1 4.1-4.1 4.1 1.8 4.1 4.1c0 2.2-1.8 4.1-4.1 4.1Zm30.2 26h-7.1V29.8c0-2.7 0-6.1-3.7-6.1s-4.3 2.9-4.3 5.9v11.3h-7.1V18h6.8v3.1h.1c.9-1.8 3.3-3.7 6.7-3.7 7.2 0 8.5 4.7 8.5 10.9v12.6h.1Z"/></svg>