<svg width="48" height="48" viewBox="0 0 48 48" xmlns="http://www.w3.org/2000/svg" class="icon icon-list-schedule-lg" aria-hidden="true" focusable="false" fill="currentColor"><path fill-rule="evenodd" clip-rule="evenodd" d="M4 4a1 1 0 0 0-1 1v8a1 1 0 0 0 1 1h8a1 1 0 0 0 1-1V5a1 1 0 0 0-1-1H4Zm1 8V6h6v6H5Zm15-7a1 1 0 0 0-1 1v6a1 1 0 0 0 1 1h24a1 1 0 0 0 1-1V6a1 1 0 0 0-1-1H20Zm1 6V7h22v4H21Zm-1 10a1 1 0 0 0-1 1v6a1 1 0 0 0 1 1h24a1 1 0 0 0 1-1v-6a1 1 0 0 0-1-1H20Zm1 6v-4h22v4H21Zm-2 11a1 1 0 0 1 1-1h24a1 1 0 0 1 1 1v6a1 1 0 0 1-1 1H20a1 1 0 0 1-1-1v-6Zm2 1v4h22v-4H21ZM3 21a1 1 0 0 1 1-1h8a1 1 0 0 1 1 1v8a1 1 0 0 1-1 1H4a1 1 0 0 1-1-1v-8Zm2 1v6h6v-6H5ZM4 36a1 1 0 0 0-1 1v8a1 1 0 0 0 1 1h8a1 1 0 0 0 1-1v-8a1 1 0 0 0-1-1H4Zm1 8v-6h6v6H5Z"/></svg>