<svg width="48" height="48" viewBox="0 0 48 48" xmlns="http://www.w3.org/2000/svg" class="icon icon-lock-lg" aria-hidden="true" focusable="false" fill="currentColor"><path d="M23.997 1A11.029 11.029 0 0 0 13 11.997V16a1 1 0 1 0 2 0v-3.998A9.029 9.029 0 0 1 24 3a9.029 9.029 0 0 1 9 9.002V16a1 1 0 1 0 2 0v-4.003A11.029 11.029 0 0 0 24.003 1L24 2l-.003-1Z"/><path fill-rule="evenodd" clip-rule="evenodd" d="M25 35.9a5.002 5.002 0 0 0-1-9.9 5 5 0 0 0-1 9.9V40a1 1 0 1 0 2 0v-4.1ZM24 28a3 3 0 1 0 0 6 3 3 0 0 0 0-6Z"/><path fill-rule="evenodd" clip-rule="evenodd" d="M10 20a5 5 0 0 0-5 5v17a5 5 0 0 0 5 5h28a5 5 0 0 0 5-5V25a5 5 0 0 0-5-5H10Zm-3 5a3 3 0 0 1 3-3h28a3 3 0 0 1 3 3v17a3 3 0 0 1-3 3H10a3 3 0 0 1-3-3V25Z"/></svg>