<svg width="48" height="48" viewBox="0 0 48 48" xmlns="http://www.w3.org/2000/svg" class="icon icon-mail-lg" aria-hidden="true" focusable="false" fill="currentColor"><path fill-rule="evenodd" clip-rule="evenodd" d="M8.293 12.293a1 1 0 0 1 1.414 0L24 26.586l14.293-14.293a1 1 0 0 1 1.414 1.414l-15 15a1 1 0 0 1-1.414 0l-15-15a1 1 0 0 1 0-1.414Z"/><path fill-rule="evenodd" clip-rule="evenodd" d="M6 7a3 3 0 0 0-3 3v28a3 3 0 0 0 3 3h36a3 3 0 0 0 3-3V10a3 3 0 0 0-3-3H6Zm-5 3a5 5 0 0 1 5-5h36a5 5 0 0 1 5 5v28a5 5 0 0 1-5 5H6a5 5 0 0 1-5-5V10Z"/><path fill-rule="evenodd" clip-rule="evenodd" d="M16.707 27.293a1 1 0 0 1 0 1.414l-7 7a1 1 0 0 1-1.414-1.414l7-7a1 1 0 0 1 1.414 0Zm14.586 0a1 1 0 0 1 1.414 0l7 7a1 1 0 0 1-1.414 1.414l-7-7a1 1 0 0 1 0-1.414Z"/></svg>