<svg width="48" height="48" viewBox="0 0 48 48" xmlns="http://www.w3.org/2000/svg" class="icon icon-map-lg" aria-hidden="true" focusable="false" fill="currentColor"><path fill-rule="evenodd" clip-rule="evenodd" d="M46.615 9.212A1 1 0 0 1 47 10v30a1 1 0 0 1-.758.97l-16 4a1 1 0 0 1-.558-.021L17.96 41.04 2.243 44.97A1 1 0 0 1 1 44V14a1 1 0 0 1 .757-.97l6-1.5a1 1 0 1 1 .486 1.94L3 14.78v27.94l14.758-3.69a1 1 0 0 1 .558.021L30.04 42.96 45 39.22V11.281l-4.758 1.19a1 1 0 1 1-.484-1.941l6-1.5a1 1 0 0 1 .857.182Z"/><path fill-rule="evenodd" clip-rule="evenodd" d="M24 3c-4.38 0-9 3.32-9 9 0 1.304.539 2.92 1.45 4.683.902 1.743 2.115 3.531 3.346 5.152A64.736 64.736 0 0 0 24 26.803a64.736 64.736 0 0 0 4.204-4.968c1.23-1.621 2.444-3.409 3.345-5.152C32.461 14.92 33 13.303 33 12c0-5.68-4.62-9-9-9Zm0 25.25-.71.704-.009-.009-.023-.023a26.513 26.513 0 0 1-.412-.428 66.749 66.749 0 0 1-4.642-5.45c-1.27-1.67-2.556-3.559-3.53-5.442C13.711 15.741 13 13.782 13 12c0-6.975 5.716-11 11-11s11 4.025 11 11c0 1.782-.711 3.74-1.674 5.602-.974 1.883-2.26 3.772-3.53 5.442a66.749 66.749 0 0 1-5.054 5.878l-.023.023-.008.008s-.001.001-.711-.703Zm0 0 .71.704a1 1 0 0 1-1.42 0l.71-.704Z"/><path fill-rule="evenodd" clip-rule="evenodd" d="M24 10a2 2 0 1 0 0 4 2 2 0 0 0 0-4Zm-4 2a4 4 0 1 1 8 0 4 4 0 0 1-8 0Z"/></svg>