<svg width="48" height="48" viewBox="0 0 48 48" xmlns="http://www.w3.org/2000/svg" class="icon icon-media-player-lg" aria-hidden="true" focusable="false" fill="currentColor"><path fill-rule="evenodd" clip-rule="evenodd" d="M18.502 13.133a1 1 0 0 1 1.002.003l12 7a1 1 0 0 1 0 1.728l-12 7A1 1 0 0 1 18 28V14a1 1 0 0 1 .502-.867ZM20 26.259 29.015 21 20 15.741v10.518Z"/><path fill-rule="evenodd" clip-rule="evenodd" d="M2 4a1 1 0 0 0-1 1v32a1 1 0 0 0 1 1h44a1 1 0 0 0 1-1V5a1 1 0 0 0-1-1H2Zm1 32V6h42v30H3Z"/><path d="M11 43a1 1 0 0 1 1-1h24a1 1 0 1 1 0 2H12a1 1 0 0 1-1-1Z"/></svg>