<svg width="48" height="48" viewBox="0 0 48 48" xmlns="http://www.w3.org/2000/svg" class="icon icon-megaphone-lg" aria-hidden="true" focusable="false" fill="currentColor"><path fill-rule="evenodd" clip-rule="evenodd" d="M33 4a1 1 0 0 0-1.53-.848L15.713 13H8a7.002 7.002 0 0 0-2.586 13.507l7.058 15.814a4.214 4.214 0 0 0 7.696-3.434l-3.757-8.3a1 1 0 1 0-1.822.825l3.754 8.291a2.214 2.214 0 0 1-4.045 1.803L7.823 26.998 8 27h7.713l15.757 9.848A1 1 0 0 0 33 36V4ZM11 25h5a1 1 0 0 1 .53.152L31 34.196V5.804l-14.47 9.044A1 1 0 0 1 16 15h-5v10ZM9 15v10H8c-.504 0-.99-.074-1.448-.213a1.002 1.002 0 0 0-.19-.062A5.002 5.002 0 0 1 8 15h1Z"/><path d="M41 20a1 1 0 0 1 1-1h4a1 1 0 1 1 0 2h-4a1 1 0 0 1-1-1Zm2.553-10.134a1 1 0 0 0-1-1.732l-3.465 2a1 1 0 1 0 1 1.732l3.465-2ZM38.722 28.5a1 1 0 0 1 1.366-.366l3.465 2a1 1 0 0 1-1 1.732l-3.465-2a1 1 0 0 1-.366-1.366Z"/></svg>