<svg width="48" height="48" viewBox="0 0 48 48" xmlns="http://www.w3.org/2000/svg" class="icon icon-microphone-lg" aria-hidden="true" focusable="false" fill="currentColor"><path fill-rule="evenodd" clip-rule="evenodd" d="M24 3a9 9 0 0 0-9 9v10a9 9 0 0 0 9 9 9 9 0 0 0 9-9V12a9 9 0 0 0-9-9Zm-11 9c0-6.075 4.925-11 11-11s11 4.925 11 11v10c0 6.075-4.925 11-11 11s-11-4.925-11-11V12Zm0 34a1 1 0 0 1 1-1h20a1 1 0 1 1 0 2H14a1 1 0 0 1-1-1Z"/><path fill-rule="evenodd" clip-rule="evenodd" d="M24 37a1 1 0 0 1 1 1v8a1 1 0 1 1-2 0v-8a1 1 0 0 1 1-1Z"/><path fill-rule="evenodd" clip-rule="evenodd" d="M8 21a1 1 0 0 1 1 1c0 8.285 6.715 15 15 15s15-6.715 15-15a1 1 0 1 1 2 0c0 9.39-7.61 17-17 17S7 31.39 7 22a1 1 0 0 1 1-1Zm5-7a1 1 0 0 1 1-1h5a1 1 0 1 1 0 2h-5a1 1 0 0 1-1-1Z"/><path fill-rule="evenodd" clip-rule="evenodd" d="M13 21a1 1 0 0 1 1-1h5a1 1 0 1 1 0 2h-5a1 1 0 0 1-1-1Zm15-7a1 1 0 0 1 1-1h5a1 1 0 1 1 0 2h-5a1 1 0 0 1-1-1Zm0 7a1 1 0 0 1 1-1h5a1 1 0 1 1 0 2h-5a1 1 0 0 1-1-1Z"/></svg>