<svg width="48" height="48" viewBox="0 0 48 48" xmlns="http://www.w3.org/2000/svg" class="icon icon-money-time-lg" aria-hidden="true" focusable="false" fill="currentColor"><path d="M3 22C3 11.506 11.506 3 22 3c7.79 0 14.487 4.688 17.42 11.401a1 1 0 0 0 1.832-.8C38.013 6.186 30.614 1 22 1 10.402 1 1 10.402 1 22s9.402 21 21 21a1 1 0 1 0 0-2C11.506 41 3 32.494 3 22Z"/><path d="M23 12a1 1 0 1 0-2 0v9h-9a1 1 0 1 0 0 2h10a1 1 0 0 0 1-1V12Z"/><path fill-rule="evenodd" clip-rule="evenodd" d="M27 24v18c0 .878.404 1.638.983 2.246.573.603 1.356 1.1 2.247 1.496C32.014 46.535 34.408 47 37 47c2.592 0 4.986-.465 6.77-1.258.891-.396 1.674-.893 2.247-1.496.579-.608.983-1.368.983-2.246V24c0-.878-.404-1.639-.983-2.246-.574-.603-1.356-1.1-2.247-1.496C41.986 19.465 39.592 19 37 19c-2.592 0-4.986.465-6.77 1.258-.89.396-1.674.893-2.247 1.496C27.404 22.36 27 23.122 27 24Zm2.432-.868c-.333.35-.432.641-.432.868 0 .227.1.518.432.868.337.354.872.719 1.61 1.047C32.516 26.57 34.622 27 37 27c2.379 0 4.484-.43 5.958-1.085.738-.328 1.273-.693 1.61-1.047.333-.35.432-.641.432-.868 0-.227-.1-.518-.432-.868-.337-.354-.872-.719-1.61-1.047C41.484 21.43 39.378 21 37 21c-2.379 0-4.484.43-5.958 1.085-.738.328-1.273.693-1.61 1.047ZM45 27.08c-.375.246-.79.467-1.23.662C41.986 28.535 39.592 29 37 29c-2.592 0-4.986-.465-6.77-1.258A8.691 8.691 0 0 1 29 27.08V30c0 .227.1.518.432.868.337.354.872.719 1.61 1.047C32.515 32.569 34.621 33 37 33c2.38 0 4.485-.43 5.958-1.085.738-.328 1.273-.693 1.61-1.047.333-.35.432-.641.432-.868v-2.92Zm0 12V42c0 .227-.1.518-.432.868-.337.354-.872.719-1.61 1.047C41.485 44.569 39.379 45 37 45c-2.38 0-4.485-.43-5.958-1.085-.738-.328-1.273-.693-1.61-1.047-.333-.35-.432-.641-.432-.868v-2.92c.375.246.79.466 1.23.662C32.014 40.535 34.408 41 37 41c2.592 0 4.986-.465 6.77-1.258.44-.196.855-.416 1.23-.662ZM29 36c0 .227.1.518.432.868.337.354.872.719 1.61 1.047C32.515 38.569 34.621 39 37 39c2.38 0 4.485-.43 5.958-1.085.738-.328 1.273-.693 1.61-1.047.333-.35.432-.641.432-.868v-2.92c-.375.246-.79.466-1.23.662C41.986 34.535 39.592 35 37 35c-2.592 0-4.986-.465-6.77-1.258A8.699 8.699 0 0 1 29 33.08V36Z"/></svg>