<svg width="48" height="48" viewBox="0 0 48 48" xmlns="http://www.w3.org/2000/svg" class="icon icon-moon-lg" aria-hidden="true" focusable="false" fill="currentColor"><path fill-rule="evenodd" clip-rule="evenodd" d="M19.395 3.981a1 1 0 0 1 .278.948C19.283 6.589 19 8.306 19 10c0 10.448 8.552 19 19 19 1.694 0 3.41-.283 5.071-.673a1 1 0 0 1 1.194 1.234C41.85 38.491 33.658 45 24 45 12.448 45 3 35.552 3 24 3 14.342 9.509 6.151 18.439 3.735a1 1 0 0 1 .956.246Zm-2.024 2.192C10.129 8.847 5 15.843 5 24c0 10.448 8.552 19 19 19 8.157 0 15.153-5.129 17.827-12.37-1.24.223-2.528.37-3.827.37-11.552 0-21-9.448-21-21 0-1.3.147-2.588.37-3.827Z"/></svg>