<svg width="48" height="49" viewBox="0 0 48 49" xmlns="http://www.w3.org/2000/svg" class="icon icon-moto-lg" aria-hidden="true" focusable="false" fill="currentColor"><path fill-rule="evenodd" clip-rule="evenodd" d="M47 23C47 10.154 36.469-.232 23.57.004 10.913.236 1 10.342 1 23v12c0 6.075 4.925 11 11 11h18c9.389 0 17-7.611 17-17v-6ZM3.055 36A9 9 0 0 0 12 44h18c8.284 0 15-6.716 15-15v-6c0-11.729-9.615-21.212-21.394-20.996C14.501 2.17 6.961 7.918 4.165 16H26.45c3.413 0 5.823 3.343 4.744 6.581l-3.334 10A5 5 0 0 1 23.117 36H3.055Zm.527-18H26.45a3 3 0 0 1 2.846 3.949l-3.333 10A3 3 0 0 1 23.117 34H3V23c0-1.726.201-3.4.582-5Z"/></svg>