<svg width="48" height="48" viewBox="0 0 48 48" xmlns="http://www.w3.org/2000/svg" class="icon icon-movie-lg" aria-hidden="true" focusable="false" fill="currentColor"><path fill-rule="evenodd" clip-rule="evenodd" d="M8.5 1a6.5 6.5 0 1 0 0 13 6.5 6.5 0 0 0 0-13ZM4 7.5a4.5 4.5 0 1 1 9 0 4.5 4.5 0 0 1-9 0Zm30 29.063V40a5 5 0 0 1-5 5H6a5 5 0 0 1-5-5V22a5 5 0 0 1 5-5h23a5 5 0 0 1 5 5v3.437l11.581-5.345a1 1 0 0 1 1.42.908v20a1 1 0 0 1-1.42.908L34 36.563ZM3 22a3 3 0 0 1 3-3h23a3 3 0 0 1 3 3v18a3 3 0 0 1-3 3H6a3 3 0 0 1-3-3V22Zm31 12.36 11 5.077V22.563L34 27.64v6.72ZM21 9.5a4.5 4.5 0 1 1 9 0 4.5 4.5 0 0 1-9 0ZM25.5 7a2.5 2.5 0 1 0 0 5 2.5 2.5 0 0 0 0-5Z"/></svg>