<svg width="48" height="48" viewBox="0 0 48 48" xmlns="http://www.w3.org/2000/svg" class="icon icon-navigation-lg" aria-hidden="true" focusable="false" fill="currentColor"><path fill-rule="evenodd" clip-rule="evenodd" d="M46.615 4.212A1 1 0 0 1 47 5v17a1 1 0 1 1-2 0V6.28L30.242 9.97a1 1 0 0 1-.558-.021L17.96 6.04 3 9.78v33.938l14.758-3.69a1 1 0 0 1 .558.022l10.998 3.666a1 1 0 1 1-.632 1.898L17.96 42.04 2.243 45.97A1 1 0 0 1 1 45V9a1 1 0 0 1 .757-.97l16-4a1 1 0 0 1 .56.021L30.04 7.96l15.718-3.93a1 1 0 0 1 .857.183Z"/><path fill-rule="evenodd" clip-rule="evenodd" d="M38 27c-3.442 0-7 2.443-7 6.634 0 .933.406 2.12 1.129 3.451.711 1.31 1.672 2.657 2.652 3.882A49.046 49.046 0 0 0 38 44.589a49.046 49.046 0 0 0 3.22-3.622c.98-1.225 1.94-2.572 2.651-3.882.723-1.331 1.129-2.518 1.129-3.451C45 29.443 41.442 27 38 27Zm0 19-.69.723-.008-.007-.019-.018a30.977 30.977 0 0 1-.333-.327 51.126 51.126 0 0 1-3.731-4.155c-1.02-1.275-2.059-2.724-2.848-4.176C29.594 36.61 29 35.067 29 33.634 29 28.054 33.762 25 38 25s9 3.053 9 8.634c0 1.433-.594 2.975-1.371 4.406-.789 1.452-1.828 2.901-2.848 4.176a51.126 51.126 0 0 1-4.064 4.482l-.02.018-.006.007L38 46Zm0 0 .69.723a1 1 0 0 1-1.38 0L38 46Z"/><path fill-rule="evenodd" clip-rule="evenodd" d="M36 34a2 2 0 1 1 4 0 2 2 0 0 1-4 0Z"/><path d="M38 35a1 1 0 1 0 0-2 1 1 0 0 0 0 2Z"/></svg>