<svg width="48" height="48" viewBox="0 0 48 48" xmlns="http://www.w3.org/2000/svg" class="icon icon-no-paper-lg" aria-hidden="true" focusable="false" fill="currentColor"><path fill-rule="evenodd" clip-rule="evenodd" d="M24 4C12.954 4 4 12.954 4 24s8.954 20 20 20 20-8.954 20-20S35.046 4 24 4ZM2 24C2 11.85 11.85 2 24 2s22 9.85 22 22-9.85 22-22 22S2 36.15 2 24Z"/><path d="M24 32.49c-4.2 0-6.91-3.18-6.91-8.09 0-6.23 5.92-12.81 6.17-13.09.38-.42 1.1-.42 1.48 0 .25.28 6.17 6.86 6.17 13.08 0 4.92-2.71 8.09-6.91 8.09v.01Zm0-18.94c-1.53 1.92-4.91 6.62-4.91 10.85 0 3.76 1.88 6.09 4.91 6.09 3.03 0 4.91-2.33 4.91-6.09 0-4.23-3.38-8.94-4.91-10.85Z"/><path d="M30.68 33.67h-.21c-.55-.02-.99-.48-.97-1.03.02-.55.5-.95 1.03-.97 2.36.08 4.25-1.64 5.12-4.71 1.17-4.08-.9-9.21-1.88-11.29-.71.46-1.4.95-2.06 1.48-.43.34-1.06.27-1.41-.16-.35-.43-.27-1.06.16-1.41 1.01-.8 2.09-1.54 3.21-2.2.23-.14.51-.17.77-.1s.48.24.61.48c.17.31 4.24 7.73 2.52 13.75-1.11 3.87-3.68 6.16-6.9 6.16h.01Zm-13.36 0c-3.22 0-5.79-2.29-6.9-6.16-1.72-6.02 2.35-13.44 2.52-13.75.13-.23.35-.41.61-.48s.54-.04.77.1c1.12.65 2.2 1.39 3.21 2.2.43.34.5.97.16 1.41-.34.43-.97.5-1.41.16-.66-.53-1.35-1.02-2.06-1.48-.98 2.08-3.04 7.22-1.88 11.29.88 3.06 2.73 4.8 5.12 4.71.54-.01 1.01.42 1.03.97.02.55-.42 1.01-.97 1.03h-.21.01ZM24 38.39c-.55 0-1-.45-1-1V23.8c0-.55.45-1 1-1s1 .45 1 1v13.59c0 .55-.45 1-1 1Z"/></svg>