<svg width="48" height="48" viewBox="0 0 48 48" xmlns="http://www.w3.org/2000/svg" class="icon icon-not-specified-lg" aria-hidden="true" focusable="false" fill="currentColor"><path fill-rule="evenodd" clip-rule="evenodd" d="M17.217 32.243c1.879 1.566 4.174 2.4 6.783 2.4 5.843 0 10.644-4.8 10.644-10.643 0-2.609-.94-4.904-2.4-6.783L17.216 32.243ZM24 13.356c-5.843 0-10.643 4.8-10.643 10.644 0 2.609.939 4.904 2.4 6.783l15.026-15.027c-1.879-1.46-4.174-2.4-6.783-2.4ZM24 1C11.3 1 1 11.3 1 24s10.3 23 23 23 23-10.3 23-23S36.7 1 24 1Zm0 35.73c-6.991 0-12.73-5.739-12.73-12.73 0-6.991 5.739-12.73 12.73-12.73 6.991 0 12.73 5.739 12.73 12.73 0 6.991-5.739 12.73-12.73 12.73Z"/></svg>