<svg width="48" height="48" viewBox="0 0 48 48" xmlns="http://www.w3.org/2000/svg" class="icon icon-not-specified-round-lg" aria-hidden="true" focusable="false" fill="currentColor"><path fill-rule="evenodd" clip-rule="evenodd" d="M40.512 7.989A22.924 22.924 0 0 1 47 24c0 12.703-10.297 23-23 23S1 36.703 1 24 11.297 1 24 1c6.224 0 11.87 2.472 16.011 6.488a.998.998 0 0 1 .5.5ZM3 24C3 12.402 12.402 3 24 3c5.44 0 10.395 2.068 14.125 5.46L8.46 38.125A20.923 20.923 0 0 1 3 24Zm6.875 15.54A20.924 20.924 0 0 0 24 45c11.598 0 21-9.402 21-21 0-5.44-2.068-10.396-5.46-14.125L9.875 39.54Z"/></svg>