<svg width="48" height="48" viewBox="0 0 48 48" xmlns="http://www.w3.org/2000/svg" class="icon icon-notes-lg" aria-hidden="true" focusable="false" fill="currentColor"><path fill-rule="evenodd" clip-rule="evenodd" d="M40.2 6H29c0-2.8-2.2-5-5-5s-5 2.2-5 5H7.8C6.8 6 6 6.9 6 8v37c0 1.1.8 2 1.8 2h32.4c1 0 1.8-.9 1.8-2V8c0-1.1-.8-2-1.8-2ZM24 4c1.1 0 2 .9 2 2s-.9 2-2 2-2-.9-2-2 .9-2 2-2Zm4.2 35h-8.4c-.7 0-1.2-.4-1.2-1s.5-1 1.2-1h8.4c.7 0 1.2.4 1.2 1s-.5 1-1.2 1Zm6.6-7H13.2c-.7 0-1.2-.4-1.2-1s.5-1 1.2-1h21.6c.7 0 1.2.4 1.2 1s-.5 1-1.2 1Zm0-7H13.2c-.7 0-1.2-.4-1.2-1s.5-1 1.2-1h21.6c.7 0 1.2.4 1.2 1s-.5 1-1.2 1Zm0-7H13.2c-.7 0-1.2-.4-1.2-1s.5-1 1.2-1h21.6c.7 0 1.2.4 1.2 1s-.5 1-1.2 1Z"/></svg>