<svg width="48" height="48" viewBox="0 0 48 48" xmlns="http://www.w3.org/2000/svg" class="icon icon-overlap-lg" aria-hidden="true" focusable="false" fill="currentColor"><path fill-rule="evenodd" clip-rule="evenodd" d="M15 2a1 1 0 0 1 1-1h30a1 1 0 0 1 1 1v30a1 1 0 0 1-1 1h-8a1 1 0 1 1 0-2h7V3H17v7a1 1 0 1 1-2 0V2Zm17 39a1 1 0 0 1 1 1v4a1 1 0 0 1-1 1h-4a1 1 0 1 1 0-2h3v-3a1 1 0 0 1 1-1ZM2 41a1 1 0 0 1 1 1v3h3a1 1 0 1 1 0 2H2a1 1 0 0 1-1-1v-4a1 1 0 0 1 1-1ZM1 16a1 1 0 0 1 1-1h4a1 1 0 1 1 0 2H3v3a1 1 0 1 1-2 0v-4Zm12 30a1 1 0 0 1 1-1h6a1 1 0 1 1 0 2h-6a1 1 0 0 1-1-1Z"/><path fill-rule="evenodd" clip-rule="evenodd" d="M27 16a1 1 0 0 1 1-1h4a1 1 0 0 1 1 1v4a1 1 0 1 1-2 0v-3h-3a1 1 0 0 1-1-1ZM1 16a1 1 0 0 1 1-1h4a1 1 0 1 1 0 2H3v3a1 1 0 1 1-2 0v-4Zm12 0a1 1 0 0 1 1-1h6a1 1 0 1 1 0 2h-6a1 1 0 0 1-1-1ZM2 27a1 1 0 0 1 1 1v6a1 1 0 1 1-2 0v-6a1 1 0 0 1 1-1Zm30 0a1 1 0 0 1 1 1v6a1 1 0 1 1-2 0v-6a1 1 0 0 1 1-1Z"/></svg>