<svg width="48" height="48" viewBox="0 0 48 48" xmlns="http://www.w3.org/2000/svg" class="icon icon-paint-lg" aria-hidden="true" focusable="false" fill="currentColor"><path fill-rule="evenodd" clip-rule="evenodd" d="M22.263 2.109a1 1 0 0 1 .707.293l11.314 11.314a1 1 0 0 1 .259.967l-2.13 7.912 8.019-2.106a1 1 0 0 1 .961.26l4.243 4.243a1 1 0 0 1 0 1.414l-14.18 14.18a1 1 0 0 1-1.414-1.414l13.473-13.473-3.13-3.13-9.131 2.398a1 1 0 0 1-1.22-1.227l2.427-9.019L22.263 4.523 8.828 17.958a1 1 0 0 1-1.414-1.414L21.556 2.402a1 1 0 0 1 .707-.293Z"/><path fill-rule="evenodd" clip-rule="evenodd" d="M8.121 16.251a1 1 0 0 1 .707.293l22.628 22.628a1 1 0 0 1 0 1.414L30.042 42a7 7 0 0 1-9.9 0l-3.535-3.536-7.07 7.071a5 5 0 0 1-7.072-7.071l7.07-7.071L6 27.857a7 7 0 0 1 0-9.9l1.414-1.413a1 1 0 0 1 .707-.293Zm0 2.414-.707.707a5 5 0 0 0 0 7.07l4.243 4.244a1 1 0 0 1 0 1.414L3.88 39.878a3 3 0 0 0 4.243 4.243l7.778-7.778a1 1 0 0 1 1.414 0l4.243 4.243a5 5 0 0 0 7.07 0l.708-.707L8.12 18.665Z"/></svg>