<svg width="48" height="48" viewBox="0 0 48 48" xmlns="http://www.w3.org/2000/svg" class="icon icon-payment-lg" aria-hidden="true" focusable="false" fill="currentColor"><path d="M16.311 15.725 17 15l-.689.725Z"/><path fill-rule="evenodd" clip-rule="evenodd" d="m17.69 15.724.003-.003.01-.01.038-.036.134-.132a27.269 27.269 0 0 0 1.9-2.086c.518-.635 1.057-1.366 1.471-2.1C21.645 10.649 22 9.814 22 9c0-2.752-2.248-5-5-5s-5 2.248-5 5c0 .814.355 1.649.754 2.357.414.734.953 1.465 1.471 2.1a27.269 27.269 0 0 0 2.034 2.218l.037.036.01.01.005.004c.386.366.992.366 1.378 0ZM17 6c-1.648 0-3 1.352-3 3 0 .286.145.751.496 1.375.336.596.797 1.228 1.279 1.818.437.535.876 1.018 1.225 1.385.35-.367.788-.85 1.225-1.385.482-.59.943-1.222 1.279-1.818C19.855 9.75 20 9.286 20 9c0-1.648-1.352-3-3-3Zm0 9 .69.724s-.001.001-.69-.724Zm-8.863 5H4a1 1 0 1 1 0-2h40a1 1 0 1 1 0 2h-4.137l4.864 7.337C46.247 29.514 47 32.113 47 34.7 47 42.052 41.052 48 33.7 48H14.3C6.948 48 1 42.052 1 34.7c0-2.617.87-5.203 2.262-7.345l.004-.008L8.137 20Zm2.4 0-5.601 8.449C3.73 30.306 3 32.519 3 34.7A11.29 11.29 0 0 0 14.3 46h19.4A11.29 11.29 0 0 0 45 34.7c0-2.209-.645-4.406-1.92-6.227l-.009-.013-.005-.008L37.463 20H10.537Z"/><path d="M30.311 15.725 31 15c.689.725.69.725.69.724a1.001 1.001 0 0 1-1.379 0Z"/><path fill-rule="evenodd" clip-rule="evenodd" d="M30.311 15.725 31 15l.69.724.003-.003.01-.01.038-.036.134-.132a27.269 27.269 0 0 0 1.9-2.086c.518-.635 1.057-1.366 1.471-2.1C35.645 10.649 36 9.814 36 9c0-2.752-2.248-5-5-5s-5 2.248-5 5c0 .814.355 1.649.754 2.357.414.734.953 1.465 1.471 2.1a27.269 27.269 0 0 0 2.034 2.218l.037.036.01.01.005.004ZM28 9c0-1.648 1.352-3 3-3s3 1.352 3 3c0 .286-.145.751-.496 1.375-.336.596-.797 1.228-1.279 1.818A25.002 25.002 0 0 1 31 13.578c-.35-.367-.788-.85-1.225-1.385-.482-.59-.943-1.222-1.279-1.818C28.145 9.75 28 9.286 28 9Z"/></svg>