<svg width="48" height="48" viewBox="0 0 48 48" xmlns="http://www.w3.org/2000/svg" class="icon icon-pc-lg" aria-hidden="true" focusable="false" fill="currentColor"><path d="M24 11a1.5 1.5 0 1 0 0-3 1.5 1.5 0 0 0 0 3Z"/><path fill-rule="evenodd" clip-rule="evenodd" d="M29 35a1 1 0 0 1 1 1v8a1 1 0 1 1-2 0v-8a1 1 0 0 1 1-1Zm-10 0a1 1 0 0 1 1 1v8a1 1 0 1 1-2 0v-8a1 1 0 0 1 1-1Z"/><path fill-rule="evenodd" clip-rule="evenodd" d="M11 44a1 1 0 0 1 1-1h24a1 1 0 1 1 0 2H12a1 1 0 0 1-1-1ZM6 5a3 3 0 0 0-3 3v24a3 3 0 0 0 3 3h36a3 3 0 0 0 3-3V8a3 3 0 0 0-3-3H6Zm-3.536-.536A5 5 0 0 1 6 3h36a5 5 0 0 1 5 5v24a5 5 0 0 1-5 5H6a5 5 0 0 1-5-5V8a5 5 0 0 1 1.464-3.536Z"/><path fill-rule="evenodd" clip-rule="evenodd" d="M1 28a1 1 0 0 1 1-1h44a1 1 0 1 1 0 2H2a1 1 0 0 1-1-1Z"/></svg>