<svg width="48" height="48" viewBox="0 0 48 48" xmlns="http://www.w3.org/2000/svg" class="icon icon-pdf-lg" aria-hidden="true" focusable="false" fill="currentColor"><path fill-rule="evenodd" clip-rule="evenodd" d="M20.071 30.645c0 .878-.259 1.556-.776 2.033-.518.479-1.252.717-2.205.717h-.596V36h-2.122v-7.853h2.718c.992 0 1.737.217 2.234.649.498.434.747 1.051.747 1.849Zm-3.577 1.021h.387c.32 0 .572-.09.76-.27.188-.179.282-.426.282-.74 0-.53-.293-.795-.88-.795h-.549v1.805Zm11.494.241c0 1.311-.361 2.32-1.083 3.029-.721.71-1.735 1.064-3.042 1.064h-2.541v-7.853h2.718c1.26 0 2.233.322 2.919.967.686.645 1.029 1.575 1.029 2.793Zm-2.202.075c0-.72-.142-1.253-.427-1.601-.284-.348-.717-.521-1.297-.521h-.618v4.398h.473c.645 0 1.117-.188 1.418-.562.3-.374.45-.944.45-1.714Z"/><path d="M29.395 36h2.09v-2.95h2.353v-1.702h-2.353v-1.499h2.551v-1.702h-4.641V36Z"/><path fill-rule="evenodd" clip-rule="evenodd" d="M7 1a1 1 0 0 0-1 1v20H2a1 1 0 0 0-1 1v18a1 1 0 0 0 1 1h4v4a1 1 0 0 0 1 1h34a1 1 0 0 0 1-1v-4h4a1 1 0 0 0 1-1V23a1 1 0 0 0-1-1h-4v-8c0-.02 0-.04-.002-.06a1 1 0 0 0-.29-.647l-12-12-.012-.01A.997.997 0 0 0 29 1H7Zm33 21v-7H29a1 1 0 0 1-1-1V3H8v19h32Zm5 18V24H3v16h42ZM8 42h32v3H8v-3ZM30 4.414V13h8.586L30 4.414Z"/></svg>