<svg width="48" height="48" viewBox="0 0 48 48" xmlns="http://www.w3.org/2000/svg" class="icon icon-pencil-lg" aria-hidden="true" focusable="false" fill="currentColor"><path fill-rule="evenodd" clip-rule="evenodd" d="M6.293 30.293a1 1 0 0 1 1.414 0l10 10a1 1 0 1 1-1.414 1.414l-10-10a1 1 0 0 1 0-1.414Z"/><path fill-rule="evenodd" clip-rule="evenodd" d="M34.707 13.293a1 1 0 0 1 0 1.414l-22 22a1 1 0 0 1-1.414-1.414l22-22a1 1 0 0 1 1.414 0Z"/><path fill-rule="evenodd" clip-rule="evenodd" d="M28.293 8.293a1 1 0 0 1 1.414 0l10 10a1 1 0 1 1-1.414 1.414l-10-10a1 1 0 0 1 0-1.414Z"/><path fill-rule="evenodd" clip-rule="evenodd" d="M36.242 4a2 2 0 0 0-1.414.586L7.89 31.524l-3.434 12.02 12.02-3.434 26.938-26.938a1.999 1.999 0 0 0 0-2.829l-5.757-5.757A2 2 0 0 0 36.243 4Zm-1.53-1.695a4 4 0 0 1 4.36.867l5.756 5.757a4 4 0 0 1 0 5.657l-27.12 27.121a.999.999 0 0 1-.433.255l-14 4a1 1 0 0 1-1.236-1.237l4-14a1 1 0 0 1 .254-.432l27.12-27.121a4 4 0 0 1 1.299-.867Z"/></svg>