<svg width="48" height="48" viewBox="0 0 48 48" xmlns="http://www.w3.org/2000/svg" class="icon icon-pencil-full-lg" aria-hidden="true" focusable="false" fill="currentColor"><path fill-rule="evenodd" clip-rule="evenodd" d="M47 24c0 12.703-10.297 23-23 23S1 36.703 1 24 11.297 1 24 1s23 10.297 23 23Zm-20.655-9.353-12.49 12.49a1 1 0 0 0-.269.49l-1.562 7.03a1 1 0 0 0 1.193 1.194l7.031-1.563a1 1 0 0 0 .49-.269l14.386-14.386a2.562 2.562 0 0 0 0-3.623l-.002-.003-3.278-3.257a2.515 2.515 0 0 0-1.79-.75c-.68 0-1.332.27-1.813.75l-1.875 1.876a.35.35 0 0 0-.021.02Zm.718 2.11 4.054 4.055L19.53 32.4l-5.213 1.159 1.159-5.213 11.587-11.587Zm5.468 2.64-4.054-4.054 1.178-1.178a.563.563 0 0 1 .398-.165c.135 0 .261.049.377.165l.002.002 3.278 3.257a.563.563 0 0 1 0 .795l-1.179 1.179Z"/></svg>