<svg width="48" height="48" viewBox="0 0 48 48" xmlns="http://www.w3.org/2000/svg" class="icon icon-phone-out-lg" aria-hidden="true" focusable="false" fill="currentColor"><path fill-rule="evenodd" clip-rule="evenodd" d="M12.359 2.125a3.908 3.908 0 0 1 4.555 2.197l3.901 8.783a3.908 3.908 0 0 1-1.129 4.637l-3.595 2.875A35.115 35.115 0 0 0 27.386 31.91l2.875-3.595a3.908 3.908 0 0 1 4.637-1.129l8.782 3.9a3.912 3.912 0 0 1 2.196 4.555l-1.926 7.427a3.925 3.925 0 0 1-4.335 2.896h-.002A44.142 44.142 0 0 1 2.038 8.388v-.002A3.925 3.925 0 0 1 4.933 4.05h.002l7.424-1.926Zm19.463 27.44-3.423 4.279a1 1 0 0 1-1.288.237 37.116 37.116 0 0 1-13.191-13.19 1 1 0 0 1 .237-1.288l4.279-3.423a1.908 1.908 0 0 0 .551-2.263l-3.9-8.783a1.909 1.909 0 0 0-2.225-1.073L5.439 5.987a1.927 1.927 0 0 0-1.42 2.125 42.142 42.142 0 0 0 35.87 35.87 1.925 1.925 0 0 0 2.124-1.419l1.926-7.424a1.91 1.91 0 0 0-1.072-2.225l-8.782-3.9a1.908 1.908 0 0 0-2.263.55Z"/><path fill-rule="evenodd" clip-rule="evenodd" d="M45.707 2.293a1 1 0 0 1 0 1.414l-14 14a1 1 0 0 1-1.414-1.414l14-14a1 1 0 0 1 1.414 0Z"/><path fill-rule="evenodd" clip-rule="evenodd" d="M45 2a1 1 0 0 1 1 1v14a1 1 0 1 1-2 0V4H31a1 1 0 1 1 0-2h14Z"/></svg>