<svg width="48" height="48" viewBox="0 0 48 48" xmlns="http://www.w3.org/2000/svg" class="icon icon-pin-lg" aria-hidden="true" focusable="false" fill="currentColor"><path fill-rule="evenodd" clip-rule="evenodd" d="M34.56 7.2a1 1 0 0 1-.386 1.36L8.504 22.89a1 1 0 1 1-.974-1.746L33.2 6.814a1 1 0 0 1 1.36.386Zm6.24 6.24a1 1 0 0 1 .386 1.36l-14.33 25.67a1 1 0 1 1-1.746-.974l14.33-25.67a1 1 0 0 1 1.36-.386Z"/><path fill-rule="evenodd" clip-rule="evenodd" d="M29.293 3.293a1 1 0 0 1 1.414 0l14 14a1 1 0 0 1-1.414 1.414l-14-14a1 1 0 0 1 0-1.414Zm-15.586 31a1 1 0 0 1 0 1.414l-9 9a1 1 0 0 1-1.414-1.414l9-9a1 1 0 0 1 1.414 0Zm-10.414-17a1 1 0 0 1 1.414 0l26 26a1 1 0 0 1-1.414 1.414l-26-26a1 1 0 0 1 0-1.414Z"/></svg>