<svg width="48" height="48" viewBox="0 0 48 48" xmlns="http://www.w3.org/2000/svg" class="icon icon-pin-full-lg" aria-hidden="true" focusable="false" fill="currentColor"><path d="M14.172 32.414 3.292 43.293a.999.999 0 1 0 1.415 1.414l10.879-10.879-1.414-1.414Zm30.535-15.121-14-14a.999.999 0 1 0-1.414 1.414l2.752 2.752L8.189 20.775l-3.482-3.482a.999.999 0 1 0-1.414 1.414l26 26a.997.997 0 0 0 1.414 0 .999.999 0 0 0 0-1.414l-3.482-3.482L40.54 15.955l2.752 2.752a.997.997 0 0 0 1.414 0 .999.999 0 0 0 0-1.414Z"/></svg>