<svg width="48" height="48" viewBox="0 0 48 48" xmlns="http://www.w3.org/2000/svg" class="icon icon-pinmap-lg" aria-hidden="true" focusable="false" fill="currentColor"><path fill-rule="evenodd" clip-rule="evenodd" d="M24 3C16.72 3 9 8.522 9 18c0 2.529.926 5.43 2.397 8.418 1.464 2.973 3.426 5.95 5.405 8.61A95.436 95.436 0 0 0 24 43.563a95.436 95.436 0 0 0 7.198-8.535c1.979-2.66 3.941-5.637 5.405-8.61C38.073 23.43 39 20.528 39 18c0-9.478-7.72-15-15-15Zm0 42-.707.707-.001-.001-.003-.003-.01-.01-.036-.036a44.26 44.26 0 0 1-.654-.676 97.382 97.382 0 0 1-7.39-8.759c-2.022-2.715-4.06-5.8-5.596-8.92C8.073 24.194 7 20.971 7 18 7 7.228 15.816 1 24 1s17 6.228 17 17c0 2.971-1.074 6.195-2.603 9.301-1.536 3.12-3.574 6.206-5.595 8.921a97.382 97.382 0 0 1-7.907 9.295l-.138.14-.036.037-.01.01-.003.002L24 45Zm0 0 .707.707c-.39.39-1.024.39-1.415 0L24 45Z"/><path fill-rule="evenodd" clip-rule="evenodd" d="M24 14a4 4 0 1 0 0 8 4 4 0 0 0 0-8Zm-6 4a6 6 0 1 1 12 0 6 6 0 0 1-12 0Z"/></svg>