<svg width="48" height="48" viewBox="0 0 48 48" xmlns="http://www.w3.org/2000/svg" class="icon icon-plane-lg" aria-hidden="true" focusable="false" fill="currentColor"><path fill-rule="evenodd" clip-rule="evenodd" d="m10.373 29.485.228-.383a37.01 37.01 0 0 1 5.624-7.226l2.32-2.32-16.062-9.7a1 1 0 0 1-.19-1.563L4.567 6.02a5 5 0 0 1 5.062-1.226l17.933 5.75 6.504-6.502c1.374-1.374 3.803-2.347 6.009-2.78 1.123-.22 2.258-.315 3.253-.231.954.08 1.966.34 2.637 1.01.668.669.926 1.68 1.005 2.632.083.994-.011 2.128-.23 3.252-.431 2.206-1.4 4.64-2.775 6.015l-6.506 6.504 5.748 17.927a5 5 0 0 1-1.226 5.063l-2.274 2.274a1 1 0 0 1-1.563-.19l-9.7-16.062-2.32 2.32a36.966 36.966 0 0 1-7.226 5.623L8.554 43.56a3 3 0 0 1-4.113-4.113l1.936-3.25-3.794-3.793a2 2 0 0 1 1.568-3.4h.005l6.217.482ZM35.48 5.455c.97-.969 2.947-1.832 4.98-2.23.996-.196 1.938-.266 2.7-.202.802.067 1.226.267 1.391.432.16.16.36.58.426 1.383.064.762-.006 1.705-.2 2.703-.398 2.036-1.258 4.016-2.226 4.984l-6.886 6.884a.985.985 0 0 0-.1.1L24.71 30.36a34.969 34.969 0 0 1-6.835 5.319L7.53 41.84a1 1 0 0 1-1.37-1.371l2.078-3.49a1.004 1.004 0 0 0 .48-.806l2.793-4.692a1 1 0 0 0 .634-1.064l.174-.292a35.015 35.015 0 0 1 5.32-6.836L35.48 5.455ZM7.432 34.423l1.8-3.02-5.226-.405 3.426 3.425ZM29.901 28l9.295 15.39 1.37-1.37a3 3 0 0 0 .736-3.038L35.87 22.033l-5.97 5.966Zm-3.93-15.866L9.02 6.697a3 3 0 0 0-3.038.736l-1.37 1.371L20.001 18.1l5.97-5.967Z"/></svg>