<svg width="48" height="48" viewBox="0 0 48 48" xmlns="http://www.w3.org/2000/svg" class="icon icon-play-movie-lg" aria-hidden="true" focusable="false" fill="currentColor"><path fill-rule="evenodd" clip-rule="evenodd" d="M20.515 18.142A1 1 0 0 0 19 19v12a1 1 0 0 0 1.515.858l10-6a1 1 0 0 0 0-1.716l-10-6ZM28.056 25 21 29.234v-8.468L28.056 25Z"/><path fill-rule="evenodd" clip-rule="evenodd" d="M3 5a1 1 0 0 0-1 1v38a1 1 0 0 0 1 1h42a1 1 0 0 0 1-1V6a1 1 0 0 0-1-1H3Zm29 38h5v-5h-5v5Zm-2-5v5h-5v-5h5Zm14-2V14H4v22h40Zm0 7h-5v-5h5v5Zm-33 0h5v-5h-5v5Zm-2-5v5H4v-5h5Zm14 5h-5v-5h5v5Zm7-36h-5v5h5V7Zm2 5V7h5v5h-5Zm7-5v5h5V7h-5ZM9 7H4v5h5V7Zm2 5V7h5v5h-5Zm7-5v5h5V7h-5Z"/></svg>