<svg width="48" height="48" viewBox="0 0 48 48" xmlns="http://www.w3.org/2000/svg" class="icon icon-power-lg" aria-hidden="true" focusable="false" fill="currentColor"><path fill-rule="evenodd" clip-rule="evenodd" d="M14.87 8.207a1 1 0 0 1-.377 1.363C8.801 12.796 5 18.966 5 26c0 10.448 8.552 19 19 19s19-8.552 19-19c0-7.026-3.795-13.106-9.504-16.436a1 1 0 0 1 1.008-1.728C40.794 11.506 45 18.226 45 26c0 11.552-9.448 21-21 21S3 37.552 3 26c0-7.767 4.2-14.596 10.507-18.17a1 1 0 0 1 1.363.377Z"/><path fill-rule="evenodd" clip-rule="evenodd" d="M24 1a1 1 0 0 1 1 1v14a1 1 0 1 1-2 0V2a1 1 0 0 1 1-1Z"/></svg>