<svg width="48" height="48" viewBox="0 0 48 48" xmlns="http://www.w3.org/2000/svg" class="icon icon-print-lg" aria-hidden="true" focusable="false" fill="currentColor"><path d="M11 3a1 1 0 0 1 1-1h24a1 1 0 0 1 1 1v5a1 1 0 1 1-2 0V4H13v4a1 1 0 1 1-2 0V3Zm26 16.5a1.5 1.5 0 1 1-3 0 1.5 1.5 0 0 1 3 0ZM17 32a1 1 0 0 1 1-1h12a1 1 0 1 1 0 2H18a1 1 0 0 1-1-1Zm1 6a1 1 0 1 0 0 2h12a1 1 0 1 0 0-2H18Z"/><path fill-rule="evenodd" clip-rule="evenodd" d="M11 36H2a1 1 0 0 1-1-1V22a10 10 0 0 1 10-10h26a10 10 0 0 1 10 10v13a1 1 0 0 1-1 1h-9v9a1 1 0 0 1-1 1H12a1 1 0 0 1-1-1v-9ZM5.343 16.343A8 8 0 0 1 11 14h26a8 8 0 0 1 8 8v12h-8v-8a1 1 0 0 0-1-1H12a1 1 0 0 0-1 1v8H3V22a8 8 0 0 1 2.343-5.657ZM35 27H13v17h22V27Z"/></svg>