<svg width="48" height="48" viewBox="0 0 48 48" xmlns="http://www.w3.org/2000/svg" class="icon icon-question-lg" aria-hidden="true" focusable="false" fill="currentColor"><path d="M25 2h-.025c-4.017.1-7.95 1.173-11.46 3.126a1 1 0 1 0 .971 1.748A22.864 22.864 0 0 1 25.013 4c3.306.002 5.785.946 7.43 2.481C34.083 8.011 35 10.23 35 13c0 4.485-2.617 6.713-5.64 9.232l-.074.061C26.327 24.76 23 27.531 23 33a1 1 0 1 0 2 0c0-4.485 2.617-6.713 5.64-9.232l.074-.061C33.674 21.24 37 18.469 37 13c0-3.23-1.083-6.012-3.193-7.981C31.704 3.056 28.687 2 25 2Zm-4 40a3 3 0 1 1 6 0 3 3 0 0 1-6 0Z"/></svg>