<svg width="48" height="48" viewBox="0 0 48 48" xmlns="http://www.w3.org/2000/svg" class="icon icon-question-round-lg" aria-hidden="true" focusable="false" fill="currentColor"><path d="M22 36a2 2 0 1 1 4 0 2 2 0 0 1-4 0Zm-2.596-22.91c1.934-.855 4.148-1.226 6.061-1.046 1.938.182 3.376.901 4.063 2.013 1.46 2.363.598 5.295-2.377 7.811-1.614 1.366-2.667 2.524-3.307 3.673C23.184 26.723 23 27.827 23 29a1 1 0 1 0 2 0c0-.927.138-1.674.59-2.485.471-.844 1.316-1.82 2.853-3.12 3.325-2.813 5.004-6.8 2.786-10.389-1.151-1.864-3.324-2.742-5.577-2.953-2.276-.214-4.832.224-7.057 1.208a1 1 0 1 0 .81 1.83Z"/><path fill-rule="evenodd" clip-rule="evenodd" d="M24 1C11.297 1 1 11.297 1 24s10.297 23 23 23 23-10.297 23-23S36.703 1 24 1ZM3 24C3 12.402 12.402 3 24 3s21 9.402 21 21-9.402 21-21 21S3 35.598 3 24Z"/></svg>