<svg width="48" height="48" viewBox="0 0 48 48" xmlns="http://www.w3.org/2000/svg" class="icon icon-quote-lg" aria-hidden="true" focusable="false" fill="currentColor"><path d="M21.661 33.817c0 4.296-3.96 8.223-8.913 8.223C4.566 42.04 1 35.987 1 27.906c0-9.275 9.349-18.22 17.83-21.946l2.266 3.649c-6.988 3.386-12.212 7.978-12.952 15.676h2.891c3.096 0 6.312.499 8.46 2.724 1.53 1.589 2.166 3.611 2.166 5.808Zm25.339 0c0 4.296-3.961 8.223-8.913 8.223-8.183 0-11.749-6.053-11.749-14.134 0-9.275 9.35-18.22 17.83-21.946l2.267 3.649c-6.989 3.386-12.212 7.978-12.952 15.676 3.153 0 5.769-.114 8.099.72C45.21 27.303 47 30.108 47 33.816Z"/></svg>