<svg width="48" height="48" viewBox="0 0 48 48" xmlns="http://www.w3.org/2000/svg" class="icon icon-reduce-lg" aria-hidden="true" focusable="false" fill="currentColor"><path fill-rule="evenodd" clip-rule="evenodd" d="M29.293 18.707a1 1 0 0 1 0-1.414l14-14a1 1 0 1 1 1.414 1.414l-14 14a1 1 0 0 1-1.414 0Z"/><path fill-rule="evenodd" clip-rule="evenodd" d="M43 18a1 1 0 0 1-1 1H30a1 1 0 0 1-1-1V6a1 1 0 1 1 2 0v11h11a1 1 0 0 1 1 1ZM3.293 44.707a1 1 0 0 1 0-1.414l14-14a1 1 0 0 1 1.414 1.414l-14 14a1 1 0 0 1-1.414 0Z"/><path fill-rule="evenodd" clip-rule="evenodd" d="M18 43a1 1 0 0 1-1-1V31H6a1 1 0 1 1 0-2h12a1 1 0 0 1 1 1v12a1 1 0 0 1-1 1Zm.707-24.293a1 1 0 0 1-1.414 0l-14-14a1 1 0 0 1 1.414-1.414l14 14a1 1 0 0 1 0 1.414Z"/><path fill-rule="evenodd" clip-rule="evenodd" d="M19 18a1 1 0 0 1-1 1H6a1 1 0 1 1 0-2h11V6a1 1 0 1 1 2 0v12Zm25.707 26.707a1 1 0 0 1-1.414 0l-14-14a1 1 0 0 1 1.414-1.414l14 14a1 1 0 0 1 0 1.414Z"/><path fill-rule="evenodd" clip-rule="evenodd" d="M30 43a1 1 0 0 1-1-1V30a1 1 0 0 1 1-1h12a1 1 0 1 1 0 2H31v11a1 1 0 0 1-1 1Z"/></svg>