<svg width="48" height="48" viewBox="0 0 48 48" xmlns="http://www.w3.org/2000/svg" class="icon icon-refresh-lg" aria-hidden="true" focusable="false" fill="currentColor"><path fill-rule="evenodd" clip-rule="evenodd" d="M41.943 1.268a1 1 0 0 1 1.117.867l1.458 11.594a1 1 0 0 1-1.26 1.088l-11.384-3.172a1 1 0 0 1 .536-1.926l9.936 2.768-1.27-10.102a1 1 0 0 1 .867-1.117Z"/><path fill-rule="evenodd" clip-rule="evenodd" d="M15.92 2.456a23 23 0 0 1 28.494 10.937 1 1 0 0 1-1.776.922A21 21 0 1 0 45 24a1 1 0 0 1 2 0A23 23 0 1 1 15.92 2.456Z"/></svg>