<svg width="48" height="48" viewBox="0 0 48 48" xmlns="http://www.w3.org/2000/svg" class="icon icon-refund-lg" aria-hidden="true" focusable="false" fill="currentColor"><path d="M31.378 4.328a21 21 0 0 0-24.77 7.893L15.59 9.72a1 1 0 1 1 .537 1.926L4.742 14.817l-.017.005a1 1 0 0 1-1.24-1.12L4.94 2.134a1 1 0 0 1 1.984.25L6.01 9.66A23 23 0 1 1 1 24a1 1 0 0 1 2 0A21 21 0 1 0 31.378 4.327Z"/><path d="M17.445 19.667A8.998 8.998 0 0 1 25.335 15c1.64 0 3.175.438 4.498 1.203a1 1 0 0 0 1-1.732A10.957 10.957 0 0 0 25.336 13a11.003 11.003 0 0 0-10.114 6.667H12a1 1 0 1 0 0 2h2.583A11.042 11.042 0 0 0 14.335 24c0 .8.085 1.58.248 2.332H12a1 1 0 1 0 0 2h3.221A11.003 11.003 0 0 0 25.335 35a10.94 10.94 0 0 0 5.501-1.473 1 1 0 0 0-1.002-1.73A8.946 8.946 0 0 1 25.335 33c-3.4 0-6.36-1.885-7.89-4.668h6.222a1 1 0 0 0 0-2H16.64A9.01 9.01 0 0 1 16.335 24c0-.807.106-1.589.305-2.333h7.027a1 1 0 0 0 0-2h-6.222Z"/></svg>