<svg width="48" height="48" viewBox="0 0 48 48" xmlns="http://www.w3.org/2000/svg" class="icon icon-reload-lg" aria-hidden="true" focusable="false" fill="currentColor"><path fill-rule="evenodd" clip-rule="evenodd" d="M41.943 1.268a1 1 0 0 1 1.117.867l1.458 11.594a1 1 0 0 1-1.26 1.088l-11.384-3.172a1 1 0 0 1 .536-1.926l9.936 2.768-1.27-10.102a1 1 0 0 1 .867-1.117Z"/><path fill-rule="evenodd" clip-rule="evenodd" d="M18.541 1.647a23 23 0 0 1 25.873 11.746 1 1 0 0 1-1.776.922A21 21 0 0 0 3 24a1 1 0 0 1-2 0A23 23 0 0 1 18.541 1.647ZM3.82 33.389a1 1 0 0 1 .922-.206l11.384 3.172a1 1 0 0 1-.536 1.926l-9.936-2.768 1.27 10.102a1 1 0 0 1-1.984.25L3.482 34.27a1 1 0 0 1 .339-.882Z"/><path fill-rule="evenodd" clip-rule="evenodd" d="M46.004 23a1 1 0 0 1 1.001 1A23 23 0 0 1 3.586 34.605a1 1 0 0 1 1.776-.92A21 21 0 0 0 45.005 24a1 1 0 0 1 1-1.001Z"/></svg>