<svg width="48" height="48" viewBox="0 0 48 48" xmlns="http://www.w3.org/2000/svg" class="icon icon-respond-arrow-lg" aria-hidden="true" focusable="false" fill="currentColor"><path fill-rule="evenodd" clip-rule="evenodd" d="M27.603 5.082a1 1 0 0 1 1.082.19l17 16a1 1 0 0 1 0 1.456l-17 16A1 1 0 0 1 27 38v-8.996c-6.913.063-11.618.786-15.2 2.464-3.71 1.737-6.328 4.552-8.936 9.035A1 1 0 0 1 1 40c0-10.125 3.84-16.448 9.242-20.197 5.03-3.49 11.297-4.667 16.758-4.792V6a1 1 0 0 1 .603-.918ZM29 8.314V16a1 1 0 0 1-1 1c-5.483 0-11.75 1.069-16.617 4.447-4.151 2.88-7.384 7.506-8.19 14.86 2.167-2.988 4.585-5.164 7.758-6.65C15.115 27.707 20.464 27 28 27a1 1 0 0 1 1 1v7.686L43.54 22 29 8.314Z"/></svg>