<svg width="48" height="48" viewBox="0 0 48 48" xmlns="http://www.w3.org/2000/svg" class="icon icon-rib-lg" aria-hidden="true" focusable="false" fill="currentColor"><path d="M7.5 16a1 1 0 0 1 1-1h31a1 1 0 1 1 0 2h-31a1 1 0 0 1-1-1Zm1 7a1 1 0 1 0 0 2h31a1 1 0 1 0 0-2h-31Zm-1 9a1 1 0 0 1 1-1h4a1 1 0 1 1 0 2h-4a1 1 0 0 1-1-1Zm10-1a1 1 0 1 0 0 2h4a1 1 0 1 0 0-2h-4Zm8 1a1 1 0 0 1 1-1h4a1 1 0 1 1 0 2h-4a1 1 0 0 1-1-1Zm10-1a1 1 0 1 0 0 2h4a1 1 0 1 0 0-2h-4Z"/><path fill-rule="evenodd" clip-rule="evenodd" d="M0 8a1 1 0 0 1 1-1h46a1 1 0 0 1 1 1v32a1 1 0 0 1-1 1H1a1 1 0 0 1-1-1V8Zm2 1v30h44V9H2Z"/></svg>