<svg width="48" height="48" viewBox="0 0 48 48" xmlns="http://www.w3.org/2000/svg" class="icon icon-ribbon-lg" aria-hidden="true" focusable="false" fill="currentColor"><path fill-rule="evenodd" clip-rule="evenodd" d="M12.727 22.74a1 1 0 0 1 .408 1.354L5.796 37.768l6.08-.76a1 1 0 0 1 .956.437l3.012 4.519 5.798-12.46a1 1 0 1 1 1.814.844l-6.55 14.074a1 1 0 0 1-1.738.133l-3.657-5.486-7.387.923a1 1 0 0 1-1.005-1.465l8.254-15.379a1 1 0 0 1 1.354-.408Zm22.546 0a1 1 0 0 1 1.354.408l8.254 15.38a1 1 0 0 1-1.005 1.464l-7.387-.923-3.657 5.486a1 1 0 0 1-1.739-.133l-6.549-14.074a1 1 0 1 1 1.814-.844l5.798 12.46 3.012-4.519a1 1 0 0 1 .956-.437l6.08.76-7.34-13.674a1 1 0 0 1 .41-1.354Z"/><path fill-rule="evenodd" clip-rule="evenodd" d="M24 3c-7.18 0-13 5.82-13 13s5.82 13 13 13 13-5.82 13-13S31.18 3 24 3ZM9 16C9 7.716 15.716 1 24 1c8.284 0 15 6.716 15 15 0 8.284-6.716 15-15 15-8.284 0-15-6.716-15-15Z"/><path fill-rule="evenodd" clip-rule="evenodd" d="M24 13a3 3 0 1 0 0 6 3 3 0 0 0 0-6Zm-5 3a5 5 0 1 1 10 0 5 5 0 0 1-10 0Z"/></svg>