<svg width="48" height="48" viewBox="0 0 48 48" xmlns="http://www.w3.org/2000/svg" class="icon icon-roadsign-lg" aria-hidden="true" focusable="false" fill="currentColor"><path fill-rule="evenodd" clip-rule="evenodd" d="M17 28a1 1 0 0 1 1 1v16h8V29a1 1 0 1 1 2 0v17a1 1 0 0 1-1 1H17a1 1 0 0 1-1-1V29a1 1 0 0 1 1-1ZM16 2a1 1 0 0 1 1-1h10a1 1 0 0 1 1 1v6a1 1 0 1 1-2 0V3h-8v5a1 1 0 1 1-2 0V2Z"/><path fill-rule="evenodd" clip-rule="evenodd" d="M22 37a1 1 0 0 1 1 1v8a1 1 0 1 1-2 0v-8a1 1 0 0 1 1-1ZM4.172 8.172A4 4 0 0 1 7 7h31a1 1 0 0 1 .8.4l6 8a1 1 0 0 1 0 1.2l-6 8a1 1 0 0 1-.8.4H7a4 4 0 0 1-4-4V11a4 4 0 0 1 1.172-2.828ZM7 23h30.5l5.25-7-5.25-7H7a2 2 0 0 0-2 2v10a2 2 0 0 0 2 2Z"/></svg>