<svg width="48" height="48" viewBox="0 0 48 48" xmlns="http://www.w3.org/2000/svg" class="icon icon-road-lg" aria-hidden="true" focusable="false" fill="currentColor"><path fill-rule="evenodd" clip-rule="evenodd" d="M16.287 3.042a1 1 0 0 1 .67 1.245l-12 40a1 1 0 1 1-1.915-.574l12-40a1 1 0 0 1 1.245-.67Zm15.425 0a1 1 0 0 1 1.246.67l12 40a1 1 0 0 1-1.916.575l-12-40a1 1 0 0 1 .67-1.245ZM24 9a1 1 0 0 1 1 1v4a1 1 0 1 1-2 0v-4a1 1 0 0 1 1-1Zm0 12a1 1 0 0 1 1 1v4a1 1 0 1 1-2 0v-4a1 1 0 0 1 1-1Zm0 12a1 1 0 0 1 1 1v4a1 1 0 1 1-2 0v-4a1 1 0 0 1 1-1Z"/></svg>