<svg width="48" height="48" viewBox="0 0 48 48" xmlns="http://www.w3.org/2000/svg" class="icon icon-rocket-lg" aria-hidden="true" focusable="false" fill="currentColor"><path fill-rule="evenodd" clip-rule="evenodd" d="M27 16c-2.76 0-5 2.24-5 5s2.24 5 5 5 5-2.24 5-5-2.24-5-5-5Zm0 8c-1.65 0-3-1.35-3-3s1.35-3 3-3 3 1.35 3 3-1.35 3-3 3Z"/><path fill-rule="evenodd" clip-rule="evenodd" d="M42.63 18.81c.1-.12.16-.26.2-.4 2.22-4.55 3.81-9.95 4.18-16.35a.986.986 0 0 0-.29-.76 1 1 0 0 0-.76-.29c-6.43.34-11.85 1.92-16.4 4.13-.14.03-.28.1-.4.19a39.46 39.46 0 0 0-4.39 2.55c-6.71-2.63-14.33-.12-19.55 6.51-.31.4-.28.97.08 1.32l6.2 6.2c-1.57 2.6-2.317 4.458-2.419 4.712l-.011.028c-.14.37-.05.78.23 1.06l11 11a1.007 1.007 0 0 0 1.07.22l.022-.009c.23-.094 2.078-.85 4.688-2.44l6.22 6.22c.19.19.45.29.71.29.22 0 .44-.07.62-.21 6.66-5.23 9.17-12.89 6.48-19.63.9-1.35 1.75-2.8 2.53-4.35l-.01.01Zm-1.09-2.37L31.51 6.41c3.83-1.71 8.28-2.95 13.41-3.34-.42 5.11-1.67 9.55-3.38 13.37ZM7.35 14.93c4.27-5 10.09-7.09 15.4-5.63-4.66 3.53-7.96 7.58-10.16 10.88l-5.25-5.25h.01Zm13.88 21.88L11.19 26.76c1.16-2.61 6.51-13.29 18.42-19.43l11.01 11.01c-6.15 11.9-16.78 17.29-19.39 18.47Zm11.84 3.84-5.27-5.27c3.3-2.21 7.34-5.54 10.88-10.22 1.51 5.34-.58 11.19-5.61 15.49ZM1 45.93c.06-.81.6-8.02 2.76-10.17a6.011 6.011 0 0 1 8.49 0A5.928 5.928 0 0 1 14.01 40c0 1.6-.63 3.11-1.76 4.24-2.16 2.15-9.37 2.69-10.18 2.75H2a.994.994 0 0 1-1-1.06Zm2.1-1.03c2.82-.29 6.66-1 7.73-2.07.75-.76 1.17-1.76 1.17-2.83s-.41-2.07-1.17-2.83C10.05 36.39 9.03 36 8 36s-2.05.39-2.83 1.17C4.1 38.24 3.39 42.08 3.1 44.9Z"/></svg>