<svg width="48" height="48" viewBox="0 0 48 48" xmlns="http://www.w3.org/2000/svg" class="icon icon-save-lg" aria-hidden="true" focusable="false" fill="currentColor"><path fill-rule="evenodd" clip-rule="evenodd" d="M11 8a1 1 0 0 1 1 1v7h17V9a1 1 0 1 1 2 0v9H10V9a1 1 0 0 1 1-1Z"/><path fill-rule="evenodd" clip-rule="evenodd" d="M24 8a1 1 0 0 1 1 1v3a1 1 0 1 1-2 0V9a1 1 0 0 1 1-1ZM10 27h28v12a1 1 0 1 1-2 0V29H12v10a1 1 0 1 1-2 0V27Z"/><path fill-rule="evenodd" clip-rule="evenodd" d="M8 5a3 3 0 0 0-3 3v32a3 3 0 0 0 3 3h32a3 3 0 0 0 3-3V13.414L34.586 5H8Zm-3.536-.536A5 5 0 0 1 8 3h27.414L45 12.586V40a5 5 0 0 1-5 5H8a5 5 0 0 1-5-5V8a5 5 0 0 1 1.464-3.536Z"/></svg>