<svg width="48" height="48" viewBox="0 0 48 48" xmlns="http://www.w3.org/2000/svg" class="icon icon-search-file-lg" aria-hidden="true" focusable="false" fill="currentColor"><path fill-rule="evenodd" clip-rule="evenodd" d="M6 1a1 1 0 0 0-1 1v44a1 1 0 0 0 1 1h36a1 1 0 0 0 1-1V14c0-.02 0-.04-.002-.06a1 1 0 0 0-.29-.647l-12-12A.997.997 0 0 0 30 1H5.999Zm23 2H7v42h34V15H30a1 1 0 0 1-1-1V3Zm10.586 10L31 4.414V13h8.586Z"/><path fill-rule="evenodd" clip-rule="evenodd" d="M27.243 32.243a1 1 0 0 1 1.414 0l5.05 5.05a1 1 0 0 1-1.414 1.414l-5.05-5.05a1 1 0 0 1 0-1.414Z"/><path fill-rule="evenodd" clip-rule="evenodd" d="M23 22a6 6 0 1 0 0 12 6 6 0 0 0 0-12Zm-8 6a8 8 0 1 1 16 0 8 8 0 0 1-16 0Z"/></svg>