<svg width="48" height="48" viewBox="0 0 48 48" xmlns="http://www.w3.org/2000/svg" class="icon icon-search-lg" aria-hidden="true" focusable="false" fill="currentColor"><path d="M13.636 13.636A9 9 0 0 1 20 11a1 1 0 1 0 0-2A11 11 0 0 0 9 20a1 1 0 1 0 2 0 9 9 0 0 1 2.636-6.364Z"/><path fill-rule="evenodd" clip-rule="evenodd" d="M3 20c0-9.389 7.611-17 17-17s17 7.611 17 17-7.611 17-17 17S3 29.389 3 20ZM20 5C11.716 5 5 11.716 5 20c0 8.284 6.716 15 15 15 8.284 0 15-6.716 15-15 0-8.284-6.716-15-15-15Z"/><path d="m35.707 34.293 9 9a1 1 0 0 1-1.414 1.414l-9-9a1 1 0 0 1 1.414-1.414Z"/></svg>