<svg width="48" height="48" viewBox="0 0 48 48" xmlns="http://www.w3.org/2000/svg" class="icon icon-search-user-lg" aria-hidden="true" focusable="false" fill="currentColor"><path fill-rule="evenodd" clip-rule="evenodd" d="M28.41 23.97c-4.41-1.3-8.55-1.28-12.83-.01a4.965 4.965 0 0 0-3.58 4.8V31c0 .55.45 1 1 1h18c.55 0 1-.45 1-1v-2.23c0-2.24-1.44-4.17-3.59-4.8ZM14 30v-1.24c0-1.34.86-2.5 2.15-2.88 3.9-1.16 7.65-1.18 11.69.01 1.29.38 2.16 1.54 2.16 2.88V30H14Zm14-15c0 3.24-2.62 7-6 7s-6-3.69-6-7 2.69-6 6-6 6 2.76 6 6Zm-2 0c0-2.21-1.79-4-4-4s-4 1.75-4 4 1.85 5 4 5 4-2.79 4-5Z"/><path fill-rule="evenodd" clip-rule="evenodd" d="m46.71 45.29-9.19-9.19C40.91 32.37 43 27.43 43 22c0-11.58-9.42-21-21-21S1 10.42 1 22s9.42 21 21 21c5.43 0 10.37-2.09 14.1-5.48l9.19 9.19c.2.2.45.29.71.29.26 0 .51-.1.71-.29a.996.996 0 0 0 0-1.41v-.01ZM3 22C3 11.52 11.52 3 22 3s19 8.52 19 19-8.52 19-19 19S3 32.48 3 22Z"/></svg>