<svg width="48" height="48" viewBox="0 0 48 48" xmlns="http://www.w3.org/2000/svg" class="icon icon-send-full-lg" aria-hidden="true" focusable="false" fill="currentColor"><path fill-rule="evenodd" clip-rule="evenodd" d="M47 24c0 12.703-10.297 23-23 23S1 36.703 1 24 11.297 1 24 1s23 10.297 23 23ZM33.668 13.056 8.694 21.084a1 1 0 0 0-.198 1.816l10.487 6.117L25.1 39.504a1 1 0 0 0 1.816-.198l8.036-25a1 1 0 0 0-1.284-1.25Zm-3.3 3.162L11.44 22.302l8.111 4.731 10.815-10.815Zm-9.402 12.23L31.782 17.63l-6.084 18.93-4.732-8.111Z"/></svg>