<svg width="48" height="48" viewBox="0 0 48 48" xmlns="http://www.w3.org/2000/svg" class="icon icon-send-lg" aria-hidden="true" focusable="false" fill="currentColor"><path fill-rule="evenodd" clip-rule="evenodd" d="M46.321 2.053a.994.994 0 0 1 .542.441 1 1 0 0 1 .118.702l-8 40a1 1 0 0 1-1.558.621L15 27.989v12.068l5.419-3.87a1 1 0 1 1 1.162 1.627l-7 5A1 1 0 0 1 13 42V26.577l-9.577-6.76a1 1 0 0 1 .221-1.752L45.626 2.072a.995.995 0 0 1 .695-.02Zm-7.134 4.613L6.11 19.266l7.843 5.536L39.187 6.666ZM15.682 26.022l21.639 15.275 7.2-36.003-28.839 20.728Z"/></svg>