<svg width="48" height="48" viewBox="0 0 48 48" xmlns="http://www.w3.org/2000/svg" class="icon icon-share-lg" aria-hidden="true" focusable="false" fill="currentColor"><path fill-rule="evenodd" clip-rule="evenodd" d="M31 13a11 11 0 0 0-11 11v5a1 1 0 1 1-2 0v-5a13 13 0 0 1 13-13h13a1 1 0 1 1 0 2H31Z"/><path fill-rule="evenodd" clip-rule="evenodd" d="M34.293 2.293a1 1 0 0 1 1.414 0l9 9a1 1 0 0 1 0 1.414l-9 9a1 1 0 0 1-1.414-1.414L42.586 12l-8.293-8.293a1 1 0 0 1 0-1.414ZM3.464 12.464A5 5 0 0 1 7 11h9a1 1 0 1 1 0 2H7a3 3 0 0 0-3 3v24a3 3 0 0 0 3 3h24a3 3 0 0 0 3-3V28a1 1 0 1 1 2 0v12a5 5 0 0 1-5 5H7a5 5 0 0 1-5-5V16a5 5 0 0 1 1.464-3.536Z"/></svg>