<svg width="48" height="48" viewBox="0 0 48 48" xmlns="http://www.w3.org/2000/svg" class="icon icon-shield-lg" aria-hidden="true" focusable="false" fill="currentColor"><path fill-rule="evenodd" clip-rule="evenodd" d="M19 17a5 5 0 1 1 10 0 5 5 0 0 1-10 0Zm5-3a3 3 0 1 0 0 6 3 3 0 0 0 0-6Zm0 10a10 10 0 0 0-10 10 1 1 0 0 0 1 1h18a1 1 0 0 0 1-1 10 10 0 0 0-10-10Zm-5.657 4.343A8 8 0 0 1 31.937 33H16.063a8 8 0 0 1 2.28-4.657Z"/><path fill-rule="evenodd" clip-rule="evenodd" d="M23.783 2.024a1 1 0 0 1 .434 0l18 4A1 1 0 0 1 43 7v20a19 19 0 0 1-38 0V7a1 1 0 0 1 .783-.976l18-4ZM7 7.802V27a17 17 0 1 0 34 0V7.802L24 4.024 7 7.802Z"/></svg>