<svg width="48" height="48" viewBox="0 0 48 48" xmlns="http://www.w3.org/2000/svg" class="icon icon-shuffle-lg" aria-hidden="true" focusable="false" fill="currentColor"><path d="M37.293 5.293a1 1 0 0 1 1.414 0l7 7a1 1 0 0 1 0 1.414l-7 7a1 1 0 0 1-1.414-1.414L42.586 14H33.79a7 7 0 0 0-5.417 2.567L15.174 32.7A8.999 8.999 0 0 1 8.209 36H2a1 1 0 1 1 0-2h6.209a7 7 0 0 0 5.417-2.567l13.2-16.132A9 9 0 0 1 33.791 12h8.795l-5.293-5.293a1 1 0 0 1 0-1.414ZM1 13a1 1 0 0 1 1-1h6.209a9 9 0 0 1 6.965 3.3l2.6 3.178a1 1 0 1 1-1.548 1.266l-2.6-3.177A7.002 7.002 0 0 0 8.21 14H2a1 1 0 0 1-1-1Z"/><path d="M38.707 27.293a1 1 0 0 0-1.414 1.414L42.586 34H33.79a6.998 6.998 0 0 1-5.417-2.567l-2.6-3.177a1 1 0 0 0-1.548 1.266l2.6 3.177a9 9 0 0 0 6.965 3.3h8.795l-5.293 5.294a1 1 0 0 0 1.414 1.414l7-7a1 1 0 0 0 0-1.414l-7-7Z"/></svg>