<svg width="48" height="48" viewBox="0 0 48 48" xmlns="http://www.w3.org/2000/svg" class="icon icon-smartphone-lg" aria-hidden="true" focusable="false" fill="currentColor"><path fill-rule="evenodd" clip-rule="evenodd" d="M7 10a1 1 0 0 1 1-1h32a1 1 0 1 1 0 2H8a1 1 0 0 1-1-1Zm0 26a1 1 0 0 1 1-1h32a1 1 0 1 1 0 2H8a1 1 0 0 1-1-1Z"/><path fill-rule="evenodd" clip-rule="evenodd" d="M12 3a3 3 0 0 0-3 3v36a3 3 0 0 0 3 3h24a3 3 0 0 0 3-3V6a3 3 0 0 0-3-3H12Zm-3.536-.536A5 5 0 0 1 12 1h24a5 5 0 0 1 5 5v36a5 5 0 0 1-5 5H12a5 5 0 0 1-5-5V6a5 5 0 0 1 1.464-3.536Z"/></svg>