<svg width="48" height="48" viewBox="0 0 48 48" xmlns="http://www.w3.org/2000/svg" class="icon icon-sound-off-lg" aria-hidden="true" focusable="false" fill="currentColor"><path d="M3.879 9.879A3 3 0 0 1 6 9h36a3 3 0 0 1 3 3v5a1 1 0 1 0 2 0v-5a5 5 0 0 0-5-5H6a5 5 0 0 0-5 5v28a5 5 0 0 0 5 5h9a1 1 0 1 0 0-2H6a3 3 0 0 1-3-3V12a3 3 0 0 1 .879-2.121Z"/><path fill-rule="evenodd" clip-rule="evenodd" d="M29 18a1 1 0 0 0-1.625-.78L17.65 25H12a4 4 0 0 0-4 4v6a4 4 0 0 0 4 4h5.65l9.725 7.78A1 1 0 0 0 29 46V18Zm-10.375 8.78L27 20.08v23.84l-8.375-6.7A1 1 0 0 0 18 37h-6a2 2 0 0 1-2-2v-6a2 2 0 0 1 2-2h6a1 1 0 0 0 .625-.22Z"/><path d="M33.293 25.293a1 1 0 0 1 1.414 0L40 30.586l5.293-5.293a1 1 0 0 1 1.414 1.414L41.414 32l5.293 5.293a1 1 0 0 1-1.414 1.414L40 33.414l-5.293 5.293a1 1 0 0 1-1.414-1.414L38.586 32l-5.293-5.293a1 1 0 0 1 0-1.414Z"/></svg>