<svg width="48" height="48" viewBox="0 0 48 48" xmlns="http://www.w3.org/2000/svg" class="icon icon-speak-error-lg" aria-hidden="true" focusable="false" fill="currentColor"><path fill-rule="evenodd" clip-rule="evenodd" d="M1 22C1 11.372 11.441 3 24 3s23 8.372 23 19c0 4.546-1.9 8.664-5.151 11.968l1.144 9.917a1 1 0 0 1-1.363 1.044l-11.526-4.59C28.155 40.716 26.087 41 24 41 11.441 41 1 32.628 1 22ZM24 5C12.159 5 3 12.828 3 22s9.159 17 21 17c2.009 0 4.038-.287 6.004-.68a1 1 0 0 1 .566.051l10.245 4.08-1.008-8.736a1 1 0 0 1 .297-.833C43.238 29.842 45 26.092 45 22c0-9.172-9.158-17-21-17Z"/><path fill-rule="evenodd" clip-rule="evenodd" d="M24 10a1 1 0 0 1 1 1v14a1 1 0 1 1-2 0V11a1 1 0 0 1 1-1Zm-2 21a2 2 0 1 1 4 0 2 2 0 0 1-4 0Z"/></svg>