<svg width="48" height="48" viewBox="0 0 48 48" xmlns="http://www.w3.org/2000/svg" class="icon icon-speed-lg" aria-hidden="true" focusable="false" fill="currentColor"><path fill-rule="evenodd" clip-rule="evenodd" d="M12.293 12.293a1 1 0 0 1 1.414 0l8.2 8.2a1 1 0 0 1-1.414 1.414l-8.2-8.2a1 1 0 0 1 0-1.414Z"/><path fill-rule="evenodd" clip-rule="evenodd" d="M24 21a3 3 0 1 0 0 6 3 3 0 0 0 0-6Zm-5 3a5 5 0 1 1 10 0 5 5 0 0 1-10 0Zm6.391-12.923a13.007 13.007 0 0 0-6.22.852 1 1 0 1 1-.742-1.858A15.006 15.006 0 0 1 39 24a1 1 0 1 1-2 .002 13.007 13.007 0 0 0-11.609-12.924Zm-14.019 6.795a1 1 0 0 1 .556 1.3A12.957 12.957 0 0 0 11 23.999a1 1 0 1 1-2 .002c-.002-1.909.362-3.8 1.072-5.573a1 1 0 0 1 1.3-.556Z"/><path fill-rule="evenodd" clip-rule="evenodd" d="M24 3C12.402 3 3 12.402 3 24s9.402 21 21 21 21-9.402 21-21S35.598 3 24 3ZM1 24C1 11.297 11.297 1 24 1s23 10.297 23 23-10.297 23-23 23S1 36.703 1 24Z"/></svg>