<svg width="48" height="48" viewBox="0 0 48 48" xmlns="http://www.w3.org/2000/svg" class="icon icon-sphere-emploi-lg" aria-hidden="true" focusable="false" fill="currentColor"><path fill-rule="evenodd" clip-rule="evenodd" d="M29.062.535A24.1 24.1 0 0 0 23.998 0l.001.002C10.747.002 0 10.747 0 24c0 13.253 10.747 24 24 24 13.251 0 23.998-10.746 23.998-24 0-1.925-.227-3.798-.656-5.593l.005-.067v-.002c.091-.383.141-.773.141-1.168a4.82 4.82 0 0 0-.14-1.168C46.75 7.4 39.62.577 30.898.463c-.02 0-.04-.002-.059-.003a.77.77 0 0 0-.06-.003h-.095c-.547 0-1.089.026-1.623.078Zm6.975 5.533c.457.892.852 1.88 1.18 2.935a30.128 30.128 0 0 0-5.92-.665v-6.61c1.76.249 3.43 1.767 4.741 4.34h-.001ZM24.33 9.004c1.8-.389 3.736-.615 5.73-.66V1.762c-1.694.332-3.285 1.83-4.55 4.306a18.29 18.29 0 0 0-1.18 2.936Zm.084-3.495c-.587 1.152-1.078 2.444-1.466 3.838-1.395.384-2.68.875-3.838 1.467-1.44.734-2.597 1.591-3.431 2.523A15.529 15.529 0 0 1 26.825 2.183c-.886.823-1.705 1.941-2.41 3.325l-.002.001ZM22.952 25a20.772 20.772 0 0 1-3.838-1.466l-.001-.002c-1.44-.74-2.596-1.593-3.432-2.518A15.539 15.539 0 0 0 26.83 32.167c-.892-.83-1.705-1.946-2.41-3.33A20.393 20.393 0 0 1 22.952 25Zm15.651-.005c-.388 1.394-.88 2.687-1.467 3.838v.002c-.688 1.342-1.473 2.431-2.325 3.25a15.546 15.546 0 0 0 10.791-10.787c-.813.82-1.874 1.57-3.16 2.23a20.393 20.393 0 0 1-3.839 1.467ZM38.6 9.343c1.394.388 2.687.88 3.838 1.467v.001c1.286.66 2.348 1.411 3.155 2.224A15.543 15.543 0 0 0 34.801 2.248c.858.82 1.648 1.913 2.331 3.257A20.394 20.394 0 0 1 38.6 9.343Zm7.551 7.5h-6.542a30.391 30.391 0 0 0-.666-6.113c1.056.327 2.043.722 2.935 1.18 2.354 1.203 3.821 2.698 4.25 4.29.01.212.017.425.023.636v.007Zm-.022 1.232h-6.53l-.002.001c-.056 1.93-.276 3.798-.66 5.53a19.07 19.07 0 0 0 2.935-1.18c2.354-1.196 3.821-2.698 4.25-4.29.007-.016.007-.039.007-.061Zm-14.833 7.924a30.546 30.546 0 0 0 5.92-.66 18.578 18.578 0 0 1-1.18 2.935c-1.314 2.574-2.98 4.093-4.746 4.34v-6.615h.006ZM22.61 23.61a29.954 29.954 0 0 1-.656-5.536v-.002h-6.547c.407 1.62 1.886 3.139 4.267 4.358.892.458 1.88.853 2.936 1.18Zm-.668-6.768h-6.633c.164-1.834 1.7-3.578 4.363-4.939.892-.457 1.88-.853 2.935-1.18a30.469 30.469 0 0 0-.665 6.12Zm16.425 1.232h-7.073v6.688c2.219-.034 4.352-.3 6.3-.779.451-1.829.71-3.833.773-5.91Zm-8.308 7.924v6.582c-1.688-.334-3.286-1.834-4.55-4.307a18.486 18.486 0 0 1-1.18-2.935c1.807.39 3.737.616 5.73.66Zm0-1.236v-6.69h-6.875c.063 2.077.322 4.076.774 5.91 1.89.464 3.956.728 6.101.78Zm0-7.92h-.001v-7.27c-2.15.051-4.216.316-6.101.78-.49 2.003-.762 4.204-.785 6.49h6.886v.002l.001-.002Zm7.536-6.49a28.666 28.666 0 0 0-6.3-.779v7.269h7.084c-.023-2.286-.293-4.493-.784-6.49Z"/></svg>