<svg width="48" height="48" viewBox="0 0 48 48" xmlns="http://www.w3.org/2000/svg" class="icon icon-star-lg" aria-hidden="true" focusable="false" fill="currentColor"><path fill-rule="evenodd" clip-rule="evenodd" d="M24 3.979a1 1 0 0 1 .897.557l5.947 12.052 13.3 1.932a1 1 0 0 1 .554 1.706l-9.623 9.38 2.272 13.246a1 1 0 0 1-1.451 1.054L24 37.653l-11.896 6.253a1 1 0 0 1-1.45-1.054l2.271-13.246-9.623-9.38a1 1 0 0 1 .554-1.706l13.3-1.932 5.947-12.052A1 1 0 0 1 24 3.98Zm0 3.26-5.283 10.706a1 1 0 0 1-.753.547L6.149 20.208l8.549 8.333a1 1 0 0 1 .288.885l-2.019 11.767 10.568-5.555a1 1 0 0 1 .93 0l10.568 5.555-2.019-11.767a1 1 0 0 1 .288-.885l8.549-8.333-11.815-1.716a1 1 0 0 1-.753-.547L24 7.239Z"/></svg>