<svg width="48" height="48" viewBox="0 0 48 48" xmlns="http://www.w3.org/2000/svg" class="icon icon-stopwatch-lg" aria-hidden="true" focusable="false" fill="currentColor"><path fill-rule="evenodd" clip-rule="evenodd" d="M17 2a1 1 0 0 1 1-1h12a1 1 0 1 1 0 2H18a1 1 0 0 1-1-1Z"/><path fill-rule="evenodd" clip-rule="evenodd" d="M24 1a1 1 0 0 1 1 1v3a1 1 0 1 1-2 0V2a1 1 0 0 1 1-1Zm0 16a1 1 0 0 1 1 1v9h9a1 1 0 1 1 0 2H24a1 1 0 0 1-1-1V18a1 1 0 0 1 1-1Z"/><path fill-rule="evenodd" clip-rule="evenodd" d="M24 11c-9.389 0-17 7.611-17 17s7.611 17 17 17 17-7.611 17-17-7.611-17-17-17ZM5 28C5 17.507 13.507 9 24 9s19 8.507 19 19-8.507 19-19 19S5 38.493 5 28ZM37.293 8.293a1 1 0 0 1 1.414 0l6 6a1 1 0 0 1-1.414 1.414l-6-6a1 1 0 0 1 0-1.414Z"/></svg>