<svg width="48" height="48" viewBox="0 0 48 48" xmlns="http://www.w3.org/2000/svg" class="icon icon-stroller-lg" aria-hidden="true" focusable="false" fill="currentColor"><path fill-rule="evenodd" clip-rule="evenodd" d="M29.293.293A1 1 0 0 1 30 0a17 17 0 0 1 17 17v5a9 9 0 0 1-9 9H14a9 9 0 0 1-9-9v-5a1 1 0 0 1 1-1h38.967A15 15 0 0 0 31 2.033V12a1 1 0 1 1-2 0V1a1 1 0 0 1 .293-.707ZM45 18H7v4a7 7 0 0 0 7 7h24a7 7 0 0 0 7-7v-4Z"/><path d="M2 4a1 1 0 0 0 0 2 3 3 0 0 1 3 3v3a1 1 0 1 0 2 0V9a5 5 0 0 0-5-5Z"/><path fill-rule="evenodd" clip-rule="evenodd" d="M11 40.5a5.5 5.5 0 1 1 11 0 5.5 5.5 0 0 1-11 0Zm5.5-3.5a3.5 3.5 0 1 0 0 7 3.5 3.5 0 0 0 0-7ZM30 40.5a5.5 5.5 0 1 1 11 0 5.5 5.5 0 0 1-11 0Zm5.5-3.5a3.5 3.5 0 1 0 0 7 3.5 3.5 0 0 0 0-7Z"/></svg>