<svg width="48" height="48" viewBox="0 0 48 48" xmlns="http://www.w3.org/2000/svg" class="icon icon-support-lg" aria-hidden="true" focusable="false" fill="currentColor"><path fill-rule="evenodd" clip-rule="evenodd" d="M7.736 40.263c-8.981-8.982-8.981-23.544 0-32.527 8.982-8.981 23.545-8.981 32.527 0 8.982 8.982 8.982 23.545 0 32.527s-23.544 8.982-32.527 0ZM9.151 9.151a21.18 21.18 0 0 0-1.971 2.271l7.213 7.213a11.003 11.003 0 0 1 1.828-2.413 11.011 11.011 0 0 1 2.415-1.829L11.423 7.18A21.174 21.174 0 0 0 9.15 9.15Zm11.434 6.52a.993.993 0 0 0 .26-.103 9.034 9.034 0 0 1 6.306 0 .995.995 0 0 0 .267.104 8.973 8.973 0 0 1 2.945 1.964 8.973 8.973 0 0 1 1.969 2.956.99.99 0 0 0 .097.247 9.035 9.035 0 0 1 .002 6.316.995.995 0 0 0-.101.258 8.972 8.972 0 0 1-1.966 2.95 8.971 8.971 0 0 1-2.954 1.968.997.997 0 0 0-.25.098 9.039 9.039 0 0 1-6.312.003.991.991 0 0 0-.265-.104 8.973 8.973 0 0 1-2.947-1.964 8.972 8.972 0 0 1-1.965-2.948.996.996 0 0 0-.103-.263 9.035 9.035 0 0 1-.002-6.302.994.994 0 0 0 .107-.273 8.972 8.972 0 0 1 1.963-2.942 8.97 8.97 0 0 1 2.95-1.966Zm-7.05 4.933L6.038 13.11a21.034 21.034 0 0 0 0 21.781l7.495-7.495a11.047 11.047 0 0 1 0-6.79Zm.858 8.76L7.18 36.577a21.187 21.187 0 0 0 4.243 4.243l7.213-7.214a11.007 11.007 0 0 1-2.415-1.828 11.004 11.004 0 0 1-1.828-2.414Zm6.212 5.101-7.495 7.496a21.034 21.034 0 0 0 21.78 0l-7.496-7.496a11.049 11.049 0 0 1-6.789 0Zm8.759-.859 7.213 7.214a21.191 21.191 0 0 0 4.243-4.243l-7.214-7.213a11.007 11.007 0 0 1-1.828 2.414 11.007 11.007 0 0 1-2.414 1.828Zm5.101-6.212 7.496 7.495a21.033 21.033 0 0 0 0-21.779l-7.496 7.496a11.048 11.048 0 0 1 0 6.788Zm-.859-8.758 7.214-7.213a21.19 21.19 0 0 0-4.243-4.243l-7.212 7.214a11.005 11.005 0 0 1 2.413 1.828 10.99 10.99 0 0 1 1.828 2.414Zm-6.21-5.101 7.494-7.496a21.034 21.034 0 0 0-21.78 0l7.495 7.495a11.048 11.048 0 0 1 6.79 0Z"/></svg>