<svg width="48" height="48" viewBox="0 0 48 48" xmlns="http://www.w3.org/2000/svg" class="icon icon-swap-lg" aria-hidden="true" focusable="false" fill="currentColor"><path d="M11.707 5.293a1 1 0 0 1 0 1.414L5.414 13h21.663c.51 0 .923.448.923 1s-.413 1-.923 1H5.414l6.293 6.293a1 1 0 0 1-1.414 1.414l-8-8a1 1 0 0 1 0-1.414l8-8a1 1 0 0 1 1.414 0Zm24.586 20a1 1 0 0 1 1.414 0l8 8a1 1 0 0 1 0 1.414l-8 8a1 1 0 0 1-1.414-1.414L42.586 35H20.923c-.51 0-.923-.448-.923-1s.413-1 .923-1h21.663l-6.293-6.293a1 1 0 0 1 0-1.414Z"/></svg>