<svg width="48" height="48" viewBox="0 0 48 48" xmlns="http://www.w3.org/2000/svg" class="icon icon-tag-lg" aria-hidden="true" focusable="false" fill="currentColor"><path fill-rule="evenodd" clip-rule="evenodd" d="M14 9a5 5 0 1 0 0 10 5 5 0 0 0 0-10Zm-3 5a3 3 0 1 1 6 0 3 3 0 0 1-6 0Z"/><path fill-rule="evenodd" clip-rule="evenodd" d="M22.414 2H2v20.414l22.12 22.121a5 5 0 0 0 7.072 0l13.343-13.343a5 5 0 0 0 0-7.071L22.415 2ZM4 21.586V4h17.586L43.12 25.535a3 3 0 0 1 0 4.243L29.778 43.12a3 3 0 0 1-4.243 0L4 21.586Z"/></svg>