<svg width="48" height="48" viewBox="0 0 48 48" xmlns="http://www.w3.org/2000/svg" class="icon icon-target-lg" aria-hidden="true" focusable="false" fill="currentColor"><path fill-rule="evenodd" clip-rule="evenodd" d="M37.949 2.684a1 1 0 0 0-1.656-.391l-6 6a1 1 0 0 0-.242 1.023l1.805 5.414-4.817 4.817A10.956 10.956 0 0 0 20 17c-6.075 0-11 4.925-11 11s4.925 11 11 11 11-4.925 11-11a10.96 10.96 0 0 0-2.547-7.04l4.817-4.816 5.414 1.805a1 1 0 0 0 1.023-.242l6-6a1 1 0 0 0-.39-1.656L40.85 8.563l2.856-2.856a1 1 0 0 0-1.414-1.414l-2.856 2.856-1.488-4.465Zm-.093 6.046-1.293-3.88-4.419 4.42 1.293 3.878 4.419-4.42Zm-3.005 5.833 3.879 1.293 4.419-4.419-3.879-1.293-4.419 4.419Zm-15.558 12.73 6.325-6.325A9 9 0 1 0 29 28a8.962 8.962 0 0 0-1.968-5.618l-6.325 6.325a1 1 0 0 1-1.414-1.414Z"/><path d="M3 28c0-9.389 7.611-17 17-17 1.641 0 3.227.232 4.726.665a1 1 0 1 0 .554-1.922A19.03 19.03 0 0 0 20 9C9.507 9 1 17.507 1 28s8.507 19 19 19 19-8.507 19-19a19 19 0 0 0-.742-5.275 1 1 0 0 0-1.922.554A17 17 0 0 1 37 28c0 9.389-7.611 17-17 17S3 37.389 3 28Z"/></svg>