<svg width="48" height="48" viewBox="0 0 48 48" xmlns="http://www.w3.org/2000/svg" class="icon icon-thumb-down-lg" aria-hidden="true" focusable="false" fill="currentColor"><path fill-rule="evenodd" clip-rule="evenodd" d="M17.06 45.34c.14.4.51.67.94.67v-.02c2.08 0 6-1.46 6-7v-10h17.02c1.32 0 2.56-.51 3.5-1.44.95-.93 1.48-2.18 1.48-3.51 0-.84-.2-1.66-.6-2.39.7-.64 1.2-1.46 1.44-2.4.34-1.28.15-2.62-.52-3.77-.41-.7-.98-1.28-1.65-1.7a4.971 4.971 0 0 0-1.86-5.9c-.07-.05-.14-.1-.21-.14.7-1.46.48-3.26-.7-4.5-.75-.79-1.8-1.28-2.9-1.24H23.02a28.368 28.368 0 0 0-12.383 2.584A3.008 3.008 0 0 0 8 3.01H4c-1.65 0-3 1.34-3 3v18c0 1.65 1.35 3 3 3h4c.926 0 1.757-.425 2.308-1.09l6.752 19.42ZM11 21.824l7.69 22.106c1.16-.24 3.32-1.19 3.32-4.92v-11c0-.55.45-1 1-1h18c.77 0 1.55-.3 2.12-.86.57-.56.88-1.31.88-2.1 0-.72-.25-1.42-.72-1.96a1.004 1.004 0 0 1 .25-1.52c.69-.4 1.17-1.05 1.37-1.82.2-.77.09-1.57-.31-2.25-.36-.61-.93-1.08-1.6-1.31a.974.974 0 0 1-.62-.63c-.1-.3-.05-.62.12-.88.92-1.36.57-3.22-.8-4.14-.27-.18-.57-.32-.88-.41-.35-.1-.62-.37-.71-.72-.09-.35.02-.72.28-.97.39-.37.61-.86.62-1.39.01-.53-.18-1.04-.55-1.42-.38-.39-.9-.62-1.45-.62H23a26.34 26.34 0 0 0-12 2.62v15.194ZM9 6.01c0-.55-.45-1-1-1H4c-.55 0-1 .45-1 1v18c0 .55.45 1 1 1h4c.55 0 1-.45 1-1v-18Z"/></svg>