<svg width="48" height="48" viewBox="0 0 48 48" xmlns="http://www.w3.org/2000/svg" class="icon icon-thumb-up-lg" aria-hidden="true" focusable="false" fill="currentColor"><path fill-rule="evenodd" clip-rule="evenodd" d="M10.637 42.425A28.202 28.202 0 0 0 22.41 45.01V45h16.6a3.994 3.994 0 0 0 3.59-5.74c.035-.025.07-.047.105-.07.035-.023.07-.045.105-.07a4.997 4.997 0 0 0 1.86-5.91c.68-.43 1.24-1.01 1.65-1.7.67-1.15.86-2.48.52-3.77-.25-.94-.74-1.76-1.44-2.4.4-.72.6-1.55.6-2.39a4.926 4.926 0 0 0-1.48-3.51c-.94-.94-2.19-1.42-3.52-1.44H24V8c0-5.54-3.92-7-6-7-.42 0-.8.27-.94.67l-6.757 19.412A2.997 2.997 0 0 0 8 20H4c-1.65 0-3 1.35-3 3v18c0 1.65 1.35 3 3 3h4a3.008 3.008 0 0 0 2.637-1.575ZM11 40.38A26.34 26.34 0 0 0 22.98 43h16.03c.54 0 1.07-.23 1.45-.62.37-.39.56-.89.55-1.42-.01-.53-.23-1.03-.62-1.39-.26-.25-.37-.62-.28-.97.09-.35.36-.62.71-.72.31-.09.61-.22.88-.41 1.36-.92 1.72-2.78.8-4.14-.17-.26-.22-.58-.12-.88.1-.3.33-.53.62-.63.67-.23 1.24-.69 1.6-1.31.4-.68.51-1.49.31-2.25-.2-.77-.69-1.41-1.37-1.81a.999.999 0 0 1-.48-.7c-.05-.29.04-.59.23-.82.47-.54.73-1.24.72-1.96 0-.79-.32-1.54-.88-2.1s-1.3-.86-2.09-.86H23c-.55 0-1-.45-1-1V8c0-3.72-2.15-4.67-3.32-4.92L11 25.158V40.38ZM9 24.91a.986.986 0 0 0 0 .187V41c0 .55-.45 1-1 1H4c-.55 0-1-.45-1-1V23c0-.55.45-1 1-1h4c.55 0 1 .45 1 1v1.91Z"/></svg>