<svg width="48" height="48" viewBox="0 0 48 48" xmlns="http://www.w3.org/2000/svg" class="icon icon-tild-full-lg" aria-hidden="true" focusable="false" fill="currentColor"><path fill-rule="evenodd" clip-rule="evenodd" d="M24 1C11.3 1 1 11.3 1 24s10.3 23 23 23 23-10.3 23-23S36.7 1 24 1Zm11.27 25.087c-1.357 1.565-3.027 2.296-5.114 2.296a8.503 8.503 0 0 1-3.234-.627c-1.044-.417-2.192-1.252-3.652-2.608-1.461-1.252-2.505-2.087-3.235-2.4-.73-.313-1.461-.522-2.192-.522-1.46 0-2.504.418-3.339 1.357-.834.939-1.147 2.295-1.147 4.07h-2.61c0-2.4.627-4.28 1.983-5.844 1.253-1.461 3.027-2.296 5.113-2.296 1.148 0 2.296.209 3.34.73 1.043.522 2.295 1.357 3.756 2.713a12.603 12.603 0 0 0 2.713 2.088c.73.417 1.565.626 2.505.626 1.356 0 2.504-.522 3.339-1.461.834-1.044 1.252-2.4 1.252-4.07h2.504c0 2.4-.73 4.383-1.982 5.948Z"/></svg>