<svg width="48" height="48" viewBox="0 0 48 48" xmlns="http://www.w3.org/2000/svg" class="icon icon-todo-lg" aria-hidden="true" focusable="false" fill="currentColor"><path fill-rule="evenodd" clip-rule="evenodd" d="M24 1a6.002 6.002 0 0 0-5.917 5H15a1 1 0 0 0-1 1v6a1 1 0 0 0 1 1h18a1 1 0 0 0 1-1V7a1 1 0 0 0-1-1h-3.083A6.002 6.002 0 0 0 24 1Zm-4 6a4 4 0 0 1 8 0 1 1 0 0 0 1 1h3v4H16V8h3a1 1 0 0 0 1-1Z"/><path d="M5 9a1 1 0 0 1 1-1h5a1 1 0 1 1 0 2H7v35h34V10h-4a1 1 0 1 1 0-2h5a1 1 0 0 1 1 1v37a1 1 0 0 1-1 1H6a1 1 0 0 1-1-1V9Z"/><path d="M31.707 23.293a1 1 0 0 1 0 1.414l-9 9a1 1 0 0 1-1.414 0l-5-5a1 1 0 0 1 1.414-1.414L22 31.586l8.293-8.293a1 1 0 0 1 1.414 0Z"/></svg>