<svg width="48" height="48" viewBox="0 0 48 48" xmlns="http://www.w3.org/2000/svg" class="icon icon-tool-lg" aria-hidden="true" focusable="false" fill="currentColor"><path fill-rule="evenodd" clip-rule="evenodd" d="M37.258 29.1a1 1 0 0 1 1.412-.073l3.99 3.6c2.907 2.628 3.143 7.117.517 10.028-.09.102-.178.19-.243.256l-.007.006c-2.771 2.771-7.263 2.77-10.043.002l-.001-.002a5.103 5.103 0 0 1-.125-.13l-.004-.005a3.7 3.7 0 0 0-.116-.122l-5.41-5.99a1 1 0 0 1 1.484-1.34l5.395 5.973c.04.04.077.08.105.11l.004.005.08.084a5.108 5.108 0 0 0 7.381-.17l.011-.013a5.104 5.104 0 0 0-.369-7.207l-3.989-3.6a1 1 0 0 1-.072-1.412ZM8.293 2.293a1 1 0 0 1 1.414 0l6 6A1 1 0 0 1 16 9v2.046l6.937 6.937a1 1 0 0 1-1.414 1.414l-7.23-7.23A1 1 0 0 1 14 11.46V9.414l-5-5L4.414 9l5 5h2.046a1 1 0 0 1 .707.293l7.05 7.05a1 1 0 0 1-1.414 1.414L11.046 16H9a1 1 0 0 1-.707-.293l-6-6a1 1 0 0 1 0-1.414l6-6Z"/><path fill-rule="evenodd" clip-rule="evenodd" d="M33.445 2.032a12.82 12.82 0 0 1 4.446.498 1 1 0 0 1 .426 1.667L33.284 9.23l5.486 5.486 5.033-5.033a1 1 0 0 1 .707-.293h.01a1 1 0 0 1 .96.719 12.85 12.85 0 0 1 .498 4.446l-.002.018a11.816 11.816 0 0 1-10.793 10.793l-.018.002a12.801 12.801 0 0 1-3.833-.334L13.593 44.647c-.064.079-.128.142-.151.165l-.005.005a4.03 4.03 0 0 1-5.694 0l-4.57-4.58c-.02-.02-.04-.04-.057-.062a1.803 1.803 0 0 1-.1-.108 4.022 4.022 0 0 1 .314-5.66L22.964 16.68a12.663 12.663 0 0 1-.332-3.835l.002-.018A11.816 11.816 0 0 1 33.427 2.033h.018Zm.139 1.995a9.816 9.816 0 0 0-8.957 8.957 10.613 10.613 0 0 0 .42 3.738 1 1 0 0 1-.287 1.03L4.67 35.892a2.022 2.022 0 0 0-.082 2.928l.032.036 4.537 4.547c.79.79 2.076.79 2.866 0l.018-.018.004-.004.043-.052 18.17-20.09a1 1 0 0 1 1.023-.289c1.218.358 2.488.504 3.745.423a9.816 9.816 0 0 0 8.957-8.957 10.69 10.69 0 0 0-.063-2.021l-4.443 4.442a1 1 0 0 1-1.414 0l-6.9-6.9a1 1 0 0 1 0-1.414l4.434-4.434a10.703 10.703 0 0 0-2.013-.062Z"/></svg>