<svg width="48" height="48" viewBox="0 0 48 48" xmlns="http://www.w3.org/2000/svg" class="icon icon-touch-lg" aria-hidden="true" focusable="false" fill="currentColor"><path fill-rule="evenodd" clip-rule="evenodd" d="M17 25a1 1 0 0 1 1 1v6a1 1 0 1 1-2 0v-6a1 1 0 0 1 1-1Z"/><path fill-rule="evenodd" clip-rule="evenodd" d="M16 13a4 4 0 0 1 8 0v8.18l10.31 2.062a5 5 0 0 1 3.93 5.839l-3.258 17.106A1 1 0 0 1 34 47H16a1 1 0 0 1-1-1c0-1.563-.99-2.918-2.282-4.541l-.122-.153c-.576-.723-1.198-1.502-1.676-2.312C10.402 38.115 10 37.12 10 36v-8a3 3 0 0 1 3-3h3V13Zm4-2a2 2 0 0 0-2 2v13a1 1 0 0 1-1 1h-4a1 1 0 0 0-1 1v8c0 .63.223 1.267.642 1.977.405.685.943 1.36 1.545 2.117l.095.12.003.003c1.033 1.297 2.285 2.87 2.626 4.783h16.261l3.104-16.294a3 3 0 0 0-2.359-3.503l-11.113-2.222A1 1 0 0 1 22 22v-9a2 2 0 0 0-2-2Zm0-10a1 1 0 0 1 1 1v3a1 1 0 1 1-2 0V2a1 1 0 0 1 1-1Zm8.485 3.515a1 1 0 0 1 0 1.414L26.364 8.05a1 1 0 0 1-1.414-1.414l2.121-2.121a1 1 0 0 1 1.414 0ZM27 13a1 1 0 0 1 1-1h3a1 1 0 1 1 0 2h-3a1 1 0 0 1-1-1ZM11.515 4.515a1 1 0 0 1 1.414 0l2.121 2.121a1 1 0 0 1-1.414 1.414l-2.121-2.12a1 1 0 0 1 0-1.414ZM8 13a1 1 0 0 1 1-1h3a1 1 0 1 1 0 2H9a1 1 0 0 1-1-1Z"/></svg>