<svg width="48" height="48" viewBox="0 0 48 48" xmlns="http://www.w3.org/2000/svg" class="icon icon-train-lg" aria-hidden="true" focusable="false" fill="currentColor"><path fill-rule="evenodd" clip-rule="evenodd" d="M13 7a1 1 0 0 0-.986 1.164l2 12A1 1 0 0 0 15 21h18a1 1 0 0 0 .986-.836l2-12A1 1 0 0 0 35 7H13Zm2.847 12L14.181 9h19.638l-1.666 10H15.847ZM12 27.5a3.5 3.5 0 1 1 7 0 3.5 3.5 0 0 1-7 0Zm3.5-1.5a1.5 1.5 0 1 0 0 3 1.5 1.5 0 0 0 0-3Zm17-2a3.5 3.5 0 1 0 0 7 3.5 3.5 0 0 0 0-7ZM31 27.5a1.5 1.5 0 1 1 3 0 1.5 1.5 0 0 1-3 0Z"/><path fill-rule="evenodd" clip-rule="evenodd" d="M11 36h.447l-4.358 9.586a1 1 0 1 0 1.821.828L10.916 42h26.168l2.006 4.414a1 1 0 1 0 1.82-.828L36.554 36H37a5 5 0 0 0 5-5V6a5 5 0 0 0-5-5H11a5 5 0 0 0-5 5v25a5 5 0 0 0 5 5Zm0-33a3 3 0 0 0-3 3v25a3 3 0 0 0 3 3h26a3 3 0 0 0 3-3V6a3 3 0 0 0-3-3H11Zm.826 37 1.818-4h20.712l1.818 4H11.826Z"/><path d="M2 11a1 1 0 0 1 1 1v6a1 1 0 1 1-2 0v-6a1 1 0 0 1 1-1Zm45 1a1 1 0 1 0-2 0v6a1 1 0 1 0 2 0v-6Z"/></svg>