<svg width="48" height="48" viewBox="0 0 48 48" xmlns="http://www.w3.org/2000/svg" class="icon icon-translation-lg" aria-hidden="true" focusable="false" fill="currentColor"><path fill-rule="evenodd" clip-rule="evenodd" d="M2.172 3.172A4 4 0 0 1 5 2h18a4 4 0 0 1 4 4v7a1 1 0 1 1-2 0V6a2 2 0 0 0-2-2H5a2 2 0 0 0-2 2v16a2 2 0 0 0 2 2h2a1 1 0 0 1 1 1v1.92l3.375-2.7A1 1 0 0 1 12 24h4a1 1 0 1 1 0 2h-3.65l-4.725 3.78A1 1 0 0 1 6 29v-3H5a4 4 0 0 1-4-4V6a4 4 0 0 1 1.172-2.828Z"/><path fill-rule="evenodd" clip-rule="evenodd" d="M22.172 19.172A4 4 0 0 1 25 18h18a4 4 0 0 1 4 4v16a4 4 0 0 1-4 4h-1v3a1 1 0 0 1-1.625.78L35.65 42H25a4 4 0 0 1-4-4V22a4 4 0 0 1 1.172-2.828ZM25 20a2 2 0 0 0-2 2v16a2 2 0 0 0 2 2h11a1 1 0 0 1 .625.22L40 42.92V41a1 1 0 0 1 1-1h2a2 2 0 0 0 2-2V22a2 2 0 0 0-2-2H25Z"/><path d="m37.038 36-.864-2.838h-4.347L30.963 36h-2.724l4.208-11.971h3.09L39.762 36h-2.724Zm-1.468-4.958c-.8-2.571-1.25-4.025-1.349-4.362a18.53 18.53 0 0 1-.221-.8c-.179.697-.692 2.418-1.541 5.162h3.111ZM18.332 11.058a11.16 11.16 0 0 1-1.009 2.742c-.439.834-.98 1.61-1.61 2.311A12.722 12.722 0 0 0 20.8 18.1a7.392 7.392 0 0 0-1.234 2.213 15.98 15.98 0 0 1-5.466-2.728 16.552 16.552 0 0 1-5.618 2.746 7.282 7.282 0 0 0-1.175-2.1 14.3 14.3 0 0 0 5.2-2.115 12.552 12.552 0 0 1-1.765-2.451 12.012 12.012 0 0 1-1.079-2.605h-.28c-.672 0-1.3.028-1.862.084V8.971c.637.074 1.278.107 1.919.1h3.333v-.9a5.1 5.1 0 0 0-.083-.952h2.42c-.058.31-.086.623-.084.938v.911h3.544a15.42 15.42 0 0 0 1.933-.1v2.171a17.892 17.892 0 0 0-1.849-.084l-.322.003Zm-6.4 0c.216.744.531 1.456.938 2.115a8.38 8.38 0 0 0 1.177 1.569 7.69 7.69 0 0 0 1.106-1.555 7.981 7.981 0 0 0 .841-2.129h-4.062Z"/></svg>