<svg width="48" height="48" viewBox="0 0 48 48" xmlns="http://www.w3.org/2000/svg" class="icon icon-trash-lg" aria-hidden="true" focusable="false" fill="currentColor"><path d="M33.26 47H14.74c-2.62 0-4.81-2.05-4.99-4.67L8 16.06A.99.99 0 0 1 8.93 15a.984.984 0 0 1 1.06.93l1.75 26.27c.1 1.57 1.42 2.8 2.99 2.8h18.53c1.57 0 2.89-1.23 2.99-2.8L38 15.93c.04-.55.51-.98 1.06-.93.55.04.97.51.93 1.06l-1.75 26.27c-.17 2.62-2.37 4.67-4.99 4.67h.01ZM44 11H4c-.55 0-1-.45-1-1s.45-1 1-1h40c.55 0 1 .45 1 1s-.45 1-1 1Z"/><path d="M31 11c-.55 0-1-.45-1-1V3H18v7c0 .55-.45 1-1 1s-1-.45-1-1V2c0-.55.45-1 1-1h14c.55 0 1 .45 1 1v8c0 .55-.45 1-1 1Z"/></svg>