<svg width="48" height="48" viewBox="0 0 48 48" xmlns="http://www.w3.org/2000/svg" class="icon icon-trend-lg" aria-hidden="true" focusable="false" fill="currentColor"><path fill-rule="evenodd" clip-rule="evenodd" d="M46.707 13.293a1 1 0 0 1 0 1.414l-20 20a1 1 0 0 1-1.414 0L14 23.414 2.707 34.706a1 1 0 0 1-1.414-1.414l12-12a1 1 0 0 1 1.414 0L26 32.587l19.293-19.293a1 1 0 0 1 1.414 0Z"/><path fill-rule="evenodd" clip-rule="evenodd" d="M30 14a1 1 0 0 1 1-1h15a1 1 0 0 1 1 1v14.999a1 1 0 1 1-2 0V15H31a1 1 0 0 1-1-1Z"/></svg>