<svg width="48" height="48" viewBox="0 0 48 48" xmlns="http://www.w3.org/2000/svg" class="icon icon-truck-lg" aria-hidden="true" focusable="false" fill="currentColor"><path d="M35 18a1 1 0 1 0-2 0v6a1 1 0 0 0 1 1h6a1 1 0 1 0 0-2h-5v-5Z"/><path fill-rule="evenodd" clip-rule="evenodd" d="M1 5a1 1 0 0 1 1-1h27a1 1 0 0 1 1 1v7h10a1 1 0 0 1 .878.521l6 11A1 1 0 0 1 47 24v13.999a1 1 0 0 1-1 1h-4.083A6.002 6.002 0 0 1 30.083 39H17.917a6.002 6.002 0 0 1-11.834 0H2a1 1 0 0 1-1-1V5Zm29.083 32H17.917a6.002 6.002 0 0 0-11.834 0H3V6h25v22a1 1 0 1 0 2 0V14h9.406L45 24.255v12.744h-3.083A6.002 6.002 0 0 0 30.083 37ZM12 34a4 4 0 1 0 0 8 4 4 0 0 0 0-8Zm20 4a4 4 0 1 0 8 0 4 4 0 0 0-8 0Z"/></svg>