<svg width="48" height="48" viewBox="0 0 48 48" xmlns="http://www.w3.org/2000/svg" class="icon icon-twitter-lg" aria-hidden="true" focusable="false" fill="currentColor"><path fill-rule="evenodd" clip-rule="evenodd" d="M48 9.5c-1.8.8-3.7 1.3-5.7 1.6 2-1.2 3.6-3.1 4.3-5.4-1.9 1.1-4 1.9-6.3 2.4C38.5 6.2 35.9 5 33.1 5c-5.4 0-9.8 4.4-9.8 9.8 0 .8.1 1.5.3 2.2-8.1-.4-15.4-4.3-20.3-10.3C2.5 8.2 2 9.8 2 11.6 2 15 3.7 18 6.4 19.8c-1.6-.1-3.1-.5-4.5-1.2v.1c0 4.8 3.4 8.8 7.9 9.7-.8.2-1.7.3-2.6.3-.6 0-1.3-.1-1.9-.2 1.3 3.9 4.9 6.8 9.2 6.8-3.4 2.6-7.6 4.2-12.2 4.2-.8 0-1.6 0-2.3-.1 4.4 2.8 9.5 4.4 15.1 4.4 18.1 0 28-15 28-28v-1.3c1.9-1.3 3.6-3 4.9-5Z"/></svg>