<svg width="48" height="48" viewBox="0 0 48 48" xmlns="http://www.w3.org/2000/svg" class="icon icon-unlink-lg" aria-hidden="true" focusable="false" fill="currentColor"><path fill-rule="evenodd" clip-rule="evenodd" d="M3.293 3.293a1 1 0 0 1 1.414 0l40 40a1 1 0 0 1-1.414 1.414l-40-40a1 1 0 0 1 0-1.414Zm12.692 19.693a1 1 0 0 1-.812 1.159 7.441 7.441 0 0 0-3.98 2.076l-5.001 5.001a7.484 7.484 0 1 0 10.586 10.586l5-5 .001-.001a7.441 7.441 0 0 0 2.076-3.98 1 1 0 1 1 1.97.346 9.44 9.44 0 0 1-2.633 5.05h-.001l-4.999 5A9.485 9.485 0 1 1 4.778 29.807l4.999-4.999a9.442 9.442 0 0 1 5.05-2.634 1 1 0 0 1 1.158.811Zm16.9-20.264a9.485 9.485 0 0 1 10.337 15.47l-4.999 4.999v.001a9.441 9.441 0 0 1-5.05 2.633 1 1 0 1 1-.347-1.97 7.442 7.442 0 0 0 3.98-2.076l.002-.001 5-5A7.485 7.485 0 1 0 31.222 6.192l-5.001 5.001a7.44 7.44 0 0 0-2.076 3.98 1 1 0 0 1-1.97-.347 9.44 9.44 0 0 1 2.633-5.049h.001l4.999-5a9.485 9.485 0 0 1 3.077-2.055Z"/><path fill-rule="evenodd" clip-rule="evenodd" d="M20.707 27.293a1 1 0 0 1 0 1.414l-4 4a1 1 0 0 1-1.414-1.414l4-4a1 1 0 0 1 1.414 0Zm12-12a1 1 0 0 1 0 1.414l-4 4a1 1 0 0 1-1.414-1.414l4-4a1 1 0 0 1 1.414 0Z"/><path d="M30.475 38.024c-.56 0-1.015.454-1.015 1.015v5.373l.013.14.004.02a1.015 1.015 0 0 0 2.014-.181v-5.374l-.013-.139-.004-.021a1.015 1.015 0 0 0-.999-.833ZM44.39 29.46h-5.373l-.14.013-.02.004a1.015 1.015 0 0 0 .181 2.014h5.374l.14-.012.02-.004a1.015 1.015 0 0 0-.181-2.014ZM17.631 2.701c-.56 0-1.015.455-1.015 1.015V9.09l.012.139.004.021a1.016 1.016 0 0 0 2.014-.182V3.695l-.012-.14-.004-.02a1.015 1.015 0 0 0-.999-.834ZM9.068 16.616H3.694l-.139.012-.021.004a1.015 1.015 0 0 0 .182 2.014h5.373l.14-.012.02-.004a1.015 1.015 0 0 0-.181-2.014Z"/></svg>