<svg width="48" height="48" viewBox="0 0 48 48" xmlns="http://www.w3.org/2000/svg" class="icon icon-upload-lg" aria-hidden="true" focusable="false" fill="currentColor"><path fill-rule="evenodd" clip-rule="evenodd" d="M24 3a1 1 0 0 1 1 1v29a1 1 0 1 1-2 0V4a1 1 0 0 1 1-1Z"/><path fill-rule="evenodd" clip-rule="evenodd" d="M23.293 3.293a1 1 0 0 1 1.414 0l10 10a1 1 0 0 1-1.414 1.414L24 5.414l-9.293 9.293a1 1 0 0 1-1.414-1.414l10-10ZM4 31a1 1 0 0 1 1 1v8a3 3 0 0 0 3 3h32a3 3 0 0 0 3-3v-8a1 1 0 1 1 2 0v8a5 5 0 0 1-5 5H8a5 5 0 0 1-5-5v-8a1 1 0 0 1 1-1Z"/></svg>