<svg width="48" height="48" viewBox="0 0 48 48" xmlns="http://www.w3.org/2000/svg" class="icon icon-user-add-lg" aria-hidden="true" focusable="false" fill="currentColor"><path fill-rule="evenodd" clip-rule="evenodd" d="M11 12c0-6.075 4.925-11 11-11s11 4.925 11 11v2c0 3.01-1.21 6.223-3.142 8.688C27.93 25.148 25.168 27 22 27c-3.168 0-5.93-1.851-7.858-4.312C12.21 20.223 11 17.01 11 14v-2Zm11-9a9 9 0 0 0-9 9v2c0 2.513 1.028 5.3 2.716 7.454C17.407 23.613 19.645 25 22 25s4.593-1.387 6.284-3.546C29.972 19.3 31 16.513 31 14v-2a9 9 0 0 0-9-9Z"/><path d="M37 33a1 1 0 0 1 1 1v2h2a1 1 0 1 1 0 2h-2v2a1 1 0 1 1-2 0v-2h-2a1 1 0 1 1 0-2h2v-2a1 1 0 0 1 1-1Z"/><path fill-rule="evenodd" clip-rule="evenodd" d="M6.722 32.185C10.311 31.118 15.597 30 22 30c2.677 0 5.156.196 7.4.502A9.978 9.978 0 0 1 37 27c5.523 0 10 4.477 10 10s-4.477 10-10 10-10-4.477-10-10c0-1.675.412-3.255 1.14-4.642A52.894 52.894 0 0 0 22 32c-6.173 0-11.264 1.078-14.708 2.102A5.998 5.998 0 0 0 3 39.856V43h21a1 1 0 1 1 0 2H2a1 1 0 0 1-1-1v-4.144a7.998 7.998 0 0 1 5.722-7.67ZM29 37a8 8 0 1 1 16 0 8 8 0 0 1-16 0Z"/></svg>