<svg width="48" height="48" viewBox="0 0 48 48" xmlns="http://www.w3.org/2000/svg" class="icon icon-user-check-lg" aria-hidden="true" focusable="false" fill="currentColor"><path fill-rule="evenodd" clip-rule="evenodd" d="M22 1c-6.075 0-11 4.925-11 11v2c0 3.01 1.21 6.223 3.142 8.688C16.07 25.148 18.832 27 22 27c3.168 0 5.93-1.851 7.858-4.312C31.79 20.223 33 17.01 33 14v-2c0-6.075-4.925-11-11-11Zm-9 11a9 9 0 0 1 9-9 9 9 0 0 1 9 9v2c0 2.513-1.028 5.3-2.716 7.454C26.593 23.613 24.355 25 22 25s-4.593-1.387-6.284-3.546C14.028 19.3 13 16.513 13 14v-2Z"/><path d="M40.707 34.293a1 1 0 0 1 0 1.414l-4 4a1 1 0 0 1-1.414 0l-2-2a1 1 0 0 1 1.414-1.414L36 37.586l3.293-3.293a1 1 0 0 1 1.414 0Z"/><path fill-rule="evenodd" clip-rule="evenodd" d="M22 30c-6.403 0-11.69 1.118-15.278 2.185A7.998 7.998 0 0 0 1 39.856V44a1 1 0 0 0 1 1h21a1 1 0 1 0 0-2H3v-3.144a5.998 5.998 0 0 1 4.292-5.754C10.735 33.078 15.827 32 22 32c2.191 0 4.247.136 6.14.357A9.957 9.957 0 0 0 27 37c0 5.523 4.477 10 10 10s10-4.477 10-10-4.477-10-10-10a9.978 9.978 0 0 0-7.6 3.5A54.945 54.945 0 0 0 22 30Zm8.61 2.186.02-.026a8 8 0 1 1-.02.026Z"/></svg>