<svg width="48" height="48" viewBox="0 0 48 48" xmlns="http://www.w3.org/2000/svg" class="icon icon-user-lg" aria-hidden="true" focusable="false" fill="currentColor"><path fill-rule="evenodd" clip-rule="evenodd" d="M24 2c-6.075 0-11 4.925-11 11v2c0 3.01 1.21 6.223 3.142 8.688C18.07 26.148 20.832 28 24 28c3.168 0 5.93-1.851 7.858-4.312C33.79 21.223 35 18.01 35 15v-2c0-6.075-4.925-11-11-11Zm-9 11a9 9 0 0 1 9-9 9 9 0 0 1 9 9v2c0 2.513-1.028 5.3-2.716 7.454C28.593 24.613 26.355 26 24 26s-4.593-1.387-6.284-3.546C16.028 20.3 15 17.513 15 15v-2ZM8.722 33.185C12.311 32.118 17.597 31 24 31c6.403 0 11.69 1.118 15.278 2.185A7.998 7.998 0 0 1 45 40.856V45a1 1 0 0 1-1 1H4a1 1 0 0 1-1-1v-4.144a7.998 7.998 0 0 1 5.722-7.67Zm18.222-.102a52.835 52.835 0 0 0-5.923 0 51.528 51.528 0 0 0-11.729 2.02A5.998 5.998 0 0 0 5 40.855V44h38v-3.144a5.998 5.998 0 0 0-4.292-5.754 51.53 51.53 0 0 0-11.764-2.02Z"/></svg>