<svg width="48" height="48" viewBox="0 0 48 48" xmlns="http://www.w3.org/2000/svg" class="icon icon-user-full-lg" aria-hidden="true" focusable="false" fill="currentColor"><path d="M24 2c-6.075 0-11 4.925-11 11v2c0 3.01 1.21 6.223 3.142 8.688C18.07 26.148 20.832 28 24 28c3.168 0 5.93-1.851 7.858-4.312C33.79 21.223 35 18.01 35 15v-2c0-6.075-4.925-11-11-11ZM8.722 33.185C12.311 32.118 17.597 31 24 31c6.403 0 11.69 1.118 15.278 2.185A7.998 7.998 0 0 1 45 40.856V45a1 1 0 0 1-1 1H4a1 1 0 0 1-1-1v-4.144a7.998 7.998 0 0 1 5.722-7.67Z"/></svg>