<svg width="48" height="48" viewBox="0 0 48 48" xmlns="http://www.w3.org/2000/svg" class="icon icon-user-pin-lg" aria-hidden="true" focusable="false" fill="currentColor"><path d="M24 46c-.26 0-.51-.1-.71-.29C22.63 45.04 7 29.28 7 18c-.04-4.49 1.67-8.74 4.83-11.95C14.98 2.83 19.2 1.04 23.7 1h.47C33.37 1 40.92 8.46 41 17.7v.3c0 11.28-15.63 27.04-16.29 27.71-.2.2-.45.29-.71.29Zm-.28-43C15.53 3.08 8.93 9.8 9 17.99c0 9.18 11.94 22.35 15 25.57 3.06-3.23 15-16.4 15-25.56v-.28C38.92 9.58 32.28 3 24.15 3h-.43Z"/><path d="M32 27H16c-.55 0-1-.45-1-1v-2.13a4.01 4.01 0 0 1 2.56-3.73c4.16-1.51 8.72-1.51 12.85 0 1.55.59 2.59 2.09 2.59 3.74v2.11c0 .55-.45 1-1 1V27Zm-15-2h14v-1.11c0-.83-.52-1.58-1.29-1.87a16.692 16.692 0 0 0-11.45 0c-.75.29-1.26 1.04-1.26 1.86v1.13V25Zm7-7c-2.82 0-5-3.18-5-5.91s2.24-5 5-5 5 2.24 5 5S26.82 18 24 18Zm0-8.91c-1.65 0-3 1.35-3 3S22.41 16 24 16s3-2.19 3-3.91c0-1.72-1.35-3-3-3Z"/></svg>