<svg width="48" height="48" viewBox="0 0 48 48" xmlns="http://www.w3.org/2000/svg" class="icon icon-viadeo-lg" aria-hidden="true" focusable="false" fill="currentColor"><path d="M36.155 23.982s.1.1.1.2c.502 1.104.803 2.309.502 3.312.2 1.405.3 2.81.2 4.214-.2 3.512-1.304 6.623-3.411 9.433-1.104 1.404-2.308 2.709-3.713 3.712-1.806 1.405-3.813 2.208-6.02 2.71-1.606.4-3.211.501-4.917.4-1.806-.1-3.512-.5-5.218-1.103a15.003 15.003 0 0 1-4.817-3.01c-2.006-1.806-3.512-3.813-4.515-6.221a18.411 18.411 0 0 1-1.204-4.616c-.1-1.104-.2-2.308-.1-3.412.3-4.014 1.605-7.526 4.214-10.536 1.204-1.405 2.509-2.509 4.014-3.512 1.605-1.003 3.411-1.605 5.218-2.007a18.658 18.658 0 0 1 4.716-.3c1.505.1 2.91.3 4.314.802.147 0 .24.054.358.122.044.025.09.052.144.079-.301.602-.602 1.204-.803 1.906-.2.703-.3 1.405-.401 2.107-.05 0-.1-.025-.15-.05a.355.355 0 0 0-.151-.05c-1.003-.401-2.107-.602-3.211-.702-.903-.1-1.706-.1-2.609 0s-1.907.401-2.81.702c-1.404.602-2.709 1.405-3.813 2.408-1.404 1.305-2.608 2.81-3.411 4.616-.502 1.204-.803 2.509-1.004 3.813-.1 1.004-.1 2.107 0 3.211.201 1.907.703 3.612 1.606 5.218.803 1.505 1.806 2.81 3.21 3.913 1.606 1.204 3.312 2.007 5.319 2.408.2.1.301.1.502 0 1.404-.602 2.709-1.404 3.813-2.508 1.204-1.104 2.207-2.509 3.01-4.014a26.683 26.683 0 0 0 2.107-5.318c.401-1.505.703-3.01 1.004-4.515.2-1.204.401-2.409.501-3.613a53.7 53.7 0 0 0 .301-8.027c-.1-.502-.1-1.004-.1-1.505-.1-.201-.1-.301-.1-.402l-.1-.2a55.27 55.27 0 0 1-.553-1.455 48.24 48.24 0 0 0-.552-1.455c-1.404-3.512-3.11-6.924-5.017-10.235 0-.1-.1-.301-.2-.402V0l.3.301c1.105.903 2.008 2.007 2.81 3.211 1.104 1.706 1.907 3.612 2.509 5.62.502 1.504.702 3.01.903 4.515v.2s.1.1.1.402c0 .05.025.1.05.15.026.05.05.1.05.15a27.324 27.324 0 0 1 1.506 5.42c.3 1.605.401 3.31.401 4.916 0 3.412-.803 6.623-2.308 9.633-1.806 3.612-4.415 6.623-7.626 9.131-.2.2-.3.301-.502.401v.1h.904c3.11-.3 5.72-1.504 7.927-3.712 1.505-1.505 2.508-3.412 3.11-5.418.402-1.405.602-2.81.602-4.215 0-1.706-.3-3.311-.903-4.917-.1-.1-.1-.1-.1-.2v-.1c.502-.101 1.003-.201 1.405-.402a6.92 6.92 0 0 0 1.304-.502c.2-.1.427-.226.652-.35.226-.126.452-.252.653-.352Z"/><path d="M42.777 1.605c.703 1.204 1.204 2.509 1.606 3.813.501 1.706.702 3.412.501 5.62-.1 1.304-.401 2.709-.802 4.013l-.903 1.806a10.047 10.047 0 0 1-2.108 2.61c-.903.802-1.906 1.304-3.11 1.504a5.69 5.69 0 0 1-2.91-.2 7.226 7.226 0 0 1-2.71-1.506l-.602-.602c.067-.133.134-.178.201-.223a.533.533 0 0 0 .1-.078 35.333 35.333 0 0 0 4.516-3.01 23.599 23.599 0 0 0 3.311-3.01 8.037 8.037 0 0 0 1.505-2.107 4.93 4.93 0 0 0 .402-1.104V8.83c-2.509 4.415-6.121 7.225-11.038 8.429 0-.05-.025-.076-.05-.1-.025-.026-.05-.05-.05-.101-.602-1.104-.903-2.308-1.004-3.512-.1-1.605.402-2.91 1.305-4.114.502-.702 1.104-1.204 1.806-1.606 1.104-.501 2.207-1.003 3.311-1.304.05 0 .126-.025.2-.05.076-.025.151-.05.202-.05 1.605-.402 2.91-1.204 4.013-2.308.703-.803 1.305-1.606 1.806-2.509 0-.147.054-.24.122-.358.025-.043.052-.09.08-.143.05.1.1.175.15.25.05.076.1.15.15.251Z"/></svg>