<svg width="48" height="48" viewBox="0 0 48 48" xmlns="http://www.w3.org/2000/svg" class="icon icon-walk-lg" aria-hidden="true" focusable="false" fill="currentColor"><path fill-rule="evenodd" clip-rule="evenodd" d="M25.792 12.996a6 6 0 1 0-1.96-.4l-7.806 33.175a1 1 0 0 0 1.947.458l6.433-27.34 5.96 4.885a1 1 0 0 0 1.005.155l5-2a1 1 0 1 0-.743-1.857l-4.451 1.78-6.261-5.13.876-3.726ZM26 3a4 4 0 1 0 0 8 4 4 0 0 0 0-8Z"/><path d="M18.894 17.553a1 1 0 0 1-.447 1.342l-3.66 1.83-1.859 4.647a1 1 0 0 1-1.857-.743l2-5a1 1 0 0 1 .482-.523l4-2a1 1 0 0 1 1.341.447Zm6.399 12.74a1 1 0 0 0 0 1.414L29 35.414V44a1 1 0 1 0 2 0v-9a1 1 0 0 0-.293-.707l-4-4a1 1 0 0 0-1.414 0Z"/></svg>