<svg width="48" height="48" viewBox="0 0 48 48" xmlns="http://www.w3.org/2000/svg" class="icon icon-warning-lg" aria-hidden="true" focusable="false" fill="currentColor"><path d="M24 15a1 1 0 0 1 1 1v14a1 1 0 1 1-2 0V16a1 1 0 0 1 1-1Zm0 19a2 2 0 1 0 0 4 2 2 0 0 0 0-4Z"/><path fill-rule="evenodd" clip-rule="evenodd" d="m2.481 39.038.002-.004L20.47 5.137l.002-.003a3.983 3.983 0 0 1 7.057 0l.002.003 17.986 33.897.002.004A4.046 4.046 0 0 1 42.005 45H5.995a4.046 4.046 0 0 1-3.514-5.962Zm21.52-34.04a1.983 1.983 0 0 0-1.758 1.065l-.003.006L4.247 39.978l-.884-.47.88.475A2.046 2.046 0 0 0 6.014 43h35.974a2.045 2.045 0 0 0 1.77-3.017l-.003-.005L25.758 6.063A1.983 1.983 0 0 0 24 4.998Z"/></svg>