<svg width="48" height="48" viewBox="0 0 48 48" xmlns="http://www.w3.org/2000/svg" class="icon icon-web-resume-lg" aria-hidden="true" focusable="false" fill="currentColor"><path d="M33.74 2.041A15 15 0 0 1 43 15.901a1 1 0 0 1-2 0A13 13 0 0 0 28 2.9a1 1 0 0 1 0-2 15 15 0 0 1 5.74 1.141Z"/><path d="M34.364 9.536A8.999 8.999 0 0 0 28 6.9a1 1 0 0 0 0 2 7 7 0 0 1 7 7 1 1 0 0 0 2 0 9 9 0 0 0-2.636-6.364ZM29 17a2 2 0 1 0 0-4 2 2 0 0 0 0 4Z"/><path d="M7 1h9a1 1 0 1 1 0 2H7v42h34V28a1 1 0 0 1 2 0v17a2 2 0 0 1-2 2H7a2 2 0 0 1-2-2V3a2 2 0 0 1 2-2Z"/><path fill-rule="evenodd" clip-rule="evenodd" d="M12 12a1 1 0 0 1 1-1h9a1 1 0 0 1 1 1v9a1 1 0 0 1-1 1h-9a1 1 0 0 1-1-1v-9Zm2 1v7h7v-7h-7Z"/><path d="M13 27a1 1 0 1 0 0 2h22a1 1 0 1 0 0-2H13Zm-1 9a1 1 0 0 1 1-1h22a1 1 0 1 1 0 2H13a1 1 0 0 1-1-1Z"/></svg>