<svg width="48" height="48" viewBox="0 0 48 48" xmlns="http://www.w3.org/2000/svg" class="icon icon-webcam-lg" aria-hidden="true" focusable="false" fill="currentColor"><path fill-rule="evenodd" clip-rule="evenodd" d="M37.01 31.017a1 1 0 0 1 1.372.343l6.204 10.339c1.327 2.212-.572 4.957-3.11 4.495L24 43.016 6.524 46.194c-2.537.46-4.437-2.282-3.11-4.495L9.619 31.36a1 1 0 0 1 1.714 1.028L5.13 42.727c-.443.737.19 1.653 1.037 1.5l17.654-3.21a1 1 0 0 1 .358 0l17.655 3.21c.846.153 1.48-.762 1.036-1.5L36.667 32.39a1 1 0 0 1 .343-1.373Z"/><path fill-rule="evenodd" clip-rule="evenodd" d="M24 3C14.611 3 7 10.611 7 20s7.611 17 17 17 17-7.611 17-17S33.389 3 24 3ZM5 20C5 9.507 13.507 1 24 1s19 8.507 19 19-8.507 19-19 19S5 30.493 5 20Z"/><path fill-rule="evenodd" clip-rule="evenodd" d="M24 13a9 9 0 1 0 0 18 9 9 0 0 0 0-18Zm-11 9c0-6.075 4.925-11 11-11s11 4.925 11 11-4.925 11-11 11-11-4.925-11-11Z"/><path d="M24 24a2 2 0 1 0 0-4 2 2 0 0 0 0 4Z"/></svg>