<svg width="48" height="48" viewBox="0 0 48 48" xmlns="http://www.w3.org/2000/svg" class="icon icon-world-lg" aria-hidden="true" focusable="false" fill="currentColor"><path fill-rule="evenodd" clip-rule="evenodd" d="M36.6 22.07c1.28.48 3.88 1.62 4.45 2.98l-.01.02c.74 1.75-.98 5.28-2.6 6.09a7.2 7.2 0 0 0-2.73 2.17 5.537 5.537 0 0 0-.132.348l-.138.372c-.49 1.32-1.16 3.12-2.61 3.69-.37.15-1.07.63-1.74 1.09-1.58 1.09-3.34 2.3-4.87 2.3-.23 0-.45-.03-.67-.09-.56-.16-1.32-.6-1.79-1.82-.71-1.85-.41-4.8.65-6.44.33-.51 0-2.1-.16-2.86l-.046-.233c-.06-.302-.11-.553-.134-.777-.123-.228-.633-.707-.975-1.029a39.044 39.044 0 0 0-.055-.051c-.9-.84-1.67-1.57-1.67-2.45 0-1.57 2.26-4.47 3.23-5.64.11-.13.26-.24.43-.3 1.13-.4 2.31-.63 3.51-.68.14 0 .26.02.38.06.75.27 1.47.61 2.15 1.02 1.33.12 2.64.41 3.89.85a.9.9 0 0 1 .34.2l1.3 1.18Zm-2.52 10.1a9.109 9.109 0 0 1 3.51-2.83l.02-.01c.78-.39 1.86-2.92 1.62-3.51-.21-.42-1.87-1.35-3.49-1.95-.12-.05-.24-.11-.33-.2l-1.29-1.17c-1.11-.37-2.26-.6-3.43-.69a.964.964 0 0 1-.46-.15c-.56-.36-1.17-.66-1.79-.9-.84.05-1.67.21-2.46.47-1.32 1.63-2.46 3.43-2.58 4.06.143.247.647.72.98 1.033l.05.047c.85.8 1.58 1.49 1.64 2.31.008.149.053.36.105.608l.045.212c.28 1.33.66 3.15-.12 4.35-.72 1.12-.94 3.37-.46 4.64.13.33.3.56.45.6.757.219 2.773-1.168 3.866-1.92l.014-.01c.83-.57 1.56-1.07 2.14-1.3.62-.24 1.17-1.72 1.46-2.52l.052-.137c.164-.435.295-.78.458-1.033Z"/><path fill-rule="evenodd" clip-rule="evenodd" d="M42.04 9.76c.04.03.09.11.09.11v-.01c3.05 3.9 4.87 8.81 4.87 14.13 0 12.68-10.32 23-23 23a22.87 22.87 0 0 1-15.1-5.67c-.01-.01-.02-.01-.03-.01-.027-.013-.044-.036-.062-.058l-.028-.032C4.01 37.01 1 30.85 1 24 1 11.95 10.31 2.05 22.11 1.08h.08c.6-.05 1.2-.08 1.81-.08 7.31 0 13.82 3.43 18.04 8.76Zm-2.367.313a33.68 33.68 0 0 1-4.363 1.297 1 1 0 0 0-.52.31c-.99 1.1-2.79 2.57-3.62 2.45-.98-.14-2.12-1.07-2.72-1.65.09-4.02-.64-4.27-1.13-4.43-.482-.167-.973-.035-1.483.103l-.027.007c-.39.11-.99.27-1.18.12-.21-.17-.24-1.1-.06-1.83a.995.995 0 0 0-.67-1.2c-.64-.2-1.35-.52-1.62-.73.07-.33.39-.99.54-1.29.01-.02.02-.04.028-.06.017-.035.032-.067.052-.1.125-.007.248-.016.372-.025.242-.017.483-.035.728-.035 6.226 0 11.824 2.747 15.673 7.063ZM11.29 7.32C6.26 11.16 3 17.2 3 24v.01c0 5.84 2.4 11.12 6.26 14.93l1.28-1.93c.13-.2.32-.34.55-.41.46-.13 1-.39 1.13-.52.46-.84-.31-2.79-.76-3.59a.84.84 0 0 1-.13-.44 8.15 8.15 0 0 0-.27-1.77c-.14-.16-.85-.62-1.5-.94-.17-.09-.31-.22-.41-.38-.19-.31-1.84-3.04-1.84-4.96-.08-1.85 1.36-3.47 3.23-3.62.83-.19 1.54-.72 1.97-1.45.14-.23.36-.39.61-.46.88-.24 1.85-.71 2.01-.97.1-.34-.19-1.87-.64-3.18-.06-.17-.07-.37-.03-.55.15-.64.15-1.31 0-1.94-.27-.56-.69-1.05-1.2-1.41-.16-.12-.28-.27-.35-.45-.39-.97-.94-1.86-1.62-2.65Zm-.53 32.96C14.38 43.23 18.98 45 24 45l-.02-.01c11.58 0 21-9.42 21-21 0-4.59-1.5-8.83-4.01-12.29-1.61.63-3.26 1.15-4.94 1.55-.78.82-2.92 2.88-4.82 2.88-.11 0-.23 0-.34-.02-2.09-.29-3.99-2.34-4.2-2.57-.18-.2-.26-.45-.26-.71.03-1.03 0-2.12-.08-2.75h-.02c-.73.2-1.97.54-2.96-.25-.93-.75-.99-2.07-.9-2.98-.92-.37-1.83-.91-2.1-1.64-.22-.59-.06-1.25.21-1.91-2.77.46-5.35 1.45-7.64 2.88.71.84 1.28 1.77 1.72 2.79.71.56 1.28 1.28 1.66 2.11l.03.085.03.085c.23.88.26 1.81.09 2.7.45 1.36.99 3.52.4 4.55-.56.97-2.05 1.55-2.86 1.8a5.146 5.146 0 0 1-3.12 2.06c-.05.02-.1.02-.15.02-.82.04-1.47.75-1.43 1.58 0 .99.81 2.7 1.4 3.72.79.41 1.91 1.11 2.22 1.87a.3.3 0 0 1 .04.1c.19.68.31 1.37.36 2.07.43.82 1.67 3.51.62 5.39-.37.67-1.3 1.09-1.92 1.3l-1.25 1.87Z"/></svg>